0
SECTION
2
HEADER
9
$INSUNITS
70
4
9
$ACADVER
1
AC1014
9
$HANDSEED
5
FFFF
0
ENDSEC
0
SECTION
2
TABLES
0
TABLE
2
VPORT
5
8
100
AcDbSymbolTable
0
ENDTAB
0
TABLE
2
LTYPE
5
5
100
AcDbSymbolTable
0
LTYPE
5
14
100
AcDbSymbolTableRecord
100
AcDbLinetypeTableRecord
2
BYBLOCK
70
0
0
LTYPE
5
15
100
AcDbSymbolTableRecord
100
AcDbLinetypeTableRecord
2
BYLAYER
70
0
0
ENDTAB
0
TABLE
2
LAYER
5
2
100
AcDbSymbolTable
70
2
0
LAYER
5
50
100
AcDbSymbolTableRecord
100
AcDbLayerTableRecord
2
0
70
0
6
CONTINUOUS
0
ENDTAB
0
TABLE
2
STYLE
5
3
100
AcDbSymbolTable
70
1
0
STYLE
5
11
100
AcDbSymbolTableRecord
100
AcDbTextStyleTableRecord
2
STANDARD
70
0
0
ENDTAB
0
TABLE
2
VIEW
5
6
100
AcDbSymbolTable
70
0
0
ENDTAB
0
TABLE
2
UCS
5
7
100
AcDbSymbolTable
70
0
0
ENDTAB
0
TABLE
2
APPID
5
9
100
AcDbSymbolTable
70
2
0
APPID
5
12
100
AcDbSymbolTableRecord
100
AcDbRegAppTableRecord
2
ACAD
70
0
0
ENDTAB
0
TABLE
2
DIMSTYLE
5
A
100
AcDbSymbolTable
70
1
0
ENDTAB
0
TABLE
2
BLOCK_RECORD
5
1
100
AcDbSymbolTable
70
1
0
BLOCK_RECORD
5
1F
100
AcDbSymbolTableRecord
100
AcDbBlockTableRecord
2
*MODEL_SPACE
0
BLOCK_RECORD
5
1B
100
AcDbSymbolTableRecord
100
AcDbBlockTableRecord
2
*PAPER_SPACE
0
ENDTAB
0
ENDSEC
0
SECTION
2
BLOCKS
0
BLOCK
5
20
100
AcDbEntity
100
AcDbBlockBegin
2
*MODEL_SPACE
0
ENDBLK
5
21
100
AcDbEntity
100
AcDbBlockEnd
0
BLOCK
5
1C
100
AcDbEntity
100
AcDbBlockBegin
2
*PAPER_SPACE
0
ENDBLK
5
1D
100
AcDbEntity
100
AcDbBlockEnd
0
ENDSEC
0
SECTION
2
ENTITIES
0
LWPOLYLINE
5
100
100
AcDbEntity
8
0
100
AcDbPolyline
90
20
70
1
43
0.0
10
-15
20
39.499999999999993
42
0.41421356237309759
10
-16
20
40.5
10
-21.389999999999993
20
40.499999999999986
42
0.4142135623730937
10
-22.389999999999986
20
39.499999999999993
10
-22.390000000000001
20
12.349999999999952
42
-0.4142135623730957
10
-23.390000000000018
20
11.349999999999952
10
-23.999999999998924
20
11.349999999999964
42
0.41421356237292922
10
-24.999999999998941
20
10.350000000000549
10
-25.000000000000174
20
6.3500000000000325
42
0.41421356237310508
10
-24.000000000000171
20
5.3499999999999979
10
-15.999999999999764
20
5.3499999999999792
42
0.41421356237310414
10
-14.99999999999976
20
6.3500000000000085
10
-15.000000000000087
20
17.512499999999314
42
-0.41421356237309509
10
-14.750000000000087
20
17.762499999999314
10
13.999999999999996
20
17.762499999999314
42
0.4142135623730957
10
15
20
18.762499999999314
10
15
20
36.762500000000003
42
0.41421356237309509
10
14
20
37.762500000000003
10
-14.750000000000014
20
37.762499999999989
42
-0.41421356237308982
10
-15.000000000000016
20
38.012500000000003
0
CIRCLE
5
101
100
AcDbEntity
8
0
100
AcDbCircle
10
-6.0000000000000009
20
27.76250000000001
30
0
40
1.6000000000000003
210
0
220
0
230
1
0
CIRCLE
5
102
100
AcDbEntity
8
0
100
AcDbCircle
10
6.0000000000000036
20
27.762500000000006
30
0
40
1.6000000000000003
210
0
220
0
230
1
0
CIRCLE
5
103
100
AcDbEntity
8
0
100
AcDbCircle
10
-22.000000000000107
20
8.3499999999999996
30
0
40
1.375
210
0
220
0
230
1
0
CIRCLE
5
104
100
AcDbEntity
8
0
100
AcDbCircle
10
-18.195
20
37.500000000000007
30
0
40
1.6000000000000003
210
0
220
0
230
1
0
CIRCLE
5
105
100
AcDbEntity
8
0
100
AcDbCircle
10
-18.195000000003773
20
16.5
30
0
40
1.6000000000000003
210
0
220
0
230
1
0
LWPOLYLINE
5
106
100
AcDbEntity
8
0
100
AcDbPolyline
90
6
70
1
43
0.0
10
-17
20
21.25
10
-17
20
33
42
0.99999999999999989
10
-19.389999999999997
20
33
10
-19.390000000000001
20
21.25
42
0.41421356237309509
10
-19.140000000000001
20
21
10
-17.25
20
21
42
0.41421356237309509
0
ENDSEC
0
SECTION
2
OBJECTS
0
DICTIONARY
5
C
100
AcDbDictionary
3
ACAD_GROUP
350
D
3
ACAD_MLINESTYLE
350
17
0
DICTIONARY
5
D
100
AcDbDictionary
0
DICTIONARY
5
1A
330
C
100
AcDbDictionary
0
DICTIONARY
5
17
100
AcDbDictionary
0
ENDSEC
0
EOF
