0
SECTION
2
HEADER
9
$INSUNITS
70
4
9
$ACADVER
1
AC1014
9
$HANDSEED
5
FFFF
0
ENDSEC
0
SECTION
2
TABLES
0
TABLE
2
VPORT
5
8
100
AcDbSymbolTable
0
ENDTAB
0
TABLE
2
LTYPE
5
5
100
AcDbSymbolTable
0
LTYPE
5
14
100
AcDbSymbolTableRecord
100
AcDbLinetypeTableRecord
2
BYBLOCK
70
0
0
LTYPE
5
15
100
AcDbSymbolTableRecord
100
AcDbLinetypeTableRecord
2
BYLAYER
70
0
0
ENDTAB
0
TABLE
2
LAYER
5
2
100
AcDbSymbolTable
70
2
0
LAYER
5
50
100
AcDbSymbolTableRecord
100
AcDbLayerTableRecord
2
0
70
0
6
CONTINUOUS
0
ENDTAB
0
TABLE
2
STYLE
5
3
100
AcDbSymbolTable
70
1
0
STYLE
5
11
100
AcDbSymbolTableRecord
100
AcDbTextStyleTableRecord
2
STANDARD
70
0
0
ENDTAB
0
TABLE
2
VIEW
5
6
100
AcDbSymbolTable
70
0
0
ENDTAB
0
TABLE
2
UCS
5
7
100
AcDbSymbolTable
70
0
0
ENDTAB
0
TABLE
2
APPID
5
9
100
AcDbSymbolTable
70
2
0
APPID
5
12
100
AcDbSymbolTableRecord
100
AcDbRegAppTableRecord
2
ACAD
70
0
0
ENDTAB
0
TABLE
2
DIMSTYLE
5
A
100
AcDbSymbolTable
70
1
0
ENDTAB
0
TABLE
2
BLOCK_RECORD
5
1
100
AcDbSymbolTable
70
1
0
BLOCK_RECORD
5
1F
100
AcDbSymbolTableRecord
100
AcDbBlockTableRecord
2
*MODEL_SPACE
0
BLOCK_RECORD
5
1B
100
AcDbSymbolTableRecord
100
AcDbBlockTableRecord
2
*PAPER_SPACE
0
ENDTAB
0
ENDSEC
0
SECTION
2
BLOCKS
0
BLOCK
5
20
100
AcDbEntity
100
AcDbBlockBegin
2
*MODEL_SPACE
0
ENDBLK
5
21
100
AcDbEntity
100
AcDbBlockEnd
0
BLOCK
5
1C
100
AcDbEntity
100
AcDbBlockBegin
2
*PAPER_SPACE
0
ENDBLK
5
1D
100
AcDbEntity
100
AcDbBlockEnd
0
ENDSEC
0
SECTION
2
ENTITIES
0
CIRCLE
5
100
100
AcDbEntity
8
0
100
AcDbCircle
10
10.000000000000018
20
10.000000000000025
30
0
40
1.6000000000000003
210
0
220
0
230
1
0
CIRCLE
5
101
100
AcDbEntity
8
0
100
AcDbCircle
10
-10.00000000000002
20
-9.999999999999984
30
0
40
1.6000000000000003
210
0
220
0
230
1
0
CIRCLE
5
102
100
AcDbEntity
8
0
100
AcDbCircle
10
10.000000000000016
20
-9.999999999999984
30
0
40
1.6000000000000003
210
0
220
0
230
1
0
CIRCLE
5
103
100
AcDbEntity
8
0
100
AcDbCircle
10
-10.000000000000018
20
10.000000000000025
30
0
40
1.6000000000000003
210
0
220
0
230
1
0
LWPOLYLINE
5
104
100
AcDbEntity
8
0
100
AcDbPolyline
90
5
70
1
43
0.0
10
2.9999999999988542
20
-6.4999999999965983
42
0.41421356237293538
10
6.4999999999988578
20
-2.999999999996608
10
6.4999999999988614
20
-1.0000000000007148
10
1.0000000000009954
20
-0.99999999999741629
10
1.000000000000306
20
-6.4999999999966587
0
LWPOLYLINE
5
105
100
AcDbEntity
8
0
100
AcDbPolyline
90
5
70
1
43
0.0
10
-0.99999999999969402
20
-6.4999999999968727
10
-1.0000000000000566
20
-0.99999999999765388
10
-6.499999999997276
20
-1.0000000000011844
10
-6.4999999999964881
20
-2.999999999999905
42
0.41421356237270834
10
-2.9999999999982423
20
-6.4999999999967786
0
LWPOLYLINE
5
106
100
AcDbEntity
8
0
100
AcDbPolyline
90
7
70
1
43
0.0
10
-3.0000000000015192
20
2.999999999994023
10
-1.0000000000015801
20
2.9999999999925837
10
-1.0000000000010485
20
6.4999999999976019
10
-3.0000000000006022
20
6.4999999999975833
42
0.41421356237284268
10
-6.4999999999988507
20
2.9999999999979554
10
-6.4999999999996554
20
0.99999999999982769
10
-3.0000000000015001
20
0.9999999999941005
0
LWPOLYLINE
5
107
100
AcDbEntity
8
0
100
AcDbPolyline
90
5
70
1
43
0.0
10
1.0000000000003149
20
6.4999999999976215
10
1.0000000000010003
20
0.99999999999810574
10
6.499999999998872
20
0.99999999999775213
10
6.4999999999988791
20
2.9999999999976308
42
0.41421356237290441
10
2.9999999999988769
20
6.4999999999976392
0
LWPOLYLINE
5
108
100
AcDbEntity
8
0
100
AcDbPolyline
90
8
70
1
43
0.0
10
22.175000000000704
20
-15
10
-23.762999999999998
20
-15
42
-0.41421356237309243
10
-24.763000000000002
20
-13.999999999999995
10
-24.763000000000005
20
13.999999999999995
42
-0.41421356237309637
10
-23.763000000000005
20
15
10
22.175000000000704
20
14.999999999999998
42
-0.4142135623730957
10
23.175000000000701
20
14
10
23.175000000000701
20
-14
42
-0.41421356237308071
0
ENDSEC
0
SECTION
2
OBJECTS
0
DICTIONARY
5
C
100
AcDbDictionary
3
ACAD_GROUP
350
D
3
ACAD_MLINESTYLE
350
17
0
DICTIONARY
5
D
100
AcDbDictionary
0
DICTIONARY
5
1A
330
C
100
AcDbDictionary
0
DICTIONARY
5
17
100
AcDbDictionary
0
ENDSEC
0
EOF
