0
SECTION
2
HEADER
9
$INSUNITS
70
4
9
$ACADVER
1
AC1014
9
$HANDSEED
5
FFFF
0
ENDSEC
0
SECTION
2
TABLES
0
TABLE
2
VPORT
5
8
100
AcDbSymbolTable
0
ENDTAB
0
TABLE
2
LTYPE
5
5
100
AcDbSymbolTable
0
LTYPE
5
14
100
AcDbSymbolTableRecord
100
AcDbLinetypeTableRecord
2
BYBLOCK
70
0
0
LTYPE
5
15
100
AcDbSymbolTableRecord
100
AcDbLinetypeTableRecord
2
BYLAYER
70
0
0
ENDTAB
0
TABLE
2
LAYER
5
2
100
AcDbSymbolTable
70
2
0
LAYER
5
50
100
AcDbSymbolTableRecord
100
AcDbLayerTableRecord
2
0
70
0
6
CONTINUOUS
0
ENDTAB
0
TABLE
2
STYLE
5
3
100
AcDbSymbolTable
70
1
0
STYLE
5
11
100
AcDbSymbolTableRecord
100
AcDbTextStyleTableRecord
2
STANDARD
70
0
0
ENDTAB
0
TABLE
2
VIEW
5
6
100
AcDbSymbolTable
70
0
0
ENDTAB
0
TABLE
2
UCS
5
7
100
AcDbSymbolTable
70
0
0
ENDTAB
0
TABLE
2
APPID
5
9
100
AcDbSymbolTable
70
2
0
APPID
5
12
100
AcDbSymbolTableRecord
100
AcDbRegAppTableRecord
2
ACAD
70
0
0
ENDTAB
0
TABLE
2
DIMSTYLE
5
A
100
AcDbSymbolTable
70
1
0
ENDTAB
0
TABLE
2
BLOCK_RECORD
5
1
100
AcDbSymbolTable
70
1
0
BLOCK_RECORD
5
1F
100
AcDbSymbolTableRecord
100
AcDbBlockTableRecord
2
*MODEL_SPACE
0
BLOCK_RECORD
5
1B
100
AcDbSymbolTableRecord
100
AcDbBlockTableRecord
2
*PAPER_SPACE
0
ENDTAB
0
ENDSEC
0
SECTION
2
BLOCKS
0
BLOCK
5
20
100
AcDbEntity
100
AcDbBlockBegin
2
*MODEL_SPACE
0
ENDBLK
5
21
100
AcDbEntity
100
AcDbBlockEnd
0
BLOCK
5
1C
100
AcDbEntity
100
AcDbBlockBegin
2
*PAPER_SPACE
0
ENDBLK
5
1D
100
AcDbEntity
100
AcDbBlockEnd
0
ENDSEC
0
SECTION
2
ENTITIES
0
LINE
5
100
100
AcDbEntity
8
0
100
AcDbLine
10
-41.800000000000011
20
14.999999999999989
30
0
11
-41.800000000000004
21
7.0000000000000018
31
0
0
ARC
5
101
100
AcDbEntity
8
0
100
AcDbCircle
10
-38
20
6.9999999999999805
30
0
40
3.8000000000000078
210
0
220
0
230
1
100
AcDbArc
50
-180
51
0
0
LINE
5
102
100
AcDbEntity
8
0
100
AcDbLine
10
-34.20000000000001
20
7.0000000000000009
30
0
11
-34.200000000000017
21
15.000000000000016
31
0
0
ARC
5
103
100
AcDbEntity
8
0
100
AcDbCircle
10
-38
20
15.000000000000002
30
0
40
3.7999999999999812
210
-0
220
0
230
1
100
AcDbArc
50
0
51
180
0
CIRCLE
5
104
100
AcDbEntity
8
0
100
AcDbCircle
10
-6.9643424365345483
20
24.850774553360662
30
0
40
2.2999999999999998
210
0
220
0
230
1
0
CIRCLE
5
105
100
AcDbEntity
8
0
100
AcDbCircle
10
4.6643424365381865
20
-7.0987745533602169
30
0
40
2.2999999999999998
210
0
220
0
230
1
0
CIRCLE
5
106
100
AcDbEntity
8
0
100
AcDbCircle
10
-14.999999999999996
20
-15
30
0
40
2.75
210
0
220
0
230
1
0
CIRCLE
5
107
100
AcDbEntity
8
0
100
AcDbCircle
10
14.999999999999996
20
15
30
0
40
2.75
210
0
220
0
230
1
0
CIRCLE
5
108
100
AcDbEntity
8
0
100
AcDbCircle
10
14.999999999999996
20
-15
30
0
40
2.75
210
0
220
0
230
1
0
CIRCLE
5
109
100
AcDbEntity
8
0
100
AcDbCircle
10
-14.999999999999996
20
15
30
0
40
2.75
210
0
220
0
230
1
0
LINE
5
110
100
AcDbEntity
8
0
100
AcDbLine
10
6.9999999999999982
20
-41.799999999999969
30
0
11
14.999999999999998
21
-41.799999999999983
31
0
0
ARC
5
111
100
AcDbEntity
8
0
100
AcDbCircle
10
15
20
-37.999999999999986
30
0
40
3.7999999999999945
210
0
220
0
230
1
100
AcDbArc
50
-90
51
89.999999999999972
0
LINE
5
112
100
AcDbEntity
8
0
100
AcDbLine
10
15.000000000000002
20
-34.199999999999989
30
0
11
6.999999999999992
21
-34.199999999999982
31
0
0
ARC
5
113
100
AcDbEntity
8
0
100
AcDbCircle
10
6.9999999999999876
20
-37.999999999999979
30
0
40
3.7999999999999989
210
0
220
-0
230
1
100
AcDbArc
50
89.999999999999929
51
269.99999999999994
0
LWPOLYLINE
5
114
100
AcDbEntity
8
0
100
AcDbPolyline
90
4
70
1
43
0.0
10
1.035657563465586
20
27.50000000000043
42
0.99999999999999989
10
1.0356575634653176
20
20.50000000000043
10
12.035657563465314
20
20.500000000000007
42
0.99999999999999989
10
12.035657563465589
20
27.500000000000007
0
CIRCLE
5
115
100
AcDbEntity
8
0
100
AcDbCircle
10
8.8759999999975374
20
-25.086457455418465
30
0
40
6.5
210
0
220
0
230
1
0
LWPOLYLINE
5
116
100
AcDbEntity
8
0
100
AcDbPolyline
90
4
70
1
43
0.0
10
20.499999999999797
20
-6.499999999998213
42
0.99999999999999989
10
27.499999999999794
20
-6.5000000000009548
10
27.499999999986976
20
4.4999999999990425
42
0.99999999999999989
10
20.500000000003698
20
4.5000000000017861
0
CIRCLE
5
117
100
AcDbEntity
8
0
100
AcDbCircle
10
-1.1499999999981774
20
8.8760000000001611
30
0
40
6.5
210
0
220
0
230
1
0
LWPOLYLINE
5
118
100
AcDbEntity
8
0
100
AcDbPolyline
90
16
70
1
43
0.0
10
0.9999999999999899
20
-47.999999999999979
10
0.99999999999997846
20
-30.999999999999993
42
0.41421356237309509
10
-2.1649348980190553e-14
20
-29.999999999999986
10
-28.000000000000007
20
-30.000000000000007
42
-0.4142135623730957
10
-30.000000000000007
20
-28.000000000000004
10
-30
20
-1.8318679906315083e-14
42
0.41421356237309725
10
-31.000000000000011
20
0.99999999999998024
10
-47.999999999999979
20
0.99999999999998646
42
-0.41421356237309781
10
-49.999999999999993
20
2.9999999999999805
10
-50.000000000000014
20
27.999999999999993
42
-0.41421356237309825
10
-48
20
30
10
28
20
30.000000000000014
42
-0.41421356237309309
10
30.000000000000014
20
28.000000000000004
10
30.000000000000021
20
-47.999999999999986
42
-0.4142135623730937
10
28.000000000000004
20
-50
10
2.9999999999999853
20
-49.999999999999972
42
-0.41421356237309237
0
CIRCLE
5
119
100
AcDbEntity
8
0
100
AcDbCircle
10
25
20
25
30
0
40
1.7000000000000002
210
0
220
0
230
1
0
CIRCLE
5
120
100
AcDbEntity
8
0
100
AcDbCircle
10
-45.000000000000007
20
12.14999999999999
30
0
40
1.8000000000000003
210
0
220
0
230
1
0
CIRCLE
5
121
100
AcDbEntity
8
0
100
AcDbCircle
10
12.149999999999988
20
-44.999999999999986
30
0
40
1.8000000000000003
210
0
220
0
230
1
0
CIRCLE
5
122
100
AcDbEntity
8
0
100
AcDbCircle
10
5.6499999999999879
20
-44.999999999999986
30
0
40
1.8000000000000003
210
0
220
0
230
1
0
CIRCLE
5
123
100
AcDbEntity
8
0
100
AcDbCircle
10
-45.000000000000007
20
5.6499999999999879
30
0
40
1.8000000000000003
210
0
220
0
230
1
0
CIRCLE
5
124
100
AcDbEntity
8
0
100
AcDbCircle
10
-23.5
20
-23.500000000000007
30
0
40
2.2999999999999998
210
0
220
0
230
1
0
CIRCLE
5
125
100
AcDbEntity
8
0
100
AcDbCircle
10
25
20
14.000000000000004
30
0
40
2.2999999999999998
210
0
220
0
230
1
0
CIRCLE
5
126
100
AcDbEntity
8
0
100
AcDbCircle
10
23.500000000000007
20
-43.499999999999979
30
0
40
2.2999999999999998
210
0
220
0
230
1
0
CIRCLE
5
127
100
AcDbEntity
8
0
100
AcDbCircle
10
-43.5
20
23.5
30
0
40
2.2999999999999998
210
0
220
0
230
1
0
ENDSEC
0
SECTION
2
OBJECTS
0
DICTIONARY
5
C
100
AcDbDictionary
3
ACAD_GROUP
350
D
3
ACAD_MLINESTYLE
350
17
0
DICTIONARY
5
D
100
AcDbDictionary
0
DICTIONARY
5
1A
330
C
100
AcDbDictionary
0
DICTIONARY
5
17
100
AcDbDictionary
0
ENDSEC
0
EOF
