0
SECTION
2
HEADER
9
$INSUNITS
70
4
9
$ACADVER
1
AC1014
9
$HANDSEED
5
FFFF
0
ENDSEC
0
SECTION
2
TABLES
0
TABLE
2
VPORT
5
8
100
AcDbSymbolTable
0
ENDTAB
0
TABLE
2
LTYPE
5
5
100
AcDbSymbolTable
0
LTYPE
5
14
100
AcDbSymbolTableRecord
100
AcDbLinetypeTableRecord
2
BYBLOCK
70
0
0
LTYPE
5
15
100
AcDbSymbolTableRecord
100
AcDbLinetypeTableRecord
2
BYLAYER
70
0
0
ENDTAB
0
TABLE
2
LAYER
5
2
100
AcDbSymbolTable
70
2
0
LAYER
5
50
100
AcDbSymbolTableRecord
100
AcDbLayerTableRecord
2
0
70
0
6
CONTINUOUS
0
ENDTAB
0
TABLE
2
STYLE
5
3
100
AcDbSymbolTable
70
1
0
STYLE
5
11
100
AcDbSymbolTableRecord
100
AcDbTextStyleTableRecord
2
STANDARD
70
0
0
ENDTAB
0
TABLE
2
VIEW
5
6
100
AcDbSymbolTable
70
0
0
ENDTAB
0
TABLE
2
UCS
5
7
100
AcDbSymbolTable
70
0
0
ENDTAB
0
TABLE
2
APPID
5
9
100
AcDbSymbolTable
70
2
0
APPID
5
12
100
AcDbSymbolTableRecord
100
AcDbRegAppTableRecord
2
ACAD
70
0
0
ENDTAB
0
TABLE
2
DIMSTYLE
5
A
100
AcDbSymbolTable
70
1
0
ENDTAB
0
TABLE
2
BLOCK_RECORD
5
1
100
AcDbSymbolTable
70
1
0
BLOCK_RECORD
5
1F
100
AcDbSymbolTableRecord
100
AcDbBlockTableRecord
2
*MODEL_SPACE
0
BLOCK_RECORD
5
1B
100
AcDbSymbolTableRecord
100
AcDbBlockTableRecord
2
*PAPER_SPACE
0
ENDTAB
0
ENDSEC
0
SECTION
2
BLOCKS
0
BLOCK
5
20
100
AcDbEntity
100
AcDbBlockBegin
2
*MODEL_SPACE
0
ENDBLK
5
21
100
AcDbEntity
100
AcDbBlockEnd
0
BLOCK
5
1C
100
AcDbEntity
100
AcDbBlockBegin
2
*PAPER_SPACE
0
ENDBLK
5
1D
100
AcDbEntity
100
AcDbBlockEnd
0
ENDSEC
0
SECTION
2
ENTITIES
0
CIRCLE
5
100
100
AcDbEntity
8
0
100
AcDbCircle
10
14.350000000001831
20
-6.6239999999998567
30
0
40
1.7000000000000002
210
0
220
0
230
1
0
CIRCLE
5
101
100
AcDbEntity
8
0
100
AcDbCircle
10
-16.64999999999819
20
24.376000000000179
30
0
40
1.7000000000000002
210
0
220
0
230
1
0
CIRCLE
5
102
100
AcDbEntity
8
0
100
AcDbCircle
10
-16.649999999998194
20
-6.6239999999998522
30
0
40
1.7000000000000002
210
0
220
0
230
1
0
CIRCLE
5
103
100
AcDbEntity
8
0
100
AcDbCircle
10
14.350000000001844
20
24.376000000000168
30
0
40
1.7000000000000002
210
0
220
0
230
1
0
CIRCLE
5
104
100
AcDbEntity
8
0
100
AcDbCircle
10
-23.5
20
-23.500000000000007
30
0
40
2.75
210
0
220
0
230
1
0
CIRCLE
5
105
100
AcDbEntity
8
0
100
AcDbCircle
10
25
20
14.000000000000004
30
0
40
2.75
210
0
220
0
230
1
0
CIRCLE
5
106
100
AcDbEntity
8
0
100
AcDbCircle
10
23.500000000000007
20
-43.499999999999979
30
0
40
2.75
210
0
220
0
230
1
0
CIRCLE
5
107
100
AcDbEntity
8
0
100
AcDbCircle
10
-43.5
20
23.5
30
0
40
2.75
210
0
220
0
230
1
0
LWPOLYLINE
5
108
100
AcDbEntity
8
0
100
AcDbPolyline
90
4
70
1
43
0.0
10
27.499999999986976
20
4.4999999999990425
42
0.99999999999999989
10
20.500000000004107
20
4.5000000000017852
10
20.499999999999797
20
-6.4999999999982139
42
0.99999999999999989
10
27.499999999999794
20
-6.5000000000009539
0
CIRCLE
5
109
100
AcDbEntity
8
0
100
AcDbCircle
10
-1.1499999999981774
20
8.8760000000001611
30
0
40
11
210
0
220
0
230
1
0
CIRCLE
5
110
100
AcDbEntity
8
0
100
AcDbCircle
10
8.8759999999975374
20
-25.086457455418465
30
0
40
6.5
210
0
220
0
230
1
0
LWPOLYLINE
5
111
100
AcDbEntity
8
0
100
AcDbPolyline
90
20
70
1
43
0.0
10
28
20
-49.999999999999986
10
2.9999999999999809
20
-49.999999999999986
42
-0.41421356237309237
10
0.99999999999998068
20
-47.999999999999979
10
0.99999999999997913
20
-31
42
0.41421356237309515
10
-2.1094237467877974e-14
20
-30
10
-28.000000000000007
20
-30.000000000000007
42
-0.4142135623730957
10
-30.000000000000007
20
-28.000000000000004
10
-30.000000000000004
20
3.0531133177191805e-15
42
0.41421356237309509
10
-31.000000000000007
20
1.0000000000000029
10
-48
20
1.0000000000000013
42
-0.41421356237309237
10
-50
20
3.0000000000000027
10
-50.000000000000007
20
27.999999999999989
42
-0.41421356237309176
10
-48
20
29.999999999999996
10
19.5
20
30
42
-0.41421356237309637
10
20
20
29.5
10
19.999999999999996
20
20.499999999999993
42
0.41421356237309509
10
20.5
20
19.999999999999996
10
29.500000000000011
20
19.999999999999993
42
-0.4142135623730937
10
30
20
19.499999999999996
10
29.999999999999996
20
-47.999999999999986
42
-0.41421356237309048
0
CIRCLE
5
112
100
AcDbEntity
8
0
100
AcDbCircle
10
-14.999999999999996
20
-15
30
0
40
2.5
210
0
220
0
230
1
0
CIRCLE
5
113
100
AcDbEntity
8
0
100
AcDbCircle
10
14.999999999999996
20
-15
30
0
40
2.5
210
0
220
0
230
1
0
CIRCLE
5
114
100
AcDbEntity
8
0
100
AcDbCircle
10
14.999999999999996
20
15
30
0
40
2.5
210
0
220
0
230
1
0
LWPOLYLINE
5
115
100
AcDbEntity
8
0
100
AcDbPolyline
90
4
70
1
43
0.0
10
-30.299999999998171
20
12.500000000000002
10
-22.299999999998171
20
12.500000000000002
42
0.99999999999999989
10
-22.299999999998171
20
17.500000000000007
10
-30.299999999998171
20
17.500000000000004
42
0.99999999999999989
0
CIRCLE
5
116
100
AcDbEntity
8
0
100
AcDbCircle
10
-14.999999999999996
20
15
30
0
40
2.5
210
0
220
0
230
1
0
ENDSEC
0
SECTION
2
OBJECTS
0
DICTIONARY
5
C
100
AcDbDictionary
3
ACAD_GROUP
350
D
3
ACAD_MLINESTYLE
350
17
0
DICTIONARY
5
D
100
AcDbDictionary
0
DICTIONARY
5
1A
330
C
100
AcDbDictionary
0
DICTIONARY
5
17
100
AcDbDictionary
0
ENDSEC
0
EOF
