0
SECTION
2
HEADER
9
$INSUNITS
70
4
9
$ACADVER
1
AC1014
9
$HANDSEED
5
FFFF
0
ENDSEC
0
SECTION
2
TABLES
0
TABLE
2
VPORT
5
8
100
AcDbSymbolTable
0
ENDTAB
0
TABLE
2
LTYPE
5
5
100
AcDbSymbolTable
0
LTYPE
5
14
100
AcDbSymbolTableRecord
100
AcDbLinetypeTableRecord
2
BYBLOCK
70
0
0
LTYPE
5
15
100
AcDbSymbolTableRecord
100
AcDbLinetypeTableRecord
2
BYLAYER
70
0
0
ENDTAB
0
TABLE
2
LAYER
5
2
100
AcDbSymbolTable
70
2
0
LAYER
5
50
100
AcDbSymbolTableRecord
100
AcDbLayerTableRecord
2
0
70
0
6
CONTINUOUS
0
ENDTAB
0
TABLE
2
STYLE
5
3
100
AcDbSymbolTable
70
1
0
STYLE
5
11
100
AcDbSymbolTableRecord
100
AcDbTextStyleTableRecord
2
STANDARD
70
0
0
ENDTAB
0
TABLE
2
VIEW
5
6
100
AcDbSymbolTable
70
0
0
ENDTAB
0
TABLE
2
UCS
5
7
100
AcDbSymbolTable
70
0
0
ENDTAB
0
TABLE
2
APPID
5
9
100
AcDbSymbolTable
70
2
0
APPID
5
12
100
AcDbSymbolTableRecord
100
AcDbRegAppTableRecord
2
ACAD
70
0
0
ENDTAB
0
TABLE
2
DIMSTYLE
5
A
100
AcDbSymbolTable
70
1
0
ENDTAB
0
TABLE
2
BLOCK_RECORD
5
1
100
AcDbSymbolTable
70
1
0
BLOCK_RECORD
5
1F
100
AcDbSymbolTableRecord
100
AcDbBlockTableRecord
2
*MODEL_SPACE
0
BLOCK_RECORD
5
1B
100
AcDbSymbolTableRecord
100
AcDbBlockTableRecord
2
*PAPER_SPACE
0
ENDTAB
0
ENDSEC
0
SECTION
2
BLOCKS
0
BLOCK
5
20
100
AcDbEntity
100
AcDbBlockBegin
2
*MODEL_SPACE
0
ENDBLK
5
21
100
AcDbEntity
100
AcDbBlockEnd
0
BLOCK
5
1C
100
AcDbEntity
100
AcDbBlockBegin
2
*PAPER_SPACE
0
ENDBLK
5
1D
100
AcDbEntity
100
AcDbBlockEnd
0
ENDSEC
0
SECTION
2
ENTITIES
0
CIRCLE
5
100
100
AcDbEntity
8
0
100
AcDbCircle
10
147.49999999999056
20
4.999999999986799
30
0
40
1.3749999999999929
210
0
220
0
230
1
0
CIRCLE
5
101
100
AcDbEntity
8
0
100
AcDbCircle
10
127.49999999999055
20
4.9999999999867963
30
0
40
1.3749999999999929
210
0
220
0
230
1
0
CIRCLE
5
102
100
AcDbEntity
8
0
100
AcDbCircle
10
107.49999999999055
20
4.9999999999867946
30
0
40
1.3749999999999929
210
0
220
0
230
1
0
CIRCLE
5
103
100
AcDbEntity
8
0
100
AcDbCircle
10
87.49999999999055
20
4.9999999999867919
30
0
40
1.3749999999999929
210
0
220
0
230
1
0
CIRCLE
5
104
100
AcDbEntity
8
0
100
AcDbCircle
10
67.49999999999055
20
4.9999999999867892
30
0
40
1.3749999999999929
210
0
220
0
230
1
0
CIRCLE
5
105
100
AcDbEntity
8
0
100
AcDbCircle
10
47.49999999999055
20
4.9999999999867875
30
0
40
1.3749999999999929
210
0
220
0
230
1
0
CIRCLE
5
106
100
AcDbEntity
8
0
100
AcDbCircle
10
27.49999999999055
20
4.9999999999867848
30
0
40
1.3749999999999929
210
0
220
0
230
1
0
CIRCLE
5
107
100
AcDbEntity
8
0
100
AcDbCircle
10
7.4999999999905498
20
4.999999999986783
30
0
40
1.3749999999999929
210
0
220
0
230
1
0
CIRCLE
5
108
100
AcDbEntity
8
0
100
AcDbCircle
10
-12.50000000000945
20
4.9999999999867804
30
0
40
1.3749999999999929
210
0
220
0
230
1
0
CIRCLE
5
109
100
AcDbEntity
8
0
100
AcDbCircle
10
-32.50000000000945
20
4.9999999999867786
30
0
40
1.3749999999999929
210
0
220
0
230
1
0
CIRCLE
5
110
100
AcDbEntity
8
0
100
AcDbCircle
10
-52.50000000000945
20
4.9999999999867759
30
0
40
1.3749999999999929
210
0
220
0
230
1
0
CIRCLE
5
111
100
AcDbEntity
8
0
100
AcDbCircle
10
-72.50000000000945
20
4.9999999999867741
30
0
40
1.3749999999999929
210
0
220
0
230
1
0
CIRCLE
5
112
100
AcDbEntity
8
0
100
AcDbCircle
10
-92.50000000000945
20
4.9999999999867715
30
0
40
1.3749999999999929
210
0
220
0
230
1
0
CIRCLE
5
113
100
AcDbEntity
8
0
100
AcDbCircle
10
-112.50000000000945
20
4.9999999999867688
30
0
40
1.3749999999999929
210
0
220
0
230
1
0
CIRCLE
5
114
100
AcDbEntity
8
0
100
AcDbCircle
10
-132.50000000000944
20
4.999999999986767
30
0
40
1.3749999999999929
210
0
220
0
230
1
0
CIRCLE
5
115
100
AcDbEntity
8
0
100
AcDbCircle
10
-152.50000000000944
20
4.9999999999867644
30
0
40
1.3749999999999929
210
0
220
0
230
1
0
CIRCLE
5
116
100
AcDbEntity
8
0
100
AcDbCircle
10
-172.50000000000944
20
4.9999999999867626
30
0
40
1.3749999999999929
210
0
220
0
230
1
0
CIRCLE
5
117
100
AcDbEntity
8
0
100
AcDbCircle
10
-192.50000000000944
20
4.9999999999867599
30
0
40
1.3749999999999929
210
0
220
0
230
1
0
LWPOLYLINE
5
118
100
AcDbEntity
8
0
100
AcDbPolyline
90
40
70
1
43
0.0
10
211.00000000001771
20
15.999999999897156
10
211.00000000002453
20
23.524999999987944
42
-0.41421356237282841
10
212.00000000002456
20
24.524999999987031
10
218.50000000004121
20
24.524999999987042
42
-0.41421356237310542
10
219.00000000004124
20
24.024999999987017
10
219.0000000000411
20
20.137499999986282
42
-0.16227766016835013
10
218.9000000000411
20
19.837499999986328
42
0.86729540169532937
10
219.07500000004114
20
19.662499999986359
42
-0.16227766016837442
10
219.37500000004107
20
19.762499999986499
10
230.62500000004133
20
19.762499999991995
42
-0.16227766016837816
10
230.92500000004136
20
19.662499999992146
42
0.86729540169468933
10
231.10000000004132
20
19.837499999992144
42
-0.16227766016837933
10
231.0000000000413
20
20.137499999992148
10
231.0000000000413
20
24.024999999987035
42
-0.41421356237309509
10
231.5000000000413
20
24.524999999987035
10
238.0000000000644
20
24.524999999987045
42
-0.41421356237328105
10
239.00000000006443
20
23.524999999986399
10
239.00000000004064
20
-14.000000000383839
42
-0.41421356237330514
10
238.00000000003931
20
-15.000000000383206
10
-238.00000000005542
20
-14.999999999745699
42
-0.41421356237327522
10
-239.00000000005409
20
-13.99999999974372
10
-238.99999999998045
20
23.52500000021044
42
-0.41421356237279067
10
-237.99999999997951
20
24.525000000208475
10
-231.49999999996277
20
24.525000000202443
42
-0.41421356237309243
10
-230.99999999996322
20
24.025000000201977
10
-230.99999999996672
20
20.137500000207226
42
-0.16227766016842715
10
-231.09999999996705
20
19.837500000207239
42
0.8672954016951242
10
-230.92499999996727
20
19.662500000207046
42
-0.1622776601684543
10
-230.624999999967
20
19.762500000206707
10
-219.37499999996709
20
19.762500000190741
42
-0.1622776601684543
10
-219.07499999996713
20
19.662500000190228
42
0.86729540169534058
10
-218.89999999996687
20
19.837500000189955
42
-0.16227766016833053
10
-218.99999999996655
20
20.137500000189974
10
-218.99999999996311
20
24.025000000190783
42
-0.41421356237310802
10
-218.49999999996265
20
24.525000000190342
10
-211.9999999999207
20
24.525000000184303
42
-0.41421356237479767
10
-210.99999999992161
20
23.525000000177553
10
-210.99999999997226
20
15.999999999993335
42
0.41421356237499735
10
-209.99999999997246
20
14.999999999986613
10
210.00000000001751
20
14.999999999898066
42
0.4142135623728746
0
CIRCLE
5
119
100
AcDbEntity
8
0
100
AcDbCircle
10
235.00000000002939
20
-2.7374999999903675
30
0
40
1.4999999999999858
210
-0
220
0
230
1
0
CIRCLE
5
120
100
AcDbEntity
8
0
100
AcDbCircle
10
235.00000000002714
20
17.262500000009634
30
0
40
1.4999999999999858
210
-0
220
0
230
1
0
CIRCLE
5
121
100
AcDbEntity
8
0
100
AcDbCircle
10
215.00000000002927
20
-2.7375000000173673
30
0
40
1.4999999999999858
210
-0
220
0
230
1
0
CIRCLE
5
122
100
AcDbEntity
8
0
100
AcDbCircle
10
215.00000000002876
20
17.262500000032396
30
0
40
1.4999999999999858
210
-0
220
0
230
1
0
LWPOLYLINE
5
123
100
AcDbEntity
8
0
100
AcDbPolyline
90
16
70
1
43
0.0
10
219.07500000004057
20
-5.1374999999924986
42
0.86729540169499952
10
218.90000000004054
20
-5.3124999999924372
42
-0.16227766016837933
10
219.00000000004056
20
-5.6124999999924423
10
219.00000000004056
20
-10.113124999992529
42
-0.16227766016836381
10
218.90000000004056
20
-10.413124999992508
42
0.86729540169508168
10
219.07500000004057
20
-10.588124999992486
42
-0.16227766016838385
10
219.37500000004059
20
-10.488124999992481
10
230.62500000004266
20
-10.488124999992198
42
-0.16227766016836381
10
230.92500000004264
20
-10.588124999992182
42
0.86729540169515507
10
231.10000000004263
20
-10.413124999992169
42
-0.16227766016836859
10
231.00000000004263
20
-10.113124999992181
10
231.00000000004275
20
-5.6124999999925587
42
-0.16227766016835729
10
231.10000000004274
20
-5.312499999992589
42
0.86729540169508568
10
230.92500000004276
20
-5.1374999999926194
42
-0.16227766016836617
10
230.62500000004277
20
-5.237499999992604
10
219.37500000004053
20
-5.2374999999924814
42
-0.16227766016836448
0
LWPOLYLINE
5
124
100
AcDbEntity
8
0
100
AcDbPolyline
90
16
70
1
43
0.0
10
-219.07499999999459
20
-10.588124999788652
42
0.86729540169494612
10
-218.89999999999444
20
-10.413124999788794
42
-0.16227766016831277
10
-218.99999999999406
20
-10.113124999788825
10
-218.99999999999005
20
-5.6124999997886915
42
-0.16227766016837303
10
-218.89999999998977
20
-5.3124999997887867
42
0.86729540169489527
10
-219.07499999998953
20
-5.1374999997886359
42
-0.16227766016838796
10
-219.37499999998965
20
-5.2374999997883691
10
-230.62499999999201
20
-5.2374999997780183
42
-0.16227766016837783
10
-230.92499999999191
20
-5.1374999997777424
42
0.86729540169820152
10
-231.0999999999915
20
-5.3124999997783071
42
-0.16227766016849052
10
-230.99999999998954
20
-5.6124999997778735
10
-230.99999999996203
20
-10.113124999728139
42
-0.16227766019362813
10
-231.09999999998973
20
-10.413124999768115
42
0.86729540173528474
10
-230.92499999999671
20
-10.588124999777357
42
-0.16227766016838863
10
-230.62499999999659
20
-10.488124999777623
10
-219.37499999999449
20
-10.488124999788377
42
-0.1622776601683768
0
LWPOLYLINE
5
125
100
AcDbEntity
8
0
100
AcDbPolyline
90
4
70
1
43
0.0
10
-234.00000000004786
20
-4.237500000246115
42
0.99999999999999989
10
-234.00000000003894
20
-1.2375000002465475
10
-236.00000000003911
20
-1.2375000002400249
42
0.99999999999999989
10
-236.0000000000486
20
-4.237500000232628
0
LWPOLYLINE
5
126
100
AcDbEntity
8
0
100
AcDbPolyline
90
4
70
1
43
0.0
10
-235.99999999997411
20
18.762499999889272
42
0.99999999999999989
10
-235.99999999998434
20
15.762499999889272
10
-233.99999999998371
20
15.762499999882614
42
0.99999999999999989
10
-233.9999999999732
20
18.762499999882479
0
LWPOLYLINE
5
127
100
AcDbEntity
8
0
100
AcDbPolyline
90
4
70
1
43
0.0
10
-213.99999999999369
20
15.762499999814114
42
0.99999999999999989
10
-213.99999999998539
20
18.762499999820783
10
-215.99999999998522
20
18.762499999827114
42
0.99999999999999989
10
-215.99999999999432
20
15.762499999820632
0
LWPOLYLINE
5
128
100
AcDbEntity
8
0
100
AcDbPolyline
90
4
70
1
43
0.0
10
-214.00000000004314
20
-4.2375000001765564
42
0.99999999999999989
10
-214.0000000000413
20
-1.2375000001880709
10
-216.00000000004471
20
-1.2375000001740482
42
0.99999999999999989
10
-216.00000000004286
20
-4.2375000001801215
0
LINE
5
129
100
AcDbEntity
8
0
100
AcDbLine
10
233.00000000002225
20
12.462500000015472
30
0
11
232.99999999999582
21
2.0625000000682356
31
0
0
ARC
5
130
100
AcDbEntity
8
0
100
AcDbCircle
10
230.20000000002383
20
12.462500000022656
30
0
40
2.7999999999984126
210
0
220
0
230
1
100
AcDbArc
50
0
51
89.999999999852861
0
LINE
5
131
100
AcDbEntity
8
0
100
AcDbLine
10
219.80000000004173
20
15.262500000047694
30
0
11
230.20000000003103
21
15.262500000021069
31
0
0
ARC
5
132
100
AcDbEntity
8
0
100
AcDbCircle
10
219.80000000003454
20
12.462500000162427
30
0
40
2.7999999998852676
210
0
220
-0
230
1
100
AcDbArc
50
89.999999999852861
51
180
0
LINE
5
133
100
AcDbEntity
8
0
100
AcDbLine
10
216.99999999999818
20
2.0624999999345217
30
0
11
217.00000000014927
21
12.462500000172181
31
0
0
ARC
5
134
100
AcDbEntity
8
0
100
AcDbCircle
10
219.79999999997059
20
2.0624999999246802
30
0
40
2.7999999999724068
210
0
220
0
230
1
100
AcDbArc
50
180
51
270.00000000026807
0
LINE
5
135
100
AcDbEntity
8
0
100
AcDbLine
10
230.19999999993428
20
-0.73749999999921134
30
0
11
219.7999999999837
21
-0.73750000004772631
31
0
0
ARC
5
136
100
AcDbEntity
8
0
100
AcDbCircle
10
230.19999999992115
20
2.0625000000754281
30
0
40
2.8000000000746397
210
0
220
0
230
1
100
AcDbArc
50
270.0000000002687
51
360
0
LWPOLYLINE
5
137
100
AcDbEntity
8
0
100
AcDbPolyline
90
8
70
1
43
0.0
10
-230.19999999996111
20
15.26250000023528
42
0.41421356237324369
10
-232.99999999995356
20
12.462500000232275
10
-232.99999999993474
20
2.0625000002850324
42
0.4142135623709749
10
-230.19999999987908
20
-0.73749999978168135
10
-219.79999999992879
20
-0.73749999984322301
42
0.41421356235949136
10
-216.99999999994054
20
2.0625000001364335
10
-216.99999999996732
20
12.462500000374131
42
0.41421356237282514
10
-219.79999999997182
20
15.262500000366854
0
CIRCLE
5
138
100
AcDbEntity
8
0
100
AcDbCircle
10
207.49999999999056
20
4.9999999999868052
30
0
40
1.3749999999999929
210
0
220
0
230
1
0
CIRCLE
5
139
100
AcDbEntity
8
0
100
AcDbCircle
10
187.49999999999056
20
4.9999999999868034
30
0
40
1.3749999999999929
210
0
220
0
230
1
0
CIRCLE
5
140
100
AcDbEntity
8
0
100
AcDbCircle
10
167.49999999999056
20
4.9999999999868008
30
0
40
1.3749999999999929
210
0
220
0
230
1
0
ENDSEC
0
SECTION
2
OBJECTS
0
DICTIONARY
5
C
100
AcDbDictionary
3
ACAD_GROUP
350
D
3
ACAD_MLINESTYLE
350
17
0
DICTIONARY
5
D
100
AcDbDictionary
0
DICTIONARY
5
1A
330
C
100
AcDbDictionary
0
DICTIONARY
5
17
100
AcDbDictionary
0
ENDSEC
0
EOF
