0
SECTION
2
HEADER
9
$INSUNITS
70
4
9
$ACADVER
1
AC1014
9
$HANDSEED
5
FFFF
0
ENDSEC
0
SECTION
2
TABLES
0
TABLE
2
VPORT
5
8
100
AcDbSymbolTable
0
ENDTAB
0
TABLE
2
LTYPE
5
5
100
AcDbSymbolTable
0
LTYPE
5
14
100
AcDbSymbolTableRecord
100
AcDbLinetypeTableRecord
2
BYBLOCK
70
0
0
LTYPE
5
15
100
AcDbSymbolTableRecord
100
AcDbLinetypeTableRecord
2
BYLAYER
70
0
0
ENDTAB
0
TABLE
2
LAYER
5
2
100
AcDbSymbolTable
70
2
0
LAYER
5
50
100
AcDbSymbolTableRecord
100
AcDbLayerTableRecord
2
0
70
0
6
CONTINUOUS
0
ENDTAB
0
TABLE
2
STYLE
5
3
100
AcDbSymbolTable
70
1
0
STYLE
5
11
100
AcDbSymbolTableRecord
100
AcDbTextStyleTableRecord
2
STANDARD
70
0
0
ENDTAB
0
TABLE
2
VIEW
5
6
100
AcDbSymbolTable
70
0
0
ENDTAB
0
TABLE
2
UCS
5
7
100
AcDbSymbolTable
70
0
0
ENDTAB
0
TABLE
2
APPID
5
9
100
AcDbSymbolTable
70
2
0
APPID
5
12
100
AcDbSymbolTableRecord
100
AcDbRegAppTableRecord
2
ACAD
70
0
0
ENDTAB
0
TABLE
2
DIMSTYLE
5
A
100
AcDbSymbolTable
70
1
0
ENDTAB
0
TABLE
2
BLOCK_RECORD
5
1
100
AcDbSymbolTable
70
1
0
BLOCK_RECORD
5
1F
100
AcDbSymbolTableRecord
100
AcDbBlockTableRecord
2
*MODEL_SPACE
0
BLOCK_RECORD
5
1B
100
AcDbSymbolTableRecord
100
AcDbBlockTableRecord
2
*PAPER_SPACE
0
ENDTAB
0
ENDSEC
0
SECTION
2
BLOCKS
0
BLOCK
5
20
100
AcDbEntity
100
AcDbBlockBegin
2
*MODEL_SPACE
0
ENDBLK
5
21
100
AcDbEntity
100
AcDbBlockEnd
0
BLOCK
5
1C
100
AcDbEntity
100
AcDbBlockBegin
2
*PAPER_SPACE
0
ENDBLK
5
1D
100
AcDbEntity
100
AcDbBlockEnd
0
ENDSEC
0
SECTION
2
ENTITIES
0
CIRCLE
5
100
100
AcDbEntity
8
0
100
AcDbCircle
10
162.49999999998545
20
4.9999999999945279
30
0
40
1.3749999999999929
210
0
220
0
230
1
0
CIRCLE
5
101
100
AcDbEntity
8
0
100
AcDbCircle
10
142.49999999998545
20
4.9999999999945279
30
0
40
1.3749999999999929
210
0
220
0
230
1
0
CIRCLE
5
102
100
AcDbEntity
8
0
100
AcDbCircle
10
122.49999999998543
20
4.9999999999945279
30
0
40
1.3749999999999929
210
0
220
0
230
1
0
CIRCLE
5
103
100
AcDbEntity
8
0
100
AcDbCircle
10
102.49999999998543
20
4.9999999999945279
30
0
40
1.3749999999999929
210
0
220
0
230
1
0
CIRCLE
5
104
100
AcDbEntity
8
0
100
AcDbCircle
10
82.499999999985434
20
4.9999999999945279
30
0
40
1.3749999999999929
210
0
220
0
230
1
0
CIRCLE
5
105
100
AcDbEntity
8
0
100
AcDbCircle
10
62.499999999985434
20
4.9999999999945279
30
0
40
1.3749999999999929
210
0
220
0
230
1
0
CIRCLE
5
106
100
AcDbEntity
8
0
100
AcDbCircle
10
42.499999999985434
20
4.9999999999945279
30
0
40
1.3749999999999929
210
0
220
0
230
1
0
CIRCLE
5
107
100
AcDbEntity
8
0
100
AcDbCircle
10
22.499999999985434
20
4.9999999999945279
30
0
40
1.3749999999999929
210
0
220
0
230
1
0
CIRCLE
5
108
100
AcDbEntity
8
0
100
AcDbCircle
10
2.4999999999854339
20
4.9999999999945279
30
0
40
1.3749999999999929
210
0
220
0
230
1
0
CIRCLE
5
109
100
AcDbEntity
8
0
100
AcDbCircle
10
-17.500000000014566
20
4.9999999999945288
30
0
40
1.3749999999999929
210
0
220
0
230
1
0
CIRCLE
5
110
100
AcDbEntity
8
0
100
AcDbCircle
10
-37.500000000014566
20
4.9999999999945288
30
0
40
1.3749999999999929
210
0
220
0
230
1
0
CIRCLE
5
111
100
AcDbEntity
8
0
100
AcDbCircle
10
-57.500000000014566
20
4.9999999999945288
30
0
40
1.3749999999999929
210
0
220
0
230
1
0
CIRCLE
5
112
100
AcDbEntity
8
0
100
AcDbCircle
10
-77.500000000014566
20
4.9999999999945288
30
0
40
1.3749999999999929
210
0
220
0
230
1
0
CIRCLE
5
113
100
AcDbEntity
8
0
100
AcDbCircle
10
-97.500000000014566
20
4.9999999999945288
30
0
40
1.3749999999999929
210
0
220
0
230
1
0
CIRCLE
5
114
100
AcDbEntity
8
0
100
AcDbCircle
10
-117.50000000001457
20
4.9999999999945288
30
0
40
1.3749999999999929
210
0
220
0
230
1
0
CIRCLE
5
115
100
AcDbEntity
8
0
100
AcDbCircle
10
-137.50000000001455
20
4.9999999999945288
30
0
40
1.3749999999999929
210
0
220
0
230
1
0
CIRCLE
5
116
100
AcDbEntity
8
0
100
AcDbCircle
10
-157.50000000001455
20
4.9999999999945288
30
0
40
1.3749999999999929
210
0
220
0
230
1
0
CIRCLE
5
117
100
AcDbEntity
8
0
100
AcDbCircle
10
-177.50000000001455
20
4.9999999999945288
30
0
40
1.3749999999999929
210
0
220
0
230
1
0
LWPOLYLINE
5
118
100
AcDbEntity
8
0
100
AcDbPolyline
90
16
70
1
43
0.0
10
185.99999999996169
20
32.937499999998337
42
0.41421356237303392
10
184.99999999996166
20
31.93749999999855
10
184.99999999995833
20
15.99999999993795
42
-0.41421356237306445
10
183.99999999995813
20
14.999999999938158
10
-184.00000000002265
20
14.999999999994367
42
-0.41421356237544543
10
-185.00000000002251
20
16.000000000002547
10
-184.99999999989245
20
31.937500000232401
42
0.41421356237510204
10
-185.99999999989112
20
32.937500000240561
10
-213.99999999995561
20
32.937500000277055
42
0.41421356237315227
10
-214.99999999995694
20
31.937500000278174
10
-215.00000000000836
20
-13.999999999717554
42
0.41421356237302809
10
-214.00000000000969
20
-14.999999999718671
10
213.99999999997482
20
-15.000000000290116
42
0.41421356237331419
10
214.99999999997618
20
-14.000000000290719
10
215.00000000000358
20
31.937499999997744
42
0.41421356237326939
10
214.00000000000358
20
32.937499999998337
0
LWPOLYLINE
5
119
100
AcDbEntity
8
0
100
AcDbPolyline
90
4
70
1
43
0.0
10
-188.99999999997647
20
16.674999999863033
42
0.99999999999999989
10
-188.99999999996788
20
19.674999999853291
10
-190.9999999999678
20
19.674999999863886
42
0.99999999999999989
10
-190.99999999997638
20
16.674999999863921
0
LWPOLYLINE
5
120
100
AcDbEntity
8
0
100
AcDbPolyline
90
4
70
1
43
0.0
10
-210.99999999996783
20
19.674999999928858
42
0.99999999999999989
10
-210.99999999997442
20
16.674999999928822
10
-208.99999999997451
20
16.674999999924665
42
0.99999999999999989
10
-208.99999999996791
20
19.674999999924271
0
LWPOLYLINE
5
121
100
AcDbEntity
8
0
100
AcDbPolyline
90
4
70
1
43
0.0
10
-209.00000000003388
20
-3.3250000002054572
42
0.99999999999999989
10
-209.00000000002558
20
-0.32500000020542291
10
-211.00000000002547
20
-0.3250000001998643
42
0.99999999999999989
10
-211.00000000003382
20
-3.3250000001998647
0
CIRCLE
5
122
100
AcDbEntity
8
0
100
AcDbCircle
10
209.99999999996783
20
-1.824999999995476
30
0
40
1.4999999999999858
210
-0
220
0
230
1
0
LWPOLYLINE
5
123
100
AcDbEntity
8
0
100
AcDbPolyline
90
4
70
1
43
0.0
10
-189.00000000003385
20
-3.3250000001480542
42
0.99999999999999989
10
-189.0000000000349
20
-0.32500000013549135
10
-191.00000000003487
20
-0.32500000013618024
42
0.99999999999999989
10
-191.00000000003379
20
-3.3250000001361446
0
CIRCLE
5
124
100
AcDbEntity
8
0
100
AcDbCircle
10
209.99999999998641
20
18.175000000004488
30
0
40
1.4999999999999858
210
-0
220
0
230
1
0
CIRCLE
5
125
100
AcDbEntity
8
0
100
AcDbCircle
10
189.99999999996783
20
-1.8250000000060107
30
0
40
1.4999999999999858
210
-0
220
0
230
1
0
CIRCLE
5
126
100
AcDbEntity
8
0
100
AcDbCircle
10
189.99999999994944
20
18.175000000023044
30
0
40
1.4999999999999858
210
-0
220
0
230
1
0
ENDSEC
0
SECTION
2
OBJECTS
0
DICTIONARY
5
C
100
AcDbDictionary
3
ACAD_GROUP
350
D
3
ACAD_MLINESTYLE
350
17
0
DICTIONARY
5
D
100
AcDbDictionary
0
DICTIONARY
5
1A
330
C
100
AcDbDictionary
0
DICTIONARY
5
17
100
AcDbDictionary
0
ENDSEC
0
EOF
