0
SECTION
2
HEADER
9
$INSUNITS
70
4
9
$ACADVER
1
AC1014
9
$HANDSEED
5
FFFF
0
ENDSEC
0
SECTION
2
TABLES
0
TABLE
2
VPORT
5
8
100
AcDbSymbolTable
0
ENDTAB
0
TABLE
2
LTYPE
5
5
100
AcDbSymbolTable
0
LTYPE
5
14
100
AcDbSymbolTableRecord
100
AcDbLinetypeTableRecord
2
BYBLOCK
70
0
0
LTYPE
5
15
100
AcDbSymbolTableRecord
100
AcDbLinetypeTableRecord
2
BYLAYER
70
0
0
ENDTAB
0
TABLE
2
LAYER
5
2
100
AcDbSymbolTable
70
2
0
LAYER
5
50
100
AcDbSymbolTableRecord
100
AcDbLayerTableRecord
2
0
70
0
6
CONTINUOUS
0
ENDTAB
0
TABLE
2
STYLE
5
3
100
AcDbSymbolTable
70
1
0
STYLE
5
11
100
AcDbSymbolTableRecord
100
AcDbTextStyleTableRecord
2
STANDARD
70
0
0
ENDTAB
0
TABLE
2
VIEW
5
6
100
AcDbSymbolTable
70
0
0
ENDTAB
0
TABLE
2
UCS
5
7
100
AcDbSymbolTable
70
0
0
ENDTAB
0
TABLE
2
APPID
5
9
100
AcDbSymbolTable
70
2
0
APPID
5
12
100
AcDbSymbolTableRecord
100
AcDbRegAppTableRecord
2
ACAD
70
0
0
ENDTAB
0
TABLE
2
DIMSTYLE
5
A
100
AcDbSymbolTable
70
1
0
ENDTAB
0
TABLE
2
BLOCK_RECORD
5
1
100
AcDbSymbolTable
70
1
0
BLOCK_RECORD
5
1F
100
AcDbSymbolTableRecord
100
AcDbBlockTableRecord
2
*MODEL_SPACE
0
BLOCK_RECORD
5
1B
100
AcDbSymbolTableRecord
100
AcDbBlockTableRecord
2
*PAPER_SPACE
0
ENDTAB
0
ENDSEC
0
SECTION
2
BLOCKS
0
BLOCK
5
20
100
AcDbEntity
100
AcDbBlockBegin
2
*MODEL_SPACE
0
ENDBLK
5
21
100
AcDbEntity
100
AcDbBlockEnd
0
BLOCK
5
1C
100
AcDbEntity
100
AcDbBlockBegin
2
*PAPER_SPACE
0
ENDBLK
5
1D
100
AcDbEntity
100
AcDbBlockEnd
0
ENDSEC
0
SECTION
2
ENTITIES
0
CIRCLE
5
100
100
AcDbEntity
8
0
100
AcDbCircle
10
57.499999999968878
20
5.0000000000251008
30
0
40
1.3749999999999929
210
0
220
0
230
1
0
CIRCLE
5
101
100
AcDbEntity
8
0
100
AcDbCircle
10
37.499999999968878
20
5.000000000025099
30
0
40
1.3749999999999929
210
0
220
0
230
1
0
CIRCLE
5
102
100
AcDbEntity
8
0
100
AcDbCircle
10
17.499999999968878
20
5.0000000000250981
30
0
40
1.3749999999999929
210
0
220
0
230
1
0
CIRCLE
5
103
100
AcDbEntity
8
0
100
AcDbCircle
10
-2.5000000000311218
20
5.0000000000250955
30
0
40
1.3749999999999929
210
0
220
0
230
1
0
CIRCLE
5
104
100
AcDbEntity
8
0
100
AcDbCircle
10
-22.500000000031122
20
5.0000000000250928
30
0
40
1.3749999999999929
210
0
220
0
230
1
0
CIRCLE
5
105
100
AcDbEntity
8
0
100
AcDbCircle
10
-42.500000000031122
20
5.000000000025091
30
0
40
1.3749999999999929
210
0
220
0
230
1
0
CIRCLE
5
106
100
AcDbEntity
8
0
100
AcDbCircle
10
-62.500000000031122
20
5.0000000000250902
30
0
40
1.3749999999999929
210
0
220
0
230
1
0
CIRCLE
5
107
100
AcDbEntity
8
0
100
AcDbCircle
10
-82.500000000031122
20
5.0000000000250875
30
0
40
1.3749999999999929
210
0
220
0
230
1
0
CIRCLE
5
108
100
AcDbEntity
8
0
100
AcDbCircle
10
-102.50000000003112
20
5.0000000000250857
30
0
40
1.3749999999999929
210
0
220
0
230
1
0
CIRCLE
5
109
100
AcDbEntity
8
0
100
AcDbCircle
10
-122.50000000003112
20
5.0000000000250839
30
0
40
1.3749999999999929
210
0
220
0
230
1
0
CIRCLE
5
110
100
AcDbEntity
8
0
100
AcDbCircle
10
-142.50000000003112
20
5.0000000000250822
30
0
40
1.3749999999999929
210
0
220
0
230
1
0
CIRCLE
5
111
100
AcDbEntity
8
0
100
AcDbCircle
10
-162.50000000003112
20
5.0000000000250804
30
0
40
1.3749999999999929
210
0
220
0
230
1
0
CIRCLE
5
112
100
AcDbEntity
8
0
100
AcDbCircle
10
-182.50000000003112
20
5.0000000000250786
30
0
40
1.3749999999999929
210
0
220
0
230
1
0
CIRCLE
5
113
100
AcDbEntity
8
0
100
AcDbCircle
10
-202.50000000003112
20
5.0000000000250768
30
0
40
1.3749999999999929
210
0
220
0
230
1
0
CIRCLE
5
114
100
AcDbEntity
8
0
100
AcDbCircle
10
-222.50000000003112
20
5.0000000000250742
30
0
40
1.3749999999999929
210
0
220
0
230
1
0
CIRCLE
5
115
100
AcDbEntity
8
0
100
AcDbCircle
10
-242.50000000003112
20
5.0000000000250724
30
0
40
1.3749999999999929
210
0
220
0
230
1
0
CIRCLE
5
116
100
AcDbEntity
8
0
100
AcDbCircle
10
-262.50000000003115
20
5.0000000000250715
30
0
40
1.3749999999999929
210
0
220
0
230
1
0
CIRCLE
5
117
100
AcDbEntity
8
0
100
AcDbCircle
10
-282.50000000003115
20
5.0000000000250688
30
0
40
1.3749999999999929
210
0
220
0
230
1
0
LWPOLYLINE
5
118
100
AcDbEntity
8
0
100
AcDbPolyline
90
40
70
1
43
0.0
10
301.00000000001779
20
15.999999999897465
10
301.00000000002461
20
23.524999999984285
42
-0.41421356237282841
10
302.00000000002461
20
24.524999999983372
10
308.50000000004104
20
24.524999999983383
42
-0.41421356237310281
10
309.00000000004104
20
24.024999999983365
10
309.00000000004098
20
20.137499999982612
42
-0.16227766016835699
10
308.90000000004102
20
19.837499999982644
42
0.86729540169522956
10
309.07500000004103
20
19.66249999998271
42
-0.16227766016837442
10
309.37500000004098
20
19.76249999998285
10
320.62500000004127
20
19.762499999988353
42
-0.16227766016836004
10
320.92500000004128
20
19.662499999988505
42
0.86729540169523134
10
321.10000000004129
20
19.837499999988641
42
-0.16227766016839706
10
321.00000000004127
20
20.137499999988648
10
321.0000000000411
20
24.024999999983358
42
-0.41421356237310802
10
321.50000000004104
20
24.524999999983379
10
328.00000000006406
20
24.524999999983386
42
-0.41421356237328366
10
329.00000000006406
20
23.524999999982729
10
329.00000000004007
20
-14.000000000574921
42
-0.41421356237332396
10
328.00000000003865
20
-15.000000000574282
10
-328.00000000005753
20
-14.999999999695646
42
-0.41421356237329332
10
-329.00000000005616
20
-13.999999999693603
10
-328.9999999999801
20
23.5250000002906
42
-0.41421356237277118
10
-327.99999999997914
20
24.525000000288564
10
-321.49999999996248
20
24.5250000002825
42
-0.41421356237309243
10
-320.99999999996299
20
24.025000000282034
10
-320.99999999996692
20
20.137500000287218
42
-0.16227766016837794
10
-321.09999999996717
20
19.837500000287317
42
0.86729540169494335
10
-320.92499999996738
20
19.662500000287015
42
-0.16227766016838591
10
-320.62499999996726
20
19.762500000286597
10
-309.3749999999668
20
19.76250000027057
42
-0.16227766016838727
10
-309.07499999996696
20
19.662500000270132
42
0.86729540169522179
10
-308.89999999996678
20
19.837500000269873
42
-0.16227766016836745
10
-308.99999999996646
20
20.137500000269949
10
-308.99999999996294
20
24.025000000270886
42
-0.4142135623731002
10
-308.49999999996248
20
24.525000000270431
10
-301.99999999992076
20
24.525000000264392
42
-0.41421356237480028
10
-300.99999999992167
20
23.525000000257631
10
-300.99999999997237
20
16.000000000031612
42
0.41421356237498752
10
-299.9999999999726
20
15.000000000024851
10
300.00000000001756
20
14.999999999898375
42
0.41421356237288887
0
CIRCLE
5
119
100
AcDbEntity
8
0
100
AcDbCircle
10
325.00000000002956
20
-2.7375000000007104
30
0
40
1.4999999999999858
210
-0
220
0
230
1
0
CIRCLE
5
120
100
AcDbEntity
8
0
100
AcDbCircle
10
325.00000000002728
20
17.262499999998472
30
0
40
1.4999999999999858
210
-0
220
0
230
1
0
CIRCLE
5
121
100
AcDbEntity
8
0
100
AcDbCircle
10
305.00000000002956
20
-2.7375000000179543
30
0
40
1.4999999999999858
210
-0
220
0
230
1
0
CIRCLE
5
122
100
AcDbEntity
8
0
100
AcDbCircle
10
305.00000000002905
20
17.262500000021241
30
0
40
1.4999999999999858
210
-0
220
0
230
1
0
LWPOLYLINE
5
123
100
AcDbEntity
8
0
100
AcDbPolyline
90
16
70
1
43
0.0
10
309.07500000004114
20
-5.1374999999962334
42
0.86729540169499952
10
308.90000000004113
20
-5.312499999996172
42
-0.16227766016837933
10
309.00000000004115
20
-5.6124999999961762
10
309.00000000004115
20
-10.113124999996344
42
-0.16227766016836381
10
308.90000000004113
20
-10.413124999996326
42
0.86729540169508168
10
309.07500000004114
20
-10.588124999996303
42
-0.16227766016838385
10
309.37500000004115
20
-10.488124999996298
10
320.62500000004098
20
-10.488124999996018
42
-0.16227766016838727
10
320.925000000041
20
-10.588124999996026
42
0.86729540169528874
10
321.10000000004095
20
-10.413124999995977
42
-0.16227766016838452
10
321.00000000004093
20
-10.113124999995941
10
321.0000000000411
20
-5.6124999999963965
42
-0.16227766016838557
10
321.10000000004106
20
-5.312499999996386
42
0.86729540169523422
10
320.92500000004111
20
-5.1374999999963151
42
-0.16227766016839512
10
320.62500000004104
20
-5.2374999999963343
10
309.3750000000411
20
-5.2374999999962153
42
-0.16227766016836448
0
LWPOLYLINE
5
124
100
AcDbEntity
8
0
100
AcDbPolyline
90
16
70
1
43
0.0
10
-309.07499999999499
20
-10.588124999708729
42
0.86729540169434449
10
-308.89999999999503
20
-10.413124999708751
42
-0.16227766016839501
10
-308.99999999999477
20
-10.11312499970863
10
-308.99999999999062
20
-5.6124999997087972
42
-0.16227766016836587
10
-308.89999999999031
20
-5.3124999997089075
42
0.86729540169471064
10
-309.0749999999901
20
-5.1374999997086963
42
-0.16227766016827172
10
-309.37499999999
20
-5.2374999997082936
10
-320.62499999999039
20
-5.2374999996978282
42
-0.16227766016826742
10
-320.92499999999012
20
-5.1374999996976598
42
0.8672954017005694
10
-321.09999999998934
20
-5.3124999996988622
42
-0.16227766016842077
10
-320.99999999998573
20
-5.6124999996977163
10
-320.99999999993202
20
-10.113124999607066
42
-0.16227766021476805
10
-321.09999999998263
20
-10.413124999680567
42
0.86729540176741859
10
-320.92499999999552
20
-10.588124999697632
42
-0.1622776601678752
10
-320.62499999999625
20
-10.48812499969852
10
-309.3749999999942
20
-10.488124999708983
42
-0.16227766016792239
0
LWPOLYLINE
5
125
100
AcDbEntity
8
0
100
AcDbPolyline
90
4
70
1
43
0.0
10
-324.00000000004525
20
-4.237500000829832
42
0.99999999999999989
10
-324.00000000004138
20
-1.2375000008289523
10
-326.00000000004104
20
-1.2375000008267096
42
0.99999999999999989
10
-326.0000000000457
20
-4.2375000008266168
0
LWPOLYLINE
5
126
100
AcDbEntity
8
0
100
AcDbPolyline
90
4
70
1
43
0.0
10
-325.99999999997397
20
18.762499999305994
42
0.99999999999999989
10
-325.99999999998306
20
15.762499999305996
10
-323.99999999998283
20
15.762499999299317
42
0.99999999999999989
10
-323.99999999997334
20
18.762499999300196
0
LWPOLYLINE
5
127
100
AcDbEntity
8
0
100
AcDbPolyline
90
4
70
1
43
0.0
10
-303.99999999999363
20
15.7624999992317
42
0.99999999999999989
10
-303.99999999998488
20
18.762499999236876
10
-305.99999999998442
20
18.762499999243062
42
0.99999999999999989
10
-305.99999999999346
20
15.762499999236336
0
LWPOLYLINE
5
128
100
AcDbEntity
8
0
100
AcDbPolyline
90
4
70
1
43
0.0
10
-304.00000000004275
20
-4.237500000763724
42
0.99999999999999989
10
-304.00000000004354
20
-1.2375000007673487
10
-306.00000000004388
20
-1.2375000007632568
42
0.99999999999999989
10
-306.00000000004349
20
-4.2375000007580113
0
LINE
5
129
100
AcDbEntity
8
0
100
AcDbLine
10
323.00000000002444
20
12.462500000003336
30
0
11
322.99999999999773
21
2.0625000001108744
31
0
0
ARC
5
130
100
AcDbEntity
8
0
100
AcDbCircle
10
320.20000000002591
20
12.46250000001047
30
0
40
2.7999999999985192
210
0
220
0
230
1
100
AcDbArc
50
0
51
89.999999999852278
0
LINE
5
131
100
AcDbEntity
8
0
100
AcDbLine
10
309.80000000004333
20
15.262500000035423
30
0
11
320.20000000003313
21
15.262500000008989
31
0
0
ARC
5
132
100
AcDbEntity
8
0
100
AcDbCircle
10
309.80000000003611
20
12.462500000150108
30
0
40
2.7999999998853164
210
0
220
-0
230
1
100
AcDbArc
50
89.999999999852278
51
180
0
LINE
5
133
100
AcDbEntity
8
0
100
AcDbLine
10
306.99999999999994
20
2.0624999999771632
30
0
11
307.00000000015081
21
12.462500000159956
31
0
0
ARC
5
134
100
AcDbEntity
8
0
100
AcDbCircle
10
309.79999999997239
20
2.0624999999673213
30
0
40
2.7999999999724068
210
0
220
0
230
1
100
AcDbArc
50
180
51
270.00000000026751
0
LINE
5
135
100
AcDbEntity
8
0
100
AcDbLine
10
320.19999999993615
20
-0.73749999995657256
30
0
11
309.79999999998546
21
-0.73750000000508575
31
0
0
ARC
5
136
100
AcDbEntity
8
0
100
AcDbCircle
10
320.19999999992308
20
2.0625000001180669
30
0
40
2.8000000000746397
210
0
220
0
230
1
100
AcDbArc
50
270.00000000026751
51
360
0
LWPOLYLINE
5
137
100
AcDbEntity
8
0
100
AcDbPolyline
90
8
70
1
43
0.0
10
-320.19999999996315
20
15.262500000306931
42
0.41421356237321788
10
-322.99999999995566
20
12.462500000304072
10
-322.99999999993673
20
2.0625000004114225
42
0.41421356237131501
10
-320.19999999988124
20
-0.73749999965861401
10
-309.79999999993021
20
-0.73749999971683466
42
0.41421356235948587
10
-306.99999999994213
20
2.0625000002628235
10
-306.99999999996896
20
12.462500000445731
42
0.41421356236080359
10
-309.79999999997335
20
15.262500000323797
0
CIRCLE
5
138
100
AcDbEntity
8
0
100
AcDbCircle
10
297.49999999996885
20
5.000000000025123
30
0
40
1.3749999999999929
210
0
220
0
230
1
0
CIRCLE
5
139
100
AcDbEntity
8
0
100
AcDbCircle
10
277.49999999996885
20
5.0000000000251221
30
0
40
1.3749999999999929
210
0
220
0
230
1
0
CIRCLE
5
140
100
AcDbEntity
8
0
100
AcDbCircle
10
257.49999999996885
20
5.0000000000251195
30
0
40
1.3749999999999929
210
0
220
0
230
1
0
CIRCLE
5
141
100
AcDbEntity
8
0
100
AcDbCircle
10
237.49999999996888
20
5.0000000000251177
30
0
40
1.3749999999999929
210
0
220
0
230
1
0
CIRCLE
5
142
100
AcDbEntity
8
0
100
AcDbCircle
10
217.49999999996888
20
5.0000000000251168
30
0
40
1.3749999999999929
210
0
220
0
230
1
0
CIRCLE
5
143
100
AcDbEntity
8
0
100
AcDbCircle
10
197.49999999996888
20
5.0000000000251141
30
0
40
1.3749999999999929
210
0
220
0
230
1
0
CIRCLE
5
144
100
AcDbEntity
8
0
100
AcDbCircle
10
177.49999999996888
20
5.0000000000251124
30
0
40
1.3749999999999929
210
0
220
0
230
1
0
CIRCLE
5
145
100
AcDbEntity
8
0
100
AcDbCircle
10
157.49999999996888
20
5.0000000000251097
30
0
40
1.3749999999999929
210
0
220
0
230
1
0
CIRCLE
5
146
100
AcDbEntity
8
0
100
AcDbCircle
10
137.49999999996888
20
5.0000000000251088
30
0
40
1.3749999999999929
210
0
220
0
230
1
0
CIRCLE
5
147
100
AcDbEntity
8
0
100
AcDbCircle
10
117.49999999996888
20
5.000000000025107
30
0
40
1.3749999999999929
210
0
220
0
230
1
0
CIRCLE
5
148
100
AcDbEntity
8
0
100
AcDbCircle
10
97.499999999968878
20
5.0000000000251044
30
0
40
1.3749999999999929
210
0
220
0
230
1
0
CIRCLE
5
149
100
AcDbEntity
8
0
100
AcDbCircle
10
77.499999999968878
20
5.0000000000251035
30
0
40
1.3749999999999929
210
0
220
0
230
1
0
ENDSEC
0
SECTION
2
OBJECTS
0
DICTIONARY
5
C
100
AcDbDictionary
3
ACAD_GROUP
350
D
3
ACAD_MLINESTYLE
350
17
0
DICTIONARY
5
D
100
AcDbDictionary
0
DICTIONARY
5
1A
330
C
100
AcDbDictionary
0
DICTIONARY
5
17
100
AcDbDictionary
0
ENDSEC
0
EOF
