0
SECTION
2
HEADER
9
$INSUNITS
70
4
9
$ACADVER
1
AC1014
9
$HANDSEED
5
FFFF
0
ENDSEC
0
SECTION
2
TABLES
0
TABLE
2
VPORT
5
8
100
AcDbSymbolTable
0
ENDTAB
0
TABLE
2
LTYPE
5
5
100
AcDbSymbolTable
0
LTYPE
5
14
100
AcDbSymbolTableRecord
100
AcDbLinetypeTableRecord
2
BYBLOCK
70
0
0
LTYPE
5
15
100
AcDbSymbolTableRecord
100
AcDbLinetypeTableRecord
2
BYLAYER
70
0
0
ENDTAB
0
TABLE
2
LAYER
5
2
100
AcDbSymbolTable
70
2
0
LAYER
5
50
100
AcDbSymbolTableRecord
100
AcDbLayerTableRecord
2
0
70
0
6
CONTINUOUS
0
ENDTAB
0
TABLE
2
STYLE
5
3
100
AcDbSymbolTable
70
1
0
STYLE
5
11
100
AcDbSymbolTableRecord
100
AcDbTextStyleTableRecord
2
STANDARD
70
0
0
ENDTAB
0
TABLE
2
VIEW
5
6
100
AcDbSymbolTable
70
0
0
ENDTAB
0
TABLE
2
UCS
5
7
100
AcDbSymbolTable
70
0
0
ENDTAB
0
TABLE
2
APPID
5
9
100
AcDbSymbolTable
70
2
0
APPID
5
12
100
AcDbSymbolTableRecord
100
AcDbRegAppTableRecord
2
ACAD
70
0
0
ENDTAB
0
TABLE
2
DIMSTYLE
5
A
100
AcDbSymbolTable
70
1
0
ENDTAB
0
TABLE
2
BLOCK_RECORD
5
1
100
AcDbSymbolTable
70
1
0
BLOCK_RECORD
5
1F
100
AcDbSymbolTableRecord
100
AcDbBlockTableRecord
2
*MODEL_SPACE
0
BLOCK_RECORD
5
1B
100
AcDbSymbolTableRecord
100
AcDbBlockTableRecord
2
*PAPER_SPACE
0
ENDTAB
0
ENDSEC
0
SECTION
2
BLOCKS
0
BLOCK
5
20
100
AcDbEntity
100
AcDbBlockBegin
2
*MODEL_SPACE
0
ENDBLK
5
21
100
AcDbEntity
100
AcDbBlockEnd
0
BLOCK
5
1C
100
AcDbEntity
100
AcDbBlockBegin
2
*PAPER_SPACE
0
ENDBLK
5
1D
100
AcDbEntity
100
AcDbBlockEnd
0
ENDSEC
0
SECTION
2
ENTITIES
0
CIRCLE
5
100
100
AcDbEntity
8
0
100
AcDbCircle
10
162.49999999998545
20
4.9999999999945279
30
0
40
1.3749999999999929
210
0
220
0
230
1
0
CIRCLE
5
101
100
AcDbEntity
8
0
100
AcDbCircle
10
142.49999999998545
20
4.9999999999945279
30
0
40
1.3749999999999929
210
0
220
0
230
1
0
CIRCLE
5
102
100
AcDbEntity
8
0
100
AcDbCircle
10
122.49999999998543
20
4.9999999999945279
30
0
40
1.3749999999999929
210
0
220
0
230
1
0
CIRCLE
5
103
100
AcDbEntity
8
0
100
AcDbCircle
10
102.49999999998543
20
4.9999999999945279
30
0
40
1.3749999999999929
210
0
220
0
230
1
0
CIRCLE
5
104
100
AcDbEntity
8
0
100
AcDbCircle
10
82.499999999985434
20
4.9999999999945279
30
0
40
1.3749999999999929
210
0
220
0
230
1
0
CIRCLE
5
105
100
AcDbEntity
8
0
100
AcDbCircle
10
62.499999999985434
20
4.9999999999945279
30
0
40
1.3749999999999929
210
0
220
0
230
1
0
CIRCLE
5
106
100
AcDbEntity
8
0
100
AcDbCircle
10
42.499999999985434
20
4.9999999999945279
30
0
40
1.3749999999999929
210
0
220
0
230
1
0
CIRCLE
5
107
100
AcDbEntity
8
0
100
AcDbCircle
10
22.499999999985434
20
4.9999999999945279
30
0
40
1.3749999999999929
210
0
220
0
230
1
0
CIRCLE
5
108
100
AcDbEntity
8
0
100
AcDbCircle
10
2.4999999999854339
20
4.9999999999945279
30
0
40
1.3749999999999929
210
0
220
0
230
1
0
CIRCLE
5
109
100
AcDbEntity
8
0
100
AcDbCircle
10
-17.500000000014566
20
4.9999999999945288
30
0
40
1.3749999999999929
210
0
220
0
230
1
0
CIRCLE
5
110
100
AcDbEntity
8
0
100
AcDbCircle
10
-37.500000000014566
20
4.9999999999945288
30
0
40
1.3749999999999929
210
0
220
0
230
1
0
CIRCLE
5
111
100
AcDbEntity
8
0
100
AcDbCircle
10
-57.500000000014566
20
4.9999999999945288
30
0
40
1.3749999999999929
210
0
220
0
230
1
0
CIRCLE
5
112
100
AcDbEntity
8
0
100
AcDbCircle
10
-77.500000000014566
20
4.9999999999945288
30
0
40
1.3749999999999929
210
0
220
0
230
1
0
CIRCLE
5
113
100
AcDbEntity
8
0
100
AcDbCircle
10
-97.500000000014566
20
4.9999999999945288
30
0
40
1.3749999999999929
210
0
220
0
230
1
0
CIRCLE
5
114
100
AcDbEntity
8
0
100
AcDbCircle
10
-117.50000000001457
20
4.9999999999945288
30
0
40
1.3749999999999929
210
0
220
0
230
1
0
CIRCLE
5
115
100
AcDbEntity
8
0
100
AcDbCircle
10
-137.50000000001455
20
4.9999999999945288
30
0
40
1.3749999999999929
210
0
220
0
230
1
0
CIRCLE
5
116
100
AcDbEntity
8
0
100
AcDbCircle
10
-157.50000000001455
20
4.9999999999945288
30
0
40
1.3749999999999929
210
0
220
0
230
1
0
CIRCLE
5
117
100
AcDbEntity
8
0
100
AcDbCircle
10
-177.50000000001455
20
4.9999999999945288
30
0
40
1.3749999999999929
210
0
220
0
230
1
0
LWPOLYLINE
5
118
100
AcDbEntity
8
0
100
AcDbPolyline
90
40
70
1
43
0.0
10
186.00000000001771
20
15.99999999992939
10
186.00000000002453
20
23.524999999979428
42
-0.41421356237282836
10
187.00000000002456
20
24.524999999978519
10
193.50000000004081
20
24.524999999978494
42
-0.41421356237309503
10
194.00000000004076
20
24.024999999978522
10
194.00000000004076
20
20.137499999975716
42
-0.1622776601683793
10
193.90000000004076
20
19.837499999975723
42
0.86729540161288265
10
194.0750000000408
20
19.662499999975793
42
-0.16227766016837439
10
194.37500000004076
20
19.762499999975937
10
205.62500000004079
20
19.762499999981493
42
-0.16227766016838022
10
205.92500000004082
20
19.662499999981641
42
0.86729540161242213
10
206.10000000004078
20
19.837499999981645
42
-0.16227766016837838
10
206.00000000004076
20
20.13749999998165
10
206.00000000004076
20
24.024999999978522
42
-0.41421356237309503
10
206.50000000004076
20
24.524999999978519
10
213.0000000000604
20
24.524999999978569
42
-0.41421356237328233
10
214.00000000006045
20
23.524999999977879
10
214.00000000003644
20
-14.000000000326128
42
-0.41421356237327128
10
213.00000000003519
20
-15.000000000325489
10
-213.00000000003578
20
-14.999999999787583
42
-0.41421356237311063
10
-214.00000000003456
20
-13.999999999786237
10
-213.99999999998445
20
23.525000000178416
42
-0.41421356237286999
10
-212.99999999998388
20
24.52500000017708
10
-206.4999999999624
20
24.525000000173293
42
-0.41421356237319906
10
-205.99999999996268
20
24.025000000172824
10
-205.99999999996626
20
20.137500000173389
42
-0.16227766016837109
10
-206.09999999996654
20
19.837500000173488
42
0.86729540169129571
10
-205.92499999996676
20
19.662500000173292
42
-0.16227766016836517
10
-205.62499999996663
20
19.762500000172849
10
-194.37499999996936
20
19.762500000156816
42
-0.16227766016836653
10
-194.07499999996955
20
19.662500000156406
42
0.86729540158623353
10
-193.89999999996928
20
19.837500000156119
42
-0.16227766016838568
10
-193.99999999996882
20
20.137500000156283
10
-193.99999999996297
20
24.025000000166447
42
-0.41421356237281926
10
-193.49999999996268
20
24.525000000165686
10
-186.99999999992102
20
24.525000000161903
42
-0.41421356237490431
10
-185.99999999992156
20
23.525000000155142
10
-185.99999999997232
20
16.000000000015081
42
0.41421356237498758
10
-184.99999999997249
20
15.000000000008335
10
185.00000000001748
20
14.999999999930299
42
0.41421356237288887
0
CIRCLE
5
119
100
AcDbEntity
8
0
100
AcDbCircle
10
210.00000000003661
20
-2.7375000000026546
30
0
40
1.4999999999999858
210
-0
220
0
230
1
0
CIRCLE
5
120
100
AcDbEntity
8
0
100
AcDbCircle
10
210.00000000004999
20
17.262500000008419
30
0
40
1.4999999999999858
210
-0
220
0
230
1
0
CIRCLE
5
121
100
AcDbEntity
8
0
100
AcDbCircle
10
190.00000000003095
20
-2.7375000000157912
30
0
40
1.4999999999999858
210
-0
220
0
230
1
0
CIRCLE
5
122
100
AcDbEntity
8
0
100
AcDbCircle
10
190.00000000001626
20
17.262500000031189
30
0
40
1.4999999999999858
210
-0
220
0
230
1
0
CIRCLE
5
123
100
AcDbEntity
8
0
100
AcDbCircle
10
182.49999999998545
20
4.9999999999945279
30
0
40
1.3749999999999929
210
0
220
0
230
1
0
LWPOLYLINE
5
124
100
AcDbEntity
8
0
100
AcDbPolyline
90
16
70
1
43
0.0
10
194.07500000004077
20
-5.1375000000026514
42
0.86729540173982023
10
193.90000000004076
20
-5.3125000000025988
42
-0.1622776601683793
10
194.00000000004076
20
-5.612500000002604
10
194.00000000004076
20
-10.113124999996877
42
-0.16227766016837838
10
193.90000000004076
20
-10.413124999996867
42
0.8672954017113339
10
194.07500000004077
20
-10.588124999996824
42
-0.16227766016836653
10
194.37500000004076
20
-10.48812499999684
10
205.62500000004079
20
-10.488124999996831
42
-0.16227766016836587
10
205.92500000004077
20
-10.588124999996815
42
0.86729540172308217
10
206.10000000004078
20
-10.413124999996866
42
-0.16227766016837838
10
206.00000000004076
20
-10.113124999996863
10
206.00000000004076
20
-5.612500000002604
42
-0.16227766016837758
10
206.10000000004078
20
-5.3125000000026148
42
0.8672954017515011
10
205.92500000004077
20
-5.1375000000026549
42
-0.16227766016836745
10
205.62500000004079
20
-5.2375000000026404
10
194.37500000004076
20
-5.237500000002635
42
-0.16227766016836609
0
LWPOLYLINE
5
125
100
AcDbEntity
8
0
100
AcDbPolyline
90
16
70
1
43
0.0
10
-194.07500000000152
20
-10.588124999816227
42
0.86729539776682141
10
-193.9000000000014
20
-10.413124999816375
42
-0.16227766016837769
10
-194.00000000000117
20
-10.113124999816293
10
-193.9999999999975
20
-5.6124999998162464
42
-0.16227766016835618
10
-193.89999999999728
20
-5.3124999998163682
42
0.86729540489584855
10
-194.07499999999709
20
-5.1374999998162227
42
-0.1622776601683866
10
-194.37499999999719
20
-5.2374999998159542
10
-205.62499999999721
20
-5.2374999998054754
42
-0.16227766016838066
10
-205.92499999999714
20
-5.1374999998051987
42
0.8672954057942216
10
-206.09999999999599
20
-5.3124999998067493
42
-0.1622776601683866
10
-205.99999999999102
20
-5.6124999998051193
10
-205.99999999991701
20
-10.113124999684349
42
-0.16227766023035131
10
-206.09999999998453
20
-10.413124999782614
42
0.86729539851717796
10
-205.92500000000155
20
-10.588124999805181
42
-0.16227766016836609
10
-205.62500000000145
20
-10.488124999805475
10
-194.37500000000142
20
-10.488124999815952
42
-0.16227766016838022
0
LWPOLYLINE
5
126
100
AcDbEntity
8
0
100
AcDbPolyline
90
4
70
1
43
0.0
10
-209.00000000007381
20
-4.2375000003801633
42
0.99999999999999989
10
-209.00000000003723
20
-1.237500000342453
10
-211.00000000006935
20
-1.2375000003557162
42
0.99999999999999989
10
-211.00000000004138
20
-4.2375000003557179
0
LWPOLYLINE
5
127
100
AcDbEntity
8
0
100
AcDbPolyline
90
4
70
1
43
0.0
10
-211.00000000003664
20
18.762499999764792
42
0.99999999999999989
10
-210.99999999994151
20
15.762499999764829
10
-209.00000000004502
20
15.762499999698541
42
0.99999999999999989
10
-208.99999999993312
20
18.762499999819827
0
LWPOLYLINE
5
128
100
AcDbEntity
8
0
100
AcDbPolyline
90
4
70
1
43
0.0
10
-188.99999999998144
20
15.762499999730885
42
0.99999999999999989
10
-189.00000000002464
20
18.76249999965653
10
-190.99999999998562
20
18.762499999702094
42
0.99999999999999989
10
-191.00000000002044
20
15.762499999696512
0
LWPOLYLINE
5
129
100
AcDbEntity
8
0
100
AcDbPolyline
90
4
70
1
43
0.0
10
-189.00000000005997
20
-4.237500000293636
42
0.99999999999999989
10
-189.00000000005429
20
-1.2375000003012588
10
-191.00000000005608
20
-1.2375000002922092
42
0.99999999999999989
10
-191.00000000005815
20
-4.2375000002922061
0
LWPOLYLINE
5
130
100
AcDbEntity
8
0
100
AcDbPolyline
90
8
70
1
43
0.0
10
207.99999999998224
20
12.462499999894343
10
208.00000000005491
20
2.0624999999801252
42
-0.41421356235638895
10
205.199999999993
20
-0.73749999994752069
10
194.80000000001993
20
-0.7374999999147086
42
-0.41421356235828116
10
192.00000000003479
20
2.0624999999033262
10
192.00000000018383
20
12.462500000081889
42
-0.41421356237777596
10
194.80000000004151
20
15.262500000039573
10
205.19999999996105
20
15.262500000147369
42
-0.41421356240213331
0
LWPOLYLINE
5
131
100
AcDbEntity
8
0
100
AcDbPolyline
90
8
70
1
43
0.0
10
-205.19999999989108
20
15.262500000203898
42
0.41421356238821089
10
-207.9999999999136
20
12.462500000087882
10
-207.99999999999363
20
2.0625000001736615
42
0.41421356235646434
10
-205.19999999993792
20
-0.73749999975426195
10
-194.79999999996488
20
-0.73749999980995185
42
0.41421356235869078
10
-191.99999999989657
20
2.0625000000819749
10
-192.00000000000176
20
12.462500000260535
42
0.41421356237344831
10
-194.79999999997153
20
15.262500000220829
0
ENDSEC
0
SECTION
2
OBJECTS
0
DICTIONARY
5
C
100
AcDbDictionary
3
ACAD_GROUP
350
D
3
ACAD_MLINESTYLE
350
17
0
DICTIONARY
5
D
100
AcDbDictionary
0
DICTIONARY
5
1A
330
C
100
AcDbDictionary
0
DICTIONARY
5
17
100
AcDbDictionary
0
ENDSEC
0
EOF
