0
SECTION
2
HEADER
9
$INSUNITS
70
4
9
$ACADVER
1
AC1014
9
$HANDSEED
5
FFFF
0
ENDSEC
0
SECTION
2
TABLES
0
TABLE
2
VPORT
5
8
100
AcDbSymbolTable
0
ENDTAB
0
TABLE
2
LTYPE
5
5
100
AcDbSymbolTable
0
LTYPE
5
14
100
AcDbSymbolTableRecord
100
AcDbLinetypeTableRecord
2
BYBLOCK
70
0
0
LTYPE
5
15
100
AcDbSymbolTableRecord
100
AcDbLinetypeTableRecord
2
BYLAYER
70
0
0
ENDTAB
0
TABLE
2
LAYER
5
2
100
AcDbSymbolTable
70
2
0
LAYER
5
50
100
AcDbSymbolTableRecord
100
AcDbLayerTableRecord
2
0
70
0
6
CONTINUOUS
0
ENDTAB
0
TABLE
2
STYLE
5
3
100
AcDbSymbolTable
70
1
0
STYLE
5
11
100
AcDbSymbolTableRecord
100
AcDbTextStyleTableRecord
2
STANDARD
70
0
0
ENDTAB
0
TABLE
2
VIEW
5
6
100
AcDbSymbolTable
70
0
0
ENDTAB
0
TABLE
2
UCS
5
7
100
AcDbSymbolTable
70
0
0
ENDTAB
0
TABLE
2
APPID
5
9
100
AcDbSymbolTable
70
2
0
APPID
5
12
100
AcDbSymbolTableRecord
100
AcDbRegAppTableRecord
2
ACAD
70
0
0
ENDTAB
0
TABLE
2
DIMSTYLE
5
A
100
AcDbSymbolTable
70
1
0
ENDTAB
0
TABLE
2
BLOCK_RECORD
5
1
100
AcDbSymbolTable
70
1
0
BLOCK_RECORD
5
1F
100
AcDbSymbolTableRecord
100
AcDbBlockTableRecord
2
*MODEL_SPACE
0
BLOCK_RECORD
5
1B
100
AcDbSymbolTableRecord
100
AcDbBlockTableRecord
2
*PAPER_SPACE
0
ENDTAB
0
ENDSEC
0
SECTION
2
BLOCKS
0
BLOCK
5
20
100
AcDbEntity
100
AcDbBlockBegin
2
*MODEL_SPACE
0
ENDBLK
5
21
100
AcDbEntity
100
AcDbBlockEnd
0
BLOCK
5
1C
100
AcDbEntity
100
AcDbBlockBegin
2
*PAPER_SPACE
0
ENDBLK
5
1D
100
AcDbEntity
100
AcDbBlockEnd
0
ENDSEC
0
SECTION
2
ENTITIES
0
LWPOLYLINE
5
100
100
AcDbEntity
8
0
100
AcDbPolyline
90
20
70
1
43
0.0
10
-6.6250000000000098
20
-17.262499999999999
42
0.41421356237309509
10
-6.1250000000000089
20
-16.762499999999999
10
-6.1250000000000089
20
-12.500000000000002
10
6.1250000000000089
20
-12.499999999999998
10
6.1250000000000107
20
-16.762499999999999
42
0.41421356237309509
10
6.6250000000000107
20
-17.262499999999999
10
13.000000000000007
20
-17.262499999999999
42
0.41421356237309509
10
14.000000000000007
20
-16.262499999999996
10
14.000000000000007
20
16.262500000000003
42
0.41421356237309509
10
13.000000000000007
20
17.262499999999999
10
6.6249999999999964
20
17.262499999999999
42
0.41421356237309509
10
6.1249999999999964
20
16.762499999999999
10
6.1249999999999973
20
12.5
10
-6.125000000000008
20
12.5
10
-6.125000000000008
20
16.762499999999999
42
0.41421356237309509
10
-6.6250000000000089
20
17.262499999999999
10
-12.999999999999998
20
17.262499999999999
42
0.41421356237309509
10
-14
20
16.262499999999999
10
-14
20
-16.262499999999999
42
0.41421356237309509
10
-12.999999999999998
20
-17.262499999999999
0
CIRCLE
5
101
100
AcDbEntity
8
0
100
AcDbCircle
10
-10.000000000000021
20
-10
30
0
40
1.6000000000000003
210
0
220
0
230
1
0
CIRCLE
5
102
100
AcDbEntity
8
0
100
AcDbCircle
10
9.999999999999984
20
10
30
0
40
1.6000000000000003
210
0
220
0
230
1
0
CIRCLE
5
103
100
AcDbEntity
8
0
100
AcDbCircle
10
9.999999999999984
20
-10
30
0
40
1.6000000000000003
210
0
220
0
230
1
0
CIRCLE
5
104
100
AcDbEntity
8
0
100
AcDbCircle
10
-10.000000000000021
20
10
30
0
40
1.6000000000000003
210
0
220
0
230
1
0
LWPOLYLINE
5
105
100
AcDbEntity
8
0
100
AcDbPolyline
90
7
70
1
43
0.0
10
-3.666666666666663
20
3.6666666666666661
10
-0.999999999999997
20
3.6666666666666652
10
-0.99999999999999845
20
8
10
-4.7999999999999998
20
8
42
0.41421356237309509
10
-8
20
4.8000000000000007
10
-8
20
0.99999999999999811
10
-3.6666666666666652
20
0.99999999999999922
0
LWPOLYLINE
5
106
100
AcDbEntity
8
0
100
AcDbPolyline
90
5
70
1
43
0.0
10
8
20
-4.7999999999999998
10
8
20
-0.99999999999999867
10
0.99999999999999645
20
-1.0000000000000004
10
0.99999999999999711
20
-7.9999999999999982
10
4.7999999999999998
20
-8
42
0.41421356237309515
0
LWPOLYLINE
5
107
100
AcDbEntity
8
0
100
AcDbPolyline
90
5
70
1
43
0.0
10
-4.7999999999999998
20
-8
10
-0.99999999999999867
20
-8
10
-0.99999999999999978
20
-0.99999999999999645
10
-7.9999999999999991
20
-0.99999999999999711
10
-8
20
-4.8000000000000007
42
0.41421356237309509
0
LWPOLYLINE
5
108
100
AcDbEntity
8
0
100
AcDbPolyline
90
5
70
1
43
0.0
10
4.7999999999999998
20
8
10
0.99999999999999867
20
8
10
1.0000000000000002
20
0.99999999999999645
10
7.9999999999999991
20
0.99999999999999745
10
8
20
4.8000000000000007
42
0.41421356237309509
0
ENDSEC
0
SECTION
2
OBJECTS
0
DICTIONARY
5
C
100
AcDbDictionary
3
ACAD_GROUP
350
D
3
ACAD_MLINESTYLE
350
17
0
DICTIONARY
5
D
100
AcDbDictionary
0
DICTIONARY
5
1A
330
C
100
AcDbDictionary
0
DICTIONARY
5
17
100
AcDbDictionary
0
ENDSEC
0
EOF
