0
SECTION
2
HEADER
9
$INSUNITS
70
4
9
$ACADVER
1
AC1014
9
$HANDSEED
5
FFFF
0
ENDSEC
0
SECTION
2
TABLES
0
TABLE
2
VPORT
5
8
100
AcDbSymbolTable
0
ENDTAB
0
TABLE
2
LTYPE
5
5
100
AcDbSymbolTable
0
LTYPE
5
14
100
AcDbSymbolTableRecord
100
AcDbLinetypeTableRecord
2
BYBLOCK
70
0
0
LTYPE
5
15
100
AcDbSymbolTableRecord
100
AcDbLinetypeTableRecord
2
BYLAYER
70
0
0
ENDTAB
0
TABLE
2
LAYER
5
2
100
AcDbSymbolTable
70
2
0
LAYER
5
50
100
AcDbSymbolTableRecord
100
AcDbLayerTableRecord
2
0
70
0
6
CONTINUOUS
0
ENDTAB
0
TABLE
2
STYLE
5
3
100
AcDbSymbolTable
70
1
0
STYLE
5
11
100
AcDbSymbolTableRecord
100
AcDbTextStyleTableRecord
2
STANDARD
70
0
0
ENDTAB
0
TABLE
2
VIEW
5
6
100
AcDbSymbolTable
70
0
0
ENDTAB
0
TABLE
2
UCS
5
7
100
AcDbSymbolTable
70
0
0
ENDTAB
0
TABLE
2
APPID
5
9
100
AcDbSymbolTable
70
2
0
APPID
5
12
100
AcDbSymbolTableRecord
100
AcDbRegAppTableRecord
2
ACAD
70
0
0
ENDTAB
0
TABLE
2
DIMSTYLE
5
A
100
AcDbSymbolTable
70
1
0
ENDTAB
0
TABLE
2
BLOCK_RECORD
5
1
100
AcDbSymbolTable
70
1
0
BLOCK_RECORD
5
1F
100
AcDbSymbolTableRecord
100
AcDbBlockTableRecord
2
*MODEL_SPACE
0
BLOCK_RECORD
5
1B
100
AcDbSymbolTableRecord
100
AcDbBlockTableRecord
2
*PAPER_SPACE
0
ENDTAB
0
ENDSEC
0
SECTION
2
BLOCKS
0
BLOCK
5
20
100
AcDbEntity
100
AcDbBlockBegin
2
*MODEL_SPACE
0
ENDBLK
5
21
100
AcDbEntity
100
AcDbBlockEnd
0
BLOCK
5
1C
100
AcDbEntity
100
AcDbBlockBegin
2
*PAPER_SPACE
0
ENDBLK
5
1D
100
AcDbEntity
100
AcDbBlockEnd
0
ENDSEC
0
SECTION
2
ENTITIES
0
CIRCLE
5
100
100
AcDbEntity
8
0
100
AcDbCircle
10
-15
20
-15
30
0
40
2.6500000000000004
210
0
220
0
230
1
0
CIRCLE
5
101
100
AcDbEntity
8
0
100
AcDbCircle
10
15
20
15
30
0
40
2.6500000000000004
210
0
220
0
230
1
0
CIRCLE
5
102
100
AcDbEntity
8
0
100
AcDbCircle
10
15
20
-15
30
0
40
2.6500000000000004
210
0
220
0
230
1
0
CIRCLE
5
103
100
AcDbEntity
8
0
100
AcDbCircle
10
-15
20
15
30
0
40
2.6500000000000004
210
0
220
0
230
1
0
CIRCLE
5
104
100
AcDbEntity
8
0
100
AcDbCircle
10
-24.999999999999922
20
41.200000000000003
30
0
40
2.2999999999999998
210
0
220
0
230
1
0
CIRCLE
5
105
100
AcDbEntity
8
0
100
AcDbCircle
10
25.999999999819337
20
26.000000000000014
30
0
40
1.3750000000000018
210
0
220
0
230
1
0
CIRCLE
5
106
100
AcDbEntity
8
0
100
AcDbCircle
10
-18.958418898878179
20
23.717459685079771
30
0
40
1.3749999999999996
210
0
220
0
230
1
0
LWPOLYLINE
5
107
100
AcDbEntity
8
0
100
AcDbPolyline
90
4
70
1
43
0.0
10
5.5
20
-20.466197722844555
10
-5.5
20
-20.466197722844555
42
0.99999999999999989
10
-5.5
20
-27.466197722844559
10
5.5
20
-27.466197722844559
42
0.99999999999999989
0
LWPOLYLINE
5
108
100
AcDbEntity
8
0
100
AcDbPolyline
90
4
70
1
43
0.0
10
-27.5
20
4.4747737850418998
10
-27.5
20
-6.5252262149580984
42
0.99999999999999989
10
-20.5
20
-6.5252262149581011
10
-20.5
20
4.4747737850419007
42
0.99999999999999989
0
CIRCLE
5
109
100
AcDbEntity
8
0
100
AcDbCircle
10
41.199999999999939
20
-24.999999999999993
30
0
40
2.2999999999999998
210
0
220
0
230
1
0
CIRCLE
5
110
100
AcDbEntity
8
0
100
AcDbCircle
10
1.14999999999966
20
-8.8161977228445636
30
0
40
7.9375000000000009
210
0
220
0
230
1
0
CIRCLE
5
111
100
AcDbEntity
8
0
100
AcDbCircle
10
-9.3500000000003407
20
-8.8161977228445672
30
0
40
1.3749999999999996
210
0
220
0
230
1
0
CIRCLE
5
112
100
AcDbEntity
8
0
100
AcDbCircle
10
1.3260234531921444
20
23.717459685079369
30
0
40
1.375
210
0
220
0
230
1
0
CIRCLE
5
113
100
AcDbEntity
8
0
100
AcDbCircle
10
11.649999999999661
20
-8.8161977228445636
30
0
40
1.3749999999999996
210
0
220
0
230
1
0
CIRCLE
5
114
100
AcDbEntity
8
0
100
AcDbCircle
10
-8.8161977228429613
20
26.435059658656243
30
0
40
7.9375000000000009
210
0
220
0
230
1
0
CIRCLE
5
115
100
AcDbEntity
8
0
100
AcDbCircle
10
-24.999999999999982
20
-14.96619772302517
30
0
40
2.2999999999999998
210
0
220
0
230
1
0
LWPOLYLINE
5
116
100
AcDbEntity
8
0
100
AcDbPolyline
90
16
70
1
43
0.0
10
4.4408920985006262e-15
20
44.200000000000003
42
0.41421356237309304
10
-1.9999999999999973
20
46.199999999999989
10
-28.000000000000007
20
46.200000000000003
42
0.41421356237309759
10
-30
20
44.20000000000001
10
-30
20
-27.966197722844548
42
0.4142135623730937
10
-27.999999999999989
20
-29.966197722844559
10
44.199999999999932
20
-29.966197722844559
42
0.41421356237309309
10
46.199999999999939
20
-27.966197722844555
10
46.199999999999939
20
-2.0000000000000027
42
0.4142135623730927
10
44.199999999999932
20
9.9920072216264089e-15
10
31
20
8.8817841970012523e-15
42
-0.41421356237309243
10
30
20
1.0000000000000098
10
29.999999999999694
20
28.000000000000004
42
0.4142135623730937
10
27.999999999999694
20
30
10
0.99999999999999656
20
30.000000000000018
42
-0.41421356237309476
10
-5.9674487573602164e-15
20
31.000000000000021
0
CIRCLE
5
117
100
AcDbEntity
8
0
100
AcDbCircle
10
-25
20
-25
30
0
40
1.7000000000000037
210
0
220
0
230
1
0
CIRCLE
5
118
100
AcDbEntity
8
0
100
AcDbCircle
10
41.199999999999974
20
-14.99999999999978
30
0
40
2.75
210
0
220
0
230
1
0
CIRCLE
5
119
100
AcDbEntity
8
0
100
AcDbCircle
10
-14.999999999999826
20
41.200000000000003
30
0
40
2.75
210
0
220
0
230
1
0
ENDSEC
0
SECTION
2
OBJECTS
0
DICTIONARY
5
C
100
AcDbDictionary
3
ACAD_GROUP
350
D
3
ACAD_MLINESTYLE
350
17
0
DICTIONARY
5
D
100
AcDbDictionary
0
DICTIONARY
5
1A
330
C
100
AcDbDictionary
0
DICTIONARY
5
17
100
AcDbDictionary
0
ENDSEC
0
EOF
