0
SECTION
2
HEADER
9
$INSUNITS
70
4
9
$ACADVER
1
AC1014
9
$HANDSEED
5
FFFF
0
ENDSEC
0
SECTION
2
TABLES
0
TABLE
2
VPORT
5
8
100
AcDbSymbolTable
0
ENDTAB
0
TABLE
2
LTYPE
5
5
100
AcDbSymbolTable
0
LTYPE
5
14
100
AcDbSymbolTableRecord
100
AcDbLinetypeTableRecord
2
BYBLOCK
70
0
0
LTYPE
5
15
100
AcDbSymbolTableRecord
100
AcDbLinetypeTableRecord
2
BYLAYER
70
0
0
ENDTAB
0
TABLE
2
LAYER
5
2
100
AcDbSymbolTable
70
2
0
LAYER
5
50
100
AcDbSymbolTableRecord
100
AcDbLayerTableRecord
2
0
70
0
6
CONTINUOUS
0
ENDTAB
0
TABLE
2
STYLE
5
3
100
AcDbSymbolTable
70
1
0
STYLE
5
11
100
AcDbSymbolTableRecord
100
AcDbTextStyleTableRecord
2
STANDARD
70
0
0
ENDTAB
0
TABLE
2
VIEW
5
6
100
AcDbSymbolTable
70
0
0
ENDTAB
0
TABLE
2
UCS
5
7
100
AcDbSymbolTable
70
0
0
ENDTAB
0
TABLE
2
APPID
5
9
100
AcDbSymbolTable
70
2
0
APPID
5
12
100
AcDbSymbolTableRecord
100
AcDbRegAppTableRecord
2
ACAD
70
0
0
ENDTAB
0
TABLE
2
DIMSTYLE
5
A
100
AcDbSymbolTable
70
1
0
ENDTAB
0
TABLE
2
BLOCK_RECORD
5
1
100
AcDbSymbolTable
70
1
0
BLOCK_RECORD
5
1F
100
AcDbSymbolTableRecord
100
AcDbBlockTableRecord
2
*MODEL_SPACE
0
BLOCK_RECORD
5
1B
100
AcDbSymbolTableRecord
100
AcDbBlockTableRecord
2
*PAPER_SPACE
0
ENDTAB
0
ENDSEC
0
SECTION
2
BLOCKS
0
BLOCK
5
20
100
AcDbEntity
100
AcDbBlockBegin
2
*MODEL_SPACE
0
ENDBLK
5
21
100
AcDbEntity
100
AcDbBlockEnd
0
BLOCK
5
1C
100
AcDbEntity
100
AcDbBlockBegin
2
*PAPER_SPACE
0
ENDBLK
5
1D
100
AcDbEntity
100
AcDbBlockEnd
0
ENDSEC
0
SECTION
2
ENTITIES
0
CIRCLE
5
100
100
AcDbEntity
8
0
100
AcDbCircle
10
1.9000000000000026
20
-15.577802277155456
30
0
40
1.3749999999999998
210
0
220
0
230
1
0
CIRCLE
5
101
100
AcDbEntity
8
0
100
AcDbCircle
10
-26.299999999999834
20
-6.1500000000000234
30
0
40
1.3750000000000018
210
0
220
0
230
1
0
CIRCLE
5
102
100
AcDbEntity
8
0
100
AcDbCircle
10
-19.299999999999983
20
-25.000000000000021
30
0
40
1.7999999999999994
210
0
220
0
230
1
0
CIRCLE
5
103
100
AcDbEntity
8
0
100
AcDbCircle
10
-24.999999999999993
20
-19.300000000000018
30
0
40
1.8000000000000016
210
0
220
0
230
1
0
CIRCLE
5
104
100
AcDbEntity
8
0
100
AcDbCircle
10
-12.799999999999979
20
-25.000000000000028
30
0
40
1.7999999999999994
210
0
220
0
230
1
0
CIRCLE
5
105
100
AcDbEntity
8
0
100
AcDbCircle
10
-24.999999999999996
20
-12.800000000000018
30
0
40
1.8000000000000016
210
0
220
0
230
1
0
CIRCLE
5
106
100
AcDbEntity
8
0
100
AcDbCircle
10
24.999999999999982
20
15.03219772284455
30
0
40
2.75
210
0
220
0
230
1
0
CIRCLE
5
107
100
AcDbEntity
8
0
100
AcDbCircle
10
-29.999999999819337
20
24.999999999999982
30
0
40
2.75
210
0
220
0
230
1
0
CIRCLE
5
108
100
AcDbEntity
8
0
100
AcDbCircle
10
24.999999999999986
20
-30.000000000000018
30
0
40
2.75
210
0
220
0
230
1
0
CIRCLE
5
109
100
AcDbEntity
8
0
100
AcDbCircle
10
14.045966972007438
20
24.078164694851658
30
0
40
1.7000000000000002
210
0
220
0
230
1
0
CIRCLE
5
110
100
AcDbEntity
8
0
100
AcDbCircle
10
-16.649999999999661
20
-6.6178022771554454
30
0
40
1.7000000000000002
210
0
220
0
230
1
0
CIRCLE
5
111
100
AcDbEntity
8
0
100
AcDbCircle
10
-16.649999999999661
20
24.382197722844555
30
0
40
1.7000000000000002
210
0
220
0
230
1
0
CIRCLE
5
112
100
AcDbEntity
8
0
100
AcDbCircle
10
14.350000000000339
20
-6.6178022771554454
30
0
40
1.7000000000000002
210
0
220
0
230
1
0
LWPOLYLINE
5
113
100
AcDbEntity
8
0
100
AcDbPolyline
90
8
70
1
43
0.0
10
-1.5999999999999992
20
-12.267802277155443
10
-10.999999999999998
20
-12.267802277155443
42
0.41421356237309509
10
-11.5
20
-12.767802277155445
10
-11.5
20
-18.267802277155443
42
0.41421356237309509
10
-10.999999999999996
20
-18.767802277155447
10
-1.5999999999999992
20
-18.767802277155447
42
0.41421356237309509
10
-1.0999999999999988
20
-18.267802277155447
10
-1.0999999999999988
20
-12.767802277155445
42
0.41421356237309509
0
LWPOLYLINE
5
114
100
AcDbEntity
8
0
100
AcDbPolyline
90
4
70
1
43
0.0
10
27.500000000000007
20
6.5912262147774792
42
0.99999999999999989
10
20.500000000000007
20
6.5912262147774792
10
20.500000000000007
20
-4.4087737852225217
42
0.99999999999999989
10
27.500000000000007
20
-4.4087737852225208
0
CIRCLE
5
115
100
AcDbEntity
8
0
100
AcDbCircle
10
-1.1499999999996657
20
8.8821977228445519
30
0
40
11
210
0
220
0
230
1
0
CIRCLE
5
116
100
AcDbEntity
8
0
100
AcDbCircle
10
-15
20
-15
30
0
40
2.5
210
0
220
0
230
1
0
CIRCLE
5
117
100
AcDbEntity
8
0
100
AcDbCircle
10
8.8821977230234985
20
-25.323395531501305
30
0
40
8
210
0
220
0
230
1
0
LWPOLYLINE
5
118
100
AcDbEntity
8
0
100
AcDbPolyline
90
4
70
1
43
0.0
10
-29.29999999999967
20
17.500000000000004
42
0.99999999999999989
10
-29.29999999999967
20
12.500000000000004
10
-22.299999999999667
20
12.500000000000002
42
0.99999999999999989
10
-22.299999999999667
20
17.500000000000004
0
CIRCLE
5
119
100
AcDbEntity
8
0
100
AcDbCircle
10
15
20
-15
30
0
40
2.5
210
0
220
0
230
1
0
LWPOLYLINE
5
120
100
AcDbEntity
8
0
100
AcDbPolyline
90
16
70
1
43
0.0
10
-0.99999999999999645
20
-30.000000000000018
10
-27.999999999999694
20
-30
42
-0.4142135623730937
10
-29.999999999999694
20
-28.000000000000004
10
-30
20
-1.0000000000000098
42
0.41421356237309243
10
-31
20
-8.8817841970012523e-15
10
-32.99999999981933
20
-7.4940054162198066e-15
42
-0.41421356237309603
10
-34.999999999819337
20
1.9999999999999969
10
-34.999999999819337
20
28.032197722844543
42
-0.4142135623730957
10
-32.99999999981933
20
30.032197722844547
10
27.999999999999993
20
30.032197722844565
42
-0.41421356237309176
10
30.000000000000007
20
28.032197722844565
10
30.000000000000007
20
-33.000000000000014
42
-0.41421356237309692
10
28.000000000000011
20
-35.000000000000014
10
2.0000000000000115
20
-35.000000000000014
42
-0.4142135623730942
10
7.2164496600635175e-15
20
-33.000000000000014
10
5.9674487573602164e-15
20
-31.000000000000021
42
0.41421356237309476
0
ENDSEC
0
SECTION
2
OBJECTS
0
DICTIONARY
5
C
100
AcDbDictionary
3
ACAD_GROUP
350
D
3
ACAD_MLINESTYLE
350
17
0
DICTIONARY
5
D
100
AcDbDictionary
0
DICTIONARY
5
1A
330
C
100
AcDbDictionary
0
DICTIONARY
5
17
100
AcDbDictionary
0
ENDSEC
0
EOF
