0
SECTION
2
HEADER
9
$INSUNITS
70
4
9
$ACADVER
1
AC1014
9
$HANDSEED
5
FFFF
0
ENDSEC
0
SECTION
2
TABLES
0
TABLE
2
VPORT
5
8
100
AcDbSymbolTable
0
ENDTAB
0
TABLE
2
LTYPE
5
5
100
AcDbSymbolTable
0
LTYPE
5
14
100
AcDbSymbolTableRecord
100
AcDbLinetypeTableRecord
2
BYBLOCK
70
0
0
LTYPE
5
15
100
AcDbSymbolTableRecord
100
AcDbLinetypeTableRecord
2
BYLAYER
70
0
0
ENDTAB
0
TABLE
2
LAYER
5
2
100
AcDbSymbolTable
70
2
0
LAYER
5
50
100
AcDbSymbolTableRecord
100
AcDbLayerTableRecord
2
0
70
0
6
CONTINUOUS
0
ENDTAB
0
TABLE
2
STYLE
5
3
100
AcDbSymbolTable
70
1
0
STYLE
5
11
100
AcDbSymbolTableRecord
100
AcDbTextStyleTableRecord
2
STANDARD
70
0
0
ENDTAB
0
TABLE
2
VIEW
5
6
100
AcDbSymbolTable
70
0
0
ENDTAB
0
TABLE
2
UCS
5
7
100
AcDbSymbolTable
70
0
0
ENDTAB
0
TABLE
2
APPID
5
9
100
AcDbSymbolTable
70
2
0
APPID
5
12
100
AcDbSymbolTableRecord
100
AcDbRegAppTableRecord
2
ACAD
70
0
0
ENDTAB
0
TABLE
2
DIMSTYLE
5
A
100
AcDbSymbolTable
70
1
0
ENDTAB
0
TABLE
2
BLOCK_RECORD
5
1
100
AcDbSymbolTable
70
1
0
BLOCK_RECORD
5
1F
100
AcDbSymbolTableRecord
100
AcDbBlockTableRecord
2
*MODEL_SPACE
0
BLOCK_RECORD
5
1B
100
AcDbSymbolTableRecord
100
AcDbBlockTableRecord
2
*PAPER_SPACE
0
ENDTAB
0
ENDSEC
0
SECTION
2
BLOCKS
0
BLOCK
5
20
100
AcDbEntity
100
AcDbBlockBegin
2
*MODEL_SPACE
0
ENDBLK
5
21
100
AcDbEntity
100
AcDbBlockEnd
0
BLOCK
5
1C
100
AcDbEntity
100
AcDbBlockBegin
2
*PAPER_SPACE
0
ENDBLK
5
1D
100
AcDbEntity
100
AcDbBlockEnd
0
ENDSEC
0
SECTION
2
ENTITIES
0
CIRCLE
5
100
100
AcDbEntity
8
0
100
AcDbCircle
10
146.50000000002396
20
5.0000000000783107
30
0
40
1.3749999999999929
210
0
220
0
230
1
0
CIRCLE
5
101
100
AcDbEntity
8
0
100
AcDbCircle
10
126.50000000002396
20
5.0000000000782947
30
0
40
1.3749999999999929
210
0
220
0
230
1
0
CIRCLE
5
102
100
AcDbEntity
8
0
100
AcDbCircle
10
106.50000000002396
20
5.0000000000782796
30
0
40
1.3749999999999929
210
0
220
0
230
1
0
CIRCLE
5
103
100
AcDbEntity
8
0
100
AcDbCircle
10
86.50000000002396
20
5.0000000000782645
30
0
40
1.3749999999999929
210
0
220
0
230
1
0
CIRCLE
5
104
100
AcDbEntity
8
0
100
AcDbCircle
10
66.50000000002396
20
5.0000000000782485
30
0
40
1.3749999999999929
210
0
220
0
230
1
0
CIRCLE
5
105
100
AcDbEntity
8
0
100
AcDbCircle
10
46.500000000023967
20
5.0000000000782325
30
0
40
1.3749999999999929
210
0
220
0
230
1
0
CIRCLE
5
106
100
AcDbEntity
8
0
100
AcDbCircle
10
26.500000000023967
20
5.0000000000782183
30
0
40
1.3749999999999929
210
0
220
0
230
1
0
CIRCLE
5
107
100
AcDbEntity
8
0
100
AcDbCircle
10
6.5000000000239666
20
5.0000000000782032
30
0
40
1.3749999999999929
210
0
220
0
230
1
0
CIRCLE
5
108
100
AcDbEntity
8
0
100
AcDbCircle
10
-13.499999999976033
20
5.0000000000781872
30
0
40
1.3749999999999929
210
0
220
0
230
1
0
CIRCLE
5
109
100
AcDbEntity
8
0
100
AcDbCircle
10
-33.499999999976033
20
5.0000000000781721
30
0
40
1.3749999999999929
210
0
220
0
230
1
0
CIRCLE
5
110
100
AcDbEntity
8
0
100
AcDbCircle
10
-53.499999999976033
20
5.0000000000781561
30
0
40
1.3749999999999929
210
0
220
0
230
1
0
CIRCLE
5
111
100
AcDbEntity
8
0
100
AcDbCircle
10
-73.49999999997604
20
5.000000000078141
30
0
40
1.3749999999999929
210
0
220
0
230
1
0
CIRCLE
5
112
100
AcDbEntity
8
0
100
AcDbCircle
10
-93.49999999997604
20
5.0000000000781251
30
0
40
1.3749999999999929
210
0
220
0
230
1
0
CIRCLE
5
113
100
AcDbEntity
8
0
100
AcDbCircle
10
-113.49999999997604
20
5.00000000007811
30
0
40
1.3749999999999929
210
0
220
0
230
1
0
CIRCLE
5
114
100
AcDbEntity
8
0
100
AcDbCircle
10
-133.49999999997604
20
5.0000000000780958
30
0
40
1.3749999999999929
210
0
220
0
230
1
0
ARC
5
115
100
AcDbEntity
8
0
100
AcDbCircle
10
212.00000000000117
20
23.524999999955412
30
0
40
0.99999999999999645
210
0
220
-0
230
1
100
AcDbArc
50
89.99999999999838
51
180
0
LINE
5
116
100
AcDbEntity
8
0
100
AcDbLine
10
210.99999999999355
20
15.999999999306274
30
0
11
211.00000000000114
21
23.524999999956421
31
0
0
LWPOLYLINE
5
117
100
AcDbEntity
8
0
100
AcDbPolyline
90
4
70
1
43
0.0
10
-214.00000000006159
20
15.762500000518596
42
0.99999999999999989
10
-214.00000000008149
20
18.762500000476653
10
-216.00000000005051
20
18.762500000504673
42
0.99999999999999989
10
-216.00000000009248
20
15.76250000050527
0
LWPOLYLINE
5
118
100
AcDbEntity
8
0
100
AcDbPolyline
90
4
70
1
43
0.0
10
-236.00000000007151
20
18.762500000554084
42
0.99999999999999989
10
-236.00000000007446
20
15.762500000554718
10
-234.00000000008015
20
15.762500000549871
42
0.99999999999999989
10
-234.00000000006594
20
18.762500000547458
0
CIRCLE
5
119
100
AcDbEntity
8
0
100
AcDbCircle
10
215.00000000002345
20
17.262499999969148
30
0
40
1.4999999999999858
210
-0
220
0
230
1
0
CIRCLE
5
120
100
AcDbEntity
8
0
100
AcDbCircle
10
235.0000000000534
20
17.262499999973354
30
0
40
1.4999999999999858
210
-0
220
0
230
1
0
CIRCLE
5
121
100
AcDbEntity
8
0
100
AcDbCircle
10
215.00000000004849
20
-2.7375000000217389
30
0
40
1.4999999999999858
210
-0
220
0
230
1
0
CIRCLE
5
122
100
AcDbEntity
8
0
100
AcDbCircle
10
235.00000000004849
20
-2.7375000000484229
30
0
40
1.4999999999999858
210
-0
220
0
230
1
0
LWPOLYLINE
5
123
100
AcDbEntity
8
0
100
AcDbPolyline
90
4
70
1
43
0.0
10
-214.00000000015217
20
-4.2374999995063085
42
0.99999999999999989
10
-214.00000000013875
20
-1.2374999994917668
10
-216.00000000014492
20
-1.2374999994895439
42
0.99999999999999989
10
-216.00000000014592
20
-4.2374999994973459
0
LWPOLYLINE
5
124
100
AcDbEntity
8
0
100
AcDbPolyline
90
4
70
1
43
0.0
10
-234.00000000012798
20
-4.2374999995707245
42
0.99999999999999989
10
-234.00000000011491
20
-1.2374999995547187
10
-236.00000000012068
20
-1.2374999995522595
42
0.99999999999999989
10
-236.00000000012193
20
-4.2374999995620186
0
LINE
5
125
100
AcDbEntity
8
0
100
AcDbLine
10
212.00000000000119
20
24.524999999955412
30
0
11
218.50000000004354
21
24.524999999955117
31
0
0
ARC
5
126
100
AcDbEntity
8
0
100
AcDbCircle
10
238.00000000009763
20
23.524999999954225
30
0
40
1.0000000000000142
210
0
220
0
230
1
100
AcDbArc
50
0
51
89.99999999999838
0
LINE
5
127
100
AcDbEntity
8
0
100
AcDbLine
10
239.0000000000976
20
23.52499999995289
30
0
11
239.00000000004763
21
-13.999999997727745
31
0
0
ARC
5
128
100
AcDbEntity
8
0
100
AcDbCircle
10
238.00000000004761
20
-13.999999997726412
30
0
40
1.0000000000000009
210
0
220
0
230
1
100
AcDbArc
50
270.00000000026216
51
360
0
LINE
5
129
100
AcDbEntity
8
0
100
AcDbLine
10
-238.00000000008089
20
-14.999999999902867
30
0
11
238.00000000005218
21
-14.999999997726414
31
0
0
ARC
5
130
100
AcDbEntity
8
0
100
AcDbCircle
10
-238.00000000008549
20
-13.999999999902869
30
0
40
1.0000000000000142
210
0
220
0
230
1
100
AcDbArc
50
180
51
270.00000000026381
0
LINE
5
131
100
AcDbEntity
8
0
100
AcDbLine
10
-239.00000000007037
20
23.525000000207012
30
0
11
-239.00000000008549
21
-13.999999999902467
31
0
0
ARC
5
132
100
AcDbEntity
8
0
100
AcDbCircle
10
-238.00000000007034
20
23.52500000020661
30
0
40
0.99999999999999645
210
0
220
-0
230
1
100
AcDbArc
50
89.999999999943
51
180
0
LINE
5
133
100
AcDbEntity
8
0
100
AcDbLine
10
-211.99999999994745
20
24.525000000180338
30
0
11
-218.50000000001836
21
24.525000000186907
31
0
0
ARC
5
134
100
AcDbEntity
8
0
100
AcDbCircle
10
-211.99999999994844
20
23.525000000180334
30
0
40
1.0000000000000142
210
-0
220
0
230
1
100
AcDbArc
50
0
51
89.999999999943
0
LINE
5
135
100
AcDbEntity
8
0
100
AcDbLine
10
-211.00000000000418
20
16.000000000329162
30
0
11
-210.99999999994844
21
23.52500000017293
31
0
0
ARC
5
136
100
AcDbEntity
8
0
100
AcDbCircle
10
-210.00000000000421
20
16.000000000321741
30
0
40
0.99999999999997868
210
0
220
0
230
1
100
AcDbArc
50
180
51
269.99999999986483
0
LINE
5
137
100
AcDbEntity
8
0
100
AcDbLine
10
-210.00000000000657
20
15.000000000321762
30
0
11
209.99999999999116
21
14.999999999307281
31
0
0
ARC
5
138
100
AcDbEntity
8
0
100
AcDbCircle
10
209.99999999999349
20
15.999999999307315
30
0
40
1.0000000000000342
210
0
220
0
230
1
100
AcDbArc
50
269.99999999986647
51
360
0
LWPOLYLINE
5
139
100
AcDbEntity
8
0
100
AcDbPolyline
90
8
70
1
43
0.0
10
217.00000000002984
20
8.5003053469956811
42
0.41505313920108855
10
217.25071640991885
20
8.2503063734840794
10
223.7378006281582
20
8.2688960949518631
42
0.41337448368141311
10
223.9870842182691
20
8.5188950684635216
10
223.98708421826851
20
15.012499999961742
42
0.41421356237322771
10
223.73708421826851
20
15.262499999961697
10
220.20000000002935
20
15.262499999961719
42
0.41421356237309509
10
217.00000000002939
20
12.062499999961716
0
LWPOLYLINE
5
140
100
AcDbEntity
8
0
100
AcDbPolyline
90
8
70
1
43
0.0
10
223.73708421826521
20
6.2495842181985273
10
217.25000000003013
20
6.2495842181985513
42
0.41421356237308465
10
217.00000000003016
20
5.9995842181985193
10
217.00000000003064
20
2.462499999961079
42
0.41421356237309509
10
220.20000000003
20
-0.7375000000382842
10
223.73708421826566
20
-0.7375000000382701
42
0.41421356237320039
10
223.98708421826566
20
-0.48750000003825322
10
223.98708421826518
20
5.9995842181985424
42
0.41421356237310281
0
LINE
5
141
100
AcDbEntity
8
0
100
AcDbLine
10
219.00000000001961
20
-10.230430898435451
30
0
11
219.00000000001961
21
-5.4951941016373311
31
0
0
LINE
5
142
100
AcDbEntity
8
0
100
AcDbLine
10
230.74230589841929
20
-10.488125000032554
30
0
11
219.25769410162064
21
-10.488125000036408
31
0
0
LINE
5
143
100
AcDbEntity
8
0
100
AcDbLine
10
231.00000000001938
20
-5.4951941016335928
30
0
11
231.00000000002038
21
-10.230430898431379
31
0
0
LINE
5
144
100
AcDbEntity
8
0
100
AcDbLine
10
219.25769410162064
20
-5.2375000000362064
30
0
11
230.74230589841829
21
-5.2375000000325986
31
0
0
LWPOLYLINE
5
145
100
AcDbEntity
8
0
100
AcDbPolyline
90
16
70
1
43
0.0
10
-230.74230589842389
20
-5.2374999997890059
10
-219.25769410162755
20
-5.237499999804788
42
0.11953506150159611
10
-219.0286326779821
20
-5.1819444442495595
42
-0.7300957329179687
10
-218.944444444471
20
-5.2661326777608766
42
0.11953506150159832
10
-219.00000000002677
20
-5.4951941014061987
10
-219.00000000003172
20
-10.230430898204153
42
0.11953506150156736
10
-218.94444444447646
20
-10.459492321849524
42
-0.73009573291796914
10
-219.02863267798779
20
-10.543680555360645
42
0.11953506150161522
10
-219.25769410163312
20
-10.488124999804786
10
-230.74230589843171
20
-10.488124999788999
42
0.11953506150162886
10
-230.97136732207724
20
-10.543680555344242
42
-0.73009573291783647
10
-231.05555555558837
20
-10.459492321832879
42
0.11953506150163777
10
-231.00000000003246
20
-10.230430898187514
10
-231.00000000002535
20
-5.495194101389675
42
0.11953506150158806
10
-231.05555555558053
20
-5.2661326777442277
42
-0.73009573291788954
10
-230.9713673220692
20
-5.1819444442331672
42
0.11953506150159469
0
LINE
5
146
100
AcDbEntity
8
0
100
AcDbLine
10
219.00000000004499
20
20.020194101556431
30
0
11
219.00000000004351
21
24.024999999955302
31
0
0
LINE
5
147
100
AcDbEntity
8
0
100
AcDbLine
10
230.74230589844404
20
19.762499999955384
30
0
11
219.25769410164617
21
19.762499999955384
31
0
0
LINE
5
148
100
AcDbEntity
8
0
100
AcDbLine
10
231.00000000004502
20
20.020194101556488
30
0
11
231.00000000004357
21
24.024999999954346
31
0
0
LINE
5
149
100
AcDbEntity
8
0
100
AcDbLine
10
231.5000000000436
20
24.524999999954524
30
0
11
238.00000000009766
21
24.524999999954218
31
0
0
LINE
5
150
100
AcDbEntity
8
0
100
AcDbLine
10
-231.00000000002603
20
20.020194101800474
30
0
11
-231.00000000001893
21
24.025000000199157
31
0
0
ARC
5
151
100
AcDbEntity
8
0
100
AcDbCircle
10
-231.00000000002649
20
19.762500000199413
30
0
40
0.062499999999982021
210
0
220
0
230
1
100
AcDbArc
50
152.7339555491692
51
297.26604445067636
0
LINE
5
152
100
AcDbEntity
8
0
100
AcDbLine
10
-230.74230589842543
20
19.76250000019914
30
0
11
-219.25769410162755
21
19.762500000187011
31
0
0
ARC
5
153
100
AcDbEntity
8
0
100
AcDbCircle
10
-219.00000000002649
20
19.762500000186737
30
0
40
0.062499999999979509
210
0
220
0
230
1
100
AcDbArc
50
-117.26604445079138
51
27.266044450612231
0
LINE
5
154
100
AcDbEntity
8
0
100
AcDbLine
10
-219.00000000002603
20
20.020194101787759
30
0
11
-219.00000000001884
21
24.025000000187802
31
0
0
LINE
5
155
100
AcDbEntity
8
0
100
AcDbLine
10
-231.50000000001842
20
24.525000000200041
30
0
11
-238.00000000006935
21
24.525000000206603
31
0
0
ARC
5
156
100
AcDbEntity
8
0
100
AcDbCircle
10
-217.25000000003092
20
5.999584218198577
30
0
40
0.24999999999998579
210
0
220
0
230
1
100
AcDbArc
50
0
51
90
0
LINE
5
157
100
AcDbEntity
8
0
100
AcDbLine
10
-217.00000000003061
20
2.462499999961079
30
0
11
-217.00000000003092
21
5.9995842181985726
31
0
0
LWPOLYLINE
5
158
100
AcDbEntity
8
0
100
AcDbPolyline
90
11
70
1
43
0.0
10
-217.25071640992013
20
8.2503063734840829
42
0.41505313920107018
10
-217.00000000003112
20
8.5003053469957361
10
-217.00000000003143
20
12.062499999961718
42
0.41421356237309481
10
-220.20000000002935
20
15.262499999959623
10
-223.73708421826851
20
15.262499999961719
42
0.41421356237322771
10
-223.98708421826854
20
15.012499999961742
10
-223.98708421826885
20
11.178646333862741
42
0.41421356237311846
10
-223.73708421826893
20
10.928646333862735
10
-221.32041755160228
20
10.928646333861945
10
-221.32734284721744
20
8.5119895899193825
42
0.41421356237575113
10
-221.07806028359482
20
8.2612742065165232
0
LINE
5
159
100
AcDbEntity
8
0
100
AcDbLine
10
-217.25000000003092
20
6.249584218198553
30
0
11
-223.73708421826112
21
6.2495842181985273
31
0
0
ARC
5
160
100
AcDbEntity
8
0
100
AcDbCircle
10
-220.20000000003
20
2.462499999961079
30
0
40
3.1999999999993616
210
0
220
0
230
1
100
AcDbArc
50
-90
51
0
0
ARC
5
161
100
AcDbEntity
8
0
100
AcDbCircle
10
218.50000000001958
20
-10.230430898435451
30
0
40
0.50000000000000433
210
0
220
0
230
1
100
AcDbArc
50
-27.26604445072492
51
0
0
ARC
5
162
100
AcDbEntity
8
0
100
AcDbCircle
10
231.50000000002038
20
-10.230430898431278
30
0
40
0.50000000000000711
210
0
220
0
230
1
100
AcDbArc
50
180
51
207.26604445074165
0
ARC
5
163
100
AcDbEntity
8
0
100
AcDbCircle
10
230.74230589841815
20
-4.7375000000325986
30
0
40
0.50000000000000044
210
-0
220
0
230
1
100
AcDbArc
50
270.00000000001626
51
297.26604445074429
0
ARC
5
164
100
AcDbEntity
8
0
100
AcDbCircle
10
218.50000000001958
20
-5.4951941016373311
30
0
40
0.50000000000000711
210
0
220
-0
230
1
100
AcDbArc
50
0
51
27.26604445072509
0
ARC
5
165
100
AcDbEntity
8
0
100
AcDbCircle
10
-231.50000000002603
20
20.020194101801362
30
0
40
0.50000000000000067
210
-0
220
0
230
1
100
AcDbArc
50
332.73395554916948
51
360
0
ARC
5
166
100
AcDbEntity
8
0
100
AcDbCircle
10
-230.74230589842597
20
19.26250000019914
30
0
40
0.50000000000000044
210
0
220
-0
230
1
100
AcDbArc
50
89.999999999938126
51
117.26604445066613
0
ARC
5
167
100
AcDbEntity
8
0
100
AcDbCircle
10
-219.25769410162809
20
19.262500000187007
30
0
40
0.50000000000000133
210
0
220
-0
230
1
100
AcDbArc
50
62.733955549209703
51
89.999999999938126
0
ARC
5
168
100
AcDbEntity
8
0
100
AcDbCircle
10
-218.50000000002603
20
20.020194101786863
30
0
40
0.50000000000000711
210
0
220
0
230
1
100
AcDbArc
50
180
51
207.26604445062443
0
ARC
5
169
100
AcDbEntity
8
0
100
AcDbCircle
10
-218.50000000001884
20
24.025000000186907
30
0
40
0.49999999999999822
210
0
220
-0
230
1
100
AcDbArc
50
89.999999999944635
51
180
0
ARC
5
170
100
AcDbEntity
8
0
100
AcDbCircle
10
218.50000000004349
20
24.024999999955114
30
0
40
0.50000000000000711
210
0
220
-0
230
1
100
AcDbArc
50
0
51
89.999999999993491
0
ARC
5
171
100
AcDbEntity
8
0
100
AcDbCircle
10
218.50000000004499
20
20.020194101556243
30
0
40
0.50000000000000133
210
0
220
0
230
1
100
AcDbArc
50
-27.266044450707106
51
0
0
ARC
5
172
100
AcDbEntity
8
0
100
AcDbCircle
10
230.74230589844404
20
19.262499999955381
30
0
40
0.50000000000000089
210
0
220
-0
230
1
100
AcDbArc
50
62.733955549268515
51
90
0
ARC
5
173
100
AcDbEntity
8
0
100
AcDbCircle
10
231.50000000004357
20
24.024999999954524
30
0
40
0.49999999999999822
210
0
220
-0
230
1
100
AcDbArc
50
89.999999999996746
51
180
0
ARC
5
174
100
AcDbEntity
8
0
100
AcDbCircle
10
-231.50000000001893
20
24.025000000200045
30
0
40
0.50000000000000711
210
-0
220
0
230
1
100
AcDbArc
50
0
51
89.99999999994138
0
ARC
5
175
100
AcDbEntity
8
0
100
AcDbCircle
10
219.00000000001961
20
-10.488125000036508
30
0
40
0.062499999999981043
210
0
220
0
230
1
100
AcDbArc
50
152.73395554925389
51
297.26604445073832
0
ARC
5
176
100
AcDbEntity
8
0
100
AcDbCircle
10
219.25769410162081
20
-10.988125000036408
30
0
40
0.50000000000000044
210
0
220
0
230
1
100
AcDbArc
50
90.00000000001954
51
117.26604445074743
0
ARC
5
177
100
AcDbEntity
8
0
100
AcDbCircle
10
230.74230589841946
20
-10.988125000032554
30
0
40
0.50000000000000089
210
0
220
-0
230
1
100
AcDbArc
50
62.733955549286826
51
90.00000000001954
0
ARC
5
178
100
AcDbEntity
8
0
100
AcDbCircle
10
231.00000000002041
20
-10.488125000032475
30
0
40
0.06249999999999678
210
0
220
0
230
1
100
AcDbArc
50
-117.2660444507294
51
27.266044450750478
0
ARC
5
179
100
AcDbEntity
8
0
100
AcDbCircle
10
231.50000000001938
20
-5.4951941016334915
30
0
40
0.49999999999998151
210
0
220
0
230
1
100
AcDbArc
50
152.73395554928015
51
180
0
ARC
5
180
100
AcDbEntity
8
0
100
AcDbCircle
10
231.00000000001933
20
-5.2375000000325036
30
0
40
0.062500000000003469
210
0
220
0
230
1
100
AcDbArc
50
-27.266044450718301
51
117.26604445073876
0
ARC
5
181
100
AcDbEntity
8
0
100
AcDbCircle
10
219.2576941016205
20
-4.7375000000362055
30
0
40
0.49999999999999989
210
0
220
0
230
1
100
AcDbArc
50
242.73395554928965
51
270.00000000001626
0
ARC
5
182
100
AcDbEntity
8
0
100
AcDbCircle
10
219.00000000001964
20
-5.2375000000362872
30
0
40
0.062499999999968171
210
0
220
-0
230
1
100
AcDbArc
50
62.733955549319141
51
207.26604445072189
0
ARC
5
183
100
AcDbEntity
8
0
100
AcDbCircle
10
219.00000000004511
20
19.762499999955384
30
0
40
0.062499999999988218
210
0
220
0
230
1
100
AcDbArc
50
152.73395554930926
51
297.266044450707
0
ARC
5
184
100
AcDbEntity
8
0
100
AcDbCircle
10
219.25769410164617
20
19.262499999955381
30
0
40
0.50000000000000044
210
0
220
-0
230
1
100
AcDbArc
50
90
51
117.26604445073148
0
ARC
5
185
100
AcDbEntity
8
0
100
AcDbCircle
10
231.00000000004511
20
19.762499999955384
30
0
40
0.06249999999997656
210
0
220
0
230
1
100
AcDbArc
50
-117.26604445070701
51
27.266044450755182
0
ARC
5
186
100
AcDbEntity
8
0
100
AcDbCircle
10
231.50000000004499
20
20.020194101556665
30
0
40
0.49999999999997158
210
0
220
0
230
1
100
AcDbArc
50
180
51
207.26604445075407
0
CIRCLE
5
187
100
AcDbEntity
8
0
100
AcDbCircle
10
206.50000000002396
20
5.000000000078356
30
0
40
1.3749999999999929
210
0
220
0
230
1
0
CIRCLE
5
188
100
AcDbEntity
8
0
100
AcDbCircle
10
186.50000000002396
20
5.0000000000783418
30
0
40
1.3749999999999929
210
0
220
0
230
1
0
CIRCLE
5
189
100
AcDbEntity
8
0
100
AcDbCircle
10
166.50000000002396
20
5.0000000000783267
30
0
40
1.3749999999999929
210
0
220
0
230
1
0
CIRCLE
5
190
100
AcDbEntity
8
0
100
AcDbCircle
10
-153.49999999997604
20
5.0000000000780798
30
0
40
1.3749999999999929
210
0
220
0
230
1
0
CIRCLE
5
191
100
AcDbEntity
8
0
100
AcDbCircle
10
-173.49999999997604
20
5.0000000000780638
30
0
40
1.3749999999999929
210
0
220
0
230
1
0
CIRCLE
5
192
100
AcDbEntity
8
0
100
AcDbCircle
10
-193.49999999997604
20
5.0000000000780487
30
0
40
1.3749999999999929
210
0
220
0
230
1
0
LWPOLYLINE
5
193
100
AcDbEntity
8
0
100
AcDbPolyline
90
11
70
1
43
0.0
10
228.68725819406788
20
8.5337969538961378
42
0.41505313920094505
10
228.93797460395686
20
8.2837979803844721
10
232.75071640991965
20
8.2947239689818186
42
0.41337448368143909
10
233.00000000003058
20
8.5447229424933937
10
233.00000000003143
20
12.0624999999593
42
0.41421356237309509
10
229.80000000002903
20
15.262499999961715
10
226.28222570081516
20
15.262499999961719
42
0.41337436385604398
10
226.03222672759682
20
15.013216512188361
10
226.02131899201251
20
11.20738795155054
42
0.41421356237185936
10
226.2706014530032
20
10.956672466105539
10
228.68725819406791
20
10.949746181238529
0
LWPOLYLINE
5
194
100
AcDbEntity
8
0
100
AcDbPolyline
90
8
70
1
43
0.0
10
-226.23780176022112
20
-0.73750000003826122
42
0.41505325916899494
10
-225.98780278700281
20
-0.48678348781144087
10
-226.00639516399917
20
6.0003007304256828
42
0.41337436385577375
10
-226.25639413721751
20
6.2495842181988914
10
-232.75000000003004
20
6.2495842181988346
42
0.41421356237309637
10
-233.00000000003001
20
5.9995842181987777
10
-233.00000000002925
20
2.4624999999599071
42
0.41421356237309825
10
-229.80000000003321
20
-0.73750000003824812
0
LWPOLYLINE
5
195
100
AcDbEntity
8
0
100
AcDbPolyline
90
8
70
1
43
0.0
10
233.00000000003007
20
5.9995842181987769
42
0.41421356237317963
10
232.75000000003007
20
6.2495842181988346
10
226.25639413721751
20
6.2495842181988621
42
0.41337436385577492
10
226.0063951639992
20
6.0003007304256837
10
225.98780278700281
20
-0.48678348781144076
42
0.41505325916903707
10
226.23780176022115
20
-0.73750000003825922
10
229.80000000003321
20
-0.73750000003824812
42
0.41421356237309509
10
233.00000000002927
20
2.4624999999599071
0
LWPOLYLINE
5
196
100
AcDbEntity
8
0
100
AcDbPolyline
90
8
70
1
43
0.0
10
-226.26435179584715
20
8.2761363096494769
42
0.41589333551062657
10
-226.0136364127398
20
8.5268517953877563
10
-226.03222672759682
20
15.013216512188361
42
0.41337436385604398
10
-226.28222570081516
20
15.262499999961728
10
-229.80000000002903
20
15.262499999961719
42
0.41421356237328688
10
-233.00000000003143
20
12.0624999999593
10
-233.00000000003064
20
8.5447229424933635
42
0.41337448368143909
10
-232.75071640991965
20
8.2947239689817849
0
ARC
5
197
100
AcDbEntity
8
0
100
AcDbCircle
10
-223.73708421826109
20
5.9995842181985193
30
0
40
0.25000000000000799
210
0
220
0
230
1
100
AcDbArc
50
90.000000000006523
51
180
0
ARC
5
198
100
AcDbEntity
8
0
100
AcDbCircle
10
-223.73708421826558
20
-0.48750000003833827
30
0
40
0.24999999999991473
210
0
220
0
230
1
100
AcDbArc
50
180
51
270.00000000001955
0
LINE
5
199
100
AcDbEntity
8
0
100
AcDbLine
10
-223.98708421826112
20
5.9995842181986934
30
0
11
-223.98708421826547
21
-0.48750000003810245
31
0
0
LINE
5
200
100
AcDbEntity
8
0
100
AcDbLine
10
-223.73708421826549
20
-0.737500000038253
30
0
11
-220.20000000003
21
-0.73750000003828253
31
0
0
ENDSEC
0
SECTION
2
OBJECTS
0
DICTIONARY
5
C
100
AcDbDictionary
3
ACAD_GROUP
350
D
3
ACAD_MLINESTYLE
350
17
0
DICTIONARY
5
D
100
AcDbDictionary
0
DICTIONARY
5
1A
330
C
100
AcDbDictionary
0
DICTIONARY
5
17
100
AcDbDictionary
0
ENDSEC
0
EOF
