0
SECTION
2
HEADER
9
$INSUNITS
70
4
9
$ACADVER
1
AC1014
9
$HANDSEED
5
FFFF
0
ENDSEC
0
SECTION
2
TABLES
0
TABLE
2
VPORT
5
8
100
AcDbSymbolTable
0
ENDTAB
0
TABLE
2
LTYPE
5
5
100
AcDbSymbolTable
0
LTYPE
5
14
100
AcDbSymbolTableRecord
100
AcDbLinetypeTableRecord
2
BYBLOCK
70
0
0
LTYPE
5
15
100
AcDbSymbolTableRecord
100
AcDbLinetypeTableRecord
2
BYLAYER
70
0
0
ENDTAB
0
TABLE
2
LAYER
5
2
100
AcDbSymbolTable
70
2
0
LAYER
5
50
100
AcDbSymbolTableRecord
100
AcDbLayerTableRecord
2
0
70
0
6
CONTINUOUS
0
ENDTAB
0
TABLE
2
STYLE
5
3
100
AcDbSymbolTable
70
1
0
STYLE
5
11
100
AcDbSymbolTableRecord
100
AcDbTextStyleTableRecord
2
STANDARD
70
0
0
ENDTAB
0
TABLE
2
VIEW
5
6
100
AcDbSymbolTable
70
0
0
ENDTAB
0
TABLE
2
UCS
5
7
100
AcDbSymbolTable
70
0
0
ENDTAB
0
TABLE
2
APPID
5
9
100
AcDbSymbolTable
70
2
0
APPID
5
12
100
AcDbSymbolTableRecord
100
AcDbRegAppTableRecord
2
ACAD
70
0
0
ENDTAB
0
TABLE
2
DIMSTYLE
5
A
100
AcDbSymbolTable
70
1
0
ENDTAB
0
TABLE
2
BLOCK_RECORD
5
1
100
AcDbSymbolTable
70
1
0
BLOCK_RECORD
5
1F
100
AcDbSymbolTableRecord
100
AcDbBlockTableRecord
2
*MODEL_SPACE
0
BLOCK_RECORD
5
1B
100
AcDbSymbolTableRecord
100
AcDbBlockTableRecord
2
*PAPER_SPACE
0
ENDTAB
0
ENDSEC
0
SECTION
2
BLOCKS
0
BLOCK
5
20
100
AcDbEntity
100
AcDbBlockBegin
2
*MODEL_SPACE
0
ENDBLK
5
21
100
AcDbEntity
100
AcDbBlockEnd
0
BLOCK
5
1C
100
AcDbEntity
100
AcDbBlockBegin
2
*PAPER_SPACE
0
ENDBLK
5
1D
100
AcDbEntity
100
AcDbBlockEnd
0
ENDSEC
0
SECTION
2
ENTITIES
0
CIRCLE
5
100
100
AcDbEntity
8
0
100
AcDbCircle
10
126.500000000024
20
5.0000000000991562
30
0
40
1.3749999999999929
210
0
220
0
230
1
0
CIRCLE
5
101
100
AcDbEntity
8
0
100
AcDbCircle
10
106.500000000024
20
5.0000000000991545
30
0
40
1.3749999999999929
210
0
220
0
230
1
0
CIRCLE
5
102
100
AcDbEntity
8
0
100
AcDbCircle
10
86.500000000024002
20
5.0000000000991518
30
0
40
1.3749999999999929
210
0
220
0
230
1
0
CIRCLE
5
103
100
AcDbEntity
8
0
100
AcDbCircle
10
66.500000000024002
20
5.0000000000991491
30
0
40
1.3749999999999929
210
0
220
0
230
1
0
CIRCLE
5
104
100
AcDbEntity
8
0
100
AcDbCircle
10
46.500000000024002
20
5.0000000000991465
30
0
40
1.3749999999999929
210
0
220
0
230
1
0
CIRCLE
5
105
100
AcDbEntity
8
0
100
AcDbCircle
10
26.500000000024002
20
5.0000000000991438
30
0
40
1.3749999999999929
210
0
220
0
230
1
0
CIRCLE
5
106
100
AcDbEntity
8
0
100
AcDbCircle
10
6.5000000000240021
20
5.000000000099142
30
0
40
1.3749999999999929
210
0
220
0
230
1
0
CIRCLE
5
107
100
AcDbEntity
8
0
100
AcDbCircle
10
-13.499999999975998
20
5.0000000000991394
30
0
40
1.3749999999999929
210
0
220
0
230
1
0
CIRCLE
5
108
100
AcDbEntity
8
0
100
AcDbCircle
10
-33.499999999975998
20
5.0000000000991367
30
0
40
1.3749999999999929
210
0
220
0
230
1
0
CIRCLE
5
109
100
AcDbEntity
8
0
100
AcDbCircle
10
-53.499999999975998
20
5.000000000099134
30
0
40
1.3749999999999929
210
0
220
0
230
1
0
CIRCLE
5
110
100
AcDbEntity
8
0
100
AcDbCircle
10
-73.499999999975998
20
5.0000000000991314
30
0
40
1.3749999999999929
210
0
220
0
230
1
0
CIRCLE
5
111
100
AcDbEntity
8
0
100
AcDbCircle
10
-93.499999999975998
20
5.0000000000991296
30
0
40
1.3749999999999929
210
0
220
0
230
1
0
CIRCLE
5
112
100
AcDbEntity
8
0
100
AcDbCircle
10
-113.499999999976
20
5.000000000099126
30
0
40
1.3749999999999929
210
0
220
0
230
1
0
CIRCLE
5
113
100
AcDbEntity
8
0
100
AcDbCircle
10
-133.49999999997601
20
5.0000000000991243
30
0
40
1.3749999999999929
210
0
220
0
230
1
0
CIRCLE
5
114
100
AcDbEntity
8
0
100
AcDbCircle
10
-153.49999999997601
20
5.0000000000991216
30
0
40
1.3749999999999929
210
0
220
0
230
1
0
ARC
5
115
100
AcDbEntity
8
0
100
AcDbCircle
10
232.00000000000148
20
23.524999999973637
30
0
40
0.99999999999999645
210
0
220
-0
230
1
100
AcDbArc
50
89.999999999996746
51
180
0
LINE
5
116
100
AcDbEntity
8
0
100
AcDbLine
10
230.99999999999392
20
15.99999999927903
30
0
11
231.00000000000148
21
23.524999999974646
31
0
0
LWPOLYLINE
5
117
100
AcDbEntity
8
0
100
AcDbPolyline
90
4
70
1
43
0.0
10
-234.000000000054
20
15.762500000147952
42
0.99999999999999989
10
-234.0000000000739
20
18.762500000106108
10
-236.0000000000515
20
18.762500000134072
42
0.99999999999999989
10
-236.00000000007628
20
15.76250000013472
0
LWPOLYLINE
5
118
100
AcDbEntity
8
0
100
AcDbPolyline
90
4
70
1
43
0.0
10
-256.00000000006753
20
18.762500000183493
42
0.99999999999999989
10
-256.0000000000843
20
15.762500000184126
10
-254.00000000007617
20
15.762500000174676
42
0.99999999999999989
10
-254.00000000007572
20
18.762500000181468
0
CIRCLE
5
119
100
AcDbEntity
8
0
100
AcDbCircle
10
235.00000000000909
20
17.262499999993857
30
0
40
1.4999999999999858
210
-0
220
0
230
1
0
CIRCLE
5
120
100
AcDbEntity
8
0
100
AcDbCircle
10
255.00000000003905
20
17.262499999993079
30
0
40
1.4999999999999858
210
-0
220
0
230
1
0
CIRCLE
5
121
100
AcDbEntity
8
0
100
AcDbCircle
10
235.00000000003413
20
-2.73750000000202
30
0
40
1.4999999999999858
210
-0
220
0
230
1
0
CIRCLE
5
122
100
AcDbEntity
8
0
100
AcDbCircle
10
255.00000000003413
20
-2.7375000000227665
30
0
40
1.4999999999999858
210
-0
220
0
230
1
0
LWPOLYLINE
5
123
100
AcDbEntity
8
0
100
AcDbPolyline
90
4
70
1
43
0.0
10
-234.00000000014646
20
-4.2374999998781275
42
0.99999999999999989
10
-234.0000000001248
20
-1.2374999998745344
10
-236.00000000012597
20
-1.2374999998668548
42
0.99999999999999989
10
-236.00000000014515
20
-4.2374999998746574
0
LWPOLYLINE
5
124
100
AcDbEntity
8
0
100
AcDbPolyline
90
4
70
1
43
0.0
10
-254.00000000013148
20
-4.2374999999425604
42
0.99999999999999989
10
-254.00000000011016
20
-1.2374999999375036
10
-256.00000000011539
20
-1.2374999999295744
42
0.99999999999999989
10
-256.00000000012625
20
-4.2374999999392893
0
LINE
5
125
100
AcDbEntity
8
0
100
AcDbLine
10
232.00000000000153
20
24.524999999973637
30
0
11
238.50000000004445
21
24.524999999973346
31
0
0
ARC
5
126
100
AcDbEntity
8
0
100
AcDbCircle
10
258.00000000009783
20
23.524999999972451
30
0
40
1.0000000000000142
210
-0
220
0
230
1
100
AcDbArc
50
0
51
89.999999999996746
0
LINE
5
127
100
AcDbEntity
8
0
100
AcDbLine
10
259.00000000009788
20
23.524999999971115
30
0
11
259.00000000004786
21
-13.9999999975965
31
0
0
ARC
5
128
100
AcDbEntity
8
0
100
AcDbCircle
10
258.00000000004786
20
-13.999999997595168
30
0
40
1.0000000000000009
210
0
220
0
230
1
100
AcDbArc
50
270.00000000025727
51
360
0
LINE
5
129
100
AcDbEntity
8
0
100
AcDbLine
10
-258.00000000008805
20
-14.999999999886793
30
0
11
258.00000000005235
21
-14.999999997595168
31
0
0
ARC
5
130
100
AcDbEntity
8
0
100
AcDbCircle
10
-258.00000000009248
20
-13.999999999886793
30
0
40
1.0000000000000142
210
0
220
0
230
1
100
AcDbArc
50
180
51
270.00000000025403
0
LINE
5
131
100
AcDbEntity
8
0
100
AcDbLine
10
-259.00000000007236
20
23.525000000283644
30
0
11
-259.00000000009248
21
-13.999999999886255
31
0
0
ARC
5
132
100
AcDbEntity
8
0
100
AcDbCircle
10
-258.00000000007236
20
23.525000000283107
30
0
40
0.99999999999999645
210
0
220
-0
230
1
100
AcDbArc
50
89.999999999925095
51
180
0
LINE
5
133
100
AcDbEntity
8
0
100
AcDbLine
10
-231.99999999994685
20
24.525000000249623
30
0
11
-238.50000000001089
21
24.525000000258
31
0
0
ARC
5
134
100
AcDbEntity
8
0
100
AcDbCircle
10
-231.99999999994813
20
23.525000000249623
30
0
40
1.0000000000000142
210
-0
220
0
230
1
100
AcDbArc
50
0
51
89.999999999926729
0
LINE
5
135
100
AcDbEntity
8
0
100
AcDbLine
10
-231.00000000000387
20
16.000000000398536
30
0
11
-230.9999999999481
21
23.525000000242215
31
0
0
ARC
5
136
100
AcDbEntity
8
0
100
AcDbCircle
10
-230.00000000000384
20
16.000000000391154
30
0
40
1.0000000000000142
210
0
220
0
230
1
100
AcDbArc
50
180
51
269.99999999986159
0
LINE
5
137
100
AcDbEntity
8
0
100
AcDbLine
10
-230.00000000000625
20
15.000000000391138
30
0
11
229.99999999999147
21
14.999999999280039
31
0
0
ARC
5
138
100
AcDbEntity
8
0
100
AcDbCircle
10
229.99999999999389
20
15.999999999280037
30
0
40
0.99999999999999867
210
0
220
0
230
1
100
AcDbArc
50
269.99999999986159
51
360
0
LWPOLYLINE
5
139
100
AcDbEntity
8
0
100
AcDbPolyline
90
11
70
1
43
0.0
10
248.66666666669946
20
8.5124999999779511
42
0.41421356237319651
10
248.91666666669946
20
8.2624999999779511
10
252.75000000003328
20
8.2624999999778623
42
0.41421356237303525
10
253.00000000003325
20
8.5124999999778055
10
253.00000000003405
20
12.062499999977705
42
0.41421356237309509
10
249.80000000003162
20
15.262499999978022
10
246.25000000003251
20
15.262499999978026
42
0.41421356237319912
10
246.00000000003251
20
15.012499999978008
10
246.0000000000328
20
11.179166666648095
42
0.41421356237266843
10
246.25000000003243
20
10.929166666648118
10
248.66666666669948
20
10.929166666644623
0
LWPOLYLINE
5
140
100
AcDbEntity
8
0
100
AcDbPolyline
90
8
70
1
43
0.0
10
237.00000000003166
20
8.5124999999783206
42
0.4142135623730781
10
237.25000000003163
20
8.262499999978278
10
243.75000000003243
20
8.2624999999787523
42
0.41421356237319129
10
244.0000000000324
20
8.5124999999787434
10
244.00000000003257
20
15.012499999978019
42
0.41421356237319651
10
243.75000000003257
20
15.26249999997802
10
240.20000000002989
20
15.262499999978026
42
0.41421356237309481
10
237.00000000003197
20
12.062499999978025
0
LWPOLYLINE
5
141
100
AcDbEntity
8
0
100
AcDbPolyline
90
8
70
1
43
0.0
10
246.25000000003226
20
6.262499999977388
42
0.41421356237310802
10
246.00000000003229
20
6.0124999999773951
10
246.00000000003209
20
-0.48750000002079408
42
0.41421356237319623
10
246.25000000003209
20
-0.73750000002079519
10
249.80000000003375
20
-0.73750000002080074
42
0.41421356237309509
10
253.00000000003192
20
2.4624999999773891
10
253.00000000003268
20
6.0124999999777842
42
0.41421356237317963
10
252.75000000003271
20
6.2624999999778419
0
LWPOLYLINE
5
142
100
AcDbEntity
8
0
100
AcDbPolyline
90
8
70
1
43
0.0
10
243.75000000003212
20
-0.73750000002080074
42
0.41421356237307627
10
244.00000000003206
20
-0.48750000002078275
10
244.00000000003166
20
6.0124999999781501
42
0.41421356237310281
10
243.75000000003169
20
6.262499999978143
10
237.25000000003146
20
6.2624999999782771
42
0.41421356237322637
10
237.00000000003143
20
6.0124999999782975
10
237.00000000003115
20
2.4624999999791668
42
0.41421356237309509
10
240.20000000003051
20
-0.73750000002080085
0
LINE
5
143
100
AcDbEntity
8
0
100
AcDbLine
10
239.00000000002183
20
-10.230430898417371
30
0
11
239.00000000002183
21
-5.4951941016194636
31
0
0
LINE
5
144
100
AcDbEntity
8
0
100
AcDbLine
10
250.74230589842205
20
-10.488125000023643
30
0
11
239.25769410162289
21
-10.488125000018531
31
0
0
LINE
5
145
100
AcDbEntity
8
0
100
AcDbLine
10
251.00000000002242
20
-5.4951941016156489
30
0
11
251.00000000002319
21
-10.230430898422668
31
0
0
LINE
5
146
100
AcDbEntity
8
0
100
AcDbLine
10
239.25769410162289
20
-5.237500000018338
30
0
11
250.74230589842131
21
-5.2375000000146885
31
0
0
LWPOLYLINE
5
147
100
AcDbEntity
8
0
100
AcDbPolyline
90
16
70
1
43
0.0
10
-250.74230589842864
20
-5.2374999997170963
10
-239.2576941016269
20
-5.2374999997326661
42
0.1195350615015969
10
-239.02863267798148
20
-5.1819444441774358
42
-0.73009573291797802
10
-238.94444444447035
20
-5.2661326776887556
42
0.1195350615015969
10
-239.00000000002618
20
-5.4951941013340653
10
-239.00000000003186
20
-10.230430898130134
42
0.11953506150159249
10
-238.94444444447657
20
-10.45949232177556
42
-0.73009573291788332
10
-239.02863267798784
20
-10.543680555286706
42
0.11953506150161074
10
-239.25769410163323
20
-10.48812499973103
10
-250.74230589843251
20
-10.488124999724263
42
0.1195350615016347
10
-250.97136732207798
20
-10.543680555279698
42
-0.73009573291765939
10
-251.05555555558919
20
-10.459492321768407
42
0.11953506150162474
10
-251.00000000003345
20
-10.230430898123027
10
-251.00000000002984
20
-5.4951941013177983
42
0.11953506150161135
10
-251.05555555558524
20
-5.2661326776723616
42
-0.73009573291799712
10
-250.97136732207392
20
-5.181944444161255
42
0.11953506150159537
0
LINE
5
148
100
AcDbEntity
8
0
100
AcDbLine
10
239.00000000004641
20
20.020194101573662
30
0
11
239.00000000004442
21
24.024999999973588
31
0
0
LINE
5
149
100
AcDbEntity
8
0
100
AcDbLine
10
250.74230589844549
20
19.762499999972654
30
0
11
239.25769410164762
21
19.762499999972654
31
0
0
LINE
5
150
100
AcDbEntity
8
0
100
AcDbLine
10
251.00000000004644
20
20.020194101573637
30
0
11
251.00000000004454
21
24.024999999972515
31
0
0
LINE
5
151
100
AcDbEntity
8
0
100
AcDbLine
10
251.50000000004457
20
24.524999999972753
30
0
11
258.00000000009788
21
24.524999999972451
31
0
0
LINE
5
152
100
AcDbEntity
8
0
100
AcDbLine
10
-251.00000000002396
20
20.020194101882055
30
0
11
-251.00000000001162
21
24.025000000273202
31
0
0
ARC
5
153
100
AcDbEntity
8
0
100
AcDbCircle
10
-251.00000000002473
20
19.76250000028103
30
0
40
0.06249999999997994
210
0
220
0
230
1
100
AcDbArc
50
152.73395554912
51
297.26604445067636
0
LINE
5
154
100
AcDbEntity
8
0
100
AcDbLine
10
-250.74230589842369
20
19.762500000280724
30
0
11
-239.25769410162576
21
19.762500000267092
31
0
0
ARC
5
155
100
AcDbEntity
8
0
100
AcDbCircle
10
-239.00000000002473
20
19.762500000266787
30
0
40
0.062499999999981473
210
0
220
0
230
1
100
AcDbArc
50
-117.26604445076828
51
27.266044450536256
0
LINE
5
156
100
AcDbEntity
8
0
100
AcDbLine
10
-239.0000000000239
20
20.020194101867851
30
0
11
-239.00000000001154
21
24.025000000259546
31
0
0
LINE
5
157
100
AcDbEntity
8
0
100
AcDbLine
10
-251.500000000011
20
24.525000000274737
30
0
11
-258.00000000007105
21
24.525000000283104
31
0
0
LWPOLYLINE
5
158
100
AcDbEntity
8
0
100
AcDbPolyline
90
8
70
1
43
0.0
10
-246.25000000003297
20
8.2624999999780098
42
0.41421356237310281
10
-246.00000000003297
20
8.5124999999779902
10
-246.00000000003257
20
15.012499999978008
42
0.41421356237307427
10
-246.25000000003254
20
15.262499999978047
10
-249.80000000003162
20
15.262499999978026
42
0.4142135623732997
10
-253.00000000003405
20
12.062499999977705
10
-253.00000000003322
20
8.5124999999778073
42
0.41421356237303525
10
-252.75000000003325
20
8.262499999977873
0
LWPOLYLINE
5
159
100
AcDbEntity
8
0
100
AcDbPolyline
90
11
70
1
43
0.0
10
-243.75000000003257
20
15.262499999978026
42
0.41421356237319651
10
-244.00000000003257
20
15.012499999978019
10
-244.00000000003246
20
11.17916666664517
42
0.41421356237310802
10
-243.75000000003246
20
10.929166666645173
10
-241.3333333333658
20
10.929166666645251
10
-241.33333333336554
20
8.5124999999785409
42
0.41421356237322382
10
-241.08333333336557
20
8.2624999999785871
10
-237.25000000003163
20
8.2624999999783029
42
0.4142135623730781
10
-237.00000000003169
20
8.5124999999783224
10
-237.00000000003197
20
12.062499999978025
42
0.41421356237328688
10
-240.20000000002989
20
15.262499999978022
0
ARC
5
160
100
AcDbEntity
8
0
100
AcDbCircle
10
-237.25000000003138
20
6.0124999999783393
30
0
40
0.24999999999991473
210
0
220
0
230
1
100
AcDbArc
50
0
51
90.00000000001954
0
LINE
5
161
100
AcDbEntity
8
0
100
AcDbLine
10
-237.00000000003115
20
2.4624999999791664
30
0
11
-237.00000000003146
21
6.0124999999782975
31
0
0
LWPOLYLINE
5
162
100
AcDbEntity
8
0
100
AcDbPolyline
90
8
70
1
43
0.0
10
-246.25000000003209
20
-0.73750000002080052
42
0.41421356237319601
10
-246.00000000003209
20
-0.48750000002079408
10
-246.00000000003229
20
6.0124999999773951
42
0.41421356237310802
10
-246.25000000003226
20
6.2624999999773925
10
-252.75000000003268
20
6.2624999999778392
42
0.41421356237309637
10
-253.00000000003266
20
6.0124999999777842
10
-253.00000000003189
20
2.4624999999773891
42
0.41421356237309814
10
-249.80000000003375
20
-0.73750000002080052
0
ARC
5
163
100
AcDbEntity
8
0
100
AcDbCircle
10
-243.75000000003172
20
6.0124999999781927
30
0
40
0.24999999999993916
210
0
220
-0
230
1
100
AcDbArc
50
89.999999999986969
51
180
0
LINE
5
164
100
AcDbEntity
8
0
100
AcDbLine
10
-237.25000000003146
20
6.262499999978278
30
0
11
-243.75000000003166
21
6.2624999999781314
31
0
0
ARC
5
165
100
AcDbEntity
8
0
100
AcDbCircle
10
-243.75000000003209
20
-0.48750000002080252
30
0
40
0.25000000000002132
210
0
220
0
230
1
100
AcDbArc
50
180
51
269.99999999999346
0
LINE
5
166
100
AcDbEntity
8
0
100
AcDbLine
10
-244.00000000003166
20
6.0124999999781501
30
0
11
-244.00000000003212
21
-0.48750000002078298
31
0
0
ARC
5
167
100
AcDbEntity
8
0
100
AcDbCircle
10
-240.20000000003051
20
2.4624999999785615
30
0
40
3.1999999999993625
210
0
220
0
230
1
100
AcDbArc
50
-90
51
0
0
LINE
5
168
100
AcDbEntity
8
0
100
AcDbLine
10
-243.75000000003212
20
-0.73750000002082383
30
0
11
-240.20000000003051
21
-0.73750000002080096
31
0
0
ARC
5
169
100
AcDbEntity
8
0
100
AcDbCircle
10
238.50000000002183
20
-10.230430898417371
30
0
40
0.50000000000000433
210
0
220
0
230
1
100
AcDbArc
50
-27.26604445072492
51
0
0
ARC
5
170
100
AcDbEntity
8
0
100
AcDbCircle
10
251.50000000002319
20
-10.230430898422592
30
0
40
0.50000000000000711
210
0
220
0
230
1
100
AcDbArc
50
180
51
207.26604445073889
0
ARC
5
171
100
AcDbEntity
8
0
100
AcDbCircle
10
250.74230589842117
20
-4.7375000000146885
30
0
40
0.49999999999999989
210
-0
220
0
230
1
100
AcDbArc
50
270.00000000001626
51
297.26604445075009
0
ARC
5
172
100
AcDbEntity
8
0
100
AcDbCircle
10
238.50000000002183
20
-5.4951941016194636
30
0
40
0.50000000000000711
210
0
220
-0
230
1
100
AcDbArc
50
0
51
27.266044450724909
0
ARC
5
173
100
AcDbEntity
8
0
100
AcDbCircle
10
-251.50000000002396
20
20.02019410188359
30
0
40
0.49999999999999933
210
-0
220
0
230
1
100
AcDbArc
50
332.73395554909695
51
360
0
ARC
5
174
100
AcDbEntity
8
0
100
AcDbCircle
10
-250.74230589842429
20
19.262500000280724
30
0
40
0.50000000000000044
210
0
220
-0
230
1
100
AcDbArc
50
89.999999999931603
51
117.26604445065577
0
ARC
5
175
100
AcDbEntity
8
0
100
AcDbCircle
10
-239.25769410162638
20
19.262500000267092
30
0
40
0.50000000000000022
210
0
220
-0
230
1
100
AcDbArc
50
62.733955549199159
51
89.999999999928349
0
ARC
5
176
100
AcDbEntity
8
0
100
AcDbCircle
10
-238.50000000002393
20
20.020194101866306
30
0
40
0.49999999999997158
210
0
220
0
230
1
100
AcDbArc
50
180
51
207.26604445055415
0
ARC
5
177
100
AcDbEntity
8
0
100
AcDbCircle
10
-238.50000000001154
20
24.025000000258
30
0
40
0.49999999999999822
210
0
220
-0
230
1
100
AcDbArc
50
89.999999999925095
51
180
0
ARC
5
178
100
AcDbEntity
8
0
100
AcDbCircle
10
238.50000000004442
20
24.024999999973346
30
0
40
0.50000000000000711
210
0
220
-0
230
1
100
AcDbArc
50
0
51
89.999999999996746
0
ARC
5
179
100
AcDbEntity
8
0
100
AcDbCircle
10
238.50000000004641
20
20.020194101573416
30
0
40
0.50000000000001876
210
0
220
0
230
1
100
AcDbArc
50
-27.266044450692501
51
0
0
ARC
5
180
100
AcDbEntity
8
0
100
AcDbCircle
10
250.74230589844549
20
19.262499999972654
30
0
40
0.49999999999999889
210
0
220
-0
230
1
100
AcDbArc
50
62.733955549268515
51
90
0
ARC
5
181
100
AcDbEntity
8
0
100
AcDbCircle
10
251.50000000004454
20
24.024999999972753
30
0
40
0.49999999999999822
210
0
220
-0
230
1
100
AcDbArc
50
89.999999999996746
51
180
0
ARC
5
182
100
AcDbEntity
8
0
100
AcDbCircle
10
-251.50000000001165
20
24.025000000274737
30
0
40
0.50000000000000711
210
-0
220
0
230
1
100
AcDbArc
50
0
51
89.999999999925095
0
ARC
5
183
100
AcDbEntity
8
0
100
AcDbCircle
10
239.00000000002183
20
-10.488125000018421
30
0
40
0.062499999999976977
210
0
220
0
230
1
100
AcDbArc
50
152.73395554924772
51
297.26604445073241
0
ARC
5
184
100
AcDbEntity
8
0
100
AcDbCircle
10
239.25769410162269
20
-10.988125000018531
30
0
40
0.50000000000000044
210
0
220
-0
230
1
100
AcDbArc
50
89.999999999977206
51
117.26604445070245
0
ARC
5
185
100
AcDbEntity
8
0
100
AcDbCircle
10
250.74230589842185
20
-10.988125000023643
30
0
40
0.50000000000000033
210
0
220
-0
230
1
100
AcDbArc
50
62.733955549238559
51
89.999999999977206
0
ARC
5
186
100
AcDbEntity
8
0
100
AcDbCircle
10
251.00000000002319
20
-10.48812500002375
30
0
40
0.062500000000012559
210
0
220
0
230
1
100
AcDbArc
50
-117.26604445074511
51
27.266044450728742
0
ARC
5
187
100
AcDbEntity
8
0
100
AcDbCircle
10
251.50000000002245
20
-5.4951941016155716
30
0
40
0.50000000000000444
210
0
220
0
230
1
100
AcDbArc
50
152.73395554928356
51
180
0
ARC
5
188
100
AcDbEntity
8
0
100
AcDbCircle
10
251.0000000000224
20
-5.2375000000145917
30
0
40
0.06249999999997647
210
0
220
0
230
1
100
AcDbArc
50
-27.26604445073891
51
117.2660444507391
0
ARC
5
189
100
AcDbEntity
8
0
100
AcDbCircle
10
239.25769410162275
20
-4.737500000018338
30
0
40
0.50000000000000033
210
0
220
0
230
1
100
AcDbArc
50
242.73395554928965
51
270.00000000001626
0
ARC
5
190
100
AcDbEntity
8
0
100
AcDbCircle
10
239.00000000002183
20
-5.2375000000184162
30
0
40
0.062499999999980502
210
0
220
-0
230
1
100
AcDbArc
50
62.733955549270945
51
207.26604445075009
0
ARC
5
191
100
AcDbEntity
8
0
100
AcDbCircle
10
239.00000000004655
20
19.762499999972654
30
0
40
0.062499999999956632
210
0
220
0
230
1
100
AcDbArc
50
152.73395554928246
51
297.26604445073161
0
ARC
5
192
100
AcDbEntity
8
0
100
AcDbCircle
10
239.25769410164762
20
19.262499999972654
30
0
40
0.49999999999999822
210
0
220
-0
230
1
100
AcDbArc
50
90
51
117.26604445072857
0
ARC
5
193
100
AcDbEntity
8
0
100
AcDbCircle
10
251.00000000004655
20
19.762499999972654
30
0
40
0.062499999999978531
210
0
220
0
230
1
100
AcDbArc
50
-117.26604445070853
51
27.266044450743227
0
ARC
5
194
100
AcDbEntity
8
0
100
AcDbCircle
10
251.50000000004644
20
20.020194101573878
30
0
40
0.50000000000000711
210
0
220
0
230
1
100
AcDbArc
50
180
51
207.26604445074972
0
CIRCLE
5
195
100
AcDbEntity
8
0
100
AcDbCircle
10
226.50000000002399
20
5.0000000000991696
30
0
40
1.3749999999999929
210
0
220
0
230
1
0
CIRCLE
5
196
100
AcDbEntity
8
0
100
AcDbCircle
10
206.50000000002399
20
5.000000000099166
30
0
40
1.3749999999999929
210
0
220
0
230
1
0
CIRCLE
5
197
100
AcDbEntity
8
0
100
AcDbCircle
10
186.50000000002399
20
5.0000000000991642
30
0
40
1.3749999999999929
210
0
220
0
230
1
0
CIRCLE
5
198
100
AcDbEntity
8
0
100
AcDbCircle
10
166.50000000002399
20
5.0000000000991616
30
0
40
1.3749999999999929
210
0
220
0
230
1
0
CIRCLE
5
199
100
AcDbEntity
8
0
100
AcDbCircle
10
146.50000000002399
20
5.0000000000991598
30
0
40
1.3749999999999929
210
0
220
0
230
1
0
CIRCLE
5
200
100
AcDbEntity
8
0
100
AcDbCircle
10
-173.49999999997601
20
5.0000000000991198
30
0
40
1.3749999999999929
210
0
220
0
230
1
0
CIRCLE
5
201
100
AcDbEntity
8
0
100
AcDbCircle
10
-193.49999999997601
20
5.0000000000991163
30
0
40
1.3749999999999929
210
0
220
0
230
1
0
CIRCLE
5
202
100
AcDbEntity
8
0
100
AcDbCircle
10
-213.49999999997601
20
5.0000000000991136
30
0
40
1.3749999999999929
210
0
220
0
230
1
0
ENDSEC
0
SECTION
2
OBJECTS
0
DICTIONARY
5
C
100
AcDbDictionary
3
ACAD_GROUP
350
D
3
ACAD_MLINESTYLE
350
17
0
DICTIONARY
5
D
100
AcDbDictionary
0
DICTIONARY
5
1A
330
C
100
AcDbDictionary
0
DICTIONARY
5
17
100
AcDbDictionary
0
ENDSEC
0
EOF
