0
SECTION
2
HEADER
9
$INSUNITS
70
4
9
$ACADVER
1
AC1014
9
$HANDSEED
5
FFFF
0
ENDSEC
0
SECTION
2
TABLES
0
TABLE
2
VPORT
5
8
100
AcDbSymbolTable
0
ENDTAB
0
TABLE
2
LTYPE
5
5
100
AcDbSymbolTable
0
LTYPE
5
14
100
AcDbSymbolTableRecord
100
AcDbLinetypeTableRecord
2
BYBLOCK
70
0
0
LTYPE
5
15
100
AcDbSymbolTableRecord
100
AcDbLinetypeTableRecord
2
BYLAYER
70
0
0
ENDTAB
0
TABLE
2
LAYER
5
2
100
AcDbSymbolTable
70
2
0
LAYER
5
50
100
AcDbSymbolTableRecord
100
AcDbLayerTableRecord
2
0
70
0
6
CONTINUOUS
0
ENDTAB
0
TABLE
2
STYLE
5
3
100
AcDbSymbolTable
70
1
0
STYLE
5
11
100
AcDbSymbolTableRecord
100
AcDbTextStyleTableRecord
2
STANDARD
70
0
0
ENDTAB
0
TABLE
2
VIEW
5
6
100
AcDbSymbolTable
70
0
0
ENDTAB
0
TABLE
2
UCS
5
7
100
AcDbSymbolTable
70
0
0
ENDTAB
0
TABLE
2
APPID
5
9
100
AcDbSymbolTable
70
2
0
APPID
5
12
100
AcDbSymbolTableRecord
100
AcDbRegAppTableRecord
2
ACAD
70
0
0
ENDTAB
0
TABLE
2
DIMSTYLE
5
A
100
AcDbSymbolTable
70
1
0
ENDTAB
0
TABLE
2
BLOCK_RECORD
5
1
100
AcDbSymbolTable
70
1
0
BLOCK_RECORD
5
1F
100
AcDbSymbolTableRecord
100
AcDbBlockTableRecord
2
*MODEL_SPACE
0
BLOCK_RECORD
5
1B
100
AcDbSymbolTableRecord
100
AcDbBlockTableRecord
2
*PAPER_SPACE
0
ENDTAB
0
ENDSEC
0
SECTION
2
BLOCKS
0
BLOCK
5
20
100
AcDbEntity
100
AcDbBlockBegin
2
*MODEL_SPACE
0
ENDBLK
5
21
100
AcDbEntity
100
AcDbBlockEnd
0
BLOCK
5
1C
100
AcDbEntity
100
AcDbBlockBegin
2
*PAPER_SPACE
0
ENDBLK
5
1D
100
AcDbEntity
100
AcDbBlockEnd
0
ENDSEC
0
SECTION
2
ENTITIES
0
CIRCLE
5
100
100
AcDbEntity
8
0
100
AcDbCircle
10
161.4999999999304
20
5.0000000002750946
30
0
40
1.3749999999999929
210
0
220
0
230
1
0
CIRCLE
5
101
100
AcDbEntity
8
0
100
AcDbCircle
10
141.4999999999304
20
5.0000000002750937
30
0
40
1.3749999999999929
210
0
220
0
230
1
0
CIRCLE
5
102
100
AcDbEntity
8
0
100
AcDbCircle
10
121.4999999999304
20
5.0000000002750919
30
0
40
1.3749999999999929
210
0
220
0
230
1
0
CIRCLE
5
103
100
AcDbEntity
8
0
100
AcDbCircle
10
101.4999999999304
20
5.0000000002750911
30
0
40
1.3749999999999929
210
0
220
0
230
1
0
CIRCLE
5
104
100
AcDbEntity
8
0
100
AcDbCircle
10
81.499999999930395
20
5.0000000002750902
30
0
40
1.3749999999999929
210
0
220
0
230
1
0
CIRCLE
5
105
100
AcDbEntity
8
0
100
AcDbCircle
10
61.499999999930388
20
5.0000000002750884
30
0
40
1.3749999999999929
210
0
220
0
230
1
0
CIRCLE
5
106
100
AcDbEntity
8
0
100
AcDbCircle
10
41.499999999930388
20
5.0000000002750875
30
0
40
1.3749999999999929
210
0
220
0
230
1
0
CIRCLE
5
107
100
AcDbEntity
8
0
100
AcDbCircle
10
21.499999999930388
20
5.0000000002750866
30
0
40
1.3749999999999929
210
0
220
0
230
1
0
CIRCLE
5
108
100
AcDbEntity
8
0
100
AcDbCircle
10
1.4999999999303881
20
5.0000000002750857
30
0
40
1.3749999999999929
210
0
220
0
230
1
0
CIRCLE
5
109
100
AcDbEntity
8
0
100
AcDbCircle
10
-18.500000000069612
20
5.0000000002750848
30
0
40
1.3749999999999929
210
0
220
0
230
1
0
CIRCLE
5
110
100
AcDbEntity
8
0
100
AcDbCircle
10
-38.500000000069612
20
5.0000000002750831
30
0
40
1.3749999999999929
210
0
220
0
230
1
0
CIRCLE
5
111
100
AcDbEntity
8
0
100
AcDbCircle
10
-58.500000000069612
20
5.0000000002750822
30
0
40
1.3749999999999929
210
0
220
0
230
1
0
CIRCLE
5
112
100
AcDbEntity
8
0
100
AcDbCircle
10
-78.500000000069605
20
5.0000000002750813
30
0
40
1.3749999999999929
210
0
220
0
230
1
0
CIRCLE
5
113
100
AcDbEntity
8
0
100
AcDbCircle
10
-98.500000000069605
20
5.0000000002750795
30
0
40
1.3749999999999929
210
0
220
0
230
1
0
CIRCLE
5
114
100
AcDbEntity
8
0
100
AcDbCircle
10
-118.5000000000696
20
5.0000000002750786
30
0
40
1.3749999999999929
210
0
220
0
230
1
0
CIRCLE
5
115
100
AcDbEntity
8
0
100
AcDbCircle
10
-138.5000000000696
20
5.0000000002750777
30
0
40
1.3749999999999929
210
0
220
0
230
1
0
CIRCLE
5
116
100
AcDbEntity
8
0
100
AcDbCircle
10
-158.5000000000696
20
5.0000000002750769
30
0
40
1.3749999999999929
210
0
220
0
230
1
0
CIRCLE
5
117
100
AcDbEntity
8
0
100
AcDbCircle
10
-178.5000000000696
20
5.000000000275076
30
0
40
1.3749999999999929
210
0
220
0
230
1
0
ARC
5
118
100
AcDbEntity
8
0
100
AcDbCircle
10
186.99999999999795
20
23.524999999979418
30
0
40
0.99999999999999645
210
0
220
-0
230
1
100
AcDbArc
50
89.999999999996746
51
180
0
LINE
5
119
100
AcDbEntity
8
0
100
AcDbLine
10
185.99999999999034
20
15.999999999377973
30
0
11
185.99999999999795
21
23.524999999980423
31
0
0
LWPOLYLINE
5
120
100
AcDbEntity
8
0
100
AcDbPolyline
90
4
70
1
43
0.0
10
-189.00000000006369
20
15.76250000026868
42
0.99999999999999989
10
-189.0000000000835
20
18.762500000226787
10
-191.0000000000646
20
18.762500000254782
42
0.99999999999999989
10
-191.00000000008265
20
15.762500000255422
0
LWPOLYLINE
5
121
100
AcDbEntity
8
0
100
AcDbPolyline
90
4
70
1
43
0.0
10
-211.00000000006671
20
18.762500000305366
42
0.99999999999999989
10
-211.00000000008347
20
15.762500000305998
10
-209.00000000007253
20
15.762500000306602
42
0.99999999999999989
10
-209.00000000007765
20
18.762500000293297
0
CIRCLE
5
122
100
AcDbEntity
8
0
100
AcDbCircle
10
190.00000000001333
20
17.262500000006369
30
0
40
1.4999999999999858
210
-0
220
0
230
1
0
CIRCLE
5
123
100
AcDbEntity
8
0
100
AcDbCircle
10
210.00000000003493
20
17.262499999993334
30
0
40
1.4999999999999858
210
-0
220
0
230
1
0
CIRCLE
5
124
100
AcDbEntity
8
0
100
AcDbCircle
10
190.00000000003837
20
-2.7374999999934073
30
0
40
1.4999999999999858
210
-0
220
0
230
1
0
CIRCLE
5
125
100
AcDbEntity
8
0
100
AcDbCircle
10
210.00000000003001
20
-2.7375000000066416
30
0
40
1.4999999999999858
210
-0
220
0
230
1
0
LWPOLYLINE
5
126
100
AcDbEntity
8
0
100
AcDbPolyline
90
4
70
1
43
0.0
10
-189.00000000015285
20
-4.2374999997472136
42
0.99999999999999989
10
-189.00000000013821
20
-1.2374999997280018
10
-191.00000000014455
20
-1.2374999997336056
42
0.99999999999999989
10
-191.00000000014654
20
-4.2374999997304243
0
LWPOLYLINE
5
127
100
AcDbEntity
8
0
100
AcDbPolyline
90
4
70
1
43
0.0
10
-209.00000000012949
20
-4.2374999998190113
42
0.99999999999999989
10
-209.00000000011576
20
-1.2374999997835716
10
-211.00000000011715
20
-1.2374999997963125
42
0.99999999999999989
10
-211.00000000012801
20
-4.2374999997950695
0
LINE
5
128
100
AcDbEntity
8
0
100
AcDbLine
10
186.99999999999801
20
24.524999999979414
30
0
11
193.50000000004235
21
24.524999999979123
31
0
0
ARC
5
129
100
AcDbEntity
8
0
100
AcDbCircle
10
213.00000000009771
20
23.524999999978231
30
0
40
1.0000000000000142
210
-0
220
0
230
1
100
AcDbArc
50
0
51
89.99999999999838
0
LINE
5
130
100
AcDbEntity
8
0
100
AcDbLine
10
214.00000000009771
20
23.524999999976899
30
0
11
214.00000000004769
21
-13.999999998335282
31
0
0
ARC
5
131
100
AcDbEntity
8
0
100
AcDbCircle
10
213.00000000004769
20
-13.99999999833395
30
0
40
1.0000000000000009
210
0
220
0
230
1
100
AcDbArc
50
270.00000000020515
51
360
0
LINE
5
132
100
AcDbEntity
8
0
100
AcDbLine
10
-213.00000000031423
20
-14.999999999864535
30
0
11
213.00000000005127
21
-14.999999998333951
31
0
0
ARC
5
133
100
AcDbEntity
8
0
100
AcDbCircle
10
-213.00000000031784
20
-13.999999999864535
30
0
40
1.0000000000000142
210
0
220
0
230
1
100
AcDbArc
50
180
51
270.0000000002068
0
LINE
5
134
100
AcDbEntity
8
0
100
AcDbLine
10
-214.00000000004775
20
23.525000000237533
30
0
11
-214.00000000031784
21
-13.999999999857335
31
0
0
ARC
5
135
100
AcDbEntity
8
0
100
AcDbCircle
10
-213.00000000004772
20
23.525000000230335
30
0
40
0.99999999999999201
210
0
220
-0
230
1
100
AcDbArc
50
89.999999999895778
51
180
0
LINE
5
136
100
AcDbEntity
8
0
100
AcDbLine
10
-186.99999999994981
20
24.525000000183486
30
0
11
-193.50000000001475
21
24.525000000195195
31
0
0
ARC
5
137
100
AcDbEntity
8
0
100
AcDbCircle
10
-186.9999999999516
20
23.525000000183486
30
0
40
1.0000000000000142
210
-0
220
0
230
1
100
AcDbArc
50
0
51
89.999999999897412
0
LINE
5
138
100
AcDbEntity
8
0
100
AcDbLine
10
-186.00000000000733
20
16.000000000280092
30
0
11
-185.9999999999516
21
23.525000000176078
31
0
0
ARC
5
139
100
AcDbEntity
8
0
100
AcDbCircle
10
-185.00000000000733
20
16.000000000272706
30
0
40
1.0000000000000142
210
0
220
0
230
1
100
AcDbArc
50
180
51
269.99999999986318
0
LINE
5
140
100
AcDbEntity
8
0
100
AcDbLine
10
-185.00000000000972
20
15.00000000027269
30
0
11
184.99999999998784
21
14.999999999378982
31
0
0
ARC
5
141
100
AcDbEntity
8
0
100
AcDbCircle
10
184.99999999999034
20
15.999999999379027
30
0
40
1.0000000000000453
210
0
220
0
230
1
100
AcDbArc
50
269.9999999998567
51
360
0
CIRCLE
5
142
100
AcDbEntity
8
0
100
AcDbCircle
10
181.4999999999304
20
5.0000000002750955
30
0
40
1.3749999999999929
210
0
220
0
230
1
0
LWPOLYLINE
5
143
100
AcDbEntity
8
0
100
AcDbPolyline
90
11
70
1
43
0.0
10
203.6666666666664
20
8.5125000000188429
42
0.41421356237311324
10
203.91666666666637
20
8.2625000000188393
10
207.75000000006173
20
8.2625000000190738
42
0.41421356237303519
10
208.00000000006173
20
8.512500000019017
10
208.0000000000625
20
12.062499999998806
42
0.41421356237309387
10
204.8000000000622
20
15.262499999999102
10
201.25000000000034
20
15.262499999999093
42
0.41421356237326412
10
201.00000000000037
20
15.012499999998962
10
201.00000000000239
20
11.179166666687152
42
0.41421356237272561
10
201.25000000000213
20
10.929166666687305
10
203.66666666666643
20
10.929166666684901
0
LWPOLYLINE
5
144
100
AcDbEntity
8
0
100
AcDbPolyline
90
8
70
1
43
0.0
10
192.00000000006406
20
8.5124999999665008
42
0.41421356237319906
10
192.25000000006403
20
8.2624999999664972
10
198.75000000000298
20
8.2624999999672131
42
0.4142135623730846
10
199.00000000000293
20
8.5124999999672308
10
199.00000000000244
20
15.012499999999108
42
0.4142135623732251
10
198.75000000000244
20
15.262499999999061
10
195.20000000006235
20
15.262499999999072
42
0.41421356237312312
10
192.00000000006438
20
12.062499999998728
0
LWPOLYLINE
5
145
100
AcDbEntity
8
0
100
AcDbPolyline
90
8
70
1
43
0.0
10
201.25000000005514
20
6.2625000000179227
42
0.41421356237286738
10
201.00000000005539
20
6.0125000000179387
10
201.00000000005497
20
-0.48750000001171911
42
0.4142135623731994
10
201.25000000005497
20
-0.73750000001172289
10
204.80000000006231
20
-0.73750000001182348
42
0.41421356237309098
10
208.00000000006034
20
2.4624999999863579
10
208.00000000006116
20
6.0125000000233815
42
0.4142135623733747
10
207.75000000006094
20
6.2625000000234641
0
LWPOLYLINE
5
146
100
AcDbEntity
8
0
100
AcDbPolyline
90
8
70
1
43
0.0
10
198.75000000005502
20
-0.73750000001166915
42
0.41421356237320117
10
199.00000000005502
20
-0.48750000001165117
10
199.00000000005457
20
6.0124999999663151
42
0.41421356237310281
10
198.75000000005457
20
6.2624999999662982
10
192.25000000006386
20
6.2624999999664421
42
0.41421356237322637
10
192.00000000006384
20
6.0124999999664643
10
192.00000000006355
20
2.4624999999881387
42
0.41421356237309176
10
195.20000000006351
20
-0.73750000001157823
0
LINE
5
147
100
AcDbEntity
8
0
100
AcDbLine
10
194.0000000000253
20
-10.230430898410708
30
0
11
194.00000000001515
21
-5.4951941016036434
31
0
0
LINE
5
148
100
AcDbEntity
8
0
100
AcDbLine
10
205.74230589841613
20
-10.488124999993699
30
0
11
194.25769410162687
21
-10.488125000011363
31
0
0
LINE
5
149
100
AcDbEntity
8
0
100
AcDbLine
10
206.00000000001589
20
-5.4951941015998464
30
0
11
206.00000000001722
21
-10.230430898392196
31
0
0
LINE
5
150
100
AcDbEntity
8
0
100
AcDbLine
10
194.25769410161567
20
-5.2375000000025294
30
0
11
205.74230589841474
21
-5.2374999999988816
31
0
0
LWPOLYLINE
5
151
100
AcDbEntity
8
0
100
AcDbPolyline
90
16
70
1
43
0.0
10
-205.74230589842279
20
-5.237499999754732
10
-194.25769410162371
20
-5.2374999997720098
42
0.11953506150160945
10
-194.02863267797824
20
-5.1819444442168061
42
-0.73009573291827567
10
-193.94444444446719
20
-5.2661326777282298
42
0.11953506150160219
10
-194.0000000000235
20
-5.4951941013734285
10
-194.00000000003925
20
-10.230430898180513
42
0.11953506150159758
10
-193.94444444448447
20
-10.459492321826074
42
-0.73009573291757379
10
-194.02863267799592
20
-10.543680555337003
42
0.11953506150159869
10
-194.25769410164116
20
-10.488124999780846
10
-205.74230589843043
20
-10.488124999749548
42
0.11953506150163402
10
-205.97136732207602
20
-10.543680555304496
42
-0.7300957329173291
10
-206.05555555558709
20
-10.45949232179308
42
0.11953506150163661
10
-206.00000000003118
20
-10.23043089814772
10
-206.00000000002424
20
-5.4951941013553611
42
0.11953506150160034
10
-206.05555555557945
20
-5.2661326777098969
42
-0.73009573291761942
10
-205.97136732206809
20
-5.1819444441988525
42
0.11953506150160054
0
LINE
5
152
100
AcDbEntity
8
0
100
AcDbLine
10
194.00000000004331
20
20.020194101583858
30
0
11
194.00000000004235
21
24.024999999979247
31
0
0
LINE
5
153
100
AcDbEntity
8
0
100
AcDbLine
10
205.74230589844234
20
19.762499999982829
30
0
11
194.25769410164446
21
19.762499999982829
31
0
0
LINE
5
154
100
AcDbEntity
8
0
100
AcDbLine
10
206.00000000004331
20
20.020194101583883
30
0
11
206.00000000004241
21
24.024999999978416
31
0
0
LINE
5
155
100
AcDbEntity
8
0
100
AcDbLine
10
206.50000000004243
20
24.524999999978526
30
0
11
213.00000000009774
21
24.524999999978228
31
0
0
LINE
5
156
100
AcDbEntity
8
0
100
AcDbLine
10
-206.00000000002137
20
20.020194101828316
30
0
11
-206.00000000001572
21
24.025000000217918
31
0
0
ARC
5
157
100
AcDbEntity
8
0
100
AcDbCircle
10
-206.00000000002171
20
19.762500000227281
30
0
40
0.062499999999975915
210
0
220
0
230
1
100
AcDbArc
50
152.73395554918079
51
297.26604445067636
0
LINE
5
158
100
AcDbEntity
8
0
100
AcDbLine
10
-205.74230589842068
20
19.762500000226975
30
0
11
-194.25769410162277
21
19.76250000021335
31
0
0
ARC
5
159
100
AcDbEntity
8
0
100
AcDbCircle
10
-194.00000000002171
20
19.762500000213045
30
0
40
0.062499999999977532
210
0
220
0
230
1
100
AcDbArc
50
-117.26604445079138
51
27.266044450673746
0
LINE
5
160
100
AcDbEntity
8
0
100
AcDbLine
10
-194.00000000002137
20
20.020194101814106
30
0
11
-194.00000000001566
21
24.025000000195913
31
0
0
LINE
5
161
100
AcDbEntity
8
0
100
AcDbLine
10
-206.50000000001484
20
24.525000000218622
30
0
11
-213.0000000000459
21
24.525000000230328
31
0
0
LWPOLYLINE
5
162
100
AcDbEntity
8
0
100
AcDbPolyline
90
8
70
1
43
0.0
10
-201.25000000000344
20
8.2625000000186795
42
0.41421356237286738
10
-201.00000000000347
20
8.5125000000184592
10
-200.99999999999778
20
15.012499999998873
42
0.41421356237330836
10
-201.24999999999775
20
15.262499999999113
10
-204.8000000000622
20
15.262499999999102
42
0.41421356237332285
10
-208.00000000006241
20
12.062499999998806
10
-208.00000000006165
20
8.5125000000190187
42
0.41421356237303519
10
-207.75000000006168
20
8.2625000000190738
0
LWPOLYLINE
5
163
100
AcDbEntity
8
0
100
AcDbPolyline
90
11
70
1
43
0.0
10
-198.75000000000242
20
15.262499999999084
42
0.41421356237310542
10
-199.00000000000236
20
15.0124999999991
10
-199.00000000000264
20
11.179166666610501
42
0.41421356237603463
10
-198.75000000000026
20
10.929166666610492
10
-196.33333333333428
20
10.929166666633861
10
-196.33333333333411
20
8.5124999999669591
42
0.41421356237304818
10
-196.08333333333417
20
8.2624999999669697
10
-192.25000000006412
20
8.2624999999664954
42
0.41421356237326151
10
-192.00000000006409
20
8.512499999966515
10
-192.00000000006438
20
12.062499999998726
42
0.41421356237307044
10
-195.20000000006235
20
15.262499999999072
0
LWPOLYLINE
5
164
100
AcDbEntity
8
0
100
AcDbPolyline
90
8
70
1
43
0.0
10
-192.00000000006386
20
6.0124999999664634
42
0.41421356237322637
10
-192.25000000006386
20
6.262499999966443
10
-198.7500000000544
20
6.2624999999662965
42
0.41421356237322382
10
-199.0000000000544
20
6.0124999999663213
10
-199.00000000005494
20
-0.48750000001164689
42
0.41421356237320323
10
-198.75000000005497
20
-0.73750000001165394
10
-195.20000000006354
20
-0.73750000001157834
42
0.41421356237325757
10
-192.00000000006355
20
2.4624999999881383
0
LWPOLYLINE
5
165
100
AcDbEntity
8
0
100
AcDbPolyline
90
8
70
1
43
0.0
10
-201.25000000005488
20
-0.73750000001173288
42
0.41421356237319662
10
-201.00000000005491
20
-0.48750000001172511
10
-201.00000000005511
20
6.0125000000179369
42
0.41421356237291296
10
-201.25000000005488
20
6.2625000000179103
10
-207.75000000006091
20
6.2625000000234374
42
0.414213562373415
10
-208.00000000006111
20
6.0125000000233833
10
-208.00000000006031
20
2.4624999999863579
42
0.4142135623729144
10
-204.80000000006228
20
-0.73750000001182359
0
ARC
5
166
100
AcDbEntity
8
0
100
AcDbCircle
10
193.50000000002527
20
-10.230430898411774
30
0
40
0.50000000000001821
210
0
220
0
230
1
100
AcDbArc
50
-27.266044450602681
51
0
0
ARC
5
167
100
AcDbEntity
8
0
100
AcDbCircle
10
206.50000000001722
20
-10.230430898392058
30
0
40
0.50000000000000711
210
0
220
0
230
1
100
AcDbArc
50
180
51
207.26604445074673
0
ARC
5
168
100
AcDbEntity
8
0
100
AcDbCircle
10
205.7423058984146
20
-4.7374999999988807
30
0
40
0.50000000000000044
210
-0
220
0
230
1
100
AcDbArc
50
270.00000000001626
51
297.2660444507469
0
ARC
5
169
100
AcDbEntity
8
0
100
AcDbCircle
10
193.50000000001515
20
-5.4951941016047092
30
0
40
0.50000000000000711
210
0
220
-0
230
1
100
AcDbArc
50
0
51
27.266044450848838
0
ARC
5
170
100
AcDbEntity
8
0
100
AcDbCircle
10
-206.50000000002137
20
20.02019410182902
30
0
40
0.50000000000000588
210
-0
220
0
230
1
100
AcDbArc
50
332.73395554919534
51
360
0
ARC
5
171
100
AcDbEntity
8
0
100
AcDbCircle
10
-205.74230589842128
20
19.262500000226975
30
0
40
0.50000000000000044
210
0
220
-0
230
1
100
AcDbArc
50
89.999999999931603
51
117.26604445065577
0
ARC
5
172
100
AcDbEntity
8
0
100
AcDbCircle
10
-194.25769410162337
20
19.26250000021335
30
0
40
0.50000000000000422
210
0
220
-0
230
1
100
AcDbArc
50
62.733955549202058
51
89.999999999931603
0
ARC
5
173
100
AcDbEntity
8
0
100
AcDbCircle
10
-193.50000000002137
20
20.020194101813395
30
0
40
0.50000000000000711
210
0
220
0
230
1
100
AcDbArc
50
180
51
207.26604445064552
0
ARC
5
174
100
AcDbEntity
8
0
100
AcDbCircle
10
-193.50000000001563
20
24.025000000195202
30
0
40
0.49999999999999378
210
0
220
-0
230
1
100
AcDbArc
50
89.999999999899032
51
180
0
ARC
5
175
100
AcDbEntity
8
0
100
AcDbCircle
10
193.50000000004232
20
24.024999999979123
30
0
40
0.50000000000000711
210
0
220
-0
230
1
100
AcDbArc
50
0
51
89.999999999996746
0
ARC
5
176
100
AcDbEntity
8
0
100
AcDbCircle
10
193.50000000004331
20
20.020194101583733
30
0
40
0.50000000000001765
210
0
220
0
230
1
100
AcDbArc
50
-27.2660444507096
51
0
0
ARC
5
177
100
AcDbEntity
8
0
100
AcDbCircle
10
205.74230589844234
20
19.262499999982829
30
0
40
0.50000000000000089
210
0
220
-0
230
1
100
AcDbArc
50
62.733955549268344
51
90
0
ARC
5
178
100
AcDbEntity
8
0
100
AcDbCircle
10
206.50000000004241
20
24.024999999978533
30
0
40
0.49999999999999378
210
0
220
-0
230
1
100
AcDbArc
50
89.999999999996746
51
180
0
ARC
5
179
100
AcDbEntity
8
0
100
AcDbCircle
10
-206.50000000001572
20
24.025000000218625
30
0
40
0.50000000000000711
210
-0
220
0
230
1
100
AcDbArc
50
0
51
89.999999999899032
0
ARC
5
180
100
AcDbEntity
8
0
100
AcDbCircle
10
194.00000000002586
20
-10.488125000011749
30
0
40
0.062499999999977074
210
0
220
0
230
1
100
AcDbArc
50
152.73395554939646
51
297.2660444507593
0
ARC
5
181
100
AcDbEntity
8
0
100
AcDbCircle
10
194.25769410162764
20
-10.988125000011363
30
0
40
0.50000000000000044
210
0
220
0
230
1
100
AcDbArc
50
90.000000000087937
51
117.26604445081774
0
ARC
5
182
100
AcDbEntity
8
0
100
AcDbCircle
10
205.7423058984169
20
-10.988124999993701
30
0
40
0.500000000000002
210
0
220
-0
230
1
100
AcDbArc
50
62.733955549352444
51
90.000000000087937
0
ARC
5
183
100
AcDbEntity
8
0
100
AcDbCircle
10
206.00000000001728
20
-10.488124999993293
30
0
40
0.062500000000027381
210
0
220
0
230
1
100
AcDbArc
50
-117.26604445065254
51
27.266044450751934
0
ARC
5
184
100
AcDbEntity
8
0
100
AcDbCircle
10
206.50000000001592
20
-5.4951941015997079
30
0
40
0.50000000000001765
210
0
220
0
230
1
100
AcDbArc
50
152.73395554929064
51
180
0
ARC
5
185
100
AcDbEntity
8
0
100
AcDbCircle
10
206.0000000000158
20
-5.2374999999988123
30
0
40
0.062499999999987704
210
0
220
0
230
1
100
AcDbArc
50
-27.266044450702726
51
117.26604445072942
0
ARC
5
186
100
AcDbEntity
8
0
100
AcDbCircle
10
194.25769410161553
20
-4.7375000000025302
30
0
40
0.49999999999999989
210
0
220
0
230
1
100
AcDbArc
50
242.73395554928965
51
270.00000000001626
0
ARC
5
187
100
AcDbEntity
8
0
100
AcDbCircle
10
194.00000000001461
20
-5.2375000000026182
30
0
40
0.062499999999990376
210
0
220
-0
230
1
100
AcDbArc
50
62.733955549275429
51
207.26604445083584
0
ARC
5
188
100
AcDbEntity
8
0
100
AcDbCircle
10
194.0000000000434
20
19.762499999982829
30
0
40
0.062499999999960705
210
0
220
0
230
1
100
AcDbArc
50
152.73395554927959
51
297.266044450707
0
ARC
5
189
100
AcDbEntity
8
0
100
AcDbCircle
10
194.25769410164446
20
19.262499999982829
30
0
40
0.50000000000000044
210
0
220
-0
230
1
100
AcDbArc
50
90
51
117.26604445073168
0
ARC
5
190
100
AcDbEntity
8
0
100
AcDbCircle
10
206.0000000000434
20
19.762499999982829
30
0
40
0.06249999999997656
210
0
220
0
230
1
100
AcDbArc
50
-117.26604445070701
51
27.266044450749376
0
ARC
5
191
100
AcDbEntity
8
0
100
AcDbCircle
10
206.50000000004331
20
20.020194101584
30
0
40
0.50000000000000711
210
0
220
0
230
1
100
AcDbArc
50
180
51
207.26604445074204
0
ENDSEC
0
SECTION
2
OBJECTS
0
DICTIONARY
5
C
100
AcDbDictionary
3
ACAD_GROUP
350
D
3
ACAD_MLINESTYLE
350
17
0
DICTIONARY
5
D
100
AcDbDictionary
0
DICTIONARY
5
1A
330
C
100
AcDbDictionary
0
DICTIONARY
5
17
100
AcDbDictionary
0
ENDSEC
0
EOF
