0
SECTION
2
HEADER
9
$INSUNITS
70
4
9
$ACADVER
1
AC1014
9
$HANDSEED
5
FFFF
0
ENDSEC
0
SECTION
2
TABLES
0
TABLE
2
VPORT
5
8
100
AcDbSymbolTable
0
ENDTAB
0
TABLE
2
LTYPE
5
5
100
AcDbSymbolTable
0
LTYPE
5
14
100
AcDbSymbolTableRecord
100
AcDbLinetypeTableRecord
2
BYBLOCK
70
0
0
LTYPE
5
15
100
AcDbSymbolTableRecord
100
AcDbLinetypeTableRecord
2
BYLAYER
70
0
0
ENDTAB
0
TABLE
2
LAYER
5
2
100
AcDbSymbolTable
70
2
0
LAYER
5
50
100
AcDbSymbolTableRecord
100
AcDbLayerTableRecord
2
0
70
0
6
CONTINUOUS
0
ENDTAB
0
TABLE
2
STYLE
5
3
100
AcDbSymbolTable
70
1
0
STYLE
5
11
100
AcDbSymbolTableRecord
100
AcDbTextStyleTableRecord
2
STANDARD
70
0
0
ENDTAB
0
TABLE
2
VIEW
5
6
100
AcDbSymbolTable
70
0
0
ENDTAB
0
TABLE
2
UCS
5
7
100
AcDbSymbolTable
70
0
0
ENDTAB
0
TABLE
2
APPID
5
9
100
AcDbSymbolTable
70
2
0
APPID
5
12
100
AcDbSymbolTableRecord
100
AcDbRegAppTableRecord
2
ACAD
70
0
0
ENDTAB
0
TABLE
2
DIMSTYLE
5
A
100
AcDbSymbolTable
70
1
0
ENDTAB
0
TABLE
2
BLOCK_RECORD
5
1
100
AcDbSymbolTable
70
1
0
BLOCK_RECORD
5
1F
100
AcDbSymbolTableRecord
100
AcDbBlockTableRecord
2
*MODEL_SPACE
0
BLOCK_RECORD
5
1B
100
AcDbSymbolTableRecord
100
AcDbBlockTableRecord
2
*PAPER_SPACE
0
ENDTAB
0
ENDSEC
0
SECTION
2
BLOCKS
0
BLOCK
5
20
100
AcDbEntity
100
AcDbBlockBegin
2
*MODEL_SPACE
0
ENDBLK
5
21
100
AcDbEntity
100
AcDbBlockEnd
0
BLOCK
5
1C
100
AcDbEntity
100
AcDbBlockBegin
2
*PAPER_SPACE
0
ENDBLK
5
1D
100
AcDbEntity
100
AcDbBlockEnd
0
ENDSEC
0
SECTION
2
ENTITIES
0
CIRCLE
5
100
100
AcDbEntity
8
0
100
AcDbCircle
10
162.50000000000935
20
4.9999999999660814
30
0
40
1.3749999999999929
210
0
220
0
230
1
0
CIRCLE
5
101
100
AcDbEntity
8
0
100
AcDbCircle
10
142.50000000000935
20
4.9999999999660805
30
0
40
1.3749999999999929
210
0
220
0
230
1
0
CIRCLE
5
102
100
AcDbEntity
8
0
100
AcDbCircle
10
122.50000000000935
20
4.9999999999660796
30
0
40
1.3749999999999929
210
0
220
0
230
1
0
CIRCLE
5
103
100
AcDbEntity
8
0
100
AcDbCircle
10
102.50000000000935
20
4.9999999999660787
30
0
40
1.3749999999999929
210
0
220
0
230
1
0
CIRCLE
5
104
100
AcDbEntity
8
0
100
AcDbCircle
10
82.500000000009351
20
4.9999999999660769
30
0
40
1.3749999999999929
210
0
220
0
230
1
0
CIRCLE
5
105
100
AcDbEntity
8
0
100
AcDbCircle
10
62.500000000009344
20
4.999999999966076
30
0
40
1.3749999999999929
210
0
220
0
230
1
0
CIRCLE
5
106
100
AcDbEntity
8
0
100
AcDbCircle
10
42.500000000009344
20
4.9999999999660751
30
0
40
1.3749999999999929
210
0
220
0
230
1
0
CIRCLE
5
107
100
AcDbEntity
8
0
100
AcDbCircle
10
22.500000000009344
20
4.9999999999660734
30
0
40
1.3749999999999929
210
0
220
0
230
1
0
CIRCLE
5
108
100
AcDbEntity
8
0
100
AcDbCircle
10
2.5000000000093436
20
4.9999999999660725
30
0
40
1.3749999999999929
210
0
220
0
230
1
0
CIRCLE
5
109
100
AcDbEntity
8
0
100
AcDbCircle
10
-17.499999999990656
20
4.9999999999660716
30
0
40
1.3749999999999929
210
0
220
0
230
1
0
CIRCLE
5
110
100
AcDbEntity
8
0
100
AcDbCircle
10
-37.499999999990656
20
4.9999999999660707
30
0
40
1.3749999999999929
210
0
220
0
230
1
0
CIRCLE
5
111
100
AcDbEntity
8
0
100
AcDbCircle
10
-57.499999999990656
20
4.9999999999660698
30
0
40
1.3749999999999929
210
0
220
0
230
1
0
CIRCLE
5
112
100
AcDbEntity
8
0
100
AcDbCircle
10
-77.499999999990649
20
4.999999999966068
30
0
40
1.3749999999999929
210
0
220
0
230
1
0
CIRCLE
5
113
100
AcDbEntity
8
0
100
AcDbCircle
10
-97.499999999990649
20
4.9999999999660671
30
0
40
1.3749999999999929
210
0
220
0
230
1
0
CIRCLE
5
114
100
AcDbEntity
8
0
100
AcDbCircle
10
-117.49999999999065
20
4.9999999999660663
30
0
40
1.3749999999999929
210
0
220
0
230
1
0
CIRCLE
5
115
100
AcDbEntity
8
0
100
AcDbCircle
10
-137.49999999999065
20
4.9999999999660645
30
0
40
1.3749999999999929
210
0
220
0
230
1
0
CIRCLE
5
116
100
AcDbEntity
8
0
100
AcDbCircle
10
-157.49999999999065
20
4.9999999999660636
30
0
40
1.3749999999999929
210
0
220
0
230
1
0
CIRCLE
5
117
100
AcDbEntity
8
0
100
AcDbCircle
10
-177.49999999999065
20
4.9999999999660627
30
0
40
1.3749999999999929
210
0
220
0
230
1
0
LWPOLYLINE
5
118
100
AcDbEntity
8
0
100
AcDbPolyline
90
16
70
1
43
0.0
10
185.9999999999888
20
32.937499999980126
42
0.41421356237316787
10
184.99999999998852
20
31.937499999980126
10
184.99999999998852
20
15.999999999640938
42
-0.41421356237334933
10
183.99999999998761
20
14.999999999640936
10
-184.00000000002512
20
14.999999999965203
42
-0.41421356237500445
10
-185.00000000002427
20
15.999999999972625
10
-184.99999999990607
20
31.937500000358561
42
0.41421356237475732
10
-185.99999999990433
20
32.937500000365979
10
-213.99999999997436
20
32.937500000415206
42
0.41421356237295198
10
-214.99999999997613
20
31.937500000417437
10
-215.00000000007856
20
-13.9999999997058
42
0.41421356237494589
10
-214.00000000007446
20
-14.999999999708036
10
213.99999999999739
20
-14.999999997956444
42
0.41421356237159013
10
214.99999999999335
20
-13.999999997957531
10
215.00000000004314
20
31.937499999972534
42
0.41421356237333951
10
214.00000000004337
20
32.937499999973618
0
LWPOLYLINE
5
119
100
AcDbEntity
8
0
100
AcDbPolyline
90
4
70
1
43
0.0
10
-189.00000000001927
20
16.675000000110813
42
0.99999999999999989
10
-189.00000000001145
20
19.67500000011071
10
-191.00000000001157
20
19.675000000115617
42
0.99999999999999989
10
-191.0000000000193
20
16.675000000116281
0
LWPOLYLINE
5
120
100
AcDbEntity
8
0
100
AcDbPolyline
90
4
70
1
43
0.0
10
-211.00000000001955
20
19.675000000163248
42
0.99999999999999989
10
-211.00000000002808
20
16.67500000016388
10
-209.00000000002808
20
16.675000000167287
42
0.99999999999999989
10
-209.0000000000195
20
19.675000000148405
0
CIRCLE
5
121
100
AcDbEntity
8
0
100
AcDbCircle
10
189.99999999997277
20
18.175000000011309
30
0
40
1.4999999999999858
210
-0
220
0
230
1
0
CIRCLE
5
122
100
AcDbEntity
8
0
100
AcDbCircle
10
210.00000000000051
20
18.174999999990533
30
0
40
1.4999999999999858
210
-0
220
0
230
1
0
CIRCLE
5
123
100
AcDbEntity
8
0
100
AcDbCircle
10
189.99999999999784
20
-1.8250000000024194
30
0
40
1.4999999999999858
210
-0
220
0
230
1
0
CIRCLE
5
124
100
AcDbEntity
8
0
100
AcDbCircle
10
209.99999999999559
20
-1.8250000000016158
30
0
40
1.4999999999999858
210
-0
220
0
230
1
0
LWPOLYLINE
5
125
100
AcDbEntity
8
0
100
AcDbPolyline
90
4
70
1
43
0.0
10
-189.0000000000839
20
-3.3249999998929676
42
0.99999999999999989
10
-189.00000000008498
20
-0.32499999988473138
10
-191.00000000008495
20
-0.32499999988327477
42
0.99999999999999989
10
-191.0000000000839
20
-3.3249999998832385
0
LWPOLYLINE
5
126
100
AcDbEntity
8
0
100
AcDbPolyline
90
4
70
1
43
0.0
10
-209.00000000008379
20
-3.324999999956701
42
0.99999999999999989
10
-209.00000000007492
20
-0.32499999994840378
10
-211.00000000007543
20
-0.32499999994098
42
0.99999999999999989
10
-211.00000000008333
20
-3.32499999995294
0
ENDSEC
0
SECTION
2
OBJECTS
0
DICTIONARY
5
C
100
AcDbDictionary
3
ACAD_GROUP
350
D
3
ACAD_MLINESTYLE
350
17
0
DICTIONARY
5
D
100
AcDbDictionary
0
DICTIONARY
5
1A
330
C
100
AcDbDictionary
0
DICTIONARY
5
17
100
AcDbDictionary
0
ENDSEC
0
EOF
