0
SECTION
2
HEADER
9
$INSUNITS
70
4
9
$ACADVER
1
AC1014
9
$HANDSEED
5
FFFF
0
ENDSEC
0
SECTION
2
TABLES
0
TABLE
2
VPORT
5
8
100
AcDbSymbolTable
0
ENDTAB
0
TABLE
2
LTYPE
5
5
100
AcDbSymbolTable
0
LTYPE
5
14
100
AcDbSymbolTableRecord
100
AcDbLinetypeTableRecord
2
BYBLOCK
70
0
0
LTYPE
5
15
100
AcDbSymbolTableRecord
100
AcDbLinetypeTableRecord
2
BYLAYER
70
0
0
ENDTAB
0
TABLE
2
LAYER
5
2
100
AcDbSymbolTable
70
2
0
LAYER
5
50
100
AcDbSymbolTableRecord
100
AcDbLayerTableRecord
2
0
70
0
6
CONTINUOUS
0
ENDTAB
0
TABLE
2
STYLE
5
3
100
AcDbSymbolTable
70
1
0
STYLE
5
11
100
AcDbSymbolTableRecord
100
AcDbTextStyleTableRecord
2
STANDARD
70
0
0
ENDTAB
0
TABLE
2
VIEW
5
6
100
AcDbSymbolTable
70
0
0
ENDTAB
0
TABLE
2
UCS
5
7
100
AcDbSymbolTable
70
0
0
ENDTAB
0
TABLE
2
APPID
5
9
100
AcDbSymbolTable
70
2
0
APPID
5
12
100
AcDbSymbolTableRecord
100
AcDbRegAppTableRecord
2
ACAD
70
0
0
ENDTAB
0
TABLE
2
DIMSTYLE
5
A
100
AcDbSymbolTable
70
1
0
ENDTAB
0
TABLE
2
BLOCK_RECORD
5
1
100
AcDbSymbolTable
70
1
0
BLOCK_RECORD
5
1F
100
AcDbSymbolTableRecord
100
AcDbBlockTableRecord
2
*MODEL_SPACE
0
BLOCK_RECORD
5
1B
100
AcDbSymbolTableRecord
100
AcDbBlockTableRecord
2
*PAPER_SPACE
0
ENDTAB
0
ENDSEC
0
SECTION
2
BLOCKS
0
BLOCK
5
20
100
AcDbEntity
100
AcDbBlockBegin
2
*MODEL_SPACE
0
ENDBLK
5
21
100
AcDbEntity
100
AcDbBlockEnd
0
BLOCK
5
1C
100
AcDbEntity
100
AcDbBlockBegin
2
*PAPER_SPACE
0
ENDBLK
5
1D
100
AcDbEntity
100
AcDbBlockEnd
0
ENDSEC
0
SECTION
2
ENTITIES
0
CIRCLE
5
100
100
AcDbEntity
8
0
100
AcDbCircle
10
162.49999999998545
20
4.9999999999945279
30
0
40
1.3749999999999929
210
0
220
0
230
1
0
CIRCLE
5
101
100
AcDbEntity
8
0
100
AcDbCircle
10
142.49999999998545
20
4.9999999999945279
30
0
40
1.3749999999999929
210
0
220
0
230
1
0
CIRCLE
5
102
100
AcDbEntity
8
0
100
AcDbCircle
10
122.49999999998543
20
4.9999999999945279
30
0
40
1.3749999999999929
210
0
220
0
230
1
0
CIRCLE
5
103
100
AcDbEntity
8
0
100
AcDbCircle
10
102.49999999998543
20
4.9999999999945279
30
0
40
1.3749999999999929
210
0
220
0
230
1
0
CIRCLE
5
104
100
AcDbEntity
8
0
100
AcDbCircle
10
82.499999999985434
20
4.9999999999945279
30
0
40
1.3749999999999929
210
0
220
0
230
1
0
CIRCLE
5
105
100
AcDbEntity
8
0
100
AcDbCircle
10
62.499999999985434
20
4.9999999999945279
30
0
40
1.3749999999999929
210
0
220
0
230
1
0
CIRCLE
5
106
100
AcDbEntity
8
0
100
AcDbCircle
10
42.499999999985434
20
4.9999999999945279
30
0
40
1.3749999999999929
210
0
220
0
230
1
0
CIRCLE
5
107
100
AcDbEntity
8
0
100
AcDbCircle
10
22.499999999985434
20
4.9999999999945279
30
0
40
1.3749999999999929
210
0
220
0
230
1
0
CIRCLE
5
108
100
AcDbEntity
8
0
100
AcDbCircle
10
2.4999999999854339
20
4.9999999999945279
30
0
40
1.3749999999999929
210
0
220
0
230
1
0
CIRCLE
5
109
100
AcDbEntity
8
0
100
AcDbCircle
10
-17.500000000014566
20
4.9999999999945288
30
0
40
1.3749999999999929
210
0
220
0
230
1
0
CIRCLE
5
110
100
AcDbEntity
8
0
100
AcDbCircle
10
-37.500000000014566
20
4.9999999999945288
30
0
40
1.3749999999999929
210
0
220
0
230
1
0
CIRCLE
5
111
100
AcDbEntity
8
0
100
AcDbCircle
10
-57.500000000014566
20
4.9999999999945288
30
0
40
1.3749999999999929
210
0
220
0
230
1
0
CIRCLE
5
112
100
AcDbEntity
8
0
100
AcDbCircle
10
-77.500000000014566
20
4.9999999999945288
30
0
40
1.3749999999999929
210
0
220
0
230
1
0
CIRCLE
5
113
100
AcDbEntity
8
0
100
AcDbCircle
10
-97.500000000014566
20
4.9999999999945288
30
0
40
1.3749999999999929
210
0
220
0
230
1
0
CIRCLE
5
114
100
AcDbEntity
8
0
100
AcDbCircle
10
-117.50000000001457
20
4.9999999999945288
30
0
40
1.3749999999999929
210
0
220
0
230
1
0
CIRCLE
5
115
100
AcDbEntity
8
0
100
AcDbCircle
10
-137.50000000001455
20
4.9999999999945288
30
0
40
1.3749999999999929
210
0
220
0
230
1
0
CIRCLE
5
116
100
AcDbEntity
8
0
100
AcDbCircle
10
-157.50000000001455
20
4.9999999999945288
30
0
40
1.3749999999999929
210
0
220
0
230
1
0
CIRCLE
5
117
100
AcDbEntity
8
0
100
AcDbCircle
10
-177.50000000001455
20
4.9999999999945288
30
0
40
1.3749999999999929
210
0
220
0
230
1
0
ARC
5
118
100
AcDbEntity
8
0
100
AcDbCircle
10
187.00000000002461
20
23.52499999999506
30
0
40
0.99999999999999645
210
0
220
-0
230
1
100
AcDbArc
50
90
51
180
0
LINE
5
119
100
AcDbEntity
8
0
100
AcDbLine
10
186.00000000001779
20
15.99999999992939
30
0
11
186.00000000002461
21
23.524999999995973
31
0
0
CIRCLE
5
120
100
AcDbEntity
8
0
100
AcDbCircle
10
210.00000000003661
20
-2.7375000000026546
30
0
40
1.4999999999999858
210
-0
220
0
230
1
0
CIRCLE
5
121
100
AcDbEntity
8
0
100
AcDbCircle
10
210.00000000004999
20
17.262500000008419
30
0
40
1.4999999999999858
210
-0
220
0
230
1
0
CIRCLE
5
122
100
AcDbEntity
8
0
100
AcDbCircle
10
190.00000000003095
20
-2.7375000000157912
30
0
40
1.4999999999999858
210
-0
220
0
230
1
0
CIRCLE
5
123
100
AcDbEntity
8
0
100
AcDbCircle
10
190.00000000001626
20
17.262500000031189
30
0
40
1.4999999999999858
210
-0
220
0
230
1
0
LINE
5
124
100
AcDbEntity
8
0
100
AcDbLine
10
187.00000000002461
20
24.524999999995064
30
0
11
193.50000000004081
21
24.524999999995064
31
0
0
ARC
5
125
100
AcDbEntity
8
0
100
AcDbCircle
10
213.00000000006366
20
23.52499999999506
30
0
40
1.0000000000000142
210
-0
220
0
230
1
100
AcDbArc
50
0
51
90
0
LINE
5
126
100
AcDbEntity
8
0
100
AcDbLine
10
214.00000000006369
20
23.524999999994339
30
0
11
214.00000000003649
21
-14.000000000199361
31
0
0
ARC
5
127
100
AcDbEntity
8
0
100
AcDbCircle
10
213.00000000003649
20
-14.000000000198636
30
0
40
1.0000000000000009
210
0
220
0
230
1
100
AcDbArc
50
269.99999999994299
51
360
0
LINE
5
128
100
AcDbEntity
8
0
100
AcDbLine
10
-213.00000000005397
20
-14.999999999796152
30
0
11
213.0000000000355
21
-15.000000000198636
31
0
0
ARC
5
129
100
AcDbEntity
8
0
100
AcDbCircle
10
-213.00000000005301
20
-13.999999999796151
30
0
40
1.0000000000000142
210
0
220
0
230
1
100
AcDbArc
50
180
51
269.99999999994463
0
LINE
5
130
100
AcDbEntity
8
0
100
AcDbLine
10
-213.99999999997937
20
23.525000000188392
30
0
11
-214.00000000005303
21
-13.999999999794191
31
0
0
ARC
5
131
100
AcDbEntity
8
0
100
AcDbCircle
10
-212.99999999997937
20
23.525000000186431
30
0
40
0.99999999999999645
210
0
220
-0
230
1
100
AcDbArc
50
89.999999999947889
51
180
0
LINE
5
132
100
AcDbEntity
8
0
100
AcDbLine
10
-186.99999999992082
20
24.525000000162237
30
0
11
-193.4999999999695
21
24.525000000168284
31
0
0
ARC
5
133
100
AcDbEntity
8
0
100
AcDbCircle
10
-186.99999999992173
20
23.525000000162237
30
0
40
1.0000000000000142
210
-0
220
0
230
1
100
AcDbArc
50
0
51
89.999999999947889
0
LINE
5
134
100
AcDbEntity
8
0
100
AcDbLine
10
-185.99999999997235
20
16.000000000015064
30
0
11
-185.99999999992173
21
23.525000000155508
31
0
0
ARC
5
135
100
AcDbEntity
8
0
100
AcDbCircle
10
-184.99999999997232
20
16.00000000000836
30
0
40
1.0000000000000142
210
0
220
0
230
1
100
AcDbArc
50
180
51
269.99999999998698
0
LINE
5
136
100
AcDbEntity
8
0
100
AcDbLine
10
-184.99999999997254
20
15.000000000008345
30
0
11
185.00000000001751
21
14.999999999930299
31
0
0
ARC
5
137
100
AcDbEntity
8
0
100
AcDbCircle
10
185.00000000001776
20
15.999999999930308
30
0
40
1.0000000000000075
210
0
220
0
230
1
100
AcDbArc
50
269.99999999998533
51
360
0
CIRCLE
5
138
100
AcDbEntity
8
0
100
AcDbCircle
10
182.49999999998545
20
4.9999999999945279
30
0
40
1.3749999999999929
210
0
220
0
230
1
0
ARC
5
139
100
AcDbEntity
8
0
100
AcDbCircle
10
194.00000000003743
20
-5.2374999999968406
30
0
40
0.50000000000003697
210
0
220
-0
230
1
100
AcDbArc
50
30.000000000000508
51
240.00000000000594
0
LINE
5
140
100
AcDbEntity
8
0
100
AcDbLine
10
194.00000000003746
20
-9.6220995962123848
30
0
11
194.00000000003746
21
-6.1035254037812887
31
0
0
ARC
5
141
100
AcDbEntity
8
0
100
AcDbCircle
10
194.00000000003743
20
-10.488124999996833
30
0
40
0.49999999999998462
210
0
220
0
230
1
100
AcDbArc
50
119.99999999999379
51
330.00000000000034
0
LINE
5
142
100
AcDbEntity
8
0
100
AcDbLine
10
205.13397459626202
20
-10.488124999996838
30
0
11
194.86602540382191
21
-10.488124999996838
31
0
0
ARC
5
143
100
AcDbEntity
8
0
100
AcDbCircle
10
206.0000000000465
20
-10.488124999996833
30
0
40
0.50000000000003608
210
0
220
0
230
1
100
AcDbArc
50
209.99999999999866
51
360
0
ARC
5
144
100
AcDbEntity
8
0
100
AcDbCircle
10
206.0000000000465
20
-5.2374999999968406
30
0
40
0.49999999999997158
210
0
220
-0
230
1
100
AcDbArc
50
0
51
150.00000000000179
0
LINE
5
145
100
AcDbEntity
8
0
100
AcDbLine
10
194.86602540382191
20
-5.2374999999968361
30
0
11
205.13397459626202
21
-5.2374999999968361
31
0
0
LINE
5
146
100
AcDbEntity
8
0
100
AcDbLine
10
194.00000000004076
20
20.628525403776973
30
0
11
194.00000000004081
21
24.024999999995064
31
0
0
ARC
5
147
100
AcDbEntity
8
0
100
AcDbCircle
10
194.00000000004076
20
19.762499999992517
30
0
40
0.50000000000001588
210
0
220
0
230
1
100
AcDbArc
50
119.99999999999568
51
330.00000000003109
0
LINE
5
148
100
AcDbEntity
8
0
100
AcDbLine
10
205.13397459625634
20
19.76249999999802
30
0
11
194.8660254038252
21
19.762499999992947
31
0
0
ARC
5
149
100
AcDbEntity
8
0
100
AcDbCircle
10
206.00000000004076
20
19.76249999999845
30
0
40
0.50000000000000511
210
0
220
0
230
1
100
AcDbArc
50
-149.99999999997323
51
60.000000000001087
0
LINE
5
150
100
AcDbEntity
8
0
100
AcDbLine
10
206.00000000004076
20
24.024999999995064
30
0
11
206.00000000004076
21
20.628525403782906
31
0
0
LINE
5
151
100
AcDbEntity
8
0
100
AcDbLine
10
206.50000000004076
20
24.524999999995064
30
0
11
213.00000000006366
21
24.524999999995064
31
0
0
ARC
5
152
100
AcDbEntity
8
0
100
AcDbCircle
10
193.50000000004081
20
24.024999999995064
30
0
40
0.50000000000000711
210
0
220
-0
230
1
100
AcDbArc
50
0
51
90
0
ARC
5
153
100
AcDbEntity
8
0
100
AcDbCircle
10
206.50000000004076
20
24.024999999995064
30
0
40
0.49999999999999822
210
0
220
-0
230
1
100
AcDbArc
50
90
51
180
0
ARC
5
154
100
AcDbEntity
8
0
100
AcDbCircle
10
194.86602540382191
20
-10.988124999996838
30
0
40
0.50000000000000044
210
0
220
-0
230
1
100
AcDbArc
50
90
51
150.00000000000134
0
ARC
5
155
100
AcDbEntity
8
0
100
AcDbCircle
10
205.13397459626202
20
-10.988124999996838
30
0
40
0.49999999999999312
210
0
220
-0
230
1
100
AcDbArc
50
29.999999999999666
51
90
0
ARC
5
156
100
AcDbEntity
8
0
100
AcDbCircle
10
205.13397459626202
20
-4.7374999999968361
30
0
40
0.49999999999999989
210
-0
220
0
230
1
100
AcDbArc
50
270
51
329.99999999999994
0
ARC
5
157
100
AcDbEntity
8
0
100
AcDbCircle
10
194.86602540382191
20
-4.7374999999968361
30
0
40
0.49999999999999201
210
0
220
0
230
1
100
AcDbArc
50
209.99999999999775
51
270
0
ARC
5
158
100
AcDbEntity
8
0
100
AcDbCircle
10
193.50000000003746
20
-6.1035254037812887
30
0
40
0.50000000000000711
210
0
220
-0
230
1
100
AcDbArc
50
0
51
59.999999999997428
0
ARC
5
159
100
AcDbEntity
8
0
100
AcDbCircle
10
193.50000000003746
20
-9.6220995962123848
30
0
40
0.50000000000000955
210
-0
220
0
230
1
100
AcDbArc
50
-59.999999999997137
51
0
0
SPLINE
5
160
100
AcDbEntity
8
0
100
AcDbSpline
70
0
71
3
72
23
73
19
74
0
42
0.000000001
43
0.0000000001
44
0.0000000001
40
0.31365037251449412
40
0.31365037251449412
40
0.31365037251449412
40
0.31365037251449412
40
0.31857871412462774
40
0.31857871412462774
40
0.31857871412462774
40
0.32754737150532909
40
0.32754737150532909
40
0.34651602888603039
40
0.34651602888603039
40
0.35643265595359797
40
0.35643265595359797
40
0.36634928302116548
40
0.36634928302116548
40
0.37762153364074957
40
0.37762153364074957
40
0.38889378426033372
40
0.38889378426033372
40
0.4114382854995019
40
0.4114382854995019
40
0.4114382854995019
40
0.4114382854995019
10
206.00000000004076
20
-5.7374999999905185
30
0
10
206.00350720435159
20
-5.7374999999905185
30
0
10
206.00701431159607
20
-5.7374630985442838
30
0
10
206.01052073942441
20
-5.7373893017792454
30
0
10
206.01690178041349
20
-5.7372550055080467
30
0
10
206.02629251564741
20
-5.7369567471011713
30
5.5511151231257827e-16
10
206.0641199058457
20
-5.7340402567973525
30
0
10
206.1027503790298
20
-5.7289579204076624
30
0
10
206.16929056791093
20
-5.7085748541470114
30
0
10
206.19613170836485
20
-5.6984541497878292
30
0
10
206.25116032201163
20
-5.6709338194966206
30
0
10
206.2792566084608
20
-5.6534283354375408
30
0
10
206.33236808712596
20
-5.6127312928092863
30
0
10
206.35959149000166
20
-5.5869855352297302
30
0
10
206.40829343931591
20
-5.5286022699941171
30
0
10
206.42977676628945
20
-5.4959710678374174
30
0
10
206.48201538918318
20
-5.3915219680244899
30
0
10
206.50000000004076
20
-5.3126483374544051
30
0
10
206.50000000004076
20
-5.2374999999905114
30
0
0
ARC
5
161
100
AcDbEntity
8
0
100
AcDbCircle
10
206.5000000000465
20
-9.6220995962123492
30
0
40
0.50000000000004263
210
0
220
0
230
1
100
AcDbArc
50
180
51
239.99999999999534
0
LINE
5
162
100
AcDbEntity
8
0
100
AcDbLine
10
206.00000000004644
20
-9.6220995962123848
30
0
11
206.00000000004644
21
-5.7374999999968432
31
0
0
SPLINE
5
163
100
AcDbEntity
8
0
100
AcDbSpline
70
0
71
3
72
14
73
10
74
0
42
0.000000001
43
0.0000000001
44
0.0000000001
40
5.5511151231257827e-17
40
5.5511151231257827e-17
40
5.5511151231257827e-17
40
5.5511151231257827e-17
40
0.022544501239168211
40
0.022544501239168211
40
0.033816751858752318
40
0.033816751858752318
40
0.045089002478336422
40
0.045089002478336422
40
0.051846543182552392
40
0.051846543182552392
40
0.051846543182552392
40
0.051846543182552392
10
206.50000000004076
20
-10.488124999996826
30
0
10
206.50000000004076
20
-10.41297666253293
30
0
10
206.48201538918318
20
-10.334103031962838
30
0
10
206.42977676628945
20
-10.229653932149914
30
0
10
206.40829343931591
20
-10.197022729993179
30
0
10
206.35959149000166
20
-10.138639464757574
30
0
10
206.33236808712596
20
-10.112893707178049
30
0
10
206.28717509052794
20
-10.078264256910936
30
0
10
206.26874223274433
20
-10.065933131201232
30
0
10
206.25000000004076
20
-10.0551122981046
30
0
0
ARC
5
164
100
AcDbEntity
8
0
100
AcDbCircle
10
206.50000000004076
20
20.628525403782906
30
0
40
0.50000000000000711
210
0
220
0
230
1
100
AcDbArc
50
180
51
239.99999999999983
0
ARC
5
165
100
AcDbEntity
8
0
100
AcDbCircle
10
205.13397459625656
20
19.26249999999802
30
0
40
0.4999999999999899
210
0
220
-0
230
1
100
AcDbArc
50
30.000000000029967
51
90.000000000026063
0
ARC
5
166
100
AcDbEntity
8
0
100
AcDbCircle
10
194.86602540382546
20
19.262499999992947
30
0
40
0.50000000000000044
210
0
220
0
230
1
100
AcDbArc
50
90.000000000029317
51
150.00000000002677
0
ARC
5
167
100
AcDbEntity
8
0
100
AcDbCircle
10
193.50000000004076
20
20.628525403776973
30
0
40
0.50000000000000089
210
-0
220
0
230
1
100
AcDbArc
50
-59.999999999996618
51
0
0
LINE
5
168
100
AcDbEntity
8
0
100
AcDbLine
10
-205.9999999999701
20
24.02500000017978
30
0
11
-205.99999999997422
21
20.628525403967206
31
0
0
LINE
5
169
100
AcDbEntity
8
0
100
AcDbLine
10
-205.13397459619082
20
19.762500000182126
30
0
11
-194.86602540375839
21
19.76250000017458
31
0
0
LINE
5
170
100
AcDbEntity
8
0
100
AcDbLine
10
-193.99999999997308
20
20.628525403958378
30
0
11
-193.99999999996996
21
24.025000000168745
31
0
0
LINE
5
171
100
AcDbEntity
8
0
100
AcDbLine
10
-206.49999999996965
20
24.525000000180381
30
0
11
-212.99999999997846
21
24.525000000186424
31
0
0
LWPOLYLINE
5
172
100
AcDbEntity
8
0
100
AcDbPolyline
90
16
70
1
43
0.0
10
-194.43301270197895
20
-10.738124999097732
42
1.3032253728412231
10
-193.75000000008356
20
-10.05511229720867
42
-0.26794919243113474
10
-194.0000000000816
20
-9.6220995953152801
10
-194.00000000006531
20
-6.1035254028841717
42
-0.2679491924311268
10
-193.75000000006332
20
-5.6705127009931005
42
1.3032253728411907
10
-194.43301270195241
20
-4.98749999909775
42
-0.26794919243111115
10
-194.86602540384578
20
-5.2374999990957321
10
-205.1339745962859
20
-5.237499999048234
42
-0.26794919243111703
10
-205.56698729817694
20
-4.9874999990462516
42
1.303225372841194
10
-206.25000000007233
20
-5.6705127009353085
42
-0.26794919243110954
10
-206.00000000007435
20
-6.1035254028286747
10
-206.00000000009058
20
-9.6220995952598081
42
-0.26794919243112808
10
-206.2500000000926
20
-10.055112297150881
42
1.3032253728411849
10
-205.56698729820346
20
-10.738124999046232
42
-0.26794919243111115
10
-205.13397459631011
20
-10.488124999048251
10
-194.86602540387
20
-10.488124999095749
42
-0.26794919243111703
0
ARC
5
173
100
AcDbEntity
8
0
100
AcDbCircle
10
-206.4999999999701
20
24.025000000180384
30
0
40
0.50000000000000711
210
-0
220
0
230
1
100
AcDbArc
50
0
51
89.999999999947889
0
ARC
5
174
100
AcDbEntity
8
0
100
AcDbCircle
10
-193.49999999996996
20
24.025000000168284
30
0
40
0.49999999999999822
210
0
220
-0
230
1
100
AcDbArc
50
89.999999999947889
51
180
0
ARC
5
175
100
AcDbEntity
8
0
100
AcDbCircle
10
-205.99999999997524
20
19.762500000182762
30
0
40
0.50000000000001521
210
0
220
0
230
1
100
AcDbArc
50
119.99999999993128
51
329.99999999995765
0
ARC
5
176
100
AcDbEntity
8
0
100
AcDbCircle
10
-193.99999999997391
20
19.76250000017394
30
0
40
0.50000000000000588
210
0
220
0
230
1
100
AcDbArc
50
-150.00000000003851
51
59.999999999947349
0
ARC
5
177
100
AcDbEntity
8
0
100
AcDbCircle
10
-205.13397459619117
20
19.262500000182126
30
0
40
0.50000000000000044
210
0
220
-0
230
1
100
AcDbArc
50
89.99999999996092
51
149.99999999995865
0
ARC
5
178
100
AcDbEntity
8
0
100
AcDbCircle
10
-206.49999999997422
20
20.62852540396781
30
0
40
0.49999999999999983
210
-0
220
0
230
1
100
AcDbArc
50
299.9999999999323
51
360
0
ARC
5
179
100
AcDbEntity
8
0
100
AcDbCircle
10
-194.86602540375873
20
19.26250000017458
30
0
40
0.50000000000000999
210
0
220
-0
230
1
100
AcDbArc
50
29.999999999953317
51
89.99999999996092
0
ARC
5
180
100
AcDbEntity
8
0
100
AcDbCircle
10
-193.49999999997308
20
20.628525403957916
30
0
40
0.50000000000000711
210
0
220
0
230
1
100
AcDbArc
50
180
51
239.99999999994432
0
CIRCLE
5
181
100
AcDbEntity
8
0
100
AcDbCircle
10
-209.99999999992576
20
17.262499999686963
30
0
40
1.4999999999999858
210
-0
220
0
230
1
0
CIRCLE
5
182
100
AcDbEntity
8
0
100
AcDbCircle
10
-189.99999999999579
20
17.262499999621639
30
0
40
1.4999999999999858
210
-0
220
0
230
1
0
CIRCLE
5
183
100
AcDbEntity
8
0
100
AcDbCircle
10
-190.00000000006111
20
-2.737500000308323
30
0
40
1.4999999999999858
210
-0
220
0
230
1
0
CIRCLE
5
184
100
AcDbEntity
8
0
100
AcDbCircle
10
-209.99999999999105
20
-2.7375000002430028
30
0
40
1.4999999999999858
210
-0
220
0
230
1
0
ENDSEC
0
SECTION
2
OBJECTS
0
DICTIONARY
5
C
100
AcDbDictionary
3
ACAD_GROUP
350
D
3
ACAD_MLINESTYLE
350
17
0
DICTIONARY
5
D
100
AcDbDictionary
0
DICTIONARY
5
1A
330
C
100
AcDbDictionary
0
DICTIONARY
5
17
100
AcDbDictionary
0
ENDSEC
0
EOF
