0
SECTION
2
HEADER
9
$INSUNITS
70
4
9
$ACADVER
1
AC1014
9
$HANDSEED
5
FFFF
0
ENDSEC
0
SECTION
2
TABLES
0
TABLE
2
VPORT
5
8
100
AcDbSymbolTable
0
ENDTAB
0
TABLE
2
LTYPE
5
5
100
AcDbSymbolTable
0
LTYPE
5
14
100
AcDbSymbolTableRecord
100
AcDbLinetypeTableRecord
2
BYBLOCK
70
0
0
LTYPE
5
15
100
AcDbSymbolTableRecord
100
AcDbLinetypeTableRecord
2
BYLAYER
70
0
0
ENDTAB
0
TABLE
2
LAYER
5
2
100
AcDbSymbolTable
70
2
0
LAYER
5
50
100
AcDbSymbolTableRecord
100
AcDbLayerTableRecord
2
0
70
0
6
CONTINUOUS
0
ENDTAB
0
TABLE
2
STYLE
5
3
100
AcDbSymbolTable
70
1
0
STYLE
5
11
100
AcDbSymbolTableRecord
100
AcDbTextStyleTableRecord
2
STANDARD
70
0
0
ENDTAB
0
TABLE
2
VIEW
5
6
100
AcDbSymbolTable
70
0
0
ENDTAB
0
TABLE
2
UCS
5
7
100
AcDbSymbolTable
70
0
0
ENDTAB
0
TABLE
2
APPID
5
9
100
AcDbSymbolTable
70
2
0
APPID
5
12
100
AcDbSymbolTableRecord
100
AcDbRegAppTableRecord
2
ACAD
70
0
0
ENDTAB
0
TABLE
2
DIMSTYLE
5
A
100
AcDbSymbolTable
70
1
0
ENDTAB
0
TABLE
2
BLOCK_RECORD
5
1
100
AcDbSymbolTable
70
1
0
BLOCK_RECORD
5
1F
100
AcDbSymbolTableRecord
100
AcDbBlockTableRecord
2
*MODEL_SPACE
0
BLOCK_RECORD
5
1B
100
AcDbSymbolTableRecord
100
AcDbBlockTableRecord
2
*PAPER_SPACE
0
ENDTAB
0
ENDSEC
0
SECTION
2
BLOCKS
0
BLOCK
5
20
100
AcDbEntity
100
AcDbBlockBegin
2
*MODEL_SPACE
0
ENDBLK
5
21
100
AcDbEntity
100
AcDbBlockEnd
0
BLOCK
5
1C
100
AcDbEntity
100
AcDbBlockBegin
2
*PAPER_SPACE
0
ENDBLK
5
1D
100
AcDbEntity
100
AcDbBlockEnd
0
ENDSEC
0
SECTION
2
ENTITIES
0
ARC
5
100
100
AcDbEntity
8
0
100
AcDbCircle
10
-47.000000000000021
20
-11.499999999999972
30
0
40
4.0000000000000036
210
0
220
0
230
1
100
AcDbArc
50
180
51
270
0
LINE
5
101
100
AcDbEntity
8
0
100
AcDbLine
10
-51.000000000000021
20
-11.499999999999972
30
0
11
-51.000000000000021
21
26.500000000000057
31
0
0
ARC
5
102
100
AcDbEntity
8
0
100
AcDbCircle
10
47.000000000000092
20
-11.499999999999977
30
0
40
4.0000000000000018
210
-0
220
0
230
1
100
AcDbArc
50
-90
51
0
0
LINE
5
103
100
AcDbEntity
8
0
100
AcDbLine
10
51.000000000000092
20
18.500000000000028
30
0
11
51.000000000000092
21
-11.499999999999977
31
0
0
ARC
5
104
100
AcDbEntity
8
0
100
AcDbCircle
10
47.000000000000092
20
18.500000000000028
30
0
40
4.0000000000000036
210
0
220
-0
230
1
100
AcDbArc
50
0
51
90
0
CIRCLE
5
105
100
AcDbEntity
8
0
100
AcDbCircle
10
18.250000000000014
20
18.250000000000028
30
0
40
1.3749999999999996
210
0
220
0
230
1
0
CIRCLE
5
106
100
AcDbEntity
8
0
100
AcDbCircle
10
-18.250000000000021
20
-11.249999999999979
30
0
40
1.3749999999999996
210
0
220
0
230
1
0
CIRCLE
5
107
100
AcDbEntity
8
0
100
AcDbCircle
10
-12.291796067500641
20
-12.499999999997565
30
0
40
1.3749999999999996
210
0
220
0
230
1
0
CIRCLE
5
108
100
AcDbEntity
8
0
100
AcDbCircle
10
-1.0054972513799987
20
30.296391434019991
30
0
40
12.800000000000002
210
0
220
0
230
1
0
CIRCLE
5
109
100
AcDbEntity
8
0
100
AcDbCircle
10
-17.80885429495742
20
24.300000000000065
30
0
40
1.3749999999999996
210
0
220
0
230
1
0
CIRCLE
5
110
100
AcDbEntity
8
0
100
AcDbCircle
10
17.994502748619556
20
24.300000000000029
30
0
40
1.3749999999999996
210
0
220
0
230
1
0
CIRCLE
5
111
100
AcDbEntity
8
0
100
AcDbCircle
10
12.291796067500647
20
-12.499999999999975
30
0
40
1.3749999999999996
210
0
220
0
230
1
0
CIRCLE
5
112
100
AcDbEntity
8
0
100
AcDbCircle
10
-18.250000000000021
20
18.250000000000025
30
0
40
1.3749999999999996
210
0
220
0
230
1
0
CIRCLE
5
113
100
AcDbEntity
8
0
100
AcDbCircle
10
47.750000000000021
20
18.250000000000028
30
0
40
1.3750000000000018
210
0
220
0
230
1
0
CIRCLE
5
114
100
AcDbEntity
8
0
100
AcDbCircle
10
18.250000000000014
20
-11.249999999999973
30
0
40
1.3749999999999996
210
0
220
0
230
1
0
CIRCLE
5
115
100
AcDbEntity
8
0
100
AcDbCircle
10
47.750000000000021
20
-11.249999999999973
30
0
40
1.3750000000000018
210
0
220
0
230
1
0
ARC
5
116
100
AcDbEntity
8
0
100
AcDbCircle
10
13.49450274862
20
43.996391434019976
30
0
40
1.4999999999971991
210
0
220
-0
230
1
100
AcDbArc
50
0
51
90.000000000381675
0
LINE
5
117
100
AcDbEntity
8
0
100
AcDbLine
10
-13.505497251374818
20
45.496391434020879
30
0
11
13.494502748610008
21
45.496391434019984
31
0
0
ARC
5
118
100
AcDbEntity
8
0
100
AcDbCircle
10
-13.505497251374827
20
43.996391434020879
30
0
40
1.4999999999999947
210
0
220
-0
230
1
100
AcDbArc
50
89.999999999999659
51
180
0
LINE
5
119
100
AcDbEntity
8
0
100
AcDbLine
10
-15.005497251371857
20
38.500000000000007
30
0
11
-15.005497251374821
21
43.996391434020872
31
0
0
ARC
5
120
100
AcDbEntity
8
0
100
AcDbCircle
10
-31.005497251371857
20
38.500000000000007
30
0
40
15.999999999999996
210
-0
220
0
230
1
100
AcDbArc
50
-79.603555786358328
51
0
0
LINE
5
121
100
AcDbEntity
8
0
100
AcDbLine
10
47.000000000000092
20
-15.499999999999975
30
0
11
-47.000000000000021
21
-15.499999999999972
31
0
0
LINE
5
122
100
AcDbEntity
8
0
100
AcDbLine
10
30.994502748617201
20
22.500000000000028
30
0
11
47.000000000000092
21
22.500000000000032
31
0
0
ARC
5
123
100
AcDbEntity
8
0
100
AcDbCircle
10
30.994502748617201
20
38.500000000000028
30
0
40
16
210
0
220
0
230
1
100
AcDbArc
50
180
51
270
0
LINE
5
124
100
AcDbEntity
8
0
100
AcDbLine
10
14.994502748617201
20
43.996391434019984
30
0
11
14.994502748617201
21
38.500000000000028
31
0
0
CIRCLE
5
125
100
AcDbEntity
8
0
100
AcDbCircle
10
-6.3503302870291554e-30
20
8.201688223969704e-30
30
0
40
13.500000000000004
210
0
220
0
230
1
0
CIRCLE
5
126
100
AcDbEntity
8
0
100
AcDbCircle
10
-47.750000000000021
20
-11.249999999999979
30
0
40
1.3750000000000018
210
0
220
0
230
1
0
CIRCLE
5
127
100
AcDbEntity
8
0
100
AcDbCircle
10
-47.750000000000021
20
18.250000000000025
30
0
40
1.3750000000000018
210
0
220
0
230
1
0
CIRCLE
5
128
100
AcDbEntity
8
0
100
AcDbCircle
10
12.000000000000007
20
42.500000000000007
30
0
40
1.6500000000000004
210
0
220
0
230
1
0
CIRCLE
5
129
100
AcDbEntity
8
0
100
AcDbCircle
10
-11.999999999999991
20
18.499999999999989
30
0
40
1.6500000000000004
210
0
220
0
230
1
0
LWPOLYLINE
5
130
100
AcDbEntity
8
0
100
AcDbPolyline
90
8
70
1
43
0.0
10
-15.800000000070021
20
-1.8065996647879778
10
-15.800000000019526
20
8.8065996647880258
42
0.24797319310380767
10
-27.69340033503223
20
20.699999999930021
10
-38.306599664788024
20
20.699999999930018
42
0.20157972591928633
10
-49.000000000000092
20
11.746211251235188
10
-48.999999999997598
20
-4.7462112512351631
42
0.20157972592083384
10
-38.306599664684022
20
-13.699999999959978
10
-27.693400335212015
20
-13.699999999929982
42
0.24797319310612112
0
LWPOLYLINE
5
131
100
AcDbEntity
8
0
100
AcDbPolyline
90
8
70
1
43
0.0
10
38.306599664788017
20
20.699999999930021
10
27.693400335180467
20
20.699999999922625
42
0.2479731931090339
10
15.800000000000017
20
8.8065996645690294
10
15.800000000125483
20
-1.8065996649677629
42
0.24797319310494273
10
27.693400335316017
20
-13.699999999959973
10
38.306599664967813
20
-13.699999999874503
42
0.20157972591656689
10
49.000000000000092
20
-4.7462112512351506
10
48.999999999997598
20
11.746211251235206
42
0.20157972591926984
0
CIRCLE
5
132
100
AcDbEntity
8
0
100
AcDbCircle
10
-36.840000000000018
20
26.500000000000057
30
0
40
1.6500000000000004
210
0
220
0
230
1
0
CIRCLE
5
133
100
AcDbEntity
8
0
100
AcDbCircle
10
-47.000000000000021
20
26.500000000000039
30
0
40
1.6499999999999959
210
0
220
0
230
1
0
ARC
5
134
100
AcDbEntity
8
0
100
AcDbCircle
10
-47.000000000000021
20
26.500000000000039
30
0
40
4.0000000000000213
210
0
220
-0
230
1
100
AcDbArc
50
90
51
180
0
LINE
5
135
100
AcDbEntity
8
0
100
AcDbLine
10
-47.000000000000021
20
30.50000000000006
30
0
11
-36.837573874182766
21
30.50000000000005
31
0
0
ARC
5
136
100
AcDbEntity
8
0
100
AcDbCircle
10
-36.837573874182766
20
26.500000000000053
30
0
40
3.9999999999999973
210
-0
220
0
230
1
100
AcDbArc
50
1.4111080603035235
51
90
0
ARC
5
137
100
AcDbEntity
8
0
100
AcDbCircle
10
-28.840000000000021
20
26.697007936362034
30
0
40
3.9999999999999973
210
0
220
0
230
1
100
AcDbArc
50
181.41110806030352
51
280.39644421364176
0
ENDSEC
0
SECTION
2
OBJECTS
0
DICTIONARY
5
C
100
AcDbDictionary
3
ACAD_GROUP
350
D
3
ACAD_MLINESTYLE
350
17
0
DICTIONARY
5
D
100
AcDbDictionary
0
DICTIONARY
5
1A
330
C
100
AcDbDictionary
0
DICTIONARY
5
17
100
AcDbDictionary
0
ENDSEC
0
EOF
