0
SECTION
2
HEADER
9
$INSUNITS
70
4
9
$ACADVER
1
AC1014
9
$HANDSEED
5
FFFF
0
ENDSEC
0
SECTION
2
TABLES
0
TABLE
2
VPORT
5
8
100
AcDbSymbolTable
0
ENDTAB
0
TABLE
2
LTYPE
5
5
100
AcDbSymbolTable
0
LTYPE
5
14
100
AcDbSymbolTableRecord
100
AcDbLinetypeTableRecord
2
BYBLOCK
70
0
0
LTYPE
5
15
100
AcDbSymbolTableRecord
100
AcDbLinetypeTableRecord
2
BYLAYER
70
0
0
ENDTAB
0
TABLE
2
LAYER
5
2
100
AcDbSymbolTable
70
2
0
LAYER
5
50
100
AcDbSymbolTableRecord
100
AcDbLayerTableRecord
2
0
70
0
6
CONTINUOUS
0
ENDTAB
0
TABLE
2
STYLE
5
3
100
AcDbSymbolTable
70
1
0
STYLE
5
11
100
AcDbSymbolTableRecord
100
AcDbTextStyleTableRecord
2
STANDARD
70
0
0
ENDTAB
0
TABLE
2
VIEW
5
6
100
AcDbSymbolTable
70
0
0
ENDTAB
0
TABLE
2
UCS
5
7
100
AcDbSymbolTable
70
0
0
ENDTAB
0
TABLE
2
APPID
5
9
100
AcDbSymbolTable
70
2
0
APPID
5
12
100
AcDbSymbolTableRecord
100
AcDbRegAppTableRecord
2
ACAD
70
0
0
ENDTAB
0
TABLE
2
DIMSTYLE
5
A
100
AcDbSymbolTable
70
1
0
ENDTAB
0
TABLE
2
BLOCK_RECORD
5
1
100
AcDbSymbolTable
70
1
0
BLOCK_RECORD
5
1F
100
AcDbSymbolTableRecord
100
AcDbBlockTableRecord
2
*MODEL_SPACE
0
BLOCK_RECORD
5
1B
100
AcDbSymbolTableRecord
100
AcDbBlockTableRecord
2
*PAPER_SPACE
0
ENDTAB
0
ENDSEC
0
SECTION
2
BLOCKS
0
BLOCK
5
20
100
AcDbEntity
100
AcDbBlockBegin
2
*MODEL_SPACE
0
ENDBLK
5
21
100
AcDbEntity
100
AcDbBlockEnd
0
BLOCK
5
1C
100
AcDbEntity
100
AcDbBlockBegin
2
*PAPER_SPACE
0
ENDBLK
5
1D
100
AcDbEntity
100
AcDbBlockEnd
0
ENDSEC
0
SECTION
2
ENTITIES
0
LWPOLYLINE
5
100
100
AcDbEntity
8
0
100
AcDbPolyline
90
24
70
1
43
0.0
10
-16.498081194730865
20
15.100000000007338
42
0.41421356237309503
10
-19.498081194730862
20
18.100000000007341
10
-21.498081194730858
20
18.100000000007345
42
0.4142135623730942
10
-24.498081194730872
20
15.100000000007352
10
-24.498081194730901
20
-12.374999999992657
42
0.41421356237309548
10
-21.498081194730897
20
-15.374999999992664
10
10.001918805269119
20
-15.374999999992671
42
-0.4142135623730937
10
13.001918805269119
20
-18.37499999999266
10
13.001918805269151
20
-26.899999999992723
42
0.41421356237309337
10
16.001918805269149
20
-29.899999999992701
10
18.001918805269085
20
-29.899999999992701
42
0.41421356237309437
10
21.001918805269089
20
-26.899999999992723
10
21.001918805269135
20
15.100000000007299
42
0.41421356237309481
10
18.001918805269142
20
18.100000000007299
10
16.001918805269142
20
18.100000000007299
42
0.41421356237309437
10
13.001918805269138
20
15.100000000007302
10
13.001918805269137
20
12.499999999999996
42
-0.41421356237309437
10
12.00191880526914
20
11.499999999999993
10
-6.1644140332013126
20
11.499999999999934
42
0.1581633477194421
10
-7.9256751769067355
20
10.928571428571354
42
0.11274366947292602
10
-11.884305619656681
20
6.4041611985626847
42
-0.27346594911688465
10
-12.755848401622217
20
5.8785820207184241
10
-15.489305044146452
20
5.8545918697193224
42
-0.41678641272969214
10
-16.498081194730872
20
6.8545533585682294
0
CIRCLE
5
101
100
AcDbEntity
8
0
100
AcDbCircle
10
-16.000000030232229
20
-3.0000000000138476
30
0
40
1.3750000000000029
210
0
220
0
230
1
0
CIRCLE
5
102
100
AcDbEntity
8
0
100
AcDbCircle
10
15.99999996976779
20
2.999999999999996
30
0
40
1.3750000000000109
210
0
220
0
230
1
0
CIRCLE
5
103
100
AcDbEntity
8
0
100
AcDbCircle
10
15.999999969767805
20
-3.00000000000689
30
0
40
1.3750000000000004
210
-0
220
0
230
1
0
CIRCLE
5
104
100
AcDbEntity
8
0
100
AcDbCircle
10
-16.000000030232243
20
2.9999999999999192
30
0
40
1.3750000000000133
210
-0
220
0
230
1
0
CIRCLE
5
105
100
AcDbEntity
8
0
100
AcDbCircle
10
-9.498081194730883
20
-12.124999999992681
30
0
40
1.6000000000000092
210
1.0339757656912846e-25
220
1.9721522630525295e-31
230
1
0
CIRCLE
5
106
100
AcDbEntity
8
0
100
AcDbCircle
10
-9.4980811947308812
20
-2.1249999999926819
30
0
40
1.6000000000000083
210
-1.0339757656912846e-25
220
9.4955677457597987e-66
230
1
0
CIRCLE
5
107
100
AcDbEntity
8
0
100
AcDbCircle
10
9.501918805269117
20
-2.1249999999926841
30
0
40
1.6000000000000092
210
1.0339757656912846e-25
220
1.9721522630525295e-31
230
1
0
CIRCLE
5
108
100
AcDbEntity
8
0
100
AcDbCircle
10
9.5019188052691188
20
-12.124999999992685
30
0
40
1.6000000000000083
210
-1.0339757656912846e-25
220
9.4955677457597987e-66
230
1
0
CIRCLE
5
109
100
AcDbEntity
8
0
100
AcDbCircle
10
-20.498081194730894
20
-7.1499999999926613
30
0
40
1.7000000000000091
210
1.0339757656912848e-25
220
1.97215226305253e-31
230
1
0
CIRCLE
5
110
100
AcDbEntity
8
0
100
AcDbCircle
10
17.001918805269096
20
-25.899999999992701
30
0
40
1.7000000000000095
210
-1.0339757656912846e-25
220
-1.9721522630525295e-31
230
1
0
CIRCLE
5
111
100
AcDbEntity
8
0
100
AcDbCircle
10
17.001918805269135
20
14.1000000000073
30
0
40
1.7000000000000091
210
1.0339757656912848e-25
220
1.97215226305253e-31
230
1
0
CIRCLE
5
112
100
AcDbEntity
8
0
100
AcDbCircle
10
-20.498081194730865
20
14.100000000007347
30
0
40
1.7000000000000124
210
1.0339757656912848e-25
220
1.97215226305253e-31
230
1
0
CIRCLE
5
113
100
AcDbEntity
8
0
100
AcDbCircle
10
0.0019188052691186887
20
0.10000000000731657
30
0
40
2.1500000000000101
210
1.0339757656912846e-25
220
-1.1831675192756619e-40
230
1
0
CIRCLE
5
114
100
AcDbEntity
8
0
100
AcDbCircle
10
5.6587730547615038
20
5.7568542494996935
30
0
40
2.3999999999999999
210
2.256712950278591e-46
220
1.9721522630525295e-31
230
1
0
CIRCLE
5
115
100
AcDbEntity
8
0
100
AcDbCircle
10
5.6587730547614958
20
-5.5568542494850686
30
0
40
2.3999999999999999
210
2.256712950278591e-46
220
1.9721522630525295e-31
230
1
0
CIRCLE
5
116
100
AcDbEntity
8
0
100
AcDbCircle
10
-5.6549354442232582
20
5.7568542494997015
30
0
40
2.3999999999999999
210
2.256712950278591e-46
220
1.9721522630525295e-31
230
1
0
CIRCLE
5
117
100
AcDbEntity
8
0
100
AcDbCircle
10
-5.6549354442232671
20
-5.5568542494850597
30
0
40
2.3999999999999999
210
2.256712950278591e-46
220
1.9721522630525295e-31
230
1
0
LWPOLYLINE
5
118
100
AcDbEntity
8
0
100
AcDbPolyline
90
24
70
1
43
0.0
10
-16.498081194730865
20
15.100000000007338
42
0.41421356237309503
10
-19.498081194730862
20
18.100000000007341
10
-21.498081194730858
20
18.100000000007345
42
0.4142135623730942
10
-24.498081194730872
20
15.100000000007352
10
-24.498081194730901
20
-12.374999999992657
42
0.41421356237309548
10
-21.498081194730897
20
-15.374999999992664
10
10.001918805269119
20
-15.374999999992671
42
-0.4142135623730937
10
13.001918805269119
20
-18.37499999999266
10
13.001918805269151
20
-26.899999999992723
42
0.41421356237309337
10
16.001918805269149
20
-29.899999999992701
10
18.001918805269085
20
-29.899999999992701
42
0.41421356237309437
10
21.001918805269089
20
-26.899999999992723
10
21.001918805269135
20
15.100000000007299
42
0.41421356237309481
10
18.001918805269142
20
18.100000000007299
10
16.001918805269142
20
18.100000000007299
42
0.41421356237309437
10
13.001918805269138
20
15.100000000007302
10
13.001918805269137
20
12.499999999999996
42
-0.4142135623730937
10
12.00191880526914
20
11.499999999999995
10
-6.1644140332013126
20
11.499999999999932
42
0.1581633477194421
10
-7.9256751769067355
20
10.928571428571354
42
0.11274366947292602
10
-11.884305619656681
20
6.4041611985626847
42
-0.27346594911688465
10
-12.755848401622217
20
5.8785820207184241
10
-15.489305044146452
20
5.8545918697193198
42
-0.41678641272969214
10
-16.498081194730872
20
6.8545533585682294
0
CIRCLE
5
119
100
AcDbEntity
8
0
100
AcDbCircle
10
-9.498081194730883
20
-12.124999999992681
30
0
40
1.6000000000000092
210
1.0339757656912846e-25
220
1.9721522630525295e-31
230
1
0
CIRCLE
5
120
100
AcDbEntity
8
0
100
AcDbCircle
10
-9.4980811947308812
20
-2.1249999999926819
30
0
40
1.6000000000000083
210
-1.0339757656912846e-25
220
9.4955677457597987e-66
230
1
0
CIRCLE
5
121
100
AcDbEntity
8
0
100
AcDbCircle
10
9.501918805269117
20
-2.1249999999926841
30
0
40
1.6000000000000092
210
1.0339757656912846e-25
220
1.9721522630525295e-31
230
1
0
CIRCLE
5
122
100
AcDbEntity
8
0
100
AcDbCircle
10
9.5019188052691188
20
-12.124999999992685
30
0
40
1.6000000000000083
210
-1.0339757656912846e-25
220
9.4955677457597987e-66
230
1
0
CIRCLE
5
123
100
AcDbEntity
8
0
100
AcDbCircle
10
-20.498081194730894
20
-7.1499999999926613
30
0
40
1.7000000000000091
210
1.0339757656912848e-25
220
1.97215226305253e-31
230
1
0
CIRCLE
5
124
100
AcDbEntity
8
0
100
AcDbCircle
10
17.001918805269096
20
-25.899999999992701
30
0
40
1.7000000000000095
210
-1.0339757656912846e-25
220
-1.9721522630525295e-31
230
1
0
CIRCLE
5
125
100
AcDbEntity
8
0
100
AcDbCircle
10
17.001918805269135
20
14.1000000000073
30
0
40
1.7000000000000091
210
1.0339757656912848e-25
220
1.97215226305253e-31
230
1
0
CIRCLE
5
126
100
AcDbEntity
8
0
100
AcDbCircle
10
-20.498081194730865
20
14.100000000007347
30
0
40
1.7000000000000124
210
1.0339757656912848e-25
220
1.97215226305253e-31
230
1
0
CIRCLE
5
127
100
AcDbEntity
8
0
100
AcDbCircle
10
-5.6549354442232671
20
-5.5568542494850597
30
0
40
2.3999999999999999
210
2.256712950278591e-46
220
1.9721522630525295e-31
230
1
0
CIRCLE
5
128
100
AcDbEntity
8
0
100
AcDbCircle
10
0.0019188052691186887
20
0.10000000000731657
30
0
40
2.1500000000000101
210
1.0339757656912846e-25
220
-1.1831675192756619e-40
230
1
0
CIRCLE
5
129
100
AcDbEntity
8
0
100
AcDbCircle
10
5.6587730547614958
20
-5.5568542494850686
30
0
40
2.3999999999999999
210
2.256712950278591e-46
220
1.9721522630525295e-31
230
1
0
CIRCLE
5
130
100
AcDbEntity
8
0
100
AcDbCircle
10
-5.6549354442232582
20
5.7568542494997015
30
0
40
2.3999999999999999
210
2.256712950278591e-46
220
1.9721522630525295e-31
230
1
0
CIRCLE
5
131
100
AcDbEntity
8
0
100
AcDbCircle
10
5.6587730547615038
20
5.7568542494996935
30
0
40
2.3999999999999999
210
2.256712950278591e-46
220
1.9721522630525295e-31
230
1
0
CIRCLE
5
132
100
AcDbEntity
8
0
100
AcDbCircle
10
-16.000000030232229
20
-3.0000000000138476
30
0
40
1.3749999999999925
210
0
220
0
230
1
0
CIRCLE
5
133
100
AcDbEntity
8
0
100
AcDbCircle
10
15.99999996976779
20
2.999999999999996
30
0
40
1.375
210
0
220
0
230
1
0
CIRCLE
5
134
100
AcDbEntity
8
0
100
AcDbCircle
10
15.999999969767805
20
-3.00000000000689
30
0
40
1.3749999999999898
210
-0
220
0
230
1
0
CIRCLE
5
135
100
AcDbEntity
8
0
100
AcDbCircle
10
-16.000000030232243
20
2.9999999999999192
30
0
40
1.3750000000000029
210
0
220
0
230
1
0
ENDSEC
0
SECTION
2
OBJECTS
0
DICTIONARY
5
C
100
AcDbDictionary
3
ACAD_GROUP
350
D
3
ACAD_MLINESTYLE
350
17
0
DICTIONARY
5
D
100
AcDbDictionary
0
DICTIONARY
5
1A
330
C
100
AcDbDictionary
0
DICTIONARY
5
17
100
AcDbDictionary
0
ENDSEC
0
EOF
