0
SECTION
2
HEADER
9
$INSUNITS
70
4
9
$ACADVER
1
AC1014
9
$HANDSEED
5
FFFF
0
ENDSEC
0
SECTION
2
TABLES
0
TABLE
2
VPORT
5
8
100
AcDbSymbolTable
0
ENDTAB
0
TABLE
2
LTYPE
5
5
100
AcDbSymbolTable
0
LTYPE
5
14
100
AcDbSymbolTableRecord
100
AcDbLinetypeTableRecord
2
BYBLOCK
70
0
0
LTYPE
5
15
100
AcDbSymbolTableRecord
100
AcDbLinetypeTableRecord
2
BYLAYER
70
0
0
ENDTAB
0
TABLE
2
LAYER
5
2
100
AcDbSymbolTable
70
2
0
LAYER
5
50
100
AcDbSymbolTableRecord
100
AcDbLayerTableRecord
2
0
70
0
6
CONTINUOUS
0
ENDTAB
0
TABLE
2
STYLE
5
3
100
AcDbSymbolTable
70
1
0
STYLE
5
11
100
AcDbSymbolTableRecord
100
AcDbTextStyleTableRecord
2
STANDARD
70
0
0
ENDTAB
0
TABLE
2
VIEW
5
6
100
AcDbSymbolTable
70
0
0
ENDTAB
0
TABLE
2
UCS
5
7
100
AcDbSymbolTable
70
0
0
ENDTAB
0
TABLE
2
APPID
5
9
100
AcDbSymbolTable
70
2
0
APPID
5
12
100
AcDbSymbolTableRecord
100
AcDbRegAppTableRecord
2
ACAD
70
0
0
ENDTAB
0
TABLE
2
DIMSTYLE
5
A
100
AcDbSymbolTable
70
1
0
ENDTAB
0
TABLE
2
BLOCK_RECORD
5
1
100
AcDbSymbolTable
70
1
0
BLOCK_RECORD
5
1F
100
AcDbSymbolTableRecord
100
AcDbBlockTableRecord
2
*MODEL_SPACE
0
BLOCK_RECORD
5
1B
100
AcDbSymbolTableRecord
100
AcDbBlockTableRecord
2
*PAPER_SPACE
0
ENDTAB
0
ENDSEC
0
SECTION
2
BLOCKS
0
BLOCK
5
20
100
AcDbEntity
100
AcDbBlockBegin
2
*MODEL_SPACE
0
ENDBLK
5
21
100
AcDbEntity
100
AcDbBlockEnd
0
BLOCK
5
1C
100
AcDbEntity
100
AcDbBlockBegin
2
*PAPER_SPACE
0
ENDBLK
5
1D
100
AcDbEntity
100
AcDbBlockEnd
0
ENDSEC
0
SECTION
2
ENTITIES
0
LWPOLYLINE
5
100
100
AcDbEntity
8
0
100
AcDbPolyline
90
128
70
1
43
0.0
10
-35.248081194730879
20
-14.429411764698539
42
0.99999999999999989
10
-35.248081194730879
20
-15.929411764698537
10
-25.248081194730894
20
-15.929411764698537
42
-0.41421356237309503
10
-24.498081194730894
20
-16.679411764698539
10
-24.498081194730894
20
-16.973529411757365
42
-0.41421356237309503
10
-25.248081194730894
20
-17.723529411757365
10
-35.248081194730872
20
-17.723529411757365
42
0.99999999999999989
10
-35.248081194730879
20
-19.223529411757362
10
-25.248081194730894
20
-19.223529411757362
42
-0.41421356237309503
10
-24.498081194730894
20
-19.973529411757365
10
-24.498081194730887
20
-20.267647058816184
42
-0.41421356237309503
10
-25.24808119473089
20
-21.017647058816188
10
-35.248081194730872
20
-21.017647058816188
42
0.99999999999999989
10
-35.248081194730872
20
-22.517647058816188
10
-25.248081194730887
20
-22.517647058816188
42
-0.41421356237309503
10
-24.498081194730883
20
-23.267647058816188
10
-24.498081194730883
20
-23.561764705875014
42
-0.41421356237309503
10
-25.248081194730887
20
-24.311764705875017
10
-35.248081194730872
20
-24.311764705875017
42
0.99999999999999989
10
-35.248081194730872
20
-25.811764705875014
10
-25.248081194730887
20
-25.811764705875014
42
-0.41421356237309503
10
-24.498081194730883
20
-26.561764705875017
10
-24.498081194730879
20
-26.855882352933836
42
-0.41421356237309503
10
-25.248081194730879
20
-27.605882352933836
10
-35.248081194730872
20
-27.605882352933836
42
0.99999999999999989
10
-35.248081194730872
20
-29.105882352933836
10
-25.248081194730876
20
-29.105882352933836
42
-0.41421356237309503
10
-24.498081194730872
20
-29.85588235293384
10
-24.498081194730872
20
-30.149999999992655
42
-0.41421356237309503
10
-25.248081194730876
20
-30.899999999992659
10
-35.248081194730872
20
-30.899999999992659
42
0.99999999999999989
10
-35.248081194730872
20
-32.399999999992659
10
-19.498081194730876
20
-32.399999999992659
42
0.41421356237309531
10
-16.498081194730876
20
-29.399999999992659
10
-16.498081194730869
20
-18.374999999992667
42
-0.41421356237309503
10
-13.498081194730869
20
-15.374999999992667
10
10.001918805269119
20
-15.374999999992671
42
-0.4142135623730937
10
13.001918805269119
20
-18.37499999999266
10
13.001918805269151
20
-26.899999999992723
42
0.41421356237309337
10
16.001918805269149
20
-29.899999999992701
10
18.001918805269085
20
-29.899999999992701
42
0.41421356237309481
10
21.001918805269078
20
-26.899999999992716
10
21.001918805269135
20
15.100000000007299
42
0.41421356237309481
10
18.001918805269142
20
18.100000000007292
10
16.001918805269142
20
18.100000000007299
42
0.41421356237309437
10
13.001918805269138
20
15.100000000007302
10
13.001918805269137
20
12.499999999999996
42
-0.41421356237309437
10
12.00191880526914
20
11.499999999999993
10
-6.1644140332013126
20
11.499999999999934
42
0.15816334771944204
10
-7.9256751769067364
20
10.928571428571356
42
0.1127436694729259
10
-11.884305619656681
20
6.4041611985626856
42
-0.27346594911688477
10
-12.755848401622217
20
5.8785820207184241
10
-15.489305044146446
20
5.8545918697193224
42
-0.41678641272969341
10
-16.498081194730872
20
6.8545533585682294
10
-16.498081194730858
20
22.100000000007341
42
0.41421356237309631
10
-19.498081194730858
20
25.100000000007341
10
-35.248081194730865
20
25.100000000007363
42
0.99999999999999989
10
-35.248081194730887
20
23.600000000007348
10
-25.248081194730876
20
23.600000000007348
42
-0.41421356237309503
10
-24.498081194730872
20
22.850000000007348
10
-24.498081194730872
20
22.555882352948522
42
-0.41421356237309503
10
-25.248081194730876
20
21.805882352948522
10
-35.248081194730872
20
21.805882352948522
42
0.99999999999999989
10
-35.248081194730872
20
20.305882352948522
10
-25.248081194730876
20
20.30588235294853
42
-0.41421356237309503
10
-24.498081194730872
20
19.555882352948522
10
-24.498081194730872
20
19.2617647058897
42
-0.41421356237309503
10
-25.248081194730876
20
18.5117647058897
10
-35.248081194730872
20
18.5117647058897
42
0.99999999999999989
10
-35.248081194730872
20
17.0117647058897
10
-25.248081194730876
20
17.011764705889703
42
-0.41421356237309503
10
-24.498081194730872
20
16.2617647058897
10
-24.498081194730872
20
15.967647058830877
42
-0.41421356237309503
10
-25.248081194730876
20
15.217647058830879
10
-35.248081194730872
20
15.217647058830877
42
0.99999999999999989
10
-35.248081194730879
20
13.717647058830879
10
-25.248081194730876
20
13.717647058830879
42
-0.41421356237309503
10
-24.498081194730872
20
12.967647058830877
10
-24.498081194730883
20
12.673529411772053
42
-0.41421356237309503
10
-25.248081194730879
20
11.923529411772053
10
-35.248081194730872
20
11.923529411772051
42
0.99999999999999989
10
-35.248081194730879
20
10.423529411772055
10
-25.248081194730879
20
10.423529411772055
42
-0.41421356237309548
10
-24.498081194730879
20
9.6735294117720514
10
-24.498081194730879
20
9.3794117647132254
42
-0.41421356237309465
10
-25.248081194730879
20
8.6294117647132254
10
-35.248081194730872
20
8.6294117647132254
42
0.99999999999999989
10
-35.248081194730872
20
7.1294117647132271
10
-25.248081194730887
20
7.1294117647132289
42
-0.41421356237309548
10
-24.498081194730883
20
6.3794117647132262
10
-24.498081194730883
20
6.085294117654402
42
-0.41421356237309465
10
-25.248081194730887
20
5.335294117654402
10
-35.248081194730872
20
5.3352941176544029
42
0.99999999999999989
10
-35.248081194730872
20
3.8352941176544042
10
-25.248081194730887
20
3.835294117654406
42
-0.41421356237309481
10
-24.498081194730883
20
3.0852941176544046
10
-24.498081194730887
20
2.7911764705955799
42
-0.41421356237309481
10
-25.24808119473089
20
2.0411764705955804
10
-35.248081194730872
20
2.0411764705955804
42
0.99999999999999989
10
-35.248081194730872
20
0.54117647059558127
10
-25.248081194730894
20
0.54117647059558294
42
-0.41421356237309576
10
-24.498081194730894
20
-0.20882352940442056
10
-24.498081194730894
20
-0.5029411764632451
42
-0.41421356237309481
10
-25.248081194730894
20
-1.2529411764632448
10
-35.248081194730872
20
-1.2529411764632448
42
0.99999999999999989
10
-35.248081194730872
20
-2.7529411764632439
10
-25.248081194730894
20
-2.7529411764632421
42
-0.4142135623730957
10
-24.498081194730894
20
-3.5029411764632457
10
-24.498081194730894
20
-3.7970588235220704
42
-0.41421356237309481
10
-25.248081194730894
20
-4.5470588235220699
10
-35.248081194730872
20
-4.5470588235220699
42
0.99999999999999989
10
-35.248081194730872
20
-6.047058823522069
10
-25.248081194730901
20
-6.0470588235220664
42
-0.41421356237309592
10
-24.498081194730897
20
-6.7970588235220708
10
-24.498081194730897
20
-7.0911764705808977
42
-0.4142135623730942
10
-25.248081194730897
20
-7.841176470580896
10
-35.248081194730872
20
-7.8411764705808951
42
0.99999999999999989
10
-35.248081194730872
20
-9.3411764705808942
10
-25.248081194730901
20
-9.3411764705808924
42
-0.41421356237309592
10
-24.498081194730901
20
-10.091176470580896
10
-24.498081194730901
20
-10.385294117639713
42
-0.41421356237309503
10
-25.248081194730901
20
-11.135294117639713
10
-35.248081194730872
20
-11.135294117639717
42
0.99999999999999989
10
-35.248081194730879
20
-12.635294117639713
10
-25.248081194730901
20
-12.635294117639713
42
-0.41421356237309503
10
-24.498081194730901
20
-13.385294117639715
10
-24.498081194730901
20
-13.679411764698539
42
-0.41421356237309503
10
-25.248081194730897
20
-14.429411764698539
0
CIRCLE
5
101
100
AcDbEntity
8
0
100
AcDbCircle
10
15.999999969767805
20
-3.00000000000689
30
0
40
1.3749999999999996
210
0
220
0
230
1
0
CIRCLE
5
102
100
AcDbEntity
8
0
100
AcDbCircle
10
-20.498081194730865
20
14.100000000007347
30
0
40
1.7000000000000124
210
1.0339757656912848e-25
220
1.97215226305253e-31
230
1
0
CIRCLE
5
103
100
AcDbEntity
8
0
100
AcDbCircle
10
0.0019188052691186887
20
0.10000000000731657
30
0
40
2.1500000000000101
210
1.0339757656912846e-25
220
2.8486703237279396e-65
230
1
0
CIRCLE
5
104
100
AcDbEntity
8
0
100
AcDbCircle
10
-16.000000030232229
20
-3.0000000000138476
30
0
40
1.3750000000000038
210
0
220
1.97215226305253e-31
230
1
0
CIRCLE
5
105
100
AcDbEntity
8
0
100
AcDbCircle
10
15.99999996976779
20
2.999999999999996
30
0
40
1.3750000000000107
210
0
220
0
230
1
0
CIRCLE
5
106
100
AcDbEntity
8
0
100
AcDbCircle
10
-16.000000030232243
20
2.9999999999999192
30
0
40
1.3750000000000129
210
0
220
0
230
1
0
CIRCLE
5
107
100
AcDbEntity
8
0
100
AcDbCircle
10
-20.498081194730894
20
-7.1499999999926613
30
0
40
1.7000000000000082
210
-0
220
0
230
1
0
CIRCLE
5
108
100
AcDbEntity
8
0
100
AcDbCircle
10
17.001918805269135
20
14.1000000000073
30
0
40
1.7000000000000082
210
-0
220
0
230
1
0
CIRCLE
5
109
100
AcDbEntity
8
0
100
AcDbCircle
10
17.001918805269096
20
-25.899999999992701
30
0
40
1.7000000000000104
210
-0
220
0
230
1
0
CIRCLE
5
110
100
AcDbEntity
8
0
100
AcDbCircle
10
-9.4980811947308847
20
-12.124999999992683
30
0
40
1.7000000000000002
210
0
220
0
230
1
0
CIRCLE
5
111
100
AcDbEntity
8
0
100
AcDbCircle
10
9.501918805269117
20
-2.124999999992685
30
0
40
1.7000000000000002
210
0
220
0
230
1
0
CIRCLE
5
112
100
AcDbEntity
8
0
100
AcDbCircle
10
-9.498081194730883
20
-2.1249999999926827
30
0
40
1.7000000000000002
210
0
220
0
230
1
0
CIRCLE
5
113
100
AcDbEntity
8
0
100
AcDbCircle
10
9.501918805269117
20
-12.124999999992687
30
0
40
1.7000000000000002
210
0
220
0
230
1
0
ENDSEC
0
SECTION
2
OBJECTS
0
DICTIONARY
5
C
100
AcDbDictionary
3
ACAD_GROUP
350
D
3
ACAD_MLINESTYLE
350
17
0
DICTIONARY
5
D
100
AcDbDictionary
0
DICTIONARY
5
1A
330
C
100
AcDbDictionary
0
DICTIONARY
5
17
100
AcDbDictionary
0
ENDSEC
0
EOF
