0
SECTION
2
HEADER
9
$INSUNITS
70
4
9
$ACADVER
1
AC1014
9
$HANDSEED
5
FFFF
0
ENDSEC
0
SECTION
2
TABLES
0
TABLE
2
VPORT
5
8
100
AcDbSymbolTable
0
ENDTAB
0
TABLE
2
LTYPE
5
5
100
AcDbSymbolTable
0
LTYPE
5
14
100
AcDbSymbolTableRecord
100
AcDbLinetypeTableRecord
2
BYBLOCK
70
0
0
LTYPE
5
15
100
AcDbSymbolTableRecord
100
AcDbLinetypeTableRecord
2
BYLAYER
70
0
0
ENDTAB
0
TABLE
2
LAYER
5
2
100
AcDbSymbolTable
70
2
0
LAYER
5
50
100
AcDbSymbolTableRecord
100
AcDbLayerTableRecord
2
0
70
0
6
CONTINUOUS
0
ENDTAB
0
TABLE
2
STYLE
5
3
100
AcDbSymbolTable
70
1
0
STYLE
5
11
100
AcDbSymbolTableRecord
100
AcDbTextStyleTableRecord
2
STANDARD
70
0
0
ENDTAB
0
TABLE
2
VIEW
5
6
100
AcDbSymbolTable
70
0
0
ENDTAB
0
TABLE
2
UCS
5
7
100
AcDbSymbolTable
70
0
0
ENDTAB
0
TABLE
2
APPID
5
9
100
AcDbSymbolTable
70
2
0
APPID
5
12
100
AcDbSymbolTableRecord
100
AcDbRegAppTableRecord
2
ACAD
70
0
0
ENDTAB
0
TABLE
2
DIMSTYLE
5
A
100
AcDbSymbolTable
70
1
0
ENDTAB
0
TABLE
2
BLOCK_RECORD
5
1
100
AcDbSymbolTable
70
1
0
BLOCK_RECORD
5
1F
100
AcDbSymbolTableRecord
100
AcDbBlockTableRecord
2
*MODEL_SPACE
0
BLOCK_RECORD
5
1B
100
AcDbSymbolTableRecord
100
AcDbBlockTableRecord
2
*PAPER_SPACE
0
ENDTAB
0
ENDSEC
0
SECTION
2
BLOCKS
0
BLOCK
5
20
100
AcDbEntity
100
AcDbBlockBegin
2
*MODEL_SPACE
0
ENDBLK
5
21
100
AcDbEntity
100
AcDbBlockEnd
0
BLOCK
5
1C
100
AcDbEntity
100
AcDbBlockBegin
2
*PAPER_SPACE
0
ENDBLK
5
1D
100
AcDbEntity
100
AcDbBlockEnd
0
ENDSEC
0
SECTION
2
ENTITIES
0
ARC
5
100
100
AcDbEntity
8
0
100
AcDbCircle
10
-7.2370601061160951
20
13.117860888798292
30
3.5561831257524545e-16
40
1
210
-3.5121434113286873e-26
220
2.0273245365578996e-26
230
1
100
AcDbArc
50
240.00504615040742
51
342.02794740147846
0
LINE
5
101
100
AcDbEntity
8
0
100
AcDbLine
10
-4.2816836453356419
20
18.987759540171226
30
1.0408340855860843e-16
11
-6.2858529724574037
21
12.809307831972053
31
3.5561831257524545e-16
0
ARC
5
102
100
AcDbEntity
8
0
100
AcDbCircle
10
-9.3540614300356104
20
-16.124999999992671
30
-2.0383000842727478e-16
40
0.99999999999999534
210
7.3113169439839217e-26
220
2.8105827716404724e-32
230
1
100
AcDbArc
50
0
51
64.524196164941387
0
SPLINE
5
103
100
AcDbEntity
8
0
100
AcDbSpline
70
0
71
3
72
10
73
6
74
0
42
0.000000001
43
0.0000000001
44
0.0000000001
40
0.15831996895002967
40
0.15831996895002967
40
0.15831996895002967
40
0.15831996895002967
40
0.18547869866590863
40
0.18547869866590863
40
0.20358952380288434
40
0.20358952380288434
40
0.20358952380288434
40
0.20358952380288434
10
-9.3540614300356406
20
-15.124999999992673
30
-2.1033522146218786e-16
10
-9.2629275366983617
20
-15.124999999992671
30
1.9949319973733282e-16
10
-9.1699561515220331
20
-15.138081905177083
30
9.9746599868666408e-17
10
-9.0272750765374639
20
-15.178044569245694
30
-6.9388939039072284e-17
10
-8.9732371511542386
20
-15.198740971892306
30
4.3368086899420177e-17
10
-8.9239315366569532
20
-15.222232989728079
30
-1.6696713456276768e-16
0
LINE
5
104
100
AcDbEntity
8
0
100
AcDbLine
10
-8.3540614300356157
20
-16.124999999992674
30
-2.0383000850038794e-16
11
-8.354061430035614
21
-22.900680269280681
31
-2.4493466896954193e-16
0
ARC
5
105
100
AcDbEntity
8
0
100
AcDbCircle
10
11.181763847580871
20
-16.510080288015516
30
1.8648277366750676e-16
40
0.99999999999999978
210
0
220
-0
230
1
100
AcDbArc
50
53.848489739679472
51
132.9281298765645
0
LINE
5
106
100
AcDbEntity
8
0
100
AcDbLine
10
3.0635891465430776
20
-22.69565354165378
30
2.1684043449710089e-18
11
10.500683412174276
21
-15.777871683513791
31
1.8648277366750676e-16
0
LINE
5
107
100
AcDbEntity
8
0
100
AcDbLine
10
7.1853989855710152
20
16.234284027652741
30
2.3852447794681098e-17
11
3.3804131273296907
21
20.568233915477037
31
-1.9236992975642936e-17
0
ARC
5
108
100
AcDbEntity
8
0
100
AcDbCircle
10
-7.354061430035614
20
-22.900680269280681
30
-2.2334564753201391e-16
40
0.99999999999999978
210
-2.1589021437528018e-17
220
-1.5023299511697691e-58
230
1
100
AcDbArc
50
180
51
269.99999999999989
0
CIRCLE
5
109
100
AcDbEntity
8
0
100
AcDbCircle
10
-0.0012356665638829432
20
-19.400680268994797
30
-1.0408340855860843e-16
40
1.375
210
0
220
-0
230
1
0
LINE
5
110
100
AcDbEntity
8
0
100
AcDbLine
10
-7.3540614300356157
20
-23.900680269280681
30
-2.2334564753201391e-16
11
-0.001235666563895732
21
-23.900680269280677
31
1.5130877203723715e-16
0
ARC
5
111
100
AcDbEntity
8
0
100
AcDbCircle
10
-0.0012356665638829432
20
-19.400680268994797
30
-1.0408340855860843e-16
40
4.500000000285878
210
1.6129065171479963e-31
220
5.6753817906582424e-17
230
1
100
AcDbArc
50
269.99999999999983
51
312.92748393988256
0
LINE
5
112
100
AcDbEntity
8
0
100
AcDbLine
10
-21.498081194730897
20
-15.124999999992665
30
1.6696713456276768e-16
11
-10.458549830345827
21
-15.124999999992674
31
1.174522912789328e-16
0
LINE
5
113
100
AcDbEntity
8
0
100
AcDbLine
10
-10.458549830345827
20
-15.124999999992674
30
1.174522912789328e-16
11
-9.3540614300356424
21
-15.124999999992678
31
-2.6020852139652106e-16
0
ARC
5
114
100
AcDbEntity
8
0
100
AcDbCircle
10
-0.0012356665639140295
20
17.599319731005224
30
6.5052130349130266e-18
40
4.4999999999999991
210
4.2988197485312248e-18
220
3.7741432377449456e-18
230
1
100
AcDbArc
50
41.28147306324945
51
162.0286025761873
0
CIRCLE
5
115
100
AcDbEntity
8
0
100
AcDbCircle
10
-0.0012356665639140295
20
17.599319731005224
30
6.5052130349130266e-18
40
1.3749999999999998
210
0
220
-0
230
1
0
ARC
5
116
100
AcDbEntity
8
0
100
AcDbCircle
10
11.511986355062733
20
15.100000000007308
30
8.4567769453869346e-17
40
3.0000000000000004
210
3.6556563775142928e-26
220
-3.6556564176666778e-26
230
1
100
AcDbArc
50
89.999999999999858
51
153.35182869687233
0
ARC
5
117
100
AcDbEntity
8
0
100
AcDbCircle
10
10.001918805269129
20
-18.124999999992664
30
2.4936649967166612e-16
40
2.9999999999999871
210
-1.0966965144349515e-25
220
3.6556563889098524e-26
230
1
100
AcDbArc
50
0
51
53.848489739679621
0
LINE
5
118
100
AcDbEntity
8
0
100
AcDbLine
10
13.001918805269117
20
-18.12499999999266
30
2.493665000006751e-16
11
13.001918805269151
21
-26.899999999992716
31
4.8132460834399682e-16
0
ARC
5
119
100
AcDbEntity
8
0
100
AcDbCircle
10
16.001918805269153
20
-26.899999999992701
30
1.4311468676808659e-16
40
3.0000000000000027
210
1.1273664052530331e-16
220
-3.6556063123886649e-26
230
1
100
AcDbArc
50
180
51
269.99999999999994
0
LINE
5
120
100
AcDbEntity
8
0
100
AcDbLine
10
16.001918805269149
20
-29.899999999992705
30
1.431146866584169e-16
11
18.001918805269085
21
-29.899999999992701
31
4.6561692820981785e-16
0
ARC
5
121
100
AcDbEntity
8
0
100
AcDbCircle
10
-21.498081194730897
20
-12.124999999992665
30
-1.5178830414797062e-16
40
2.9999999999999982
210
-7.3113128353333442e-26
220
1.6234375700049038e-40
230
1
100
AcDbArc
50
180
51
270
0
LINE
5
122
100
AcDbEntity
8
0
100
AcDbLine
10
-24.498081194730897
20
-12.124999999992658
30
-1.5178830436730999e-16
11
-24.498081194730865
21
15.10000000000735
31
1.6960336801380564e-16
0
ARC
5
123
100
AcDbEntity
8
0
100
AcDbCircle
10
-21.498081194730865
20
15.100000000007345
30
2.1033522146218786e-16
40
3.0000000000000004
210
-3.6556563775143083e-26
220
-3.6556564176666646e-26
230
1
100
AcDbArc
50
89.999999999999929
51
180
0
LINE
5
124
100
AcDbEntity
8
0
100
AcDbLine
10
-12.237212655067577
20
18.100000000007338
30
3.3610267347050637e-16
11
-21.498081194730862
21
18.100000000007345
31
2.1033522157185755e-16
0
ARC
5
125
100
AcDbEntity
8
0
100
AcDbCircle
10
-12.237212655067582
20
15.100000000007334
30
1.0191500421363742e-16
40
3.0000000000000018
210
-3.6556600127358997e-26
220
-2.4286128674642284e-17
230
1
100
AcDbArc
50
0
51
89.999999999999901
0
ARC
5
126
100
AcDbEntity
8
0
100
AcDbCircle
10
-6.2372126550675748
20
14.84999976158875
30
9.3241386833753381e-17
40
3.0000000000000062
210
2.0730489339122239e-33
220
2.800854721886374e-18
230
1
100
AcDbArc
50
180
51
240.0050461504074
0
LINE
5
127
100
AcDbEntity
8
0
100
AcDbLine
10
11.51198635506274
20
18.100000000007309
30
8.4567769563539032e-17
11
18.001918805269142
21
18.100000000007302
31
6.4216532139868746e-17
0
ARC
5
128
100
AcDbEntity
8
0
100
AcDbCircle
10
18.001918805269138
20
15.100000000007302
30
4.2283884726934673e-16
40
3.0000000000000027
210
5.4114585072455549e-41
220
3.6556563775143008e-26
230
1
100
AcDbArc
50
0
51
89.999999999999929
0
LINE
5
129
100
AcDbEntity
8
0
100
AcDbLine
10
21.001918805269142
20
15.100000000007299
30
4.2283884726934673e-16
11
21.001918805269089
21
-26.899999999992712
31
1.0310482482031598e-16
0
ARC
5
130
100
AcDbEntity
8
0
100
AcDbCircle
10
18.001918805269092
20
-26.899999999992708
30
4.1199682554449168e-17
40
2.9999999999999938
210
-7.3112918129042366e-26
220
1.4147241521845651e-16
230
1
100
AcDbArc
50
269.99999999999983
51
360
0
ARC
5
131
100
AcDbEntity
8
0
100
AcDbCircle
10
-5.6549354442232671
20
-5.5568542494850597
30
-6.5052130349130266e-18
40
2.3999999999999995
210
0
220
0
230
1
100
AcDbArc
50
-196.602750702516
51
113.07428576417593
0
ARC
5
132
100
AcDbEntity
8
0
100
AcDbCircle
10
5.6587730547614958
20
-5.5568542494850686
30
1.7780915628762273e-16
40
2.4000000000000004
210
-6.6002032704912074e-34
220
1.9566590390250967e-31
230
1
100
AcDbArc
50
-293.0742857641763
51
16.602750702516381
0
CIRCLE
5
133
100
AcDbEntity
8
0
100
AcDbCircle
10
-20.498081194730894
20
-6.8999999999926604
30
-2.5153490401663703e-16
40
1.7000000000000002
210
0
220
0
230
1
0
CIRCLE
5
134
100
AcDbEntity
8
0
100
AcDbCircle
10
18.001918805269092
20
-26.899999999992708
30
4.1199682554449168e-17
40
1.7000000000000002
210
0
220
0
230
1
0
CIRCLE
5
135
100
AcDbEntity
8
0
100
AcDbCircle
10
18.001918805269138
20
15.100000000007302
30
4.2283884726934673e-16
40
1.7000000000000002
210
0
220
0
230
1
0
CIRCLE
5
136
100
AcDbEntity
8
0
100
AcDbCircle
10
-21.498081194730865
20
15.100000000007345
30
2.1033522146218786e-16
40
1.7000000000000002
210
0
220
0
230
1
0
CIRCLE
5
137
100
AcDbEntity
8
0
100
AcDbCircle
10
-5.6549354442232582
20
5.7568542494997015
30
-3.0357660829594124e-16
40
2.3999999999999999
210
0
220
0
230
1
0
CIRCLE
5
138
100
AcDbEntity
8
0
100
AcDbCircle
10
0.0019188052691187097
20
0.10000000000731658
30
-3.4043948216044839e-16
40
2.1500000000000101
210
0
220
0
230
1
0
CIRCLE
5
139
100
AcDbEntity
8
0
100
AcDbCircle
10
5.6587730547615038
20
5.7568542494996935
30
-1.1926223897340549e-16
40
2.3999999999999999
210
0
220
0
230
1
0
CIRCLE
5
140
100
AcDbEntity
8
0
100
AcDbCircle
10
-15.999999999886223
20
2.5
30
2.3852447794681098e-17
40
1.375
210
0
220
0
230
1
0
CIRCLE
5
141
100
AcDbEntity
8
0
100
AcDbCircle
10
16.000000000113779
20
2.5000000000000004
30
8.4567769453869346e-17
40
1.375
210
0
220
0
230
1
0
SPLINE
5
142
100
AcDbEntity
8
0
100
AcDbSpline
70
0
71
3
72
12
73
8
74
0
42
0.000000001
43
0.0000000001
44
0.0000000001
40
0
40
0
40
0
40
0
40
0.094435016331167951
40
0.094435016331167951
40
0.16600791283477997
40
0.16600791283477997
40
0.2630996822270506
40
0.2630996822270506
40
0.2630996822270506
40
0.2630996822270506
10
-7.9548767029446648
20
-4.8710917494669861
30
-1.7564075194265172e-16
10
-7.8649322683772906
20
-4.5694320406779827
30
-6.7220534694101275e-17
10
-7.7129920209113845
20
-4.2835629696198341
30
-1.5829351718288365e-16
10
-7.3628784824784024
20
-3.8535429125668301
30
6.9388939039072284e-17
10
-7.2086003250135446
20
-3.7207883604002072
30
-6.9388939039072284e-17
10
-6.8996011828635284
20
-3.4926861464247638
30
-3.0357660829594124e-17
10
-6.7315947428624012
20
-3.4068145694611687
30
2.3635607360183997e-16
10
-6.5955536753836208
20
-3.3488602859043692
30
2.2551405187698492e-16
0
SPLINE
5
143
100
AcDbEntity
8
0
100
AcDbSpline
70
0
71
3
72
12
73
8
74
0
42
0.000000001
43
0.0000000001
44
0.0000000001
40
0
40
0
40
0
40
0
40
0.094435016331167368
40
0.094435016331167368
40
0.16600791283476804
40
0.16600791283476804
40
0.26309968222702257
40
0.26309968222702257
40
0.26309968222702257
40
0.26309968222702257
10
6.599391285921862
20
-3.3488602859043843
30
-3.0140820395097023e-16
10
6.8889912109355578
20
-3.4722315331558038
30
7.3725747729014302e-17
10
7.1559135941506558
20
-3.6554237980755073
30
1.8214596497756474e-16
10
7.5437323997399393
20
-4.0517737864609993
30
1.6263032587282567e-16
10
7.6582524090127784
20
-4.2200315900478138
30
-1.3010426069826053e-17
10
7.8500739840358227
20
-4.5527710875916192
30
2.211772431870429e-16
10
7.9164624486326529
20
-4.7293855359828463
30
-2.8406096919120216e-16
10
7.9587143134828873
20
-4.8710917494669808
30
2.2334564753201391e-16
0
LWPOLYLINE
5
144
100
AcDbEntity
8
0
100
AcDbPolyline
90
2
70
1
43
0.0
10
-8.3540614300356157
20
-11.006421089952541
42
2.4531302530965813
10
-8.3540614300356175
20
-13.24357891003282
42
0.40764243918059462
0
LWPOLYLINE
5
145
100
AcDbEntity
8
0
100
AcDbPolyline
90
2
70
1
43
0.0
10
-8.3540614300356193
20
-1.0064210899525372
42
2.4531302530965684
10
-8.3540614300356193
20
-3.2435789100328254
42
0.40764243918059673
0
CIRCLE
5
146
100
AcDbEntity
8
0
100
AcDbCircle
10
9.5019188052691188
20
-12.124999999992683
30
-9.3241386833753381e-17
40
1.5999999999999992
210
0
220
-0
230
1
0
CIRCLE
5
147
100
AcDbEntity
8
0
100
AcDbCircle
10
9.501918805269117
20
-2.1249999999926836
30
-1.0842021724855044e-16
40
1.6000000000000003
210
0
220
-0
230
1
0
LINE
5
148
100
AcDbEntity
8
0
100
AcDbLine
10
-9.2372126550675802
20
14.849999761588752
30
9.3241386833753381e-17
11
-9.2372126550675802
21
15.100000000007331
31
1.019150043233071e-16
0
ARC
5
149
100
AcDbEntity
8
0
100
AcDbCircle
10
7.9368764815579631
20
16.894042750994231
30
-1.019150042136374e-16
40
1.0000000000000013
210
9.4511409911869506e-17
220
8.2976173574919846e-17
230
1
100
AcDbArc
50
221.28147425884077
51
333.35182869687156
0
ENDSEC
0
SECTION
2
OBJECTS
0
DICTIONARY
5
C
100
AcDbDictionary
3
ACAD_GROUP
350
D
3
ACAD_MLINESTYLE
350
17
0
DICTIONARY
5
D
100
AcDbDictionary
0
DICTIONARY
5
1A
330
C
100
AcDbDictionary
0
DICTIONARY
5
17
100
AcDbDictionary
0
ENDSEC
0
EOF
