0
SECTION
2
HEADER
9
$INSUNITS
70
4
9
$ACADVER
1
AC1014
9
$HANDSEED
5
FFFF
0
ENDSEC
0
SECTION
2
TABLES
0
TABLE
2
VPORT
5
8
100
AcDbSymbolTable
0
ENDTAB
0
TABLE
2
LTYPE
5
5
100
AcDbSymbolTable
0
LTYPE
5
14
100
AcDbSymbolTableRecord
100
AcDbLinetypeTableRecord
2
BYBLOCK
70
0
0
LTYPE
5
15
100
AcDbSymbolTableRecord
100
AcDbLinetypeTableRecord
2
BYLAYER
70
0
0
ENDTAB
0
TABLE
2
LAYER
5
2
100
AcDbSymbolTable
70
2
0
LAYER
5
50
100
AcDbSymbolTableRecord
100
AcDbLayerTableRecord
2
0
70
0
6
CONTINUOUS
0
ENDTAB
0
TABLE
2
STYLE
5
3
100
AcDbSymbolTable
70
1
0
STYLE
5
11
100
AcDbSymbolTableRecord
100
AcDbTextStyleTableRecord
2
STANDARD
70
0
0
ENDTAB
0
TABLE
2
VIEW
5
6
100
AcDbSymbolTable
70
0
0
ENDTAB
0
TABLE
2
UCS
5
7
100
AcDbSymbolTable
70
0
0
ENDTAB
0
TABLE
2
APPID
5
9
100
AcDbSymbolTable
70
2
0
APPID
5
12
100
AcDbSymbolTableRecord
100
AcDbRegAppTableRecord
2
ACAD
70
0
0
ENDTAB
0
TABLE
2
DIMSTYLE
5
A
100
AcDbSymbolTable
70
1
0
ENDTAB
0
TABLE
2
BLOCK_RECORD
5
1
100
AcDbSymbolTable
70
1
0
BLOCK_RECORD
5
1F
100
AcDbSymbolTableRecord
100
AcDbBlockTableRecord
2
*MODEL_SPACE
0
BLOCK_RECORD
5
1B
100
AcDbSymbolTableRecord
100
AcDbBlockTableRecord
2
*PAPER_SPACE
0
ENDTAB
0
ENDSEC
0
SECTION
2
BLOCKS
0
BLOCK
5
20
100
AcDbEntity
100
AcDbBlockBegin
2
*MODEL_SPACE
0
ENDBLK
5
21
100
AcDbEntity
100
AcDbBlockEnd
0
BLOCK
5
1C
100
AcDbEntity
100
AcDbBlockBegin
2
*PAPER_SPACE
0
ENDBLK
5
1D
100
AcDbEntity
100
AcDbBlockEnd
0
ENDSEC
0
SECTION
2
ENTITIES
0
CIRCLE
5
100
100
AcDbEntity
8
0
100
AcDbCircle
10
-12.291796067500641
20
-12.499999999997565
30
0
40
1.6000000000000014
210
0
220
-0
230
1
0
CIRCLE
5
101
100
AcDbEntity
8
0
100
AcDbCircle
10
-5.0799999999999876
20
-19.999999999999996
30
0
40
1.6000000000000003
210
0
220
-0
230
1
0
CIRCLE
5
102
100
AcDbEntity
8
0
100
AcDbCircle
10
12.291796067500647
20
-12.499999999999975
30
0
40
1.6000000000000014
210
0
220
-0
230
1
0
CIRCLE
5
103
100
AcDbEntity
8
0
100
AcDbCircle
10
-17.781100325786309
20
-15.86805163364161
30
0
40
1.3749999999999996
210
0
220
-0
230
1
0
CIRCLE
5
104
100
AcDbEntity
8
0
100
AcDbCircle
10
5.0800000000000125
20
-20.000000000000004
30
0
40
1.6000000000000003
210
0
220
-0
230
1
0
CIRCLE
5
105
100
AcDbEntity
8
0
100
AcDbCircle
10
17.781100321644722
20
-15.868051633632493
30
0
40
1.3749999999999996
210
0
220
-0
230
1
0
CIRCLE
5
106
100
AcDbEntity
8
0
100
AcDbCircle
10
-15.799999999999145
20
-25.000000000000004
30
0
40
1.375
210
0
220
-0
230
1
0
CIRCLE
5
107
100
AcDbEntity
8
0
100
AcDbCircle
10
15.800000000000862
20
-25
30
0
40
1.375
210
0
220
-0
230
1
0
LWPOLYLINE
5
108
100
AcDbEntity
8
0
100
AcDbPolyline
90
30
70
1
43
0.0
10
-12.29759859764593
20
-9.5000000000000107
42
0.32305931032905078
10
-15.144460159470405
20
-11.553755186113976
42
-0.36451629970419852
10
-17.337860850716609
20
-12.900975839570616
42
0.88191710369330145
10
-18.946439630241077
20
-18.6324655508101
42
-0.3779644730086042
10
-17.797732954767927
20
-21.015839833986398
10
-18.688399321811296
20
-24.189352492387396
42
0.99999999999999989
10
-12.911600686432539
20
-25.810647507579297
10
-11.690442839438564
20
-21.459568328269309
42
-0.33616265824112884
10
-9.764843294312346
20
-20.000000000000018
10
-9.6625756949558728
20
-20.000000000000007
42
-0.29821662669860743
10
-7.8295454169735281
20
-21.200000000000003
42
0.65465367070797842
10
-2.3304545830264498
20
-21.20000000000001
42
-0.29821662669860471
10
-0.49742430504412372
20
-20.000000000000018
10
0.49742430542033267
20
-20.000000000000014
42
-0.29821662660049997
10
2.3304545831143706
20
-21.199999999339422
42
0.65465367045056533
10
7.8295454086286567
20
-21.199999999339415
42
-0.29821662660050124
10
9.6625756863226933
20
-19.999999999999989
10
9.7648432901839151
20
-19.999999999999986
42
-0.33616265824112912
10
11.690442835310142
20
-21.45956832826927
10
12.911600682308141
20
-25.810647507578224
42
0.99999999999999989
10
18.688399317686827
20
-24.189352492386075
10
17.797732950637805
20
-21.015839833980273
42
-0.37796447300931041
10
18.946439626115499
20
-18.632465550802046
42
0.88191710368889331
10
17.337860846590502
20
-12.900975839560784
42
-0.36451629970435984
10
15.1444601553406
20
-11.553755186108505
42
0.32305931032852458
10
12.297598593517913
20
-9.4999999999999734
10
11.521718619714509
20
-9.4999999999999751
42
0.18835516778863348
10
9.4884741570457081
20
-10.29411764705668
42
-0.39056673294187028
10
-9.4884741611742047
20
-10.294117647056709
42
0.18835516778863523
10
-11.521718623843011
20
-9.5000000000000107
0
ENDSEC
0
SECTION
2
OBJECTS
0
DICTIONARY
5
C
100
AcDbDictionary
3
ACAD_GROUP
350
D
3
ACAD_MLINESTYLE
350
17
0
DICTIONARY
5
D
100
AcDbDictionary
0
DICTIONARY
5
1A
330
C
100
AcDbDictionary
0
DICTIONARY
5
17
100
AcDbDictionary
0
ENDSEC
0
EOF
