0
SECTION
2
HEADER
9
$INSUNITS
70
4
9
$ACADVER
1
AC1014
9
$HANDSEED
5
FFFF
0
ENDSEC
0
SECTION
2
TABLES
0
TABLE
2
VPORT
5
8
100
AcDbSymbolTable
0
ENDTAB
0
TABLE
2
LTYPE
5
5
100
AcDbSymbolTable
0
LTYPE
5
14
100
AcDbSymbolTableRecord
100
AcDbLinetypeTableRecord
2
BYBLOCK
70
0
0
LTYPE
5
15
100
AcDbSymbolTableRecord
100
AcDbLinetypeTableRecord
2
BYLAYER
70
0
0
ENDTAB
0
TABLE
2
LAYER
5
2
100
AcDbSymbolTable
70
2
0
LAYER
5
50
100
AcDbSymbolTableRecord
100
AcDbLayerTableRecord
2
0
70
0
6
CONTINUOUS
0
ENDTAB
0
TABLE
2
STYLE
5
3
100
AcDbSymbolTable
70
1
0
STYLE
5
11
100
AcDbSymbolTableRecord
100
AcDbTextStyleTableRecord
2
STANDARD
70
0
0
ENDTAB
0
TABLE
2
VIEW
5
6
100
AcDbSymbolTable
70
0
0
ENDTAB
0
TABLE
2
UCS
5
7
100
AcDbSymbolTable
70
0
0
ENDTAB
0
TABLE
2
APPID
5
9
100
AcDbSymbolTable
70
2
0
APPID
5
12
100
AcDbSymbolTableRecord
100
AcDbRegAppTableRecord
2
ACAD
70
0
0
ENDTAB
0
TABLE
2
DIMSTYLE
5
A
100
AcDbSymbolTable
70
1
0
ENDTAB
0
TABLE
2
BLOCK_RECORD
5
1
100
AcDbSymbolTable
70
1
0
BLOCK_RECORD
5
1F
100
AcDbSymbolTableRecord
100
AcDbBlockTableRecord
2
*MODEL_SPACE
0
BLOCK_RECORD
5
1B
100
AcDbSymbolTableRecord
100
AcDbBlockTableRecord
2
*PAPER_SPACE
0
ENDTAB
0
ENDSEC
0
SECTION
2
BLOCKS
0
BLOCK
5
20
100
AcDbEntity
100
AcDbBlockBegin
2
*MODEL_SPACE
0
ENDBLK
5
21
100
AcDbEntity
100
AcDbBlockEnd
0
BLOCK
5
1C
100
AcDbEntity
100
AcDbBlockBegin
2
*PAPER_SPACE
0
ENDBLK
5
1D
100
AcDbEntity
100
AcDbBlockEnd
0
ENDSEC
0
SECTION
2
ENTITIES
0
LWPOLYLINE
5
100
100
AcDbEntity
8
0
100
AcDbPolyline
90
12
70
1
43
0.0
10
21.999999999999996
20
12.449999999999978
10
39.499999999999964
20
12.449999999999978
42
-0.41421356237309209
10
41.499999999999972
20
10.44999999999998
10
41.499999999999972
20
-13.99999999999997
42
-0.41421356237309243
10
39.499999999999964
20
-15.99999999999997
10
-22.500000002064155
20
-15.99999999999998
42
-0.41421356237309276
10
-24.500000002064159
20
-13.999999999999982
10
-24.500000002064255
20
24.999999999999986
42
-0.41421356237309725
10
-21.500000002064255
20
28
10
18.000000000000007
20
28.000000000000007
42
-0.41421356237309531
10
21.000000000000007
20
25.000000000000007
10
20.999999999999996
20
13.44999999999998
42
0.41421356237309176
0
CIRCLE
5
101
100
AcDbEntity
8
0
100
AcDbCircle
10
23.49999999999995
20
5.4999999999999813
30
0
40
1.6000000000000003
210
0
220
0
230
1
0
CIRCLE
5
102
100
AcDbEntity
8
0
100
AcDbCircle
10
38.499999999999972
20
-10.500000000000021
30
0
40
1.6000000000000003
210
0
220
0
230
1
0
CIRCLE
5
103
100
AcDbEntity
8
0
100
AcDbCircle
10
38.499999999999972
20
5.4999999999999813
30
0
40
1.6000000000000003
210
0
220
0
230
1
0
CIRCLE
5
104
100
AcDbEntity
8
0
100
AcDbCircle
10
23.499999999999957
20
-10.500000000000021
30
0
40
1.6000000000000003
210
0
220
0
230
1
0
CIRCLE
5
105
100
AcDbEntity
8
0
100
AcDbCircle
10
38.499999999999972
20
-0.50000000000002043
30
0
40
1.6000000000000003
210
0
220
0
230
1
0
CIRCLE
5
106
100
AcDbEntity
8
0
100
AcDbCircle
10
23.499999999999957
20
-0.50000000000002043
30
0
40
1.6000000000000003
210
0
220
0
230
1
0
LWPOLYLINE
5
107
100
AcDbEntity
8
0
100
AcDbPolyline
90
19
70
1
43
0.0
10
16.02940010239363
20
6.3498709876437758
10
14.982447696766927
20
6.3590595534725285
42
-0.41164538425142283
10
12.99999999793577
20
8.3589825311703372
10
12.999999997935774
20
17.999999999999993
42
0.4142135623730957
10
10.999999997935772
20
19.999999999999996
10
-14.500000002064235
20
20.000000000000014
42
0.41421356237309537
10
-16.500000002064237
20
18.000000000000014
10
-16.500000002064251
20
7.7299577165128266
42
-0.27798950694616587
10
-17.565420562811902
20
5.9617492243584795
42
0.27712562679782893
10
-19.349982760400991
20
3.0107479694029147
10
-19.349982760400316
20
-2.9999847790428635
42
0.41421489316241428
10
-16.000000002064208
20
-6.3499827583562665
10
-13.648362099242346
20
-6.3499827583435176
42
-0.26114206594284844
10
-11.942316837084839
20
-7.3062349135505826
42
0.56050808054448309
10
11.942316832959976
20
-7.3062349135445794
42
-0.2611420659414182
10
13.648362095106297
20
-6.3499827583366466
10
16.003019971334211
20
-6.3499827583366582
42
0.41421356237888063
10
19.349982756265497
20
-2.9969800265423703
10
19.349982756272418
20
3.0107479694562556
42
0.41070768954232206
0
CIRCLE
5
108
100
AcDbEntity
8
0
100
AcDbCircle
10
-21.500000002064272
20
-12.474999999999978
30
0
40
1.3750000000000018
210
0
220
0
230
1
0
CIRCLE
5
109
100
AcDbEntity
8
0
100
AcDbCircle
10
12.999999999999996
20
24.000000000000004
30
0
40
1.3749999999999996
210
0
220
0
230
1
0
CIRCLE
5
110
100
AcDbEntity
8
0
100
AcDbCircle
10
-20.500000002064262
20
-7.2499999999999751
30
0
40
1.3750000000000018
210
0
220
0
230
1
0
CIRCLE
5
111
100
AcDbEntity
8
0
100
AcDbCircle
10
18.124999999999993
20
-12.599999999999996
30
0
40
1.3749999999999996
210
0
220
0
230
1
0
CIRCLE
5
112
100
AcDbEntity
8
0
100
AcDbCircle
10
-13.000000000000005
20
24.000000000000007
30
0
40
1.3749999999999996
210
0
220
0
230
1
0
CIRCLE
5
113
100
AcDbEntity
8
0
100
AcDbCircle
10
-20.50000000206424
20
14.00000000000003
30
0
40
1.3750000000000018
210
0
220
0
230
1
0
CIRCLE
5
114
100
AcDbEntity
8
0
100
AcDbCircle
10
-17.80885429495742
20
24.300000000000065
30
0
40
1.375
210
0
220
0
230
1
0
CIRCLE
5
115
100
AcDbEntity
8
0
100
AcDbCircle
10
17.994502748619556
20
24.300000000000029
30
0
40
1.375
210
0
220
0
230
1
0
CIRCLE
5
116
100
AcDbEntity
8
0
100
AcDbCircle
10
12.291796067500647
20
-12.499999999999975
30
0
40
1.375
210
0
220
0
230
1
0
CIRCLE
5
117
100
AcDbEntity
8
0
100
AcDbCircle
10
-12.291796067500641
20
-12.499999999997565
30
0
40
1.375
210
0
220
0
230
1
0
CIRCLE
5
118
100
AcDbEntity
8
0
100
AcDbCircle
10
30.999999999999961
20
-10.500000000000021
30
0
40
1.3750000000000018
210
0
220
0
230
1
0
CIRCLE
5
119
100
AcDbEntity
8
0
100
AcDbCircle
10
30.999999999999964
20
6.949999999999978
30
0
40
1.3750000000000018
210
0
220
0
230
1
0
CIRCLE
5
120
100
AcDbEntity
8
0
100
AcDbCircle
10
16.999999997935767
20
9.4999999999999787
30
0
40
1.3749999999999996
210
0
220
0
230
1
0
CIRCLE
5
121
100
AcDbEntity
8
0
100
AcDbCircle
10
16.999999997935767
20
13.999999999999979
30
0
40
1.3749999999999996
210
0
220
0
230
1
0
ENDSEC
0
SECTION
2
OBJECTS
0
DICTIONARY
5
C
100
AcDbDictionary
3
ACAD_GROUP
350
D
3
ACAD_MLINESTYLE
350
17
0
DICTIONARY
5
D
100
AcDbDictionary
0
DICTIONARY
5
1A
330
C
100
AcDbDictionary
0
DICTIONARY
5
17
100
AcDbDictionary
0
ENDSEC
0
EOF
