0
SECTION
2
HEADER
9
$INSUNITS
70
4
9
$ACADVER
1
AC1014
9
$HANDSEED
5
FFFF
0
ENDSEC
0
SECTION
2
TABLES
0
TABLE
2
VPORT
5
8
100
AcDbSymbolTable
0
ENDTAB
0
TABLE
2
LTYPE
5
5
100
AcDbSymbolTable
0
LTYPE
5
14
100
AcDbSymbolTableRecord
100
AcDbLinetypeTableRecord
2
BYBLOCK
70
0
0
LTYPE
5
15
100
AcDbSymbolTableRecord
100
AcDbLinetypeTableRecord
2
BYLAYER
70
0
0
ENDTAB
0
TABLE
2
LAYER
5
2
100
AcDbSymbolTable
70
2
0
LAYER
5
50
100
AcDbSymbolTableRecord
100
AcDbLayerTableRecord
2
0
70
0
6
CONTINUOUS
0
ENDTAB
0
TABLE
2
STYLE
5
3
100
AcDbSymbolTable
70
1
0
STYLE
5
11
100
AcDbSymbolTableRecord
100
AcDbTextStyleTableRecord
2
STANDARD
70
0
0
ENDTAB
0
TABLE
2
VIEW
5
6
100
AcDbSymbolTable
70
0
0
ENDTAB
0
TABLE
2
UCS
5
7
100
AcDbSymbolTable
70
0
0
ENDTAB
0
TABLE
2
APPID
5
9
100
AcDbSymbolTable
70
2
0
APPID
5
12
100
AcDbSymbolTableRecord
100
AcDbRegAppTableRecord
2
ACAD
70
0
0
ENDTAB
0
TABLE
2
DIMSTYLE
5
A
100
AcDbSymbolTable
70
1
0
ENDTAB
0
TABLE
2
BLOCK_RECORD
5
1
100
AcDbSymbolTable
70
1
0
BLOCK_RECORD
5
1F
100
AcDbSymbolTableRecord
100
AcDbBlockTableRecord
2
*MODEL_SPACE
0
BLOCK_RECORD
5
1B
100
AcDbSymbolTableRecord
100
AcDbBlockTableRecord
2
*PAPER_SPACE
0
ENDTAB
0
ENDSEC
0
SECTION
2
BLOCKS
0
BLOCK
5
20
100
AcDbEntity
100
AcDbBlockBegin
2
*MODEL_SPACE
0
ENDBLK
5
21
100
AcDbEntity
100
AcDbBlockEnd
0
BLOCK
5
1C
100
AcDbEntity
100
AcDbBlockBegin
2
*PAPER_SPACE
0
ENDBLK
5
1D
100
AcDbEntity
100
AcDbBlockEnd
0
ENDSEC
0
SECTION
2
ENTITIES
0
LINE
5
100
100
AcDbEntity
8
0
100
AcDbLine
10
-10.999999999999996
20
-46.000000000000007
30
0
11
-19.999999999999993
21
-46.000000000000007
31
0
0
LINE
5
101
100
AcDbEntity
8
0
100
AcDbLine
10
-21.500000002064255
20
28
30
0
11
18.000000000000007
21
28.000000000000007
31
0
0
LINE
5
102
100
AcDbEntity
8
0
100
AcDbLine
10
21.000000000000007
20
25.000000000000007
30
0
11
21.000000000000007
21
-43.000000000000007
31
0
0
LINE
5
103
100
AcDbEntity
8
0
100
AcDbLine
10
-24.500000002064294
20
-32
30
0
11
-24.500000002064255
21
24.999999999999993
31
0
0
ARC
5
104
100
AcDbEntity
8
0
100
AcDbCircle
10
-21.500000002064255
20
25
30
0
40
2.9999999999999982
210
0
220
-0
230
1
100
AcDbArc
50
90
51
180
0
ARC
5
105
100
AcDbEntity
8
0
100
AcDbCircle
10
18.000000000000007
20
25.000000000000007
30
0
40
2.9999999999999982
210
0
220
-0
230
1
100
AcDbArc
50
0
51
90
0
ARC
5
106
100
AcDbEntity
8
0
100
AcDbCircle
10
18.000000000000007
20
-43.000000000000007
30
0
40
2.9999999999999982
210
-0
220
0
230
1
100
AcDbArc
50
-90
51
0
0
CIRCLE
5
107
100
AcDbEntity
8
0
100
AcDbCircle
10
13.000000000000005
20
-41.999999999999964
30
0
40
1.3749999999999996
210
0
220
0
230
1
0
CIRCLE
5
108
100
AcDbEntity
8
0
100
AcDbCircle
10
-13.000000000000005
20
24.000000000000007
30
0
40
1.5999999999999992
210
0
220
0
230
1
0
CIRCLE
5
109
100
AcDbEntity
8
0
100
AcDbCircle
10
-20.50000000206424
20
14.00000000000003
30
0
40
1.3750000000000018
210
0
220
0
230
1
0
CIRCLE
5
110
100
AcDbEntity
8
0
100
AcDbCircle
10
8.0917881006779382
20
-33.499999999999972
30
0
40
1.6000000000000003
210
0
220
0
230
1
0
CIRCLE
5
111
100
AcDbEntity
8
0
100
AcDbCircle
10
12.999999999999996
20
24.000000000000004
30
0
40
1.5999999999999992
210
0
220
0
230
1
0
CIRCLE
5
112
100
AcDbEntity
8
0
100
AcDbCircle
10
16.999999997935767
20
13.999999999999979
30
0
40
1.3749999999999996
210
0
220
0
230
1
0
CIRCLE
5
113
100
AcDbEntity
8
0
100
AcDbCircle
10
-1.9082118993220609
20
-33.499999999999972
30
0
40
1.6000000000000003
210
0
220
0
230
1
0
CIRCLE
5
114
100
AcDbEntity
8
0
100
AcDbCircle
10
-7.9082118993220618
20
-33.499999999999972
30
0
40
1.6000000000000003
210
0
220
0
230
1
0
CIRCLE
5
115
100
AcDbEntity
8
0
100
AcDbCircle
10
-20.500000002064262
20
-7.2499999999999751
30
0
40
1.3750000000000018
210
0
220
0
230
1
0
CIRCLE
5
116
100
AcDbEntity
8
0
100
AcDbCircle
10
-12.999999999999996
20
-42
30
0
40
1.3749999999999996
210
0
220
0
230
1
0
LWPOLYLINE
5
117
100
AcDbEntity
8
0
100
AcDbPolyline
90
19
70
1
43
0.0
10
-17.565420562811902
20
5.9617492243584778
42
0.27712562679782882
10
-19.349982760400991
20
3.010747969402916
10
-19.349982760400316
20
-2.9999847790428635
42
0.41421489316241428
10
-16.000000002064208
20
-6.3499827583562674
10
-13.648362099242345
20
-6.3499827583435149
42
-0.26114206594284795
10
-11.942316837084839
20
-7.3062349135505835
42
0.56050808054448309
10
11.942316832959978
20
-7.306234913544575
42
-0.26114206594141787
10
13.648362095106297
20
-6.3499827583366466
10
16.003019971334211
20
-6.3499827583366582
42
0.41421356237888063
10
19.349982756265522
20
-2.9969800265423703
10
19.349982756272418
20
3.0107479694562556
42
0.41070768954232206
10
16.02940010239363
20
6.3498709876437758
10
14.982447696766927
20
6.3590595534725258
42
-0.4116453842514225
10
12.99999999793577
20
8.3589825311703372
10
12.999999997935774
20
17.999999999999993
42
0.4142135623730957
10
10.999999997935772
20
20.000000000000004
10
-14.500000002064235
20
20.000000000000014
42
0.41421356237309537
10
-16.500000002064237
20
18.000000000000014
10
-16.500000002064251
20
7.7299577165128266
42
-0.27798950694616659
0
LINE
5
118
100
AcDbEntity
8
0
100
AcDbLine
10
18.000000000000007
20
-46.000000000000007
30
0
11
11.000000000000005
21
-46.000000000000007
31
0
0
LINE
5
119
100
AcDbEntity
8
0
100
AcDbLine
10
8.0000000000000053
20
-43.000000000000007
30
0
11
8.0000000000000053
21
-38.999999999999972
31
0
0
LINE
5
120
100
AcDbEntity
8
0
100
AcDbLine
10
5.0000000000000053
20
-35.999999999999972
30
0
11
-4.9999999999999982
21
-35.999999999999972
31
0
0
LINE
5
121
100
AcDbEntity
8
0
100
AcDbLine
10
-7.9999999999999982
20
-38.999999999999972
30
0
11
-7.9999999999999964
21
-43.000000000000007
31
0
0
ARC
5
122
100
AcDbEntity
8
0
100
AcDbCircle
10
11.000000000000005
20
-43.000000000000007
30
0
40
3.0000000000000004
210
0
220
0
230
1
100
AcDbArc
50
180
51
270
0
ARC
5
123
100
AcDbEntity
8
0
100
AcDbCircle
10
5.0000000000000044
20
-38.999999999999972
30
0
40
3.0000000000000018
210
0
220
-0
230
1
100
AcDbArc
50
0
51
89.999999999999986
0
ARC
5
124
100
AcDbEntity
8
0
100
AcDbCircle
10
-4.9999999999999964
20
-38.999999999999972
30
0
40
3.0000000000000027
210
0
220
0
230
1
100
AcDbArc
50
90.000000000000043
51
180
0
ARC
5
125
100
AcDbEntity
8
0
100
AcDbCircle
10
-10.999999999999996
20
-43.000000000000007
30
0
40
2.9999999999999982
210
0
220
0
230
1
100
AcDbArc
50
-90
51
0
0
CIRCLE
5
126
100
AcDbEntity
8
0
100
AcDbCircle
10
8.0917881006779364
20
-18.499999999999972
30
0
40
1.6000000000000003
210
0
220
0
230
1
0
CIRCLE
5
127
100
AcDbEntity
8
0
100
AcDbCircle
10
-7.90821189932206
20
-18.499999999999972
30
0
40
1.6000000000000003
210
0
220
0
230
1
0
CIRCLE
5
128
100
AcDbEntity
8
0
100
AcDbCircle
10
16.999999997935724
20
-26.000000000000018
30
0
40
1.3749999999999996
210
0
220
0
230
1
0
CIRCLE
5
129
100
AcDbEntity
8
0
100
AcDbCircle
10
-1.9082118993220609
20
-18.499999999999972
30
0
40
1.6000000000000003
210
0
220
0
230
1
0
CIRCLE
5
130
100
AcDbEntity
8
0
100
AcDbCircle
10
-21.500000002064272
20
-12.474999999999978
30
0
40
1.3750000000000018
210
0
220
0
230
1
0
CIRCLE
5
131
100
AcDbEntity
8
0
100
AcDbCircle
10
18.124999999999993
20
-12.599999999999996
30
0
40
1.3749999999999996
210
0
220
0
230
1
0
LINE
5
132
100
AcDbEntity
8
0
100
AcDbLine
10
-35
20
-34.000000000000007
30
0
11
-26.500000002064294
21
-34
31
0
0
LINE
5
133
100
AcDbEntity
8
0
100
AcDbLine
10
-20.999999999999996
20
-47
30
0
11
-20.999999999999996
21
-48.000000000000007
31
0
0
CIRCLE
5
134
100
AcDbEntity
8
0
100
AcDbCircle
10
-28.499999999999996
20
-41.5
30
0
40
1.6000000000000014
210
0
220
0
230
1
0
LINE
5
135
100
AcDbEntity
8
0
100
AcDbLine
10
-36
20
-48.000000000000007
30
0
11
-36
21
-35.000000000000007
31
0
0
LINE
5
136
100
AcDbEntity
8
0
100
AcDbLine
10
-21.999999999999993
20
-49
30
0
11
-34.999999999999993
21
-49.000000000000014
31
0
0
ARC
5
137
100
AcDbEntity
8
0
100
AcDbCircle
10
-21.999999999999993
20
-48.000000000000007
30
0
40
0.99999999999999645
210
-0
220
0
230
1
100
AcDbArc
50
-90
51
0
0
ARC
5
138
100
AcDbEntity
8
0
100
AcDbCircle
10
-19.999999999999996
20
-47
30
0
40
0.99999999999999645
210
0
220
-0
230
1
100
AcDbArc
50
89.999999999999801
51
180
0
ARC
5
139
100
AcDbEntity
8
0
100
AcDbCircle
10
-34.999999999999993
20
-48.000000000000007
30
0
40
1.0000000000000009
210
0
220
0
230
1
100
AcDbArc
50
180
51
270
0
ARC
5
140
100
AcDbEntity
8
0
100
AcDbCircle
10
-35
20
-35.000000000000007
30
0
40
0.99999999999999645
210
0
220
-0
230
1
100
AcDbArc
50
90
51
180
0
ARC
5
141
100
AcDbEntity
8
0
100
AcDbCircle
10
-26.50000000206429
20
-32
30
0
40
2.0000000000000018
210
0
220
0
230
1
100
AcDbArc
50
-90.000000000000099
51
0
0
ENDSEC
0
SECTION
2
OBJECTS
0
DICTIONARY
5
C
100
AcDbDictionary
3
ACAD_GROUP
350
D
3
ACAD_MLINESTYLE
350
17
0
DICTIONARY
5
D
100
AcDbDictionary
0
DICTIONARY
5
1A
330
C
100
AcDbDictionary
0
DICTIONARY
5
17
100
AcDbDictionary
0
ENDSEC
0
EOF
