0
SECTION
2
HEADER
9
$INSUNITS
70
4
9
$ACADVER
1
AC1014
9
$HANDSEED
5
FFFF
0
ENDSEC
0
SECTION
2
TABLES
0
TABLE
2
VPORT
5
8
100
AcDbSymbolTable
0
ENDTAB
0
TABLE
2
LTYPE
5
5
100
AcDbSymbolTable
0
LTYPE
5
14
100
AcDbSymbolTableRecord
100
AcDbLinetypeTableRecord
2
BYBLOCK
70
0
0
LTYPE
5
15
100
AcDbSymbolTableRecord
100
AcDbLinetypeTableRecord
2
BYLAYER
70
0
0
ENDTAB
0
TABLE
2
LAYER
5
2
100
AcDbSymbolTable
70
2
0
LAYER
5
50
100
AcDbSymbolTableRecord
100
AcDbLayerTableRecord
2
0
70
0
6
CONTINUOUS
0
ENDTAB
0
TABLE
2
STYLE
5
3
100
AcDbSymbolTable
70
1
0
STYLE
5
11
100
AcDbSymbolTableRecord
100
AcDbTextStyleTableRecord
2
STANDARD
70
0
0
ENDTAB
0
TABLE
2
VIEW
5
6
100
AcDbSymbolTable
70
0
0
ENDTAB
0
TABLE
2
UCS
5
7
100
AcDbSymbolTable
70
0
0
ENDTAB
0
TABLE
2
APPID
5
9
100
AcDbSymbolTable
70
2
0
APPID
5
12
100
AcDbSymbolTableRecord
100
AcDbRegAppTableRecord
2
ACAD
70
0
0
ENDTAB
0
TABLE
2
DIMSTYLE
5
A
100
AcDbSymbolTable
70
1
0
ENDTAB
0
TABLE
2
BLOCK_RECORD
5
1
100
AcDbSymbolTable
70
1
0
BLOCK_RECORD
5
1F
100
AcDbSymbolTableRecord
100
AcDbBlockTableRecord
2
*MODEL_SPACE
0
BLOCK_RECORD
5
1B
100
AcDbSymbolTableRecord
100
AcDbBlockTableRecord
2
*PAPER_SPACE
0
ENDTAB
0
ENDSEC
0
SECTION
2
BLOCKS
0
BLOCK
5
20
100
AcDbEntity
100
AcDbBlockBegin
2
*MODEL_SPACE
0
ENDBLK
5
21
100
AcDbEntity
100
AcDbBlockEnd
0
BLOCK
5
1C
100
AcDbEntity
100
AcDbBlockBegin
2
*PAPER_SPACE
0
ENDBLK
5
1D
100
AcDbEntity
100
AcDbBlockEnd
0
ENDSEC
0
SECTION
2
ENTITIES
0
LINE
5
100
100
AcDbEntity
8
0
100
AcDbLine
10
20.999999999999996
20
12.449999999999978
30
0
11
38.499999999999972
21
12.449999999999978
31
0
0
LINE
5
101
100
AcDbEntity
8
0
100
AcDbLine
10
-21.50000000206429
20
27.000000002064255
30
0
11
17.999999999999993
21
27.000000002064258
31
0
0
LINE
5
102
100
AcDbEntity
8
0
100
AcDbLine
10
38.499999999999972
20
-15.99999999999997
30
0
11
-21.50000000206429
21
-15.999999999999988
31
0
0
CIRCLE
5
103
100
AcDbEntity
8
0
100
AcDbCircle
10
12.291796067500647
20
-12.499999999999975
30
0
40
1.375
210
0
220
0
230
1
0
CIRCLE
5
104
100
AcDbEntity
8
0
100
AcDbCircle
10
-12.291796067500641
20
-12.499999999997565
30
0
40
1.375
210
0
220
0
230
1
0
CIRCLE
5
105
100
AcDbEntity
8
0
100
AcDbCircle
10
23.49999999999995
20
5.4999999999999813
30
0
40
1.6000000000000003
210
0
220
0
230
1
0
CIRCLE
5
106
100
AcDbEntity
8
0
100
AcDbCircle
10
38.499999999999972
20
-10.500000000000021
30
0
40
1.6000000000000003
210
0
220
0
230
1
0
CIRCLE
5
107
100
AcDbEntity
8
0
100
AcDbCircle
10
38.499999999999972
20
5.4999999999999813
30
0
40
1.6000000000000003
210
0
220
0
230
1
0
CIRCLE
5
108
100
AcDbEntity
8
0
100
AcDbCircle
10
23.499999999999957
20
-10.500000000000021
30
0
40
1.6000000000000003
210
0
220
0
230
1
0
CIRCLE
5
109
100
AcDbEntity
8
0
100
AcDbCircle
10
13.000000000000005
20
23.500000002064255
30
0
40
1.375
210
0
220
0
230
1
0
CIRCLE
5
110
100
AcDbEntity
8
0
100
AcDbCircle
10
17.499999999999996
20
-12.5
30
0
40
1.375
210
0
220
0
230
1
0
CIRCLE
5
111
100
AcDbEntity
8
0
100
AcDbCircle
10
-21.000000002064297
20
-12.500000000000009
30
0
40
1.375
210
0
220
0
230
1
0
CIRCLE
5
112
100
AcDbEntity
8
0
100
AcDbCircle
10
-12.999999999999996
20
23.500000002064255
30
0
40
1.375
210
0
220
0
230
1
0
LWPOLYLINE
5
113
100
AcDbEntity
8
0
100
AcDbPolyline
90
12
70
1
43
0.0
10
-10.489228111430219
20
-8.4985936263820818
42
0.47681357679387665
10
10.48922811143022
20
-8.4985936263820765
10
15.85
20
-8.49859362638208
42
0.41421356237309509
10
18.850000000000001
20
-5.49859362638208
10
18.850000000000001
20
2.5
42
0.41421356237309509
10
16
20
5.3499999999999996
10
12.394656106564636
20
5.3499999999999996
42
0.65754143801403908
10
-12.394656106564636
20
5.3499999999999996
10
-16.000000000000004
20
5.3499999999999996
42
0.41421356237309481
10
-18.850000000000001
20
2.4999999999999991
10
-18.850000000000001
20
-5.49859362638208
42
0.41421356237309509
10
-15.850000000000001
20
-8.49859362638208
0
LINE
5
114
100
AcDbEntity
8
0
100
AcDbLine
10
20.999999999999996
20
24.000000002064258
30
0
11
20.999999999999996
21
12.449999999999978
31
0
0
ARC
5
115
100
AcDbEntity
8
0
100
AcDbCircle
10
-21.50000000206429
20
-12.999999999999988
30
0
40
3.0000000000000027
210
0
220
0
230
1
100
AcDbArc
50
180
51
270
0
LINE
5
116
100
AcDbEntity
8
0
100
AcDbLine
10
-24.500000002064294
20
-12.999999999999986
30
0
11
-24.500000002064294
21
24.000000002064255
31
0
0
ARC
5
117
100
AcDbEntity
8
0
100
AcDbCircle
10
-21.50000000206429
20
24.000000002064255
30
0
40
2.9999999999999982
210
0
220
-0
230
1
100
AcDbArc
50
90
51
180
0
ARC
5
118
100
AcDbEntity
8
0
100
AcDbCircle
10
17.999999999999993
20
24.000000002064258
30
0
40
3.0000000000000027
210
-0
220
0
230
1
100
AcDbArc
50
0
51
89.999999999999929
0
ARC
5
119
100
AcDbEntity
8
0
100
AcDbCircle
10
38.499999999999972
20
9.4499999999999797
30
0
40
2.9999999999999982
210
0
220
-0
230
1
100
AcDbArc
50
0
51
90
0
LINE
5
120
100
AcDbEntity
8
0
100
AcDbLine
10
41.499999999999972
20
9.4499999999999797
30
0
11
41.499999999999972
21
-12.999999999999972
31
0
0
ARC
5
121
100
AcDbEntity
8
0
100
AcDbCircle
10
38.499999999999972
20
-12.999999999999968
30
0
40
3.0000000000000027
210
-0
220
0
230
1
100
AcDbArc
50
270
51
360
0
CIRCLE
5
122
100
AcDbEntity
8
0
100
AcDbCircle
10
-17.80885429495742
20
24.300000000000065
30
0
40
1.375
210
0
220
0
230
1
0
CIRCLE
5
123
100
AcDbEntity
8
0
100
AcDbCircle
10
17.994502748619556
20
24.300000000000029
30
0
40
1.375
210
0
220
0
230
1
0
ENDSEC
0
SECTION
2
OBJECTS
0
DICTIONARY
5
C
100
AcDbDictionary
3
ACAD_GROUP
350
D
3
ACAD_MLINESTYLE
350
17
0
DICTIONARY
5
D
100
AcDbDictionary
0
DICTIONARY
5
1A
330
C
100
AcDbDictionary
0
DICTIONARY
5
17
100
AcDbDictionary
0
ENDSEC
0
EOF
