0
SECTION
2
HEADER
9
$INSUNITS
70
4
9
$ACADVER
1
AC1014
9
$HANDSEED
5
FFFF
0
ENDSEC
0
SECTION
2
TABLES
0
TABLE
2
VPORT
5
8
100
AcDbSymbolTable
0
ENDTAB
0
TABLE
2
LTYPE
5
5
100
AcDbSymbolTable
0
LTYPE
5
14
100
AcDbSymbolTableRecord
100
AcDbLinetypeTableRecord
2
BYBLOCK
70
0
0
LTYPE
5
15
100
AcDbSymbolTableRecord
100
AcDbLinetypeTableRecord
2
BYLAYER
70
0
0
ENDTAB
0
TABLE
2
LAYER
5
2
100
AcDbSymbolTable
70
2
0
LAYER
5
50
100
AcDbSymbolTableRecord
100
AcDbLayerTableRecord
2
0
70
0
6
CONTINUOUS
0
ENDTAB
0
TABLE
2
STYLE
5
3
100
AcDbSymbolTable
70
1
0
STYLE
5
11
100
AcDbSymbolTableRecord
100
AcDbTextStyleTableRecord
2
STANDARD
70
0
0
ENDTAB
0
TABLE
2
VIEW
5
6
100
AcDbSymbolTable
70
0
0
ENDTAB
0
TABLE
2
UCS
5
7
100
AcDbSymbolTable
70
0
0
ENDTAB
0
TABLE
2
APPID
5
9
100
AcDbSymbolTable
70
2
0
APPID
5
12
100
AcDbSymbolTableRecord
100
AcDbRegAppTableRecord
2
ACAD
70
0
0
ENDTAB
0
TABLE
2
DIMSTYLE
5
A
100
AcDbSymbolTable
70
1
0
ENDTAB
0
TABLE
2
BLOCK_RECORD
5
1
100
AcDbSymbolTable
70
1
0
BLOCK_RECORD
5
1F
100
AcDbSymbolTableRecord
100
AcDbBlockTableRecord
2
*MODEL_SPACE
0
BLOCK_RECORD
5
1B
100
AcDbSymbolTableRecord
100
AcDbBlockTableRecord
2
*PAPER_SPACE
0
ENDTAB
0
ENDSEC
0
SECTION
2
BLOCKS
0
BLOCK
5
20
100
AcDbEntity
100
AcDbBlockBegin
2
*MODEL_SPACE
0
ENDBLK
5
21
100
AcDbEntity
100
AcDbBlockEnd
0
BLOCK
5
1C
100
AcDbEntity
100
AcDbBlockBegin
2
*PAPER_SPACE
0
ENDBLK
5
1D
100
AcDbEntity
100
AcDbBlockEnd
0
ENDSEC
0
SECTION
2
ENTITIES
0
LWPOLYLINE
5
100
100
AcDbEntity
8
0
100
AcDbPolyline
90
16
70
1
43
0.0
10
18.000000000000007
20
-46.000000000000007
10
-21.498081196804364
20
-46.000000000000007
42
-0.41421356237309509
10
-24.498081196804364
20
-43.000000000000007
10
-24.498081196804367
20
-28.000000000000011
42
0.41421356237309492
10
-36.498081196804371
20
-16.000000000000011
10
-39.658081196804382
20
-16.000000000000011
42
-0.41421356237309509
10
-42.658081196804375
20
-13.000000000000011
10
-42.658081196804375
20
-11.000000000000005
42
-0.41421356237309509
10
-39.658081196804375
20
-8.0000000000000036
10
-36.498081196804371
20
-8.0000000000000089
42
0.41421356237309476
10
-24.498081196804364
20
3.9999999999999969
10
-24.498081196804364
20
23.100000000007324
42
-0.41421356237309509
10
-21.498081196804364
20
26.10000000000732
10
18.000000000000007
20
26.10000000000732
42
-0.41421356237309509
10
21.000000000000007
20
23.100000000007324
10
21.000000000000007
20
-43.000000000000007
42
-0.41421356237309509
0
CIRCLE
5
101
100
AcDbEntity
8
0
100
AcDbCircle
10
-12.999999999999996
20
22.600000000007327
30
0
40
1.6000000000000003
210
0
220
0
230
1
0
CIRCLE
5
102
100
AcDbEntity
8
0
100
AcDbCircle
10
13.000000000000005
20
22.600000000007327
30
0
40
1.6000000000000003
210
0
220
0
230
1
0
CIRCLE
5
103
100
AcDbEntity
8
0
100
AcDbCircle
10
-20.998081196804364
20
-12.500000000000009
30
0
40
1.6000000000000003
210
0
220
0
230
1
0
CIRCLE
5
104
100
AcDbEntity
8
0
100
AcDbCircle
10
17.499999999999996
20
-12.5
30
0
40
1.6000000000000003
210
0
220
0
230
1
0
CIRCLE
5
105
100
AcDbEntity
8
0
100
AcDbCircle
10
17.001918803195707
20
14.100000000007295
30
0
40
1.375
210
0
220
0
230
1
0
CIRCLE
5
106
100
AcDbEntity
8
0
100
AcDbCircle
10
17.001918803195665
20
-25.899999999992708
30
0
40
1.375
210
0
220
0
230
1
0
CIRCLE
5
107
100
AcDbEntity
8
0
100
AcDbCircle
10
-20.498081196804296
20
14.100000000007341
30
0
40
1.375
210
0
220
0
230
1
0
CIRCLE
5
108
100
AcDbEntity
8
0
100
AcDbCircle
10
-20.498081196804321
20
-6.899999999992664
30
0
40
1.375
210
0
220
0
230
1
0
CIRCLE
5
109
100
AcDbEntity
8
0
100
AcDbCircle
10
8.0917881006779417
20
-33.499999999999972
30
0
40
1.6000000000000003
210
0
220
0
230
1
0
CIRCLE
5
110
100
AcDbEntity
8
0
100
AcDbCircle
10
-7.9082118993220574
20
-33.499999999999972
30
0
40
1.6000000000000003
210
0
220
0
230
1
0
CIRCLE
5
111
100
AcDbEntity
8
0
100
AcDbCircle
10
-7.9082118993220574
20
-18.499999999999968
30
0
40
1.6000000000000003
210
0
220
0
230
1
0
CIRCLE
5
112
100
AcDbEntity
8
0
100
AcDbCircle
10
8.0917881006779364
20
-18.499999999999972
30
0
40
1.6000000000000003
210
0
220
0
230
1
0
LWPOLYLINE
5
113
100
AcDbEntity
8
0
100
AcDbPolyline
90
12
70
1
43
0.0
10
16
20
5.3499999999999996
10
12.394656106564636
20
5.3499999999999996
42
0.65754143801403908
10
-12.394656106564636
20
5.3499999999999996
10
-16
20
5.3500000000000005
42
0.41421356237309515
10
-18.850000000000001
20
2.4999999999999991
10
-18.850000000000001
20
-5.49859362638208
42
0.41421356237309509
10
-15.850000000000001
20
-8.49859362638208
10
-10.489228111430219
20
-8.4985936263820818
42
0.47681357679387665
10
10.48922811143022
20
-8.4985936263820765
10
15.85
20
-8.49859362638208
42
0.41421356237309509
10
18.850000000000001
20
-5.49859362638208
10
18.850000000000001
20
2.5
42
0.41421356237309509
0
CIRCLE
5
114
100
AcDbEntity
8
0
100
AcDbCircle
10
13.000000000000004
20
-42.000000000000014
30
0
40
1.375
210
0
220
0
230
1
0
CIRCLE
5
115
100
AcDbEntity
8
0
100
AcDbCircle
10
-12.999999999999998
20
-42.000000000000014
30
0
40
1.375
210
0
220
0
230
1
0
CIRCLE
5
116
100
AcDbEntity
8
0
100
AcDbCircle
10
-38.658081196804368
20
-12.000000000000007
30
0
40
1.599999999999997
210
0
220
0
230
1
0
CIRCLE
5
117
100
AcDbEntity
8
0
100
AcDbCircle
10
-28.498081196804371
20
-12.000000000000007
30
0
40
1.6000000000000014
210
0
220
0
230
1
0
ENDSEC
0
SECTION
2
OBJECTS
0
DICTIONARY
5
C
100
AcDbDictionary
3
ACAD_GROUP
350
D
3
ACAD_MLINESTYLE
350
17
0
DICTIONARY
5
D
100
AcDbDictionary
0
DICTIONARY
5
1A
330
C
100
AcDbDictionary
0
DICTIONARY
5
17
100
AcDbDictionary
0
ENDSEC
0
EOF
