0
SECTION
2
HEADER
9
$INSUNITS
70
4
9
$ACADVER
1
AC1014
9
$HANDSEED
5
FFFF
0
ENDSEC
0
SECTION
2
TABLES
0
TABLE
2
VPORT
5
8
100
AcDbSymbolTable
0
ENDTAB
0
TABLE
2
LTYPE
5
5
100
AcDbSymbolTable
0
LTYPE
5
14
100
AcDbSymbolTableRecord
100
AcDbLinetypeTableRecord
2
BYBLOCK
70
0
0
LTYPE
5
15
100
AcDbSymbolTableRecord
100
AcDbLinetypeTableRecord
2
BYLAYER
70
0
0
ENDTAB
0
TABLE
2
LAYER
5
2
100
AcDbSymbolTable
70
2
0
LAYER
5
50
100
AcDbSymbolTableRecord
100
AcDbLayerTableRecord
2
0
70
0
6
CONTINUOUS
0
ENDTAB
0
TABLE
2
STYLE
5
3
100
AcDbSymbolTable
70
1
0
STYLE
5
11
100
AcDbSymbolTableRecord
100
AcDbTextStyleTableRecord
2
STANDARD
70
0
0
ENDTAB
0
TABLE
2
VIEW
5
6
100
AcDbSymbolTable
70
0
0
ENDTAB
0
TABLE
2
UCS
5
7
100
AcDbSymbolTable
70
0
0
ENDTAB
0
TABLE
2
APPID
5
9
100
AcDbSymbolTable
70
2
0
APPID
5
12
100
AcDbSymbolTableRecord
100
AcDbRegAppTableRecord
2
ACAD
70
0
0
ENDTAB
0
TABLE
2
DIMSTYLE
5
A
100
AcDbSymbolTable
70
1
0
ENDTAB
0
TABLE
2
BLOCK_RECORD
5
1
100
AcDbSymbolTable
70
1
0
BLOCK_RECORD
5
1F
100
AcDbSymbolTableRecord
100
AcDbBlockTableRecord
2
*MODEL_SPACE
0
BLOCK_RECORD
5
1B
100
AcDbSymbolTableRecord
100
AcDbBlockTableRecord
2
*PAPER_SPACE
0
ENDTAB
0
ENDSEC
0
SECTION
2
BLOCKS
0
BLOCK
5
20
100
AcDbEntity
100
AcDbBlockBegin
2
*MODEL_SPACE
0
ENDBLK
5
21
100
AcDbEntity
100
AcDbBlockEnd
0
BLOCK
5
1C
100
AcDbEntity
100
AcDbBlockBegin
2
*PAPER_SPACE
0
ENDBLK
5
1D
100
AcDbEntity
100
AcDbBlockEnd
0
ENDSEC
0
SECTION
2
ENTITIES
0
LINE
5
100
100
AcDbEntity
8
0
100
AcDbLine
10
5.5119863550627288
20
11.849999761588727
30
3.4043948216044839e-16
11
-6.2372126550675846
21
11.849999761588743
31
1.994931998470025e-16
0
LINE
5
101
100
AcDbEntity
8
0
100
AcDbLine
10
-12.237212655067577
20
18.100000000007334
30
3.4477629085039041e-16
11
-21.498081194730862
21
18.100000000007345
31
-2.4719809532669501e-16
0
ARC
5
102
100
AcDbEntity
8
0
100
AcDbCircle
10
-5.6549354442232671
20
-5.5568542494850597
30
1.5178830414797062e-17
40
2.3999999999999995
210
0
220
0
230
1
100
AcDbArc
50
-196.602750702516
51
113.07428576417593
0
ARC
5
103
100
AcDbEntity
8
0
100
AcDbCircle
10
5.6587730547614958
20
-5.5568542494850686
30
-3.5561831257524545e-16
40
2.4000000000000004
210
-6.6002032704912074e-34
220
1.9566590390250967e-31
230
1
100
AcDbArc
50
-293.0742857641763
51
16.602750702516381
0
CIRCLE
5
104
100
AcDbEntity
8
0
100
AcDbCircle
10
-20.498081194730894
20
-6.8999999999926604
30
-4.1199682554449168e-17
40
1.7000000000000002
210
0
220
0
230
1
0
CIRCLE
5
105
100
AcDbEntity
8
0
100
AcDbCircle
10
17.001918805269096
20
-25.899999999992701
30
2.6454533008646308e-16
40
1.7000000000000002
210
0
220
0
230
1
0
CIRCLE
5
106
100
AcDbEntity
8
0
100
AcDbCircle
10
17.001918805269135
20
14.100000000007299
30
1.0191500421363742e-16
40
1.7000000000000002
210
0
220
0
230
1
0
CIRCLE
5
107
100
AcDbEntity
8
0
100
AcDbCircle
10
-20.498081194730865
20
14.100000000007345
30
-2.1033522146218786e-16
40
1.7000000000000002
210
0
220
0
230
1
0
CIRCLE
5
108
100
AcDbEntity
8
0
100
AcDbCircle
10
0.0019188052691187097
20
0.10000000000731647
30
-4.90059381963448e-16
40
2.1500000000000101
210
0
220
0
230
1
0
CIRCLE
5
109
100
AcDbEntity
8
0
100
AcDbCircle
10
-5.6549354442232582
20
5.7568542494997015
30
-6.7220534694101275e-17
40
2.3999999999999999
210
0
220
0
230
1
0
CIRCLE
5
110
100
AcDbEntity
8
0
100
AcDbCircle
10
5.6587730547615038
20
5.7568542494996935
30
-4.3801767768414379e-16
40
2.3999999999999999
210
0
220
0
230
1
0
LINE
5
111
100
AcDbEntity
8
0
100
AcDbLine
10
11.51198635506274
20
18.100000000007306
30
1.8214596497756474e-16
11
18.001918805269142
21
18.100000000007299
31
7.2890149519752781e-17
0
LINE
5
112
100
AcDbEntity
8
0
100
AcDbLine
10
16.001918805269149
20
-29.899999999992705
30
4.0115480381963664e-16
11
18.001918805269085
21
-29.899999999992701
31
2.5961851543757201e-16
0
LINE
5
113
100
AcDbEntity
8
0
100
AcDbLine
10
13.001918805269117
20
-18.12499999999266
30
2.4286128685609237e-16
11
13.001918805269151
21
-26.899999999992723
31
3.8494150799455112e-16
0
LINE
5
114
100
AcDbEntity
8
0
100
AcDbLine
10
-24.498081194730901
20
-12.12499999999266
30
2.1467203004246019e-16
11
-24.498081194730865
21
15.100000000007348
31
7.1542119565085194e-17
0
CIRCLE
5
115
100
AcDbEntity
8
0
100
AcDbCircle
10
-15.999999999886223
20
2.5
30
-1.951563910473908e-16
40
1.375
210
0
220
0
230
1
0
LINE
5
116
100
AcDbEntity
8
0
100
AcDbLine
10
-10.458549830345811
20
-15.124999999992681
30
-2.8189256484623115e-17
11
-8.5376125591159315
21
-15.124999999992671
31
-1.0971146996618833e-16
0
CIRCLE
5
117
100
AcDbEntity
8
0
100
AcDbCircle
10
-9.498081194730883
20
-12.124999999992681
30
-2.8189256484623115e-17
40
1.6000000000000003
210
0
220
0
230
1
0
CIRCLE
5
118
100
AcDbEntity
8
0
100
AcDbCircle
10
-9.4980811947308812
20
-2.1249999999926814
30
-6.7220534694101275e-17
40
1.6000000000000003
210
0
220
0
230
1
0
SPLINE
5
119
100
AcDbEntity
8
0
100
AcDbSpline
70
0
71
3
72
14
73
10
74
0
42
0.000000001
43
0.0000000001
44
0.0000000001
40
1.3317595390812131
40
1.3317595390812131
40
1.3317595390812131
40
1.3317595390812131
40
1.3819307594121684
40
1.3819307594121684
40
1.4415008087877768
40
1.4415008087877768
40
1.5010708581633851
40
1.5010708581633851
40
1.551242078494341
40
1.551242078494341
40
1.551242078494341
40
1.551242078494341
10
-6.5955536753836208
20
-3.3488602859043688
30
-2.2768245622195593e-16
10
-6.7251006600039611
20
-3.404048052508645
30
-2.1684043449710089e-16
10
-6.8630684390055414
20
-3.4767637160211295
30
2.1684043449710089e-18
10
-7.1574330176982066
20
-3.6754542558122449
30
1.5395670849294163e-16
10
-7.3128173042374014
20
-3.8101841247306618
30
8.6736173798840355e-18
10
-7.5773349189819506
20
-4.1064029245792524
30
2.4286128663675299e-16
10
-7.6936929868847361
20
-4.2759824460905458
30
1.9732479539236181e-16
10
-7.857939755295078
20
-4.5908656543728501
30
-8.0230960763927328e-17
10
-7.9146417813332937
20
-4.7361500513528814
30
5.6378512969246231e-17
10
-7.9548767029446648
20
-4.8710917494669852
30
-2.8189256484623115e-17
0
CIRCLE
5
120
100
AcDbEntity
8
0
100
AcDbCircle
10
9.501918805269117
20
-2.1249999999926841
30
8.8904578143811364e-17
40
1.6000000000000003
210
0
220
0
230
1
0
SPLINE
5
121
100
AcDbEntity
8
0
100
AcDbSpline
70
0
71
3
72
14
73
10
74
0
42
0.000000001
43
0.0000000001
44
0.0000000001
40
1.3317595390812142
40
1.3317595390812142
40
1.3317595390812142
40
1.3317595390812142
40
1.3819307594121684
40
1.3819307594121684
40
1.4415008087877768
40
1.4415008087877768
40
1.5010708581633851
40
1.5010708581633851
40
1.5512420784943393
40
1.5512420784943393
40
1.5512420784943393
40
1.5512420784943393
10
7.9587143134828873
20
-4.8710917494669808
30
-1.8431436932253575e-16
10
7.9184793918715179
20
-4.7361500513528796
30
8.6736173798840355e-18
10
7.8617773658333032
20
-4.5908656543728545
30
-1.1058862159352145e-16
10
7.6975305974229649
20
-4.2759824460905556
30
-2.9923979960599922e-16
10
7.5811725295201793
20
-4.106402924579263
30
2.1684043449710089e-18
10
7.3166549147756301
20
-3.8101841247306716
30
-2.688821387764051e-16
10
7.1612706282364345
20
-3.6754542558122534
30
-1.3877787807814457e-16
10
6.8669060495437728
20
-3.4767637160211406
30
-1.3660947373317356e-16
10
6.7289382705422005
20
-3.4040480525086596
30
2.3201926491189795e-16
10
6.599391285921862
20
-3.3488602859043839
30
-1.9949319973733282e-16
0
CIRCLE
5
122
100
AcDbEntity
8
0
100
AcDbCircle
10
9.5019188052691188
20
-12.124999999992685
30
1.3010426069826053e-16
40
1.6000000000000003
210
0
220
0
230
1
0
LINE
5
123
100
AcDbEntity
8
0
100
AcDbLine
10
21.001918805269142
20
15.100000000007297
30
-3.4694469629205834e-17
11
21.001918805269089
21
-26.899999999992712
31
1.0867667151109051e-16
0
CIRCLE
5
124
100
AcDbEntity
8
0
100
AcDbCircle
10
16.000000000113779
20
2.5000000000000004
30
6.5052130349130266e-17
40
1.375
210
0
220
0
230
1
0
LINE
5
125
100
AcDbEntity
8
0
100
AcDbLine
10
8.5414501696541762
20
-15.124999999992685
30
1.5178830414797062e-17
11
10.001918805280729
21
-15.124999999992676
31
-2.0301195084139644e-17
0
LINE
5
126
100
AcDbEntity
8
0
100
AcDbLine
10
-8.5376125591159173
20
-15.124999999992671
30
3.7296554733501353e-16
11
8.5414501696541461
21
-15.124999999992674
31
3.7298891725526968e-16
0
ARC
5
127
100
AcDbEntity
8
0
100
AcDbCircle
10
10.001918805269108
20
-18.124999999992678
30
2.4286128663675299e-16
40
3.0000000000000093
210
-7.3113128353333614e-26
220
7.3113129810094158e-26
230
1
100
AcDbArc
50
0
51
82.703748543131411
0
ARC
5
128
100
AcDbEntity
8
0
100
AcDbCircle
10
16.001918805269153
20
-26.899999999992701
30
4.0115480381963664e-16
40
3.0000000000000027
210
-5.4044319416951673e-18
220
-3.2000665209212877e-32
230
1
100
AcDbArc
50
180
51
269.99999999999994
0
LINE
5
129
100
AcDbEntity
8
0
100
AcDbLine
10
-21.498081194730897
20
-15.124999999992667
30
7.1557343384043293e-17
11
-10.458549830345811
21
-15.124999999992681
31
-2.8189256484623115e-17
0
ARC
5
130
100
AcDbEntity
8
0
100
AcDbCircle
10
-21.498081194730897
20
-12.124999999992667
30
2.1467203015212988e-16
40
3.0000000000000027
210
-3.6556564176666589e-26
220
3.6556528466427411e-26
230
1
100
AcDbArc
50
180
51
270
0
ARC
5
131
100
AcDbEntity
8
0
100
AcDbCircle
10
-20.498081194730865
20
14.100000000007345
30
-2.1033522146218786e-16
40
4.1231056256176588
210
-2.1684044137828449e-18
220
8.6736173626810792e-18
230
1
100
AcDbArc
50
104.03624346792644
51
165.96375653207349
0
ARC
5
132
100
AcDbEntity
8
0
100
AcDbCircle
10
-12.237212655067582
20
15.100000000007332
30
1.9949319973733282e-16
40
3.0000000000000018
210
-5.240989318204003e-33
220
-2.3603317540516312e-18
230
1
100
AcDbArc
50
0
51
89.999999999999901
0
ARC
5
133
100
AcDbEntity
8
0
100
AcDbCircle
10
-6.2372126550675766
20
14.849999761588748
30
1.9949319973733282e-16
40
3.0000000000000049
210
3.6556568555637838e-26
220
5.9163399061664055e-18
230
1
100
AcDbArc
50
180
51
269.99999999999983
0
ARC
5
134
100
AcDbEntity
8
0
100
AcDbCircle
10
5.5119863550627315
20
14.849999761588732
30
2.2768245622195593e-16
40
3.0000000000000049
210
4.1728482128390015e-32
220
3.7585675312830761e-17
230
1
100
AcDbArc
50
269.99999999999994
51
360
0
ARC
5
135
100
AcDbEntity
8
0
100
AcDbCircle
10
11.511986355062733
20
15.100000000007306
30
1.8214596497756474e-16
40
3.0000000000000004
210
-7.3113127550286004e-26
220
1.6234375521736678e-40
230
1
100
AcDbArc
50
89.999999999999858
51
180
0
ARC
5
136
100
AcDbEntity
8
0
100
AcDbCircle
10
17.001918805269135
20
14.100000000007299
30
1.0191500421363742e-16
40
4.1231056256176659
210
3.2143405597178423e-17
220
8.0358514541293811e-18
230
1
100
AcDbArc
50
14.036243467926406
51
75.963756532073432
0
ARC
5
137
100
AcDbEntity
8
0
100
AcDbCircle
10
17.001918805269096
20
-25.899999999992701
30
2.6454533008646308e-16
40
4.123105625617657
210
-6.8763056346131244e-18
220
-2.9507800708760326e-18
230
1
100
AcDbArc
50
284.03624346792634
51
345.96375653207338
0
SPLINE
5
138
100
AcDbEntity
8
0
100
AcDbSpline
70
0
71
3
72
8
73
4
74
0
42
0.000000001
43
0.0000000001
44
0.0000000001
40
0.39844055292057579
40
0.39844055292057579
40
0.39844055292057579
40
0.39844055292057579
40
0.43670170415356124
40
0.43670170415356124
40
0.43670170415356124
40
0.43670170415356124
10
10.001918805269113
20
-15.124999999992673
30
-2.7105054312137611e-16
10
10.130530252816088
20
-15.124999999992673
30
-1.8214596497756474e-16
10
10.25887780982228
20
-15.133410980270048
30
-1.4311468676808659e-16
10
10.382917947546604
20
-15.14929173916067
30
-7.3725747729014302e-17
0
LINE
5
139
100
AcDbEntity
8
0
100
AcDbLine
10
-9.2372126550675819
20
14.84999976158875
30
1.994931998470025e-16
11
-9.2372126550675802
21
15.100000000007325
31
1.9949319973733282e-16
0
LINE
5
140
100
AcDbEntity
8
0
100
AcDbLine
10
8.5119863550627315
20
15.100000000007313
30
1.8214596497756474e-16
11
8.511986355062735
21
14.849999761588721
31
2.2768245622195593e-16
0
ENDSEC
0
SECTION
2
OBJECTS
0
DICTIONARY
5
C
100
AcDbDictionary
3
ACAD_GROUP
350
D
3
ACAD_MLINESTYLE
350
17
0
DICTIONARY
5
D
100
AcDbDictionary
0
DICTIONARY
5
1A
330
C
100
AcDbDictionary
0
DICTIONARY
5
17
100
AcDbDictionary
0
ENDSEC
0
EOF
