0
SECTION
2
HEADER
9
$INSUNITS
70
4
9
$ACADVER
1
AC1014
9
$HANDSEED
5
FFFF
0
ENDSEC
0
SECTION
2
TABLES
0
TABLE
2
VPORT
5
8
100
AcDbSymbolTable
0
ENDTAB
0
TABLE
2
LTYPE
5
5
100
AcDbSymbolTable
0
LTYPE
5
14
100
AcDbSymbolTableRecord
100
AcDbLinetypeTableRecord
2
BYBLOCK
70
0
0
LTYPE
5
15
100
AcDbSymbolTableRecord
100
AcDbLinetypeTableRecord
2
BYLAYER
70
0
0
ENDTAB
0
TABLE
2
LAYER
5
2
100
AcDbSymbolTable
70
2
0
LAYER
5
50
100
AcDbSymbolTableRecord
100
AcDbLayerTableRecord
2
0
70
0
6
CONTINUOUS
0
ENDTAB
0
TABLE
2
STYLE
5
3
100
AcDbSymbolTable
70
1
0
STYLE
5
11
100
AcDbSymbolTableRecord
100
AcDbTextStyleTableRecord
2
STANDARD
70
0
0
ENDTAB
0
TABLE
2
VIEW
5
6
100
AcDbSymbolTable
70
0
0
ENDTAB
0
TABLE
2
UCS
5
7
100
AcDbSymbolTable
70
0
0
ENDTAB
0
TABLE
2
APPID
5
9
100
AcDbSymbolTable
70
2
0
APPID
5
12
100
AcDbSymbolTableRecord
100
AcDbRegAppTableRecord
2
ACAD
70
0
0
ENDTAB
0
TABLE
2
DIMSTYLE
5
A
100
AcDbSymbolTable
70
1
0
ENDTAB
0
TABLE
2
BLOCK_RECORD
5
1
100
AcDbSymbolTable
70
1
0
BLOCK_RECORD
5
1F
100
AcDbSymbolTableRecord
100
AcDbBlockTableRecord
2
*MODEL_SPACE
0
BLOCK_RECORD
5
1B
100
AcDbSymbolTableRecord
100
AcDbBlockTableRecord
2
*PAPER_SPACE
0
ENDTAB
0
ENDSEC
0
SECTION
2
BLOCKS
0
BLOCK
5
20
100
AcDbEntity
100
AcDbBlockBegin
2
*MODEL_SPACE
0
ENDBLK
5
21
100
AcDbEntity
100
AcDbBlockEnd
0
BLOCK
5
1C
100
AcDbEntity
100
AcDbBlockBegin
2
*PAPER_SPACE
0
ENDBLK
5
1D
100
AcDbEntity
100
AcDbBlockEnd
0
ENDSEC
0
SECTION
2
ENTITIES
0
LINE
5
100
100
AcDbEntity
8
0
100
AcDbLine
10
-21.498081194730897
20
-15.124999999992665
30
1.6696713456276768e-16
11
-10.458549830345854
21
-15.124999999992667
31
1.6732557363567799e-16
0
LINE
5
101
100
AcDbEntity
8
0
100
AcDbLine
10
-10.458549830345854
20
-15.124999999992664
30
-4.3368086899420177e-17
11
-9.3540614300271727
21
-15.124999999992667
31
-2.0994897787620932e-16
0
LINE
5
102
100
AcDbEntity
8
0
100
AcDbLine
10
13.001918805269144
20
-24.900680269280674
30
2.2985086056692694e-16
11
13.001918805269151
21
-26.899999999992716
31
4.8132460834399682e-16
0
ARC
5
103
100
AcDbEntity
8
0
100
AcDbCircle
10
16.001918805269153
20
-26.899999999992701
30
1.4311468676808659e-16
40
3.0000000000000027
210
1.1273664052530331e-16
220
-3.6556063123886649e-26
230
1
100
AcDbArc
50
180
51
269.99999999999994
0
LINE
5
104
100
AcDbEntity
8
0
100
AcDbLine
10
16.001918805269149
20
-29.899999999992705
30
1.431146866584169e-16
11
18.001918805269085
21
-29.899999999992701
31
4.6561692820981785e-16
0
ARC
5
105
100
AcDbEntity
8
0
100
AcDbCircle
10
-21.498081194730897
20
-12.124999999992665
30
-1.5178830414797062e-16
40
2.9999999999999982
210
-7.3113128353333442e-26
220
1.6234375700049038e-40
230
1
100
AcDbArc
50
180
51
270
0
LINE
5
106
100
AcDbEntity
8
0
100
AcDbLine
10
-24.498081194730897
20
-12.124999999992658
30
-1.5178830436730999e-16
11
-24.498081194730865
21
15.10000000000735
31
1.6960336801380564e-16
0
ARC
5
107
100
AcDbEntity
8
0
100
AcDbCircle
10
-21.498081194730865
20
15.100000000007345
30
2.1033522146218786e-16
40
3.0000000000000004
210
-3.8265962684556663e-19
220
-3.6556563610216662e-26
230
1
100
AcDbArc
50
89.999999999999929
51
180
0
LINE
5
108
100
AcDbEntity
8
0
100
AcDbLine
10
-5.2965707596751148
20
18.100000000007327
30
8.4567769453869346e-17
11
-21.498081194730862
21
18.100000000007345
31
2.1033522157185755e-16
0
LINE
5
109
100
AcDbEntity
8
0
100
AcDbLine
10
6.000159086656689
20
18.100000000007313
30
-1.8648277366750676e-16
11
18.001918805269142
21
18.100000000007302
31
6.4216532139868746e-17
0
ARC
5
110
100
AcDbEntity
8
0
100
AcDbCircle
10
18.001918805269138
20
15.100000000007302
30
4.2283884726934673e-16
40
3.0000000000000027
210
5.4114585072455549e-41
220
3.6556563775143008e-26
230
1
100
AcDbArc
50
0
51
89.999999999999929
0
LINE
5
111
100
AcDbEntity
8
0
100
AcDbLine
10
21.001918805269142
20
15.100000000007299
30
4.2283884726934673e-16
11
21.001918805269089
21
-26.899999999992712
31
1.0310482482031598e-16
0
ARC
5
112
100
AcDbEntity
8
0
100
AcDbCircle
10
18.001918805269092
20
-26.899999999992708
30
4.1199682554449168e-17
40
2.9999999999999938
210
-7.3112918129042366e-26
220
1.4147241521845651e-16
230
1
100
AcDbArc
50
269.99999999999983
51
360
0
ARC
5
113
100
AcDbEntity
8
0
100
AcDbCircle
10
-5.6549354442232671
20
-5.5568542494850597
30
-6.5052130349130266e-18
40
2.3999999999999995
210
0
220
0
230
1
100
AcDbArc
50
-196.602750702516
51
113.07428576417593
0
ARC
5
114
100
AcDbEntity
8
0
100
AcDbCircle
10
5.6587730547614958
20
-5.5568542494850686
30
1.7780915628762273e-16
40
2.4000000000000004
210
-6.6002032704912074e-34
220
1.9566590390250967e-31
230
1
100
AcDbArc
50
-293.0742857641763
51
16.602750702516381
0
CIRCLE
5
115
100
AcDbEntity
8
0
100
AcDbCircle
10
-20.498081194730894
20
-6.8999999999926604
30
-2.5153490401663703e-16
40
1.7000000000000002
210
0
220
0
230
1
0
CIRCLE
5
116
100
AcDbEntity
8
0
100
AcDbCircle
10
-21.498081194730865
20
15.100000000007345
30
2.1033522146218786e-16
40
1.7000000000000002
210
0
220
0
230
1
0
CIRCLE
5
117
100
AcDbEntity
8
0
100
AcDbCircle
10
-5.6549354442232582
20
5.7568542494997015
30
-3.0357660829594124e-16
40
2.3999999999999999
210
0
220
0
230
1
0
CIRCLE
5
118
100
AcDbEntity
8
0
100
AcDbCircle
10
0.0019188052691187097
20
0.10000000000731658
30
-3.4043948216044839e-16
40
2.1500000000000101
210
0
220
0
230
1
0
CIRCLE
5
119
100
AcDbEntity
8
0
100
AcDbCircle
10
5.6587730547615038
20
5.7568542494996935
30
-1.1926223897340549e-16
40
2.3999999999999999
210
0
220
0
230
1
0
CIRCLE
5
120
100
AcDbEntity
8
0
100
AcDbCircle
10
-15.999999999886223
20
2.5
30
2.3852447794681098e-17
40
1.375
210
0
220
0
230
1
0
CIRCLE
5
121
100
AcDbEntity
8
0
100
AcDbCircle
10
-15.849999997821975
20
-5.4985936263820765
30
-1.1275702593849246e-16
40
1.375
210
0
220
0
230
1
0
ARC
5
122
100
AcDbEntity
8
0
100
AcDbCircle
10
-9.3540614300356069
20
-16.124999999992664
30
-1.5395670849294158e-16
40
0.99999999999999201
210
7.3113169439839469e-26
220
2.8105827913652897e-32
230
1
100
AcDbArc
50
0
51
64.524196164940747
0
SPLINE
5
123
100
AcDbEntity
8
0
100
AcDbSpline
70
0
71
3
72
10
73
6
74
0
42
0.000000001
43
0.0000000001
44
0.0000000001
40
0.15831996895002967
40
0.15831996895002967
40
0.15831996895002967
40
0.15831996895002967
40
0.18547869866590863
40
0.18547869866590863
40
0.20358952380288434
40
0.20358952380288434
40
0.20358952380288434
40
0.20358952380288434
10
-9.3540614300356406
20
-15.124999999992673
30
-2.1033522146218786e-16
10
-9.2629275366983617
20
-15.124999999992671
30
1.9949319973733282e-16
10
-9.1699561515220331
20
-15.138081905177083
30
9.9746599868666408e-17
10
-9.0272750765374639
20
-15.178044569245694
30
-6.9388939039072284e-17
10
-8.9732371511542386
20
-15.198740971892306
30
4.3368086899420177e-17
10
-8.9239315366569532
20
-15.222232989728079
30
-1.6696713456276768e-16
0
LINE
5
124
100
AcDbEntity
8
0
100
AcDbLine
10
-8.3540614300356157
20
-16.124999999992667
30
-1.5395670856605474e-16
11
-8.354061430035614
21
-22.900680269280681
31
-1.9506136903521563e-16
0
ARC
5
125
100
AcDbEntity
8
0
100
AcDbCircle
10
-7.354061430035614
20
-22.900680269280681
30
-1.7347234759768071e-16
40
0.99999999999999978
210
-2.158902143753492e-17
220
-1.5023299511697691e-58
230
1
100
AcDbArc
50
180
51
269.99999999999989
0
CIRCLE
5
126
100
AcDbEntity
8
0
100
AcDbCircle
10
-0.0012356665638829432
20
-19.400680268994797
30
-5.4210108624275222e-17
40
1.375
210
0
220
-0
230
1
0
LINE
5
127
100
AcDbEntity
8
0
100
AcDbLine
10
-7.3540614300356157
20
-23.900680269280681
30
-1.7347234759768071e-16
11
12.001918805269142
21
-23.900680269280677
31
-1.1519873075785099e-16
0
CIRCLE
5
128
100
AcDbEntity
8
0
100
AcDbCircle
10
17.001918805269096
20
-25.899999999992701
30
-2.1684043449710089e-16
40
1.7000000000000002
210
0
220
0
230
1
0
CIRCLE
5
129
100
AcDbEntity
8
0
100
AcDbCircle
10
17.001918805269135
20
14.1000000000073
30
-2.7755575615628914e-16
40
1.7000000000000002
210
0
220
0
230
1
0
CIRCLE
5
130
100
AcDbEntity
8
0
100
AcDbCircle
10
16.000000000113779
20
2.5000000000000004
30
1.3444106938820255e-16
40
1.375
210
0
220
0
230
1
0
CIRCLE
5
131
100
AcDbEntity
8
0
100
AcDbCircle
10
15.850000002178026
20
-5.4985936263820765
30
1.3010426069826053e-16
40
1.375
210
0
220
0
230
1
0
CIRCLE
5
132
100
AcDbEntity
8
0
100
AcDbCircle
10
-9.498081194730883
20
-12.124999999992681
30
7.8062556418956319e-17
40
1.6000000000000003
210
0
220
0
230
1
0
CIRCLE
5
133
100
AcDbEntity
8
0
100
AcDbCircle
10
-9.4980811947308812
20
-2.1249999999926814
30
6.2883726004159257e-17
40
1.6000000000000003
210
0
220
0
230
1
0
SPLINE
5
134
100
AcDbEntity
8
0
100
AcDbSpline
70
0
71
3
72
14
73
10
74
0
42
0.000000001
43
0.0000000001
44
0.0000000001
40
1.3317595390812131
40
1.3317595390812131
40
1.3317595390812131
40
1.3317595390812131
40
1.3819307594121684
40
1.3819307594121684
40
1.4415008087877768
40
1.4415008087877768
40
1.5010708581633851
40
1.5010708581633851
40
1.551242078494341
40
1.551242078494341
40
1.551242078494341
40
1.551242078494341
10
-6.5955536753836208
20
-3.3488602859043688
30
2.2551405187698492e-16
10
-6.7251006600039611
20
-3.404048052508645
30
2.3635607360183997e-16
10
-6.8630684390055414
20
-3.4767637160211291
30
-1.0191500421363742e-16
10
-7.1574330176982066
20
-3.6754542558122449
30
4.3368086899420177e-17
10
-7.3128173042374014
20
-3.8101841247306618
30
-1.0625181290357943e-16
10
-7.5773349189819506
20
-4.1064029245792524
30
1.1709383462843448e-16
10
-7.6936929868847361
20
-4.2759824460905458
30
6.7220534694101275e-17
10
-7.857939755295078
20
-4.5908656543728492
30
-2.211772431870429e-16
10
-7.9146417813332937
20
-4.7361500513528814
30
-8.6736173798840355e-17
10
-7.9548767029446648
20
-4.8710917494669852
30
-1.7564075194265172e-16
0
CIRCLE
5
135
100
AcDbEntity
8
0
100
AcDbCircle
10
9.501918805269117
20
-2.1249999999926841
30
-5.8546917314217239e-17
40
1.6000000000000003
210
0
220
0
230
1
0
SPLINE
5
136
100
AcDbEntity
8
0
100
AcDbSpline
70
0
71
3
72
14
73
10
74
0
42
0.000000001
43
0.0000000001
44
0.0000000001
40
1.3317595390812142
40
1.3317595390812142
40
1.3317595390812142
40
1.3317595390812142
40
1.3819307594121684
40
1.3819307594121684
40
1.4415008087877768
40
1.4415008087877768
40
1.5010708581633851
40
1.5010708581633851
40
1.5512420784943393
40
1.5512420784943393
40
1.5512420784943393
40
1.5512420784943393
10
7.9587143134828873
20
-4.8710917494669808
30
2.2334564753201391e-16
10
7.9184793918715179
20
-4.7361500513528796
30
-1.3444106938820255e-16
10
7.8617773658333032
20
-4.5908656543728545
30
-2.4936649967166602e-16
10
7.6975305974229649
20
-4.2759824460905556
30
1.2576745200831851e-16
10
7.5811725295201793
20
-4.106402924579263
30
-1.2359904766334751e-16
10
7.3166549147756301
20
-3.8101841247306716
30
1.713039432527097e-16
10
7.1612706282364345
20
-3.6754542558122534
30
-2.5153490401663703e-16
10
6.8669060495437728
20
-3.4767637160211402
30
-2.4069288229178198e-16
10
6.7289382705422005
20
-3.4040480525086596
30
1.2793585635328952e-16
10
6.599391285921862
20
-3.3488602859043839
30
-3.0140820395097023e-16
0
CIRCLE
5
137
100
AcDbEntity
8
0
100
AcDbCircle
10
9.5019188052691188
20
-12.124999999992685
30
-4.3368086899420177e-17
40
1.6000000000000003
210
0
220
0
230
1
0
ARC
5
138
100
AcDbEntity
8
0
100
AcDbCircle
10
12.001918805269137
20
-24.900680269280681
30
-2.3852447794681094e-17
40
1.0000000000000075
210
-2.5370330836160616e-16
220
-2.2494432983207545e-30
230
1
100
AcDbArc
50
0
51
89.999999999999702
0
ARC
5
139
100
AcDbEntity
8
0
100
AcDbCircle
10
6.0001590866566872
20
19.10000000000732
30
-1.951563910473908e-17
40
1.0000000000000004
210
0
220
0
230
1
100
AcDbArc
50
221.28147425884092
51
270.00000000000011
0
ARC
5
140
100
AcDbEntity
8
0
100
AcDbCircle
10
-5.2965707596751086
20
19.100000000007324
30
1.951563910473908e-16
40
0.99999999999999645
210
-6.1389016977343581e-31
220
-1.1058862159352185e-16
230
1
100
AcDbArc
50
269.9999999999996
51
342.02794740147846
0
LINE
5
141
100
AcDbEntity
8
0
100
AcDbLine
10
-4.2816836453356437
20
18.987759540171222
30
5.2041704279304213e-17
11
-4.3453636260164217
21
18.791446943181086
31
1.951563910473908e-16
0
LINE
5
142
100
AcDbEntity
8
0
100
AcDbLine
10
5.2486815906697428
20
18.44024127666583
30
-1.951563910473908e-17
11
3.3804131273296916
21
20.568233915477037
31
5.7080197875165776e-17
0
ARC
5
143
100
AcDbEntity
8
0
100
AcDbCircle
10
-0.0012356665639140295
20
17.599319731005224
30
5.6378512969246231e-17
40
4.5
210
-1.1717787238499645e-19
220
-1.0287616149206449e-19
230
1
100
AcDbArc
50
41.28147306324945
51
162.02860257618735
0
CIRCLE
5
144
100
AcDbEntity
8
0
100
AcDbCircle
10
-0.0012356665639140295
20
17.599319731005224
30
5.6378512969246231e-17
40
1.3749999999999998
210
0
220
-0
230
1
0
LWPOLYLINE
5
145
100
AcDbEntity
8
0
100
AcDbPolyline
90
12
70
1
43
0.0
10
-8.2372126550675802
20
15.100000000007327
10
-2.8305043742424125
20
15.10000000000732
42
-0.17163476453643409
10
-2.2017779947583005
20
14.877626606895744
42
0.35368866388911618
10
2.1993066616304668
20
14.87762660689574
42
-0.1716347645364287
10
2.828033041114578
20
15.100000000007316
10
7.511986355062735
20
15.100000000007313
42
-0.41421356237309537
10
8.5119863550627333
20
14.100000000007309
10
8.5119863550627315
20
12.849999761588723
42
-0.41421356237309337
10
7.5119863550627306
20
11.849999761588727
10
-8.2372126550675837
20
11.84999976158875
42
-0.41421356237309437
10
-9.2372126550675819
20
12.849999761588753
10
-9.2372126550675802
20
14.100000000007331
42
-0.41421356237309437
0
ENDSEC
0
SECTION
2
OBJECTS
0
DICTIONARY
5
C
100
AcDbDictionary
3
ACAD_GROUP
350
D
3
ACAD_MLINESTYLE
350
17
0
DICTIONARY
5
D
100
AcDbDictionary
0
DICTIONARY
5
1A
330
C
100
AcDbDictionary
0
DICTIONARY
5
17
100
AcDbDictionary
0
ENDSEC
0
EOF
