0
SECTION
2
HEADER
9
$INSUNITS
70
4
9
$ACADVER
1
AC1014
9
$HANDSEED
5
FFFF
0
ENDSEC
0
SECTION
2
TABLES
0
TABLE
2
VPORT
5
8
100
AcDbSymbolTable
0
ENDTAB
0
TABLE
2
LTYPE
5
5
100
AcDbSymbolTable
0
LTYPE
5
14
100
AcDbSymbolTableRecord
100
AcDbLinetypeTableRecord
2
BYBLOCK
70
0
0
LTYPE
5
15
100
AcDbSymbolTableRecord
100
AcDbLinetypeTableRecord
2
BYLAYER
70
0
0
LTYPE
5
16
100
AcDbSymbolTableRecord
100
AcDbLinetypeTableRecord
2
DASHED
70
0
3
Dashed __ __ __ __ __ __ __ __ __ __ __ __ __ _
72
65
73
2
40
0.75
49
0.5
74
0
49
-0.25
74
0
0
ENDTAB
0
TABLE
2
LAYER
5
2
100
AcDbSymbolTable
70
3
0
LAYER
5
50
100
AcDbSymbolTableRecord
100
AcDbLayerTableRecord
2
1
70
0
62
7
6
DASHED
0
LAYER
5
51
100
AcDbSymbolTableRecord
100
AcDbLayerTableRecord
2
0
70
0
62
7
6
CONTINUOUS
0
ENDTAB
0
TABLE
2
STYLE
5
3
100
AcDbSymbolTable
70
1
0
STYLE
5
11
100
AcDbSymbolTableRecord
100
AcDbTextStyleTableRecord
2
STANDARD
70
0
0
ENDTAB
0
TABLE
2
VIEW
5
6
100
AcDbSymbolTable
70
0
0
ENDTAB
0
TABLE
2
UCS
5
7
100
AcDbSymbolTable
70
0
0
ENDTAB
0
TABLE
2
APPID
5
9
100
AcDbSymbolTable
70
2
0
APPID
5
12
100
AcDbSymbolTableRecord
100
AcDbRegAppTableRecord
2
ACAD
70
0
0
ENDTAB
0
TABLE
2
DIMSTYLE
5
A
100
AcDbSymbolTable
70
1
0
ENDTAB
0
TABLE
2
BLOCK_RECORD
5
1
100
AcDbSymbolTable
70
1
0
BLOCK_RECORD
5
1F
100
AcDbSymbolTableRecord
100
AcDbBlockTableRecord
2
*MODEL_SPACE
0
BLOCK_RECORD
5
1B
100
AcDbSymbolTableRecord
100
AcDbBlockTableRecord
2
*PAPER_SPACE
0
ENDTAB
0
ENDSEC
0
SECTION
2
BLOCKS
0
BLOCK
5
20
100
AcDbEntity
100
AcDbBlockBegin
2
*MODEL_SPACE
0
ENDBLK
5
21
100
AcDbEntity
100
AcDbBlockEnd
0
BLOCK
5
1C
100
AcDbEntity
100
AcDbBlockBegin
2
*PAPER_SPACE
0
ENDBLK
5
1D
100
AcDbEntity
100
AcDbBlockEnd
0
ENDSEC
0
SECTION
2
ENTITIES
0
LWPOLYLINE
5
100
100
AcDbEntity
8
0
100
AcDbPolyline
90
28
70
1
43
0.0
10
15.806854249492403
20
36.519784474195355
42
0.41421356237309481
10
12.8068542494924
20
39.519784474195355
10
11.806854249492385
20
39.519784474195355
42
0.41421356237309481
10
8.8068542494923872
20
36.519784474195347
10
8.8068542494923889
20
30.176638723687724
42
-0.77291289171520638
10
2.9070532724316083
20
28.640053357834077
42
0.27171083362601489
10
0.28819519904039193
20
30.176638723687748
10
-0.28819519904038166
20
30.176638723687748
42
0.271710833626014
10
-2.9070532724315923
20
28.640053357834088
42
-0.77291289171520439
10
-8.8068542494923658
20
30.176638723687748
10
-8.8068542494923658
20
36.519784474195347
42
0.41421356237309509
10
-11.806854249492368
20
39.519784474195355
10
-12.806854249492361
20
39.519784474195355
42
0.4142135623730952
10
-15.806854249492364
20
36.519784474195355
10
-15.806854249492375
20
21.269784474195482
10
-20.999999999999993
20
21.2697844741955
42
0.41421356237309637
10
-24.000000000000004
20
18.2697844741955
10
-24.000000000000007
20
17.269784474195507
42
0.41421356237309453
10
-21.000000000000011
20
14.269784474195507
10
-15.976545823075908
20
14.269784474195504
42
-0.3885385402324541
10
-12.988272910505836
20
11.534784474195458
42
0.3885385402324541
10
-9.999999997935765
20
8.7997844741954125
10
5.8068542494923978
20
8.7997844741953894
42
-0.4142135623730947
10
8.8068542494923943
20
5.7997844741953877
10
8.8068542494923907
20
1.3697844741952752
42
0.41421356237309909
10
11.806854249492432
20
-1.6302155258047271
10
12.806854249492476
20
-1.6302155258047135
42
0.4142135623730917
10
15.806854249492439
20
1.3697844741952903
0
CIRCLE
5
101
100
AcDbEntity
8
0
100
AcDbCircle
10
12.306854249492394
20
1.8697844741953362
30
0
40
1.5999999999999992
210
-0
220
0
230
1
0
CIRCLE
5
102
100
AcDbEntity
8
0
100
AcDbCircle
10
2.129259279917001e-09
20
24.519784474195351
30
0
40
2.0000000000000009
210
-0
220
0
230
1
0
CIRCLE
5
103
100
AcDbEntity
8
0
100
AcDbCircle
10
12.306854249492387
20
36.71978447419535
30
0
40
1.6000000000000014
210
-0
220
0
230
1
0
CIRCLE
5
104
100
AcDbEntity
8
0
100
AcDbCircle
10
-20.500000000000004
20
17.769784474195511
30
0
40
1.6000000000000014
210
-0
220
0
230
1
0
CIRCLE
5
105
100
AcDbEntity
8
0
100
AcDbCircle
10
-12.30685424949235
20
36.719784474195258
30
0
40
1.5999999999999992
210
-0
220
0
230
1
0
CIRCLE
5
106
100
AcDbEntity
8
0
100
AcDbCircle
10
9.5000000020642421
20
12.299784474195391
30
0
40
1.6000000000000003
210
0
220
0
230
1
0
CIRCLE
5
107
100
AcDbEntity
8
0
100
AcDbCircle
10
9.5000000020642421
20
22.299784474195388
30
0
40
1.6000000000000003
210
0
220
0
230
1
0
CIRCLE
5
108
100
AcDbEntity
8
0
100
AcDbCircle
10
-9.4999999979357632
20
22.299784474195391
30
0
40
1.6000000000000003
210
0
220
0
230
1
0
CIRCLE
5
109
100
AcDbEntity
8
0
100
AcDbCircle
10
-9.4999999979357632
20
12.299784474195391
30
0
40
1.6000000000000003
210
0
220
0
230
1
0
ENDSEC
0
SECTION
2
OBJECTS
0
DICTIONARY
5
C
100
AcDbDictionary
3
ACAD_GROUP
350
D
3
ACAD_MLINESTYLE
350
17
0
DICTIONARY
5
D
100
AcDbDictionary
0
DICTIONARY
5
1A
330
C
100
AcDbDictionary
0
DICTIONARY
5
17
100
AcDbDictionary
0
ENDSEC
0
EOF
