0
SECTION
2
HEADER
9
$INSUNITS
70
4
9
$ACADVER
1
AC1014
9
$HANDSEED
5
FFFF
0
ENDSEC
0
SECTION
2
TABLES
0
TABLE
2
VPORT
5
8
100
AcDbSymbolTable
0
ENDTAB
0
TABLE
2
LTYPE
5
5
100
AcDbSymbolTable
0
LTYPE
5
14
100
AcDbSymbolTableRecord
100
AcDbLinetypeTableRecord
2
BYBLOCK
70
0
0
LTYPE
5
15
100
AcDbSymbolTableRecord
100
AcDbLinetypeTableRecord
2
BYLAYER
70
0
0
LTYPE
5
16
100
AcDbSymbolTableRecord
100
AcDbLinetypeTableRecord
2
DASHED
70
0
3
Dashed __ __ __ __ __ __ __ __ __ __ __ __ __ _
72
65
73
2
40
0.75
49
0.5
74
0
49
-0.25
74
0
0
ENDTAB
0
TABLE
2
LAYER
5
2
100
AcDbSymbolTable
70
3
0
LAYER
5
50
100
AcDbSymbolTableRecord
100
AcDbLayerTableRecord
2
1
70
0
62
7
6
DASHED
0
LAYER
5
51
100
AcDbSymbolTableRecord
100
AcDbLayerTableRecord
2
0
70
0
62
7
6
CONTINUOUS
0
ENDTAB
0
TABLE
2
STYLE
5
3
100
AcDbSymbolTable
70
1
0
STYLE
5
11
100
AcDbSymbolTableRecord
100
AcDbTextStyleTableRecord
2
STANDARD
70
0
0
ENDTAB
0
TABLE
2
VIEW
5
6
100
AcDbSymbolTable
70
0
0
ENDTAB
0
TABLE
2
UCS
5
7
100
AcDbSymbolTable
70
0
0
ENDTAB
0
TABLE
2
APPID
5
9
100
AcDbSymbolTable
70
2
0
APPID
5
12
100
AcDbSymbolTableRecord
100
AcDbRegAppTableRecord
2
ACAD
70
0
0
ENDTAB
0
TABLE
2
DIMSTYLE
5
A
100
AcDbSymbolTable
70
1
0
ENDTAB
0
TABLE
2
BLOCK_RECORD
5
1
100
AcDbSymbolTable
70
1
0
BLOCK_RECORD
5
1F
100
AcDbSymbolTableRecord
100
AcDbBlockTableRecord
2
*MODEL_SPACE
0
BLOCK_RECORD
5
1B
100
AcDbSymbolTableRecord
100
AcDbBlockTableRecord
2
*PAPER_SPACE
0
ENDTAB
0
ENDSEC
0
SECTION
2
BLOCKS
0
BLOCK
5
20
100
AcDbEntity
100
AcDbBlockBegin
2
*MODEL_SPACE
0
ENDBLK
5
21
100
AcDbEntity
100
AcDbBlockEnd
0
BLOCK
5
1C
100
AcDbEntity
100
AcDbBlockBegin
2
*PAPER_SPACE
0
ENDBLK
5
1D
100
AcDbEntity
100
AcDbBlockEnd
0
ENDSEC
0
SECTION
2
ENTITIES
0
CIRCLE
5
100
100
AcDbEntity
8
0
100
AcDbCircle
10
8.5000000020642634
20
12.299784474195388
30
0
40
1.6000000000000003
210
0
220
0
230
1
0
CIRCLE
5
101
100
AcDbEntity
8
0
100
AcDbCircle
10
8.5000000020642634
20
22.299784474195388
30
0
40
1.6000000000000003
210
0
220
0
230
1
0
CIRCLE
5
102
100
AcDbEntity
8
0
100
AcDbCircle
10
-10.499999997935742
20
22.299784474195391
30
0
40
1.6000000000000003
210
0
220
0
230
1
0
CIRCLE
5
103
100
AcDbEntity
8
0
100
AcDbCircle
10
-10.499999997935742
20
12.299784474195388
30
0
40
1.6000000000000003
210
0
220
0
230
1
0
LWPOLYLINE
5
104
100
AcDbEntity
8
0
100
AcDbPolyline
90
35
70
1
43
0.0
10
-21.466252699611434
20
0.79978447419537857
42
0.41421356237309531
10
-18.466252699611431
20
3.7997844741953775
10
-18.466252699611424
20
5.7997844741953859
42
-0.41421356237309437
10
-15.466252699611429
20
8.7997844741953841
10
8.5000000000000249
20
8.7997844741953894
42
-0.41421356237309692
10
11.500000000000028
20
5.7997844741953708
10
11.499999999999993
20
-0.43021552580460837
42
0.41421356237309614
10
14.499999999999986
20
-3.430215525804627
10
15.99999999999998
20
-3.4302155258046301
42
0.41421356237309509
10
18.999999999999989
20
-0.43021552580463585
10
19.00000000000005
20
29.469784474195375
42
-0.3659773818630444
10
21.50000000000005
20
32.427824365745174
42
0.36597738186304407
10
24.000000000000053
20
35.385864257294983
10
24.00000000000005
20
36.519784474195362
42
0.41421356237309509
10
21.00000000000005
20
39.519784474195362
10
14.500000000000224
20
39.519784474195355
42
0.41421356237309509
10
11.500000000000226
20
36.519784474195362
10
11.500000000000224
20
31.5197844741955
42
-0.41421356237309453
10
8.5000000000002203
20
28.519784474195504
10
-8.466121401258512
20
28.519784474195504
42
-0.41421356237309509
10
-11.466121401258512
20
31.5197844741955
10
-11.466121401258514
20
36.519784474195362
42
0.41421356237309509
10
-14.466121401258514
20
39.519784474195355
10
-15.46612140125851
20
39.519784474195355
42
0.41421356237309509
10
-18.466121401258508
20
36.519784474195362
10
-18.466121401258512
20
24.269784474195511
42
-0.41421356237309548
10
-21.466121401258519
20
21.269784474195511
10
-22.466252699611417
20
21.269784474195511
42
0.41421356237309453
10
-25.466252699611417
20
18.269784474195511
10
-25.46625269961142
20
17.269784474195564
42
-0.32930484477901145
10
-27.584524992209779
20
14.402284474195524
42
0.73871745164719249
10
-27.584524992209786
20
8.6672844741954371
42
-0.32930484477901295
10
-25.466252699611431
20
5.7997844741953939
10
-25.466252699611434
20
3.7997844741953823
42
0.41421356237309476
10
-22.466252699611434
20
0.79978447419538023
0
CIRCLE
5
105
100
AcDbEntity
8
0
100
AcDbCircle
10
-0.99999999403475259
20
24.519784474195504
30
0
40
2.0000000000000009
210
-0
220
0
230
1
0
CIRCLE
5
106
100
AcDbEntity
8
0
100
AcDbCircle
10
20.500000000000057
20
35.994784474195363
30
0
40
1.6000000000000014
210
-0
220
0
230
1
0
CIRCLE
5
107
100
AcDbEntity
8
0
100
AcDbCircle
10
15.249999999999989
20
7.1997844741953889
30
0
40
1.6000000000000014
210
-0
220
0
230
1
0
CIRCLE
5
108
100
AcDbEntity
8
0
100
AcDbCircle
10
-21.966252699611417
20
4.7807498132184723
30
0
40
1.6000000000000014
210
-0
220
0
230
1
0
CIRCLE
5
109
100
AcDbEntity
8
0
100
AcDbCircle
10
-21.966252699611417
20
17.769784474195507
30
0
40
1.6000000000000014
210
-0
220
0
230
1
0
CIRCLE
5
110
100
AcDbEntity
8
0
100
AcDbCircle
10
-14.966121401258514
20
36.019784474195362
30
0
40
1.5999999999999992
210
-0
220
0
230
1
0
CIRCLE
5
111
100
AcDbEntity
8
0
100
AcDbCircle
10
15.249999999999989
20
0.069784474195375076
30
0
40
1.6000000000000014
210
-0
220
0
230
1
0
ENDSEC
0
SECTION
2
OBJECTS
0
DICTIONARY
5
C
100
AcDbDictionary
3
ACAD_GROUP
350
D
3
ACAD_MLINESTYLE
350
17
0
DICTIONARY
5
D
100
AcDbDictionary
0
DICTIONARY
5
1A
330
C
100
AcDbDictionary
0
DICTIONARY
5
17
100
AcDbDictionary
0
ENDSEC
0
EOF
