0
SECTION
2
HEADER
9
$INSUNITS
70
4
9
$ACADVER
1
AC1014
9
$HANDSEED
5
FFFF
0
ENDSEC
0
SECTION
2
TABLES
0
TABLE
2
VPORT
5
8
100
AcDbSymbolTable
0
ENDTAB
0
TABLE
2
LTYPE
5
5
100
AcDbSymbolTable
0
LTYPE
5
14
100
AcDbSymbolTableRecord
100
AcDbLinetypeTableRecord
2
BYBLOCK
70
0
0
LTYPE
5
15
100
AcDbSymbolTableRecord
100
AcDbLinetypeTableRecord
2
BYLAYER
70
0
0
LTYPE
5
16
100
AcDbSymbolTableRecord
100
AcDbLinetypeTableRecord
2
DASHED
70
0
3
Dashed __ __ __ __ __ __ __ __ __ __ __ __ __ _
72
65
73
2
40
0.75
49
0.5
74
0
49
-0.25
74
0
0
ENDTAB
0
TABLE
2
LAYER
5
2
100
AcDbSymbolTable
70
3
0
LAYER
5
50
100
AcDbSymbolTableRecord
100
AcDbLayerTableRecord
2
1
70
0
62
7
6
DASHED
0
LAYER
5
51
100
AcDbSymbolTableRecord
100
AcDbLayerTableRecord
2
0
70
0
62
7
6
CONTINUOUS
0
ENDTAB
0
TABLE
2
STYLE
5
3
100
AcDbSymbolTable
70
1
0
STYLE
5
11
100
AcDbSymbolTableRecord
100
AcDbTextStyleTableRecord
2
STANDARD
70
0
0
ENDTAB
0
TABLE
2
VIEW
5
6
100
AcDbSymbolTable
70
0
0
ENDTAB
0
TABLE
2
UCS
5
7
100
AcDbSymbolTable
70
0
0
ENDTAB
0
TABLE
2
APPID
5
9
100
AcDbSymbolTable
70
2
0
APPID
5
12
100
AcDbSymbolTableRecord
100
AcDbRegAppTableRecord
2
ACAD
70
0
0
ENDTAB
0
TABLE
2
DIMSTYLE
5
A
100
AcDbSymbolTable
70
1
0
ENDTAB
0
TABLE
2
BLOCK_RECORD
5
1
100
AcDbSymbolTable
70
1
0
BLOCK_RECORD
5
1F
100
AcDbSymbolTableRecord
100
AcDbBlockTableRecord
2
*MODEL_SPACE
0
BLOCK_RECORD
5
1B
100
AcDbSymbolTableRecord
100
AcDbBlockTableRecord
2
*PAPER_SPACE
0
ENDTAB
0
ENDSEC
0
SECTION
2
BLOCKS
0
BLOCK
5
20
100
AcDbEntity
100
AcDbBlockBegin
2
*MODEL_SPACE
0
ENDBLK
5
21
100
AcDbEntity
100
AcDbBlockEnd
0
BLOCK
5
1C
100
AcDbEntity
100
AcDbBlockBegin
2
*PAPER_SPACE
0
ENDBLK
5
1D
100
AcDbEntity
100
AcDbBlockEnd
0
ENDSEC
0
SECTION
2
ENTITIES
0
CIRCLE
5
100
100
AcDbEntity
8
0
100
AcDbCircle
10
-21.966252699611417
20
4.7807498132184723
30
0
40
1.3500000000000001
210
0
220
0
230
1
0
CIRCLE
5
101
100
AcDbEntity
8
0
100
AcDbCircle
10
15.249999999999989
20
7.1997844741953889
30
0
40
1.3500000000000001
210
0
220
0
230
1
0
LWPOLYLINE
5
102
100
AcDbEntity
8
0
100
AcDbPolyline
90
24
70
1
43
0.0
10
-28.999999999999982
20
3.7997844741953912
42
0.41421356237309509
10
-25.999999999999982
20
0.79978447419539078
10
-19.000000000000007
20
0.79978447419539134
42
-0.41421356237309465
10
-16.000000000000007
20
-2.2002155258046097
10
-16.000000000000004
20
-9.9802155258046437
42
0.4142135623730957
10
-12.999999999999998
20
-12.980215525804645
10
11.000000000000005
20
-12.980215525804645
42
0.4142135623730947
10
14.000000000000004
20
-9.9802155258046454
10
14.000000000000004
20
-6.4302155258046367
42
-0.41421356237309537
10
17
20
-3.4302155258046341
10
38.000000000000007
20
-3.4302155258046341
42
0.41421356237309481
10
41.000000000000007
20
-0.43021552580463585
10
41.000000000000014
20
23.469784474195361
42
0.41421356237309509
10
38.000000000000014
20
26.469784474195365
10
27.000000000000092
20
26.469784474195365
42
-0.41421356237309509
10
24.000000000000089
20
29.469784474195365
10
24.000000000000085
20
36.519784474195362
42
0.41421356237309509
10
21.000000000000085
20
39.519784474195362
10
-15.466121401258519
20
39.519784474195355
42
0.41421356237309509
10
-18.466121401258519
20
36.519784474195362
10
-18.466121401258512
20
24.269784474195511
42
-0.41421356237309548
10
-21.466121401258519
20
21.269784474195511
10
-25.999999999999979
20
21.269784474195511
42
0.41421356237309509
10
-28.999999999999986
20
18.269784474195511
0
CIRCLE
5
103
100
AcDbEntity
8
0
100
AcDbCircle
10
10.123467286563448
20
36.020587729827241
30
0
40
1.3500000000000001
210
0
220
0
230
1
0
CIRCLE
5
104
100
AcDbEntity
8
0
100
AcDbCircle
10
10.125128054737779
20
13.020587729827229
30
0
40
1.3500000000000001
210
0
220
0
230
1
0
CIRCLE
5
105
100
AcDbEntity
8
0
100
AcDbCircle
10
-14.966121401258512
20
36.019784474195362
30
0
40
1.3500000000000001
210
0
220
0
230
1
0
CIRCLE
5
106
100
AcDbEntity
8
0
100
AcDbCircle
10
20.500000000000057
20
35.994784474195363
30
0
40
1.3500000000000001
210
0
220
0
230
1
0
CIRCLE
5
107
100
AcDbEntity
8
0
100
AcDbCircle
10
15.249999999999989
20
0.069784474195375076
30
0
40
1.3500000000000001
210
0
220
0
230
1
0
CIRCLE
5
108
100
AcDbEntity
8
0
100
AcDbCircle
10
-6.6568542494923495
20
30.176638723687745
30
0
40
1.7000000000000002
210
0
220
0
230
1
0
CIRCLE
5
109
100
AcDbEntity
8
0
100
AcDbCircle
10
4.6568542494923895
20
18.862930224702982
30
0
40
1.7000000000000002
210
0
220
0
230
1
0
CIRCLE
5
110
100
AcDbEntity
8
0
100
AcDbCircle
10
-6.6568542494923619
20
18.862930224702993
30
0
40
1.7000000000000002
210
0
220
0
230
1
0
CIRCLE
5
111
100
AcDbEntity
8
0
100
AcDbCircle
10
4.656854249492401
20
30.176638723687731
30
0
40
1.7000000000000002
210
0
220
0
230
1
0
CIRCLE
5
112
100
AcDbEntity
8
0
100
AcDbCircle
10
-8.0000000000000036
20
7.0197844741953572
30
0
40
1.7000000000000002
210
0
220
0
230
1
0
CIRCLE
5
113
100
AcDbEntity
8
0
100
AcDbCircle
10
8.0000000000000036
20
-7.9802155258046517
30
0
40
1.7000000000000002
210
0
220
0
230
1
0
CIRCLE
5
114
100
AcDbEntity
8
0
100
AcDbCircle
10
-8.0000000000000036
20
-7.980215525804649
30
0
40
1.7000000000000002
210
0
220
0
230
1
0
CIRCLE
5
115
100
AcDbEntity
8
0
100
AcDbCircle
10
8.0000000000000089
20
7.0197844741953555
30
0
40
1.7000000000000002
210
0
220
0
230
1
0
CIRCLE
5
116
100
AcDbEntity
8
0
100
AcDbCircle
10
-0.99999999999998035
20
24.519784474195362
30
0
40
2.0000000000000009
210
0
220
0
230
1
0
CIRCLE
5
117
100
AcDbEntity
8
0
100
AcDbCircle
10
37.500000000000028
20
19.519784474195365
30
0
40
1.7000000000000002
210
0
220
0
230
1
0
CIRCLE
5
118
100
AcDbEntity
8
0
100
AcDbCircle
10
22.500000000000018
20
3.519784474195359
30
0
40
1.7000000000000002
210
0
220
0
230
1
0
CIRCLE
5
119
100
AcDbEntity
8
0
100
AcDbCircle
10
22.500000000000021
20
19.519784474195369
30
0
40
1.7000000000000002
210
0
220
0
230
1
0
CIRCLE
5
120
100
AcDbEntity
8
0
100
AcDbCircle
10
37.500000000000028
20
3.5197844741953577
30
0
40
1.7000000000000002
210
0
220
0
230
1
0
CIRCLE
5
121
100
AcDbEntity
8
0
100
AcDbCircle
10
-21.966252699611417
20
17.769784474195507
30
0
40
1.3500000000000001
210
0
220
0
230
1
0
ENDSEC
0
SECTION
2
OBJECTS
0
DICTIONARY
5
C
100
AcDbDictionary
3
ACAD_GROUP
350
D
3
ACAD_MLINESTYLE
350
17
0
DICTIONARY
5
D
100
AcDbDictionary
0
DICTIONARY
5
1A
330
C
100
AcDbDictionary
0
DICTIONARY
5
17
100
AcDbDictionary
0
ENDSEC
0
EOF
