0
SECTION
2
HEADER
9
$INSUNITS
70
4
9
$ACADVER
1
AC1014
9
$HANDSEED
5
FFFF
0
ENDSEC
0
SECTION
2
TABLES
0
TABLE
2
VPORT
5
8
100
AcDbSymbolTable
0
ENDTAB
0
TABLE
2
LTYPE
5
5
100
AcDbSymbolTable
0
LTYPE
5
14
100
AcDbSymbolTableRecord
100
AcDbLinetypeTableRecord
2
BYBLOCK
70
0
0
LTYPE
5
15
100
AcDbSymbolTableRecord
100
AcDbLinetypeTableRecord
2
BYLAYER
70
0
0
LTYPE
5
16
100
AcDbSymbolTableRecord
100
AcDbLinetypeTableRecord
2
DASHED
70
0
3
Dashed __ __ __ __ __ __ __ __ __ __ __ __ __ _
72
65
73
2
40
0.75
49
0.5
74
0
49
-0.25
74
0
0
ENDTAB
0
TABLE
2
LAYER
5
2
100
AcDbSymbolTable
70
3
0
LAYER
5
50
100
AcDbSymbolTableRecord
100
AcDbLayerTableRecord
2
1
70
0
62
7
6
DASHED
0
LAYER
5
51
100
AcDbSymbolTableRecord
100
AcDbLayerTableRecord
2
0
70
0
62
7
6
CONTINUOUS
0
ENDTAB
0
TABLE
2
STYLE
5
3
100
AcDbSymbolTable
70
1
0
STYLE
5
11
100
AcDbSymbolTableRecord
100
AcDbTextStyleTableRecord
2
STANDARD
70
0
0
ENDTAB
0
TABLE
2
VIEW
5
6
100
AcDbSymbolTable
70
0
0
ENDTAB
0
TABLE
2
UCS
5
7
100
AcDbSymbolTable
70
0
0
ENDTAB
0
TABLE
2
APPID
5
9
100
AcDbSymbolTable
70
2
0
APPID
5
12
100
AcDbSymbolTableRecord
100
AcDbRegAppTableRecord
2
ACAD
70
0
0
ENDTAB
0
TABLE
2
DIMSTYLE
5
A
100
AcDbSymbolTable
70
1
0
ENDTAB
0
TABLE
2
BLOCK_RECORD
5
1
100
AcDbSymbolTable
70
1
0
BLOCK_RECORD
5
1F
100
AcDbSymbolTableRecord
100
AcDbBlockTableRecord
2
*MODEL_SPACE
0
BLOCK_RECORD
5
1B
100
AcDbSymbolTableRecord
100
AcDbBlockTableRecord
2
*PAPER_SPACE
0
ENDTAB
0
ENDSEC
0
SECTION
2
BLOCKS
0
BLOCK
5
20
100
AcDbEntity
100
AcDbBlockBegin
2
*MODEL_SPACE
0
ENDBLK
5
21
100
AcDbEntity
100
AcDbBlockEnd
0
BLOCK
5
1C
100
AcDbEntity
100
AcDbBlockBegin
2
*PAPER_SPACE
0
ENDBLK
5
1D
100
AcDbEntity
100
AcDbBlockEnd
0
ENDSEC
0
SECTION
2
ENTITIES
0
LWPOLYLINE
5
100
100
AcDbEntity
8
0
100
AcDbPolyline
90
154
70
1
43
0.0
10
10.440032209783634
20
9.9908382289151874
42
0.99999999999999989
10
9.5342320659924944
20
10.41454343245646
10
9.117322771614166
20
9.5232716339524099
42
-0.41421356237308887
10
8.5855206326812112
20
9.3304336578524563
10
8.4043606039229299
20
9.4151746985607279
42
-0.41421356237310991
10
8.2115226278229763
20
9.9469768374937075
10
8.2320396258685467
20
9.990838228915182
42
0.99999999999999989
10
7.3262394820774155
20
10.414543432456473
10
7.3057224840318105
20
10.37068204103492
42
-0.41421356237308127
10
6.7739203450988574
20
10.177844064934975
10
5.752589592917583
20
10.655590902581405
42
-0.29114805771262131
10
4.6000000000000787
20
12.467191190163705
10
4.6000000000000814
20
20.957481848084139
42
-0.12436887562598527
10
4.8400000000000629
20
21.907429215047131
42
0.252645576319944
10
4.8400000000000682
20
27.132139733343607
42
-0.12436887562598516
10
4.600000000000092
20
28.082087100306602
10
4.6000000000001009
20
33.969792741387479
42
0.31120474554398592
10
3.9559950556243368
20
34.904280579923167
42
0.18402548133551858
10
-3.9559950556243075
20
34.904280579923174
42
0.31120474554398658
10
-4.6000000000000716
20
33.969792741387487
10
-4.6000000000000751
20
28.082087100306609
42
-0.12436887562598685
10
-4.8400000000000549
20
27.132139733343617
42
0.25264557631994422
10
-4.8400000000000531
20
21.907429215047141
42
-0.1243688756259872
10
-4.600000000000076
20
20.957481848084146
10
-4.6000000000000849
20
12.467191190163714
42
-0.29114805771262153
10
-5.7525895929175919
20
10.655590902581412
10
-6.7739203450988672
20
10.177844064934988
42
-0.41421356237308488
10
-7.3057224840318167
20
10.370682041034931
10
-7.3262394820774261
20
10.414543432456487
42
0.99999999999999989
10
-8.2320396258685573
20
9.990838228915198
10
-8.2115226278229851
20
9.9469768374937217
42
-0.41421356237310919
10
-8.4043606039229388
20
9.4151746985607421
10
-8.5855206326812237
20
9.3304336578524687
42
-0.4142135623730881
10
-9.1173227716141803
20
9.5232716339524242
10
-9.5342320659925015
20
10.414543432456469
42
1.0000000105367119
10
-10.440032209783645
20
9.9908382289152051
10
-10.023122915405338
20
9.0995664304111905
42
-0.41421356237310336
10
-10.215960891505297
20
8.5677642914782233
10
-10.397120920263472
20
8.4830232507700032
42
-0.41421356237308266
10
-10.928923059196418
20
8.675861226869948
10
-11.74222464990752
20
10.414543432456489
42
0.99999999999999989
10
-12.648024793698651
20
9.9908382289152016
10
-11.834723202987586
20
8.2521560233287374
42
-0.4142135623731128
10
-12.02756117908754
20
7.720353884395756
10
-12.208721207845841
20
7.6356128436874782
42
-0.41421356237309137
10
-12.740523346778797
20
7.828450819787431
10
-13.950217233822539
20
10.414543432456469
42
0.99999999999999989
10
-14.856017377613684
20
9.9908382289152105
10
-13.646323490569953
20
7.4047456162461955
42
-0.41421356237310153
10
-13.839161466669916
20
6.8729434773132283
10
-14.02032149542816
20
6.7882024366049727
42
-0.41421356237309209
10
-14.552123634361118
20
6.9810404127049317
10
-16.158209817737543
20
10.414543432456462
42
1.0000000105367119
10
-17.064009961528694
20
9.9908382289152105
10
-15.457923778152271
20
6.5573352091636909
42
-0.41421356237310014
10
-15.650761754252231
20
6.025533070230729
10
-15.831921783010481
20
5.9407920295224574
42
-0.41421356237308316
10
-16.36372392194345
20
6.1336300056224093
10
-18.366202401652718
20
10.41454343245638
42
0.99999999999999989
10
-19.272002545443641
20
9.9908382289151945
10
-17.56219624529411
20
6.3356015700627131
42
-0.75037351744070746
10
-18.139233753700562
20
5.8286340574298334
10
-22.425006140097604
20
8.5553595299494596
42
0.99999999999999989
10
-22.961799767322617
20
7.7116459519085154
10
-18.676493279041594
20
4.985216896497894
42
-0.75037351744068692
10
-18.891210729931597
20
4.2477314652815252
10
-22.300000000000008
20
4.2477314652815252
42
0.99999999999999989
10
-22.300000000000008
20
3.2477314652815275
10
-18.20000000000001
20
3.2477314652815279
42
-0.41421356237308976
10
-17.800000000000008
20
2.8477314652815262
10
-17.800000000000008
20
2.647731465281526
42
-0.41421356237309581
10
-18.20000000000001
20
2.2477314652815252
10
-22.300000000000018
20
2.2477314652815261
42
0.99999999999999989
10
-22.300000000000018
20
1.2477314652815259
10
-18.20000000000001
20
1.2477314652815255
42
-0.41421356237309148
10
-17.800000000000008
20
0.84773146528152554
10
-17.800000000000008
20
0.64773146528152414
42
-0.41421356237309209
10
-18.20000000000001
20
0.2477314652815234
10
-22.300000000000022
20
0.24773146528152035
42
0.99999999999999989
10
-22.300000000000022
20
-0.75226853471847988
10
-18.20000000000001
20
-0.75226853471847632
42
-0.41421356237309148
10
-17.800000000000008
20
-1.1522685347184762
10
-17.800000000000008
20
-1.3265140657044361
42
-0.004024331303203869
10
-17.800259115486075
20
-1.3587071519719882
42
-0.4095066111476639
10
-18.20020729238886
20
-1.7522685347184757
10
-22.300000000000033
20
-1.7522685347184732
42
0.99999999999999989
10
-22.300000000000033
20
-2.7522685347184734
10
-18.891143586398069
20
-2.7522685347184774
42
-0.49307749977930337
10
-18.504750638098312
20
-3.2557117051272586
42
1.547908002454601
10
-13.466666666666677
20
-2.432055662489558
42
-0.14747682478235638
10
-13.80000000000001
20
-1.3265140657044237
10
-13.800000000000011
20
1.196357577479741
42
-0.29114805771262042
10
-12.647410407082504
20
3.0079578650620449
10
-3.5420000553131286
20
7.267186319448995
42
-0.11010135901372138
10
-0.15199999511242565
20
8.020186102011257
10
0.1519999951124118
20
8.0201861020112091
42
-0.1101013590137216
10
3.5420000553130904
20
7.2671863194489479
10
12.64741040708248
20
3.0079578650620231
42
-0.29114805771262176
10
13.799999999999986
20
1.1963575774797182
10
13.799999999999983
20
-1.3265140657044467
42
-0.14747682478235477
10
13.466666666666647
20
-2.4320556624895797
42
1.5479080024546017
10
18.50475063809828
20
-3.2557117051272892
42
-0.49307749977930249
10
18.891143586398037
20
-2.7522685347185067
10
22.300000000000001
20
-2.7522685347185103
42
0.99999999999999989
10
22.300000000000001
20
-1.7522685347185096
10
18.200207292388832
20
-1.7522685347185059
42
-0.40950661114766446
10
17.80025911548605
20
-1.3587071519720186
42
-0.0040243313032314034
10
17.799999999999979
20
-1.3265140657044538
10
17.799999999999979
20
-1.152268534718506
42
-0.4142135623730942
10
18.199999999999982
20
-0.75226853471850663
10
22.299999999999997
20
-0.75226853471851662
42
0.99999999999999989
10
22.299999999999997
20
0.24773146528148354
10
18.199999999999982
20
0.24773146528149326
42
-0.41421356237309581
10
17.799999999999983
20
0.64773146528149472
10
17.799999999999983
20
0.84773146528149601
42
-0.41421356237309442
10
18.199999999999985
20
1.2477314652814955
10
22.299999999999997
20
1.2477314652814893
42
0.99999999999999989
10
22.299999999999997
20
2.2477314652814897
10
18.199999999999985
20
2.247731465281495
42
-0.41421356237309581
10
17.799999999999986
20
2.6477314652814963
10
17.799999999999986
20
2.847731465281496
42
-0.41421356237309465
10
18.199999999999989
20
3.2477314652814955
10
22.299999999999986
20
3.2477314652814888
42
0.99999999999999989
10
22.299999999999986
20
4.2477314652814888
10
18.891210729931576
20
4.2477314652814933
42
-0.75037351744068959
10
18.676493279041576
20
4.9852168964978656
10
22.961799767322599
20
7.7116459519084959
42
0.99999998946328772
10
22.425006140097594
20
8.5553595299494187
10
18.139233753700562
20
5.8286340574297775
42
-0.75037351744071024
10
17.562196245294068
20
6.3356015700626953
10
19.272002545443844
20
9.990838228915063
42
0.99999999999999989
10
18.366202401652707
20
10.414543432456343
10
16.363723921943421
20
6.1336300056223871
42
-0.41421356237308049
10
15.83192178301047
20
5.9407920295224423
10
15.650761754252219
20
6.0255330702307042
42
-0.41421356237309787
10
15.457923778152258
20
6.5573352091636643
10
17.064009961528686
20
9.990838228915182
42
1.0000000105367119
10
16.158209817737532
20
10.414543432456433
10
14.552123634361102
20
6.9810404127049077
42
-0.41421356237309137
10
14.020321495428146
20
6.7882024366049496
10
13.839161466669903
20
6.8729434773132052
42
-0.41421356237310269
10
13.646323490569941
20
7.4047456162461742
10
14.856017377613675
20
9.990838228915182
42
0.99999999999999989
10
13.950217233822531
20
10.414543432456442
10
12.740523346778785
20
7.8284508197874114
42
-0.41421356237308993
10
12.208721207845826
20
7.635612843687456
10
12.027561179087529
20
7.7203538843957373
42
-0.4142135623731118
10
11.834723202987574
20
8.2521560233287179
10
12.648024793698642
20
9.9908382289151803
42
0.99999999999999989
10
11.742224649907506
20
10.414543432456471
10
10.928923059196407
20
8.6758612268699284
42
-0.41421356237307971
10
10.397120920263456
20
8.4830232507699854
10
10.215960891505285
20
8.5677642914782091
42
-0.41421356237310153
10
10.023122915405327
20
9.0995664304111745
0
CIRCLE
5
101
100
AcDbEntity
8
0
100
AcDbCircle
10
15.799999999999976
20
-3.9798138979887696
30
0
40
1.7000000000000015
210
0
220
0
230
1
0
CIRCLE
5
102
100
AcDbEntity
8
0
100
AcDbCircle
10
3.3306690738754696e-15
20
24.519784474195379
30
3.8316754883881717e-46
40
4.0999999999999996
210
0
220
-0
230
1
0
CIRCLE
5
103
100
AcDbEntity
8
0
100
AcDbCircle
10
4.7241744717780964e-16
20
17.019784362436681
30
0
40
1.6500000000000001
210
0
220
-0
230
1
0
CIRCLE
5
104
100
AcDbEntity
8
0
100
AcDbCircle
10
5.5001149408493658e-15
20
32.019784585954078
30
0
40
1.6500000000000001
210
0
220
0
230
1
0
CIRCLE
5
105
100
AcDbEntity
8
0
100
AcDbCircle
10
-15.80000000000001
20
-3.9798138979887439
30
0
40
1.7000000000000015
210
0
220
-0
230
1
0
ENDSEC
0
SECTION
2
OBJECTS
0
DICTIONARY
5
C
100
AcDbDictionary
3
ACAD_GROUP
350
D
3
ACAD_MLINESTYLE
350
17
0
DICTIONARY
5
D
100
AcDbDictionary
0
DICTIONARY
5
1A
330
C
100
AcDbDictionary
0
DICTIONARY
5
17
100
AcDbDictionary
0
ENDSEC
0
EOF
