0
SECTION
2
HEADER
9
$INSUNITS
70
4
9
$ACADVER
1
AC1014
9
$HANDSEED
5
FFFF
0
ENDSEC
0
SECTION
2
TABLES
0
TABLE
2
VPORT
5
8
100
AcDbSymbolTable
0
ENDTAB
0
TABLE
2
LTYPE
5
5
100
AcDbSymbolTable
0
LTYPE
5
14
100
AcDbSymbolTableRecord
100
AcDbLinetypeTableRecord
2
BYBLOCK
70
0
0
LTYPE
5
15
100
AcDbSymbolTableRecord
100
AcDbLinetypeTableRecord
2
BYLAYER
70
0
0
LTYPE
5
16
100
AcDbSymbolTableRecord
100
AcDbLinetypeTableRecord
2
DASHED
70
0
3
Dashed __ __ __ __ __ __ __ __ __ __ __ __ __ _
72
65
73
2
40
0.75
49
0.5
74
0
49
-0.25
74
0
0
ENDTAB
0
TABLE
2
LAYER
5
2
100
AcDbSymbolTable
70
3
0
LAYER
5
50
100
AcDbSymbolTableRecord
100
AcDbLayerTableRecord
2
1
70
0
62
7
6
DASHED
0
LAYER
5
51
100
AcDbSymbolTableRecord
100
AcDbLayerTableRecord
2
0
70
0
62
7
6
CONTINUOUS
0
ENDTAB
0
TABLE
2
STYLE
5
3
100
AcDbSymbolTable
70
1
0
STYLE
5
11
100
AcDbSymbolTableRecord
100
AcDbTextStyleTableRecord
2
STANDARD
70
0
0
ENDTAB
0
TABLE
2
VIEW
5
6
100
AcDbSymbolTable
70
0
0
ENDTAB
0
TABLE
2
UCS
5
7
100
AcDbSymbolTable
70
0
0
ENDTAB
0
TABLE
2
APPID
5
9
100
AcDbSymbolTable
70
2
0
APPID
5
12
100
AcDbSymbolTableRecord
100
AcDbRegAppTableRecord
2
ACAD
70
0
0
ENDTAB
0
TABLE
2
DIMSTYLE
5
A
100
AcDbSymbolTable
70
1
0
ENDTAB
0
TABLE
2
BLOCK_RECORD
5
1
100
AcDbSymbolTable
70
1
0
BLOCK_RECORD
5
1F
100
AcDbSymbolTableRecord
100
AcDbBlockTableRecord
2
*MODEL_SPACE
0
BLOCK_RECORD
5
1B
100
AcDbSymbolTableRecord
100
AcDbBlockTableRecord
2
*PAPER_SPACE
0
ENDTAB
0
ENDSEC
0
SECTION
2
BLOCKS
0
BLOCK
5
20
100
AcDbEntity
100
AcDbBlockBegin
2
*MODEL_SPACE
0
ENDBLK
5
21
100
AcDbEntity
100
AcDbBlockEnd
0
BLOCK
5
1C
100
AcDbEntity
100
AcDbBlockBegin
2
*PAPER_SPACE
0
ENDBLK
5
1D
100
AcDbEntity
100
AcDbBlockEnd
0
ENDSEC
0
SECTION
2
ENTITIES
0
ARC
5
100
100
AcDbEntity
8
0
100
AcDbCircle
10
18.656854249492465
20
9.0558476456463204
30
0
40
2.9999999999999973
210
0
220
0
230
1
100
AcDbArc
50
96.285093339199975
51
180
0
LINE
5
101
100
AcDbEntity
8
0
100
AcDbLine
10
15.656854249492467
20
9.0558476456463133
30
0
11
15.656854249492486
21
-7.4802155258046437
31
7.2840094386272033e-16
0
ARC
5
102
100
AcDbEntity
8
0
100
AcDbCircle
10
18
20
15.019784474195365
30
0
40
2.9999999999999982
210
-0
220
0
230
1
100
AcDbArc
50
276.28509333919999
51
360
0
LINE
5
103
100
AcDbEntity
8
0
100
AcDbLine
10
21.000000000000007
20
77.519784474195347
30
-1.1102230246251565e-15
11
21
21
15.019784474195363
31
0
0
ARC
5
104
100
AcDbEntity
8
0
100
AcDbCircle
10
12.656854249492486
20
-7.4802155258046463
30
-1.1102230246251565e-15
40
3.0000000000000018
210
-3.4863055968420782e-32
220
4.1086505480261039e-32
230
1
100
AcDbArc
50
-90.000000000000057
51
0
0
LINE
5
105
100
AcDbEntity
8
0
100
AcDbLine
10
12.656854249492484
20
-10.480215525804649
30
-1.1102230246251563e-15
11
-11.950000000000006
21
-10.480215525804651
31
1.2809673755712967e-15
0
ARC
5
106
100
AcDbEntity
8
0
100
AcDbCircle
10
-11.950000000000006
20
-7.480215525804649
30
0
40
3.0000000000000004
210
-6.9726111936841958e-32
220
-1.7090489083128219e-46
230
1
100
AcDbArc
50
180
51
270
0
LINE
5
107
100
AcDbEntity
8
0
100
AcDbLine
10
-14.950000000000008
20
-7.4802155258046499
30
1.1102230246251565e-15
11
-14.950000000000008
21
11.269784474195504
31
6.513098141621433e-16
0
ARC
5
108
100
AcDbEntity
8
0
100
AcDbCircle
10
-17.950000000000017
20
11.269784474195498
30
-1.1102230246251558e-15
40
3.0000000000000093
210
-5.8717761292909788e-16
220
-9.7458595396139423e-31
230
1
100
AcDbArc
50
0
51
89.99999999999973
0
LINE
5
109
100
AcDbEntity
8
0
100
AcDbLine
10
-17.950000000000003
20
14.269784474195506
30
-1.1102230246251563e-15
11
-21.000000000000011
21
14.269784474195507
31
2.1163626406915659e-17
0
ARC
5
110
100
AcDbEntity
8
0
100
AcDbCircle
10
-21.000000000000007
20
17.269784474195511
30
0
40
2.9999999999999982
210
3.4863055968421028e-32
220
3.4863055968420957e-32
230
1
100
AcDbArc
50
180
51
269.99999999999994
0
LINE
5
111
100
AcDbEntity
8
0
100
AcDbLine
10
-24.000000000000004
20
17.269784474195514
30
1.0458916790526295e-31
11
-24.000000000000007
21
18.269784474195504
31
-3.7974673910473803e-16
0
ARC
5
112
100
AcDbEntity
8
0
100
AcDbCircle
10
-21.000000000000007
20
18.269784474195504
30
0
40
2.9999999999999987
210
-3.4863055968420963e-32
220
3.4863055968421077e-32
230
1
100
AcDbArc
50
120.00000000000577
51
180
0
ARC
5
113
100
AcDbEntity
8
0
100
AcDbCircle
10
-24.000000000000522
20
23.465936896901816
30
-1.0400262039910752e-45
40
2.9999999999999849
210
3.4486497302804489e-32
220
-3.5080462215380318e-32
230
1
100
AcDbArc
50
-59.999999999994181
51
0
0
LINE
5
114
100
AcDbEntity
8
0
100
AcDbLine
10
-21.000000000000547
20
23.465936896901827
30
-6.404752349754425e-32
11
-20.999999999999996
21
77.519784474195376
31
-5.4275791028911018e-16
0
ARC
5
115
100
AcDbEntity
8
0
100
AcDbCircle
10
-18.000000000000526
20
77.519784474195362
30
1.1102230246251565e-15
40
2.9999999999999982
210
0
220
0
230
1
100
AcDbArc
50
90
51
180
0
LINE
5
116
100
AcDbEntity
8
0
100
AcDbLine
10
-18.000000000000526
20
80.519784474195362
30
1.1102230246251565e-15
11
18.000000000000004
21
80.519784474195362
31
-2.4980018054066712e-16
0
ARC
5
117
100
AcDbEntity
8
0
100
AcDbCircle
10
18.000000000000004
20
77.519784474195347
30
0
40
3.0000000000000027
210
3.7007434154171852e-16
220
-3.4863055968421012e-32
230
1
100
AcDbArc
50
0
51
90
0
CIRCLE
5
118
100
AcDbEntity
8
0
100
AcDbCircle
10
16.5
20
32.519784474195376
30
0
40
1.3500000000000001
210
0
220
0
230
1
0
CIRCLE
5
119
100
AcDbEntity
8
0
100
AcDbCircle
10
16.5
20
16.519784474195369
30
0
40
1.3500000000000001
210
0
220
0
230
1
0
CIRCLE
5
120
100
AcDbEntity
8
0
100
AcDbCircle
10
12.156854249492433
20
1.8697844741953509
30
0
40
1.3500000000000001
210
0
220
0
230
1
0
CIRCLE
5
121
100
AcDbEntity
8
0
100
AcDbCircle
10
12.156854249492401
20
36.71978447419535
30
0
40
1.3500000000000001
210
0
220
0
230
1
0
CIRCLE
5
122
100
AcDbEntity
8
0
100
AcDbCircle
10
-12.156854249492374
20
36.719784474195301
30
1.1102230246251565e-15
40
1.3500000000000001
210
0
220
0
230
1
0
CIRCLE
5
123
100
AcDbEntity
8
0
100
AcDbCircle
10
-20.500000000000004
20
17.769784474195511
30
0
40
1.3500000000000001
210
0
220
0
230
1
0
CIRCLE
5
124
100
AcDbEntity
8
0
100
AcDbCircle
10
5.6568542494923788
20
18.862930224702986
30
1.1102230246251565e-15
40
1.6000000000000003
210
0
220
0
230
1
0
CIRCLE
5
125
100
AcDbEntity
8
0
100
AcDbCircle
10
-5.6568542494923824
20
18.862930224702986
30
1.1102230246251565e-15
40
1.6000000000000003
210
0
220
0
230
1
0
CIRCLE
5
126
100
AcDbEntity
8
0
100
AcDbCircle
10
-2.2030988144905735e-17
20
24.519784474195365
30
1.1102230246251565e-15
40
2.0000000000000009
210
0
220
0
230
1
0
CIRCLE
5
127
100
AcDbEntity
8
0
100
AcDbCircle
10
-15.99999999999997
20
75.519784474195404
30
-1.1102230246251565e-15
40
1.7500000000000004
210
0
220
0
230
1
0
CIRCLE
5
128
100
AcDbEntity
8
0
100
AcDbCircle
10
16.000000000000007
20
75.519784474195362
30
0
40
1.7500000000000004
210
0
220
0
230
1
0
CIRCLE
5
129
100
AcDbEntity
8
0
100
AcDbCircle
10
16
20
43.519784474195362
30
0
40
1.7500000000000004
210
0
220
0
230
1
0
CIRCLE
5
130
100
AcDbEntity
8
0
100
AcDbCircle
10
-16
20
43.519784474195369
30
0
40
1.7500000000000004
210
0
220
0
230
1
0
CIRCLE
5
131
100
AcDbEntity
8
0
100
AcDbCircle
10
2.4272626105259263e-15
20
59.519784474195362
30
1.1102230246251565e-15
40
19
210
0
220
0
230
1
0
CIRCLE
5
132
100
AcDbEntity
8
0
100
AcDbCircle
10
5.6568542494923779
20
30.176638723687752
30
1.1102230246251565e-15
40
1.6000000000000003
210
0
220
0
230
1
0
CIRCLE
5
133
100
AcDbEntity
8
0
100
AcDbCircle
10
-5.6568542494923815
20
30.176638723687748
30
1.1102230246251565e-15
40
1.6000000000000003
210
0
220
0
230
1
0
CIRCLE
5
134
100
AcDbEntity
8
0
100
AcDbCircle
10
-8.0000000000000036
20
7.0197844741953608
30
1.1102230246251565e-15
40
1.6000000000000003
210
0
220
0
230
1
0
CIRCLE
5
135
100
AcDbEntity
8
0
100
AcDbCircle
10
8.0000000000000036
20
-7.9802155258046481
30
0
40
1.6000000000000003
210
0
220
0
230
1
0
CIRCLE
5
136
100
AcDbEntity
8
0
100
AcDbCircle
10
-8.0000000000000036
20
-7.9802155258046454
30
0
40
1.6000000000000003
210
0
220
0
230
1
0
CIRCLE
5
137
100
AcDbEntity
8
0
100
AcDbCircle
10
8.0000000000000089
20
7.0197844741953581
30
1.1102230246251565e-15
40
1.6000000000000003
210
0
220
0
230
1
0
CIRCLE
5
138
100
AcDbEntity
8
0
100
AcDbCircle
10
9.8772273740363605
20
13.000000000000004
30
0
40
1.6000000000000003
210
0
220
0
230
1
0
CIRCLE
5
139
100
AcDbEntity
8
0
100
AcDbCircle
10
-9.8772273740363588
20
12.999999999999998
30
1.1102230246251565e-15
40
1.6000000000000003
210
0
220
0
230
1
0
ENDSEC
0
SECTION
2
OBJECTS
0
DICTIONARY
5
C
100
AcDbDictionary
3
ACAD_GROUP
350
D
3
ACAD_MLINESTYLE
350
17
0
DICTIONARY
5
D
100
AcDbDictionary
0
DICTIONARY
5
1A
330
C
100
AcDbDictionary
0
DICTIONARY
5
17
100
AcDbDictionary
0
ENDSEC
0
EOF
