0
SECTION
2
HEADER
9
$INSUNITS
70
4
9
$ACADVER
1
AC1014
9
$HANDSEED
5
FFFF
0
ENDSEC
0
SECTION
2
TABLES
0
TABLE
2
VPORT
5
8
100
AcDbSymbolTable
0
ENDTAB
0
TABLE
2
LTYPE
5
5
100
AcDbSymbolTable
0
LTYPE
5
14
100
AcDbSymbolTableRecord
100
AcDbLinetypeTableRecord
2
BYBLOCK
70
0
0
LTYPE
5
15
100
AcDbSymbolTableRecord
100
AcDbLinetypeTableRecord
2
BYLAYER
70
0
0
ENDTAB
0
TABLE
2
LAYER
5
2
100
AcDbSymbolTable
70
2
0
LAYER
5
50
100
AcDbSymbolTableRecord
100
AcDbLayerTableRecord
2
0
70
0
6
CONTINUOUS
0
ENDTAB
0
TABLE
2
STYLE
5
3
100
AcDbSymbolTable
70
1
0
STYLE
5
11
100
AcDbSymbolTableRecord
100
AcDbTextStyleTableRecord
2
STANDARD
70
0
0
ENDTAB
0
TABLE
2
VIEW
5
6
100
AcDbSymbolTable
70
0
0
ENDTAB
0
TABLE
2
UCS
5
7
100
AcDbSymbolTable
70
0
0
ENDTAB
0
TABLE
2
APPID
5
9
100
AcDbSymbolTable
70
2
0
APPID
5
12
100
AcDbSymbolTableRecord
100
AcDbRegAppTableRecord
2
ACAD
70
0
0
ENDTAB
0
TABLE
2
DIMSTYLE
5
A
100
AcDbSymbolTable
70
1
0
ENDTAB
0
TABLE
2
BLOCK_RECORD
5
1
100
AcDbSymbolTable
70
1
0
BLOCK_RECORD
5
1F
100
AcDbSymbolTableRecord
100
AcDbBlockTableRecord
2
*MODEL_SPACE
0
BLOCK_RECORD
5
1B
100
AcDbSymbolTableRecord
100
AcDbBlockTableRecord
2
*PAPER_SPACE
0
ENDTAB
0
ENDSEC
0
SECTION
2
BLOCKS
0
BLOCK
5
20
100
AcDbEntity
100
AcDbBlockBegin
2
*MODEL_SPACE
0
ENDBLK
5
21
100
AcDbEntity
100
AcDbBlockEnd
0
BLOCK
5
1C
100
AcDbEntity
100
AcDbBlockBegin
2
*PAPER_SPACE
0
ENDBLK
5
1D
100
AcDbEntity
100
AcDbBlockEnd
0
ENDSEC
0
SECTION
2
ENTITIES
0
LWPOLYLINE
5
100
100
AcDbEntity
8
0
100
AcDbPolyline
90
24
70
1
43
0.0
10
7.4500000000000011
20
-10.500000000000005
42
0.41421356237309509
10
7.6500000000000012
20
-10.300000000000004
10
7.6500000000000012
20
10.299999999999995
42
0.41421356237309509
10
7.4500000000000011
20
10.499999999999996
10
4.4500000000000011
20
10.499999999999996
42
0.41421356237309337
10
4.2499999999999991
20
10.299999999999997
10
4.2500000000000018
20
8.8917096218893725
42
-0.54420460159443396
10
3.8974358974358974
20
8.6637170674819508
42
0.21457259452765751
10
-3.8974358974358969
20
8.663717067481949
42
-0.54420460159443085
10
-4.25
20
8.8917096218893672
10
-4.2499999999999982
20
10.299999999999995
42
0.4142135623730967
10
-4.4499999999999984
20
10.499999999999993
10
-7.4499999999999993
20
10.499999999999996
42
0.41421356237309509
10
-7.6499999999999986
20
10.299999999999995
10
-7.6500000000000039
20
-10.300000000000002
42
0.41421356237309509
10
-7.4500000000000028
20
-10.500000000000004
10
-4.4500000000000028
20
-10.500000000000005
42
0.41421356237309337
10
-4.2500000000000018
20
-10.300000000000008
10
-4.2500000000000018
20
-8.891709621889369
42
-0.54420460159443362
10
-3.8974358974358996
20
-8.6637170674819526
42
0.21457259452765767
10
3.8974358974358974
20
-8.6637170674819526
42
-0.54420460159443296
10
4.25
20
-8.8917096218893708
10
4.25
20
-10.300000000000004
42
0.4142135623730967
10
4.4500000000000011
20
-10.500000000000004
0
CIRCLE
5
101
100
AcDbEntity
8
0
100
AcDbCircle
10
11.258330249197705
20
-6.5
30
0
40
1.6500000000000004
210
0
220
0
230
1
0
CIRCLE
5
102
100
AcDbEntity
8
0
100
AcDbCircle
10
-11.25833024919771
20
6.4999999999999849
30
0
40
1.6500000000000004
210
0
220
0
230
1
0
CIRCLE
5
103
100
AcDbEntity
8
0
100
AcDbCircle
10
11.258330249197716
20
6.499999999999976
30
0
40
1.6500000000000004
210
0
220
0
230
1
0
CIRCLE
5
104
100
AcDbEntity
8
0
100
AcDbCircle
10
1.5070279895238328e-14
20
13
30
0
40
1.6500000000000001
210
0
220
0
230
1
0
CIRCLE
5
105
100
AcDbEntity
8
0
100
AcDbCircle
10
-5.66431793159743e-15
20
-13
30
0
40
1.6500000000000001
210
0
220
0
230
1
0
CIRCLE
5
106
100
AcDbEntity
8
0
100
AcDbCircle
10
10.650000000000002
20
-4.3368086899420177e-15
30
0
40
1.3749999999999996
210
0
220
0
230
1
0
CIRCLE
5
107
100
AcDbEntity
8
0
100
AcDbCircle
10
-11.25833024919771
20
-6.4999999999999902
30
0
40
1.6500000000000004
210
0
220
0
230
1
0
CIRCLE
5
108
100
AcDbEntity
8
0
100
AcDbCircle
10
-10.650000000000002
20
-1.6428034107991953e-15
30
0
40
1.3749999999999996
210
0
220
0
230
1
0
CIRCLE
5
109
100
AcDbEntity
8
0
100
AcDbCircle
10
2.2204460492503131e-15
20
-3.3306690738754736e-15
30
0
40
16
210
-0
220
0
230
1
0
ENDSEC
0
SECTION
2
OBJECTS
0
DICTIONARY
5
C
100
AcDbDictionary
3
ACAD_GROUP
350
D
3
ACAD_MLINESTYLE
350
17
0
DICTIONARY
5
D
100
AcDbDictionary
0
DICTIONARY
5
1A
330
C
100
AcDbDictionary
0
DICTIONARY
5
17
100
AcDbDictionary
0
ENDSEC
0
EOF
