0
SECTION
2
HEADER
9
$INSUNITS
70
4
9
$ACADVER
1
AC1014
9
$HANDSEED
5
FFFF
0
ENDSEC
0
SECTION
2
TABLES
0
TABLE
2
VPORT
5
8
100
AcDbSymbolTable
0
ENDTAB
0
TABLE
2
LTYPE
5
5
100
AcDbSymbolTable
0
LTYPE
5
14
100
AcDbSymbolTableRecord
100
AcDbLinetypeTableRecord
2
BYBLOCK
70
0
0
LTYPE
5
15
100
AcDbSymbolTableRecord
100
AcDbLinetypeTableRecord
2
BYLAYER
70
0
0
LTYPE
5
16
100
AcDbSymbolTableRecord
100
AcDbLinetypeTableRecord
2
DASHED
70
0
3
Dashed __ __ __ __ __ __ __ __ __ __ __ __ __ _
72
65
73
2
40
0.75
49
0.5
74
0
49
-0.25
74
0
0
ENDTAB
0
TABLE
2
LAYER
5
2
100
AcDbSymbolTable
70
3
0
LAYER
5
50
100
AcDbSymbolTableRecord
100
AcDbLayerTableRecord
2
1
70
0
62
7
6
DASHED
0
LAYER
5
51
100
AcDbSymbolTableRecord
100
AcDbLayerTableRecord
2
0
70
0
62
7
6
CONTINUOUS
0
ENDTAB
0
TABLE
2
STYLE
5
3
100
AcDbSymbolTable
70
1
0
STYLE
5
11
100
AcDbSymbolTableRecord
100
AcDbTextStyleTableRecord
2
STANDARD
70
0
0
ENDTAB
0
TABLE
2
VIEW
5
6
100
AcDbSymbolTable
70
0
0
ENDTAB
0
TABLE
2
UCS
5
7
100
AcDbSymbolTable
70
0
0
ENDTAB
0
TABLE
2
APPID
5
9
100
AcDbSymbolTable
70
2
0
APPID
5
12
100
AcDbSymbolTableRecord
100
AcDbRegAppTableRecord
2
ACAD
70
0
0
ENDTAB
0
TABLE
2
DIMSTYLE
5
A
100
AcDbSymbolTable
70
1
0
ENDTAB
0
TABLE
2
BLOCK_RECORD
5
1
100
AcDbSymbolTable
70
1
0
BLOCK_RECORD
5
1F
100
AcDbSymbolTableRecord
100
AcDbBlockTableRecord
2
*MODEL_SPACE
0
BLOCK_RECORD
5
1B
100
AcDbSymbolTableRecord
100
AcDbBlockTableRecord
2
*PAPER_SPACE
0
ENDTAB
0
ENDSEC
0
SECTION
2
BLOCKS
0
BLOCK
5
20
100
AcDbEntity
100
AcDbBlockBegin
2
*MODEL_SPACE
0
ENDBLK
5
21
100
AcDbEntity
100
AcDbBlockEnd
0
BLOCK
5
1C
100
AcDbEntity
100
AcDbBlockBegin
2
*PAPER_SPACE
0
ENDBLK
5
1D
100
AcDbEntity
100
AcDbBlockEnd
0
ENDSEC
0
SECTION
2
ENTITIES
0
LWPOLYLINE
5
100
100
AcDbEntity
8
0
100
AcDbPolyline
90
36
70
1
43
0.0
10
8.9534152504838147
20
29.720837333895101
42
0.21342176528333692
10
8.8602457514213242
20
29.762504000561769
10
2.0000000000150528
20
29.762504000561769
42
0.41421356237309537
10
1.5000000000150542
20
29.262504000561769
10
1.5000000000150548
20
18.262504000561766
42
0.41421356237309309
10
2.0000000000150546
20
17.762504000561769
10
8.8602457514213224
20
17.762504000561766
42
0.2134217652833838
10
8.9534152504838147
20
17.804170667228433
42
-1.0572796962674407
10
9.041666666681726
20
17.71591925103052
42
0.21342176528338325
10
9.00000000001506
20
17.622749751968026
10
9.00000000001506
20
14.000004000561766
42
0.41421356237309509
10
9.50000000001506
20
13.500004000561765
10
14.292893218828514
20
13.500004000561765
42
0.19891236737966628
10
14.646446609421789
20
13.646450609968493
42
-0.41421356237309509
10
15.353553390608335
20
13.646450609968493
42
0.19891236737966325
10
15.707106781201608
20
13.500004000561763
10
20.500000000015064
20
13.500004000561765
42
0.41421356237309243
10
21.00000000001506
20
14.000004000561766
10
21.000000000015056
20
17.622749751968026
42
0.21342176528335302
10
20.958333333348392
20
17.715919251030524
42
-1.0572796962673132
10
21.046584749546298
20
17.804170667228437
42
0.21342176528340195
10
21.139754248608792
20
17.762504000561762
10
28.000000000015064
20
17.762504000561766
42
0.41421356237309509
10
28.50000000001506
20
18.262504000561766
10
28.500000000015071
20
29.262504000561769
42
0.41421356237309509
10
28.000000000015071
20
29.762504000561769
10
21.139754248608792
20
29.762504000561769
42
0.21342176528331686
10
21.046584749546305
20
29.720837333895098
42
-1.0572796962674218
10
20.958333333348385
20
29.809088750093014
42
0.21342176528330689
10
21.000000000015056
20
29.902258249155508
10
21.000000000015056
20
34.025004000561772
42
0.41421356237309509
10
20.500000000015056
20
34.525004000561765
10
9.5000000000150582
20
34.525004000561765
42
0.41421356237309437
10
9.0000000000150617
20
34.025004000561772
10
9.00000000001506
20
29.902258249155508
42
0.21342176528338289
10
9.041666666681726
20
29.809088750093014
42
-1.0572796962673616
0
CIRCLE
5
101
100
AcDbEntity
8
0
100
AcDbCircle
10
15.000000000015062
20
27.762504000561769
30
0
40
1.3749999999999996
210
0
220
-0
230
1
0
CIRCLE
5
102
100
AcDbEntity
8
0
100
AcDbCircle
10
21.000000000015056
20
21.025004000561765
30
0
40
1.3750000000000018
210
-9.8607613152626476e-32
220
-0
230
1
0
CIRCLE
5
103
100
AcDbEntity
8
0
100
AcDbCircle
10
9.00000000001506
20
21.025004000561765
30
0
40
1.3749999999999996
210
0
220
-0
230
1
0
CIRCLE
5
104
100
AcDbEntity
8
0
100
AcDbCircle
10
15.000000000015062
20
19.762504000561769
30
0
40
1.3749999999999996
210
0
220
-0
230
1
0
ENDSEC
0
SECTION
2
OBJECTS
0
DICTIONARY
5
C
100
AcDbDictionary
3
ACAD_GROUP
350
D
3
ACAD_MLINESTYLE
350
17
0
DICTIONARY
5
D
100
AcDbDictionary
0
DICTIONARY
5
1A
330
C
100
AcDbDictionary
0
DICTIONARY
5
17
100
AcDbDictionary
0
ENDSEC
0
EOF
