0
SECTION
2
HEADER
9
$INSUNITS
70
4
9
$ACADVER
1
AC1014
9
$HANDSEED
5
FFFF
0
ENDSEC
0
SECTION
2
TABLES
0
TABLE
2
VPORT
5
8
100
AcDbSymbolTable
0
ENDTAB
0
TABLE
2
LTYPE
5
5
100
AcDbSymbolTable
0
LTYPE
5
14
100
AcDbSymbolTableRecord
100
AcDbLinetypeTableRecord
2
BYBLOCK
70
0
0
LTYPE
5
15
100
AcDbSymbolTableRecord
100
AcDbLinetypeTableRecord
2
BYLAYER
70
0
0
LTYPE
5
16
100
AcDbSymbolTableRecord
100
AcDbLinetypeTableRecord
2
DASHED
70
0
3
Dashed __ __ __ __ __ __ __ __ __ __ __ __ __ _
72
65
73
2
40
0.75
49
0.5
74
0
49
-0.25
74
0
0
ENDTAB
0
TABLE
2
LAYER
5
2
100
AcDbSymbolTable
70
3
0
LAYER
5
50
100
AcDbSymbolTableRecord
100
AcDbLayerTableRecord
2
1
70
0
62
7
6
DASHED
0
LAYER
5
51
100
AcDbSymbolTableRecord
100
AcDbLayerTableRecord
2
0
70
0
62
7
6
CONTINUOUS
0
ENDTAB
0
TABLE
2
STYLE
5
3
100
AcDbSymbolTable
70
1
0
STYLE
5
11
100
AcDbSymbolTableRecord
100
AcDbTextStyleTableRecord
2
STANDARD
70
0
0
ENDTAB
0
TABLE
2
VIEW
5
6
100
AcDbSymbolTable
70
0
0
ENDTAB
0
TABLE
2
UCS
5
7
100
AcDbSymbolTable
70
0
0
ENDTAB
0
TABLE
2
APPID
5
9
100
AcDbSymbolTable
70
2
0
APPID
5
12
100
AcDbSymbolTableRecord
100
AcDbRegAppTableRecord
2
ACAD
70
0
0
ENDTAB
0
TABLE
2
DIMSTYLE
5
A
100
AcDbSymbolTable
70
1
0
ENDTAB
0
TABLE
2
BLOCK_RECORD
5
1
100
AcDbSymbolTable
70
1
0
BLOCK_RECORD
5
1F
100
AcDbSymbolTableRecord
100
AcDbBlockTableRecord
2
*MODEL_SPACE
0
BLOCK_RECORD
5
1B
100
AcDbSymbolTableRecord
100
AcDbBlockTableRecord
2
*PAPER_SPACE
0
ENDTAB
0
ENDSEC
0
SECTION
2
BLOCKS
0
BLOCK
5
20
100
AcDbEntity
100
AcDbBlockBegin
2
*MODEL_SPACE
0
ENDBLK
5
21
100
AcDbEntity
100
AcDbBlockEnd
0
BLOCK
5
1C
100
AcDbEntity
100
AcDbBlockBegin
2
*PAPER_SPACE
0
ENDBLK
5
1D
100
AcDbEntity
100
AcDbBlockEnd
0
ENDSEC
0
SECTION
2
ENTITIES
0
LWPOLYLINE
5
100
100
AcDbEntity
8
0
100
AcDbPolyline
90
32
70
1
43
0.0
10
8.833333333333325
20
-21.153414106059575
42
0.21342176528338638
10
8.8749999999999911
20
-21.060244606997081
10
8.8749999999999893
20
-16.937498855590817
42
0.4142135623730937
10
8.3749999999999893
20
-16.437498855590821
10
2.4999999999999956
20
-16.437498855590821
42
0.41421356237309492
10
1.4999999999999951
20
-17.437498855590825
10
1.4999999999999925
20
-49.962498855590823
42
0.41421356237309553
10
2.4999999999999938
20
-50.962498855590823
10
8.3750000000000036
20
-50.962498855590823
42
0.41421356237309637
10
8.8750000000000036
20
-50.462498855590816
10
8.8750000000000036
20
-46.339753104184553
42
0.21342176528338927
10
8.8333333333333375
20
-46.246583605122062
42
-1.0572796962674607
10
8.9215847495312488
20
-46.158332188924156
42
0.21342176528339687
10
9.0147542485937429
20
-46.19999885559082
10
20.985245751406275
20
-46.19999885559082
42
0.21342176528340157
10
21.078415250468773
20
-46.158332188924163
42
-1.0572796962673143
10
21.166666666666679
20
-46.246583605122069
42
0.21342176528335219
10
21.125000000000004
20
-46.33975310418456
10
21.125000000000007
20
-50.462498855590816
42
0.41421356237309759
10
21.625000000000011
20
-50.962498855590809
10
27.499999999999996
20
-50.962498855590823
42
0.41421356237309243
10
28.5
20
-49.962498855590816
10
28.499999999999996
20
-17.437498855590825
42
0.41421356237309048
10
27.5
20
-16.437498855590825
10
21.625000000000007
20
-16.437498855590821
42
0.41421356237309243
10
21.125000000000007
20
-16.937498855590821
10
21.125000000000011
20
-21.060244606997081
42
0.21342176528341233
10
21.166666666666671
20
-21.153414106059568
42
-1.057279696267448
10
21.078415250468758
20
-21.241665522257488
42
0.21342176528330761
10
20.985245751406268
20
-21.199998855590817
10
9.0147542485937286
20
-21.199998855590824
42
0.21342176528333998
10
8.9215847495312328
20
-21.241665522257485
42
-1.0572796962674027
0
CIRCLE
5
101
100
AcDbEntity
8
0
100
AcDbCircle
10
25.000000000000021
20
-23.69999885559082
30
0
40
1.6000000000000003
210
0
220
0
230
1
0
CIRCLE
5
102
100
AcDbEntity
8
0
100
AcDbCircle
10
5.0000000000000169
20
-43.69999885559082
30
0
40
1.6000000000000003
210
0
220
0
230
1
0
CIRCLE
5
103
100
AcDbEntity
8
0
100
AcDbCircle
10
5.0000000000000169
20
-23.69999885559082
30
0
40
1.6000000000000003
210
0
220
0
230
1
0
CIRCLE
5
104
100
AcDbEntity
8
0
100
AcDbCircle
10
25.000000000000021
20
-43.69999885559082
30
0
40
1.6000000000000003
210
0
220
0
230
1
0
LWPOLYLINE
5
105
100
AcDbEntity
8
0
100
AcDbPolyline
90
7
70
1
43
0.0
10
16.062499999999996
20
-37.595832188924156
10
18.895833333333332
20
-37.595832188924156
10
18.895833333333332
20
-34.76249885559082
10
23.5
20
-34.76249885559082
10
23.5
20
-38.799998855590815
42
-0.41421356237309509
10
20.100000000000001
20
-42.199998855590827
10
16.0625
20
-42.19999885559082
0
LWPOLYLINE
5
106
100
AcDbEntity
8
0
100
AcDbPolyline
90
5
70
1
43
0.0
10
6.4999999999999991
20
-32.63749885559082
10
6.4999999999999964
20
-28.599998855590822
42
-0.41421356237309576
10
9.8999999999999986
20
-25.19999885559082
10
13.937499999999998
20
-25.19999885559082
10
13.9375
20
-32.63749885559082
0
LWPOLYLINE
5
107
100
AcDbEntity
8
0
100
AcDbPolyline
90
5
70
1
43
0.0
10
16.0625
20
-25.19999885559082
10
20.100000000000001
20
-25.19999885559082
42
-0.41421356237309581
10
23.5
20
-28.599998855590819
10
23.5
20
-32.63749885559082
10
16.0625
20
-32.63749885559082
0
LWPOLYLINE
5
108
100
AcDbEntity
8
0
100
AcDbPolyline
90
5
70
1
43
0.0
10
13.9375
20
-42.19999885559082
10
9.9000000000000004
20
-42.199998855590827
42
-0.41421356237309465
10
6.4999999999999991
20
-38.799998855590822
10
6.4999999999999982
20
-34.76249885559082
10
13.937499999999998
20
-34.76249885559082
0
ENDSEC
0
SECTION
2
OBJECTS
0
DICTIONARY
5
C
100
AcDbDictionary
3
ACAD_GROUP
350
D
3
ACAD_MLINESTYLE
350
17
0
DICTIONARY
5
D
100
AcDbDictionary
0
DICTIONARY
5
1A
330
C
100
AcDbDictionary
0
DICTIONARY
5
17
100
AcDbDictionary
0
ENDSEC
0
EOF
