0
SECTION
2
HEADER
9
$INSUNITS
70
4
9
$ACADVER
1
AC1014
9
$HANDSEED
5
FFFF
0
ENDSEC
0
SECTION
2
TABLES
0
TABLE
2
VPORT
5
8
100
AcDbSymbolTable
0
ENDTAB
0
TABLE
2
LTYPE
5
5
100
AcDbSymbolTable
0
LTYPE
5
14
100
AcDbSymbolTableRecord
100
AcDbLinetypeTableRecord
2
BYBLOCK
70
0
0
LTYPE
5
15
100
AcDbSymbolTableRecord
100
AcDbLinetypeTableRecord
2
BYLAYER
70
0
0
ENDTAB
0
TABLE
2
LAYER
5
2
100
AcDbSymbolTable
70
2
0
LAYER
5
50
100
AcDbSymbolTableRecord
100
AcDbLayerTableRecord
2
0
70
0
6
CONTINUOUS
0
ENDTAB
0
TABLE
2
STYLE
5
3
100
AcDbSymbolTable
70
1
0
STYLE
5
11
100
AcDbSymbolTableRecord
100
AcDbTextStyleTableRecord
2
STANDARD
70
0
0
ENDTAB
0
TABLE
2
VIEW
5
6
100
AcDbSymbolTable
70
0
0
ENDTAB
0
TABLE
2
UCS
5
7
100
AcDbSymbolTable
70
0
0
ENDTAB
0
TABLE
2
APPID
5
9
100
AcDbSymbolTable
70
2
0
APPID
5
12
100
AcDbSymbolTableRecord
100
AcDbRegAppTableRecord
2
ACAD
70
0
0
ENDTAB
0
TABLE
2
DIMSTYLE
5
A
100
AcDbSymbolTable
70
1
0
ENDTAB
0
TABLE
2
BLOCK_RECORD
5
1
100
AcDbSymbolTable
70
1
0
BLOCK_RECORD
5
1F
100
AcDbSymbolTableRecord
100
AcDbBlockTableRecord
2
*MODEL_SPACE
0
BLOCK_RECORD
5
1B
100
AcDbSymbolTableRecord
100
AcDbBlockTableRecord
2
*PAPER_SPACE
0
ENDTAB
0
ENDSEC
0
SECTION
2
BLOCKS
0
BLOCK
5
20
100
AcDbEntity
100
AcDbBlockBegin
2
*MODEL_SPACE
0
ENDBLK
5
21
100
AcDbEntity
100
AcDbBlockEnd
0
BLOCK
5
1C
100
AcDbEntity
100
AcDbBlockBegin
2
*PAPER_SPACE
0
ENDBLK
5
1D
100
AcDbEntity
100
AcDbBlockEnd
0
ENDSEC
0
SECTION
2
ENTITIES
0
CIRCLE
5
100
100
AcDbEntity
8
0
100
AcDbCircle
10
50.000000000000014
20
-32.437499999995119
30
0
40
2.7500000000000036
210
0
220
-0
230
1
0
CIRCLE
5
101
100
AcDbEntity
8
0
100
AcDbCircle
10
60.000000000000028
20
-33.237499999995123
30
0
40
2.3000000000000043
210
0
220
-0
230
1
0
CIRCLE
5
102
100
AcDbEntity
8
0
100
AcDbCircle
10
51.000000000000021
20
-44.937499999995119
30
0
40
2.3000000000000043
210
0
220
-0
230
1
0
CIRCLE
5
103
100
AcDbEntity
8
0
100
AcDbCircle
10
85.000000000000014
20
-32.437499999995126
30
0
40
2.7500000000000036
210
0
220
-0
230
1
0
CIRCLE
5
104
100
AcDbEntity
8
0
100
AcDbCircle
10
41.000000000000021
20
-29.937499999995119
30
0
40
2.2999999999999998
210
0
220
-0
230
1
0
CIRCLE
5
105
100
AcDbEntity
8
0
100
AcDbCircle
10
68.000000000000028
20
-34.087499999995117
30
0
40
2.3000000000000043
210
0
220
-0
230
1
0
CIRCLE
5
106
100
AcDbEntity
8
0
100
AcDbCircle
10
25.000000000030049
20
-50.700000000000017
30
0
40
1.599999999999997
210
0
220
0
230
1
0
CIRCLE
5
107
100
AcDbEntity
8
0
100
AcDbCircle
10
5.0000000000000338
20
-30.700000000000003
30
0
40
1.5999999999999992
210
0
220
0
230
1
0
CIRCLE
5
108
100
AcDbEntity
8
0
100
AcDbCircle
10
25.000000000030056
20
-30.700000000000006
30
0
40
1.599999999999997
210
0
220
0
230
1
0
CIRCLE
5
109
100
AcDbEntity
8
0
100
AcDbCircle
10
5.0000000000000266
20
-50.700000000000003
30
0
40
1.5999999999999992
210
0
220
0
230
1
0
LWPOLYLINE
5
110
100
AcDbEntity
8
0
100
AcDbPolyline
90
31
70
1
43
0.0
10
8.8750000000150493
20
-53.339754248593742
42
0.21342176528341758
10
8.8333333333483814
20
-53.246584749531259
42
-1.0572796962674074
10
8.9215847495462928
20
-53.158333333333331
42
0.21342176528332144
10
9.0147542486087779
20
-53.199999999999996
10
20.985245751421321
20
-53.200000000000003
42
0.21342176528326295
10
21.078415250483822
20
-53.15833333333336
42
-1.057279696267293
10
21.166666666681717
20
-53.246584749531245
42
0.21342176528337151
10
21.125000000015056
20
-53.339754248593735
10
21.125000000015035
20
-56.962499999993035
42
0.41421356237326412
10
21.625000000015309
20
-57.462499999993035
10
81.000000000005457
20
-57.462499999960599
42
0.41421356237293322
10
90.999999999999972
20
-47.462499999960627
10
91.000000000000028
20
-24.437499999962007
42
0.41421356237325629
10
89.999999999999488
20
-23.437499999962014
10
21.625000000014765
20
-23.437499999999734
42
0.41421356237293372
10
21.125000000015042
20
-23.93749999999973
10
21.125000000015042
20
-28.060245751406271
42
0.21342176528331688
10
21.166666666681735
20
-28.153415250468758
42
-1.0572796962674218
10
21.078415250483818
20
-28.241666666666674
42
0.21342176528330689
10
20.985245751421324
20
-28.200000000000006
10
9.0147542486087939
20
-28.200000000000006
42
0.069902319921136227
10
8.9803112936565164
20
-28.204838929539751
42
-0.2558451386781303
10
8.8750000000150759
20
-28.26250000000001
42
-0.99999999999999989
10
8.8750000000150386
20
-28.137500000000006
10
8.8750000000150422
20
-23.437500000000007
10
2.5000000000150404
20
-23.437500000000007
42
0.41421356237309243
10
1.5000000000150393
20
-24.437500000000011
10
1.5000000000150446
20
-56.462500000000006
42
0.41421356237309537
10
2.5000000000150449
20
-57.462499999999999
10
8.3750000000150315
20
-57.462499999999999
42
0.41421356237309637
10
8.8750000000150315
20
-56.962499999999991
0
CIRCLE
5
111
100
AcDbEntity
8
0
100
AcDbCircle
10
76.000000000000028
20
-34.937499999995119
30
0
40
2.3000000000000043
210
0
220
-0
230
1
0
CIRCLE
5
112
100
AcDbEntity
8
0
100
AcDbCircle
10
40.000000000000014
20
-42.437499999995097
30
0
40
2.7499999999999991
210
0
220
-0
230
1
0
CIRCLE
5
113
100
AcDbEntity
8
0
100
AcDbCircle
10
85.000000000000014
20
-42.437499999995083
30
0
40
2.7500000000000036
210
0
220
-0
230
1
0
ENDSEC
0
SECTION
2
OBJECTS
0
DICTIONARY
5
C
100
AcDbDictionary
3
ACAD_GROUP
350
D
3
ACAD_MLINESTYLE
350
17
0
DICTIONARY
5
D
100
AcDbDictionary
0
DICTIONARY
5
1A
330
C
100
AcDbDictionary
0
DICTIONARY
5
17
100
AcDbDictionary
0
ENDSEC
0
EOF
