0
SECTION
2
HEADER
9
$INSUNITS
70
4
9
$ACADVER
1
AC1014
9
$HANDSEED
5
FFFF
0
ENDSEC
0
SECTION
2
TABLES
0
TABLE
2
VPORT
5
8
100
AcDbSymbolTable
0
ENDTAB
0
TABLE
2
LTYPE
5
5
100
AcDbSymbolTable
0
LTYPE
5
14
100
AcDbSymbolTableRecord
100
AcDbLinetypeTableRecord
2
BYBLOCK
70
0
0
LTYPE
5
15
100
AcDbSymbolTableRecord
100
AcDbLinetypeTableRecord
2
BYLAYER
70
0
0
ENDTAB
0
TABLE
2
LAYER
5
2
100
AcDbSymbolTable
70
2
0
LAYER
5
50
100
AcDbSymbolTableRecord
100
AcDbLayerTableRecord
2
0
70
0
6
CONTINUOUS
0
ENDTAB
0
TABLE
2
STYLE
5
3
100
AcDbSymbolTable
70
1
0
STYLE
5
11
100
AcDbSymbolTableRecord
100
AcDbTextStyleTableRecord
2
STANDARD
70
0
0
ENDTAB
0
TABLE
2
VIEW
5
6
100
AcDbSymbolTable
70
0
0
ENDTAB
0
TABLE
2
UCS
5
7
100
AcDbSymbolTable
70
0
0
ENDTAB
0
TABLE
2
APPID
5
9
100
AcDbSymbolTable
70
2
0
APPID
5
12
100
AcDbSymbolTableRecord
100
AcDbRegAppTableRecord
2
ACAD
70
0
0
ENDTAB
0
TABLE
2
DIMSTYLE
5
A
100
AcDbSymbolTable
70
1
0
ENDTAB
0
TABLE
2
BLOCK_RECORD
5
1
100
AcDbSymbolTable
70
1
0
BLOCK_RECORD
5
1F
100
AcDbSymbolTableRecord
100
AcDbBlockTableRecord
2
*MODEL_SPACE
0
BLOCK_RECORD
5
1B
100
AcDbSymbolTableRecord
100
AcDbBlockTableRecord
2
*PAPER_SPACE
0
ENDTAB
0
ENDSEC
0
SECTION
2
BLOCKS
0
BLOCK
5
20
100
AcDbEntity
100
AcDbBlockBegin
2
*MODEL_SPACE
0
ENDBLK
5
21
100
AcDbEntity
100
AcDbBlockEnd
0
BLOCK
5
1C
100
AcDbEntity
100
AcDbBlockBegin
2
*PAPER_SPACE
0
ENDBLK
5
1D
100
AcDbEntity
100
AcDbBlockEnd
0
ENDSEC
0
SECTION
2
ENTITIES
0
LWPOLYLINE
5
100
100
AcDbEntity
8
0
100
AcDbPolyline
90
4
70
1
43
0.0
10
11.852018714996234
20
-433.12227025643767
42
0.99999999999999989
10
-10.864813118861345
20
-436.72026295239004
42
-0.078701706824547066
10
-10.864813118860951
20
-439.98045426099173
42
0.99999999999999989
10
11.852018714997632
20
-443.5784469569378
42
0.078701706824551604
0
CIRCLE
5
101
100
AcDbEntity
8
0
100
AcDbCircle
10
-21.156832025277723
20
-438.35035860669217
30
0
40
1.6000000000000014
210
0
220
0
230
1
0
CIRCLE
5
102
100
AcDbEntity
8
0
100
AcDbCircle
10
-15.000000000000004
20
-372
30
0
40
3.0000000000000115
210
0
220
0
230
1
0
CIRCLE
5
103
100
AcDbEntity
8
0
100
AcDbCircle
10
23.500000000000043
20
-463.50000000000011
30
0
40
2.7500000000000169
210
0
220
0
230
1
0
CIRCLE
5
104
100
AcDbEntity
8
0
100
AcDbCircle
10
-23.500000000000028
20
-463.50000000000017
30
0
40
2.7500000000000036
210
0
220
0
230
1
0
CIRCLE
5
105
100
AcDbEntity
8
0
100
AcDbCircle
10
-23.499999999999996
20
-362.5
30
0
40
2.7500000000000124
210
0
220
0
230
1
0
CIRCLE
5
106
100
AcDbEntity
8
0
100
AcDbCircle
10
-3.0000000000000027
20
-397
30
0
40
6.4375
210
0
220
0
230
1
0
CIRCLE
5
107
100
AcDbEntity
8
0
100
AcDbCircle
10
4.5000000028445335
20
-365
30
0
40
2.5000000000000169
210
0
220
0
230
1
0
LWPOLYLINE
5
108
100
AcDbEntity
8
0
100
AcDbPolyline
90
4
70
1
43
0.0
10
5.2980236908555973
20
-457.57093635670844
42
0.99999999999999989
10
2.5473659098365853
20
-455.57246649880892
42
-0.078701706607120697
10
-3.9347241126646471
20
-462.05455652691506
42
1.0000000105367122
10
-1.9362542752591838
20
-464.80521432282359
42
0.078701706824599676
0
LWPOLYLINE
5
109
100
AcDbEntity
8
0
100
AcDbPolyline
90
4
70
1
43
0.0
10
23.823107799911739
20
-431.22623601164781
42
0.9999999925494194
10
20.464967442913014
20
-431.75811319262243
42
-0.078701706824817405
10
20.464967442907867
20
-444.94260402079431
42
1.0000000074505806
10
23.823107799906218
20
-445.47448120177148
42
0.078701706824818474
0
CIRCLE
5
110
100
AcDbEntity
8
0
100
AcDbCircle
10
23.500000000000018
20
-375.00000000000028
30
0
40
2.7499999999999902
210
0
220
0
230
1
0
LWPOLYLINE
5
111
100
AcDbEntity
8
0
100
AcDbPolyline
90
4
70
1
43
0.0
10
-1.9362542748624594
20
-411.89550289001005
42
1.0000000105367122
10
-3.9347241130659238
20
-414.64616068701741
42
-0.07870170691470349
10
2.5473659303440197
20
-421.12825074395715
42
0.9999999925494194
10
5.2980236914045031
20
-419.12978085627697
42
0.078701706824620021
0
LWPOLYLINE
5
112
100
AcDbEntity
8
0
100
AcDbPolyline
90
8
70
1
43
0.0
10
-23.499999999999996
20
-356
42
0.41421356237309503
10
-29.999999999999996
20
-362.5
10
-30.000000000000004
20
-463.5
42
0.41421356237310203
10
-23.500000000000014
20
-470
10
23.500000000000032
20
-469.99999999999994
42
0.41421356237310186
10
30.000000000000032
20
-463.49999999999994
10
29.999999999999986
20
-362.5
42
0.41421356237310125
10
23.500000000000007
20
-356
0
ENDSEC
0
SECTION
2
OBJECTS
0
DICTIONARY
5
C
100
AcDbDictionary
3
ACAD_GROUP
350
D
3
ACAD_MLINESTYLE
350
17
0
DICTIONARY
5
D
100
AcDbDictionary
0
DICTIONARY
5
1A
330
C
100
AcDbDictionary
0
DICTIONARY
5
17
100
AcDbDictionary
0
ENDSEC
0
EOF
