0
SECTION
2
HEADER
9
$INSUNITS
70
4
9
$ACADVER
1
AC1014
9
$HANDSEED
5
FFFF
0
ENDSEC
0
SECTION
2
TABLES
0
TABLE
2
VPORT
5
8
100
AcDbSymbolTable
0
ENDTAB
0
TABLE
2
LTYPE
5
5
100
AcDbSymbolTable
0
LTYPE
5
14
100
AcDbSymbolTableRecord
100
AcDbLinetypeTableRecord
2
BYBLOCK
70
0
0
LTYPE
5
15
100
AcDbSymbolTableRecord
100
AcDbLinetypeTableRecord
2
BYLAYER
70
0
0
LTYPE
5
16
100
AcDbSymbolTableRecord
100
AcDbLinetypeTableRecord
2
DASHED
70
0
3
Dashed __ __ __ __ __ __ __ __ __ __ __ __ __ _
72
65
73
2
40
0.75
49
0.5
74
0
49
-0.25
74
0
0
ENDTAB
0
TABLE
2
LAYER
5
2
100
AcDbSymbolTable
70
3
0
LAYER
5
50
100
AcDbSymbolTableRecord
100
AcDbLayerTableRecord
2
1
70
0
62
7
6
DASHED
0
LAYER
5
51
100
AcDbSymbolTableRecord
100
AcDbLayerTableRecord
2
0
70
0
62
7
6
CONTINUOUS
0
ENDTAB
0
TABLE
2
STYLE
5
3
100
AcDbSymbolTable
70
1
0
STYLE
5
11
100
AcDbSymbolTableRecord
100
AcDbTextStyleTableRecord
2
STANDARD
70
0
0
ENDTAB
0
TABLE
2
VIEW
5
6
100
AcDbSymbolTable
70
0
0
ENDTAB
0
TABLE
2
UCS
5
7
100
AcDbSymbolTable
70
0
0
ENDTAB
0
TABLE
2
APPID
5
9
100
AcDbSymbolTable
70
2
0
APPID
5
12
100
AcDbSymbolTableRecord
100
AcDbRegAppTableRecord
2
ACAD
70
0
0
ENDTAB
0
TABLE
2
DIMSTYLE
5
A
100
AcDbSymbolTable
70
1
0
ENDTAB
0
TABLE
2
BLOCK_RECORD
5
1
100
AcDbSymbolTable
70
1
0
BLOCK_RECORD
5
1F
100
AcDbSymbolTableRecord
100
AcDbBlockTableRecord
2
*MODEL_SPACE
0
BLOCK_RECORD
5
1B
100
AcDbSymbolTableRecord
100
AcDbBlockTableRecord
2
*PAPER_SPACE
0
ENDTAB
0
ENDSEC
0
SECTION
2
BLOCKS
0
BLOCK
5
20
100
AcDbEntity
100
AcDbBlockBegin
2
*MODEL_SPACE
0
ENDBLK
5
21
100
AcDbEntity
100
AcDbBlockEnd
0
BLOCK
5
1C
100
AcDbEntity
100
AcDbBlockBegin
2
*PAPER_SPACE
0
ENDBLK
5
1D
100
AcDbEntity
100
AcDbBlockEnd
0
ENDSEC
0
SECTION
2
ENTITIES
0
LWPOLYLINE
5
100
100
AcDbEntity
8
0
100
AcDbPolyline
90
4
70
1
43
0.0
10
11.827843001540526
20
-441.12446346916533
42
0.99999999999999989
10
-10.888988832317114
20
-444.72245616511765
42
-0.078701706824548398
10
-10.888988832316697
20
-447.98264747371945
42
0.99999999999999989
10
11.827843001541929
20
-451.58064016966546
42
0.078701706824550702
0
CIRCLE
5
101
100
AcDbEntity
8
0
100
AcDbCircle
10
-21.181007738733793
20
-446.35255181941989
30
0
40
1.6000000000000014
210
0
220
0
230
1
0
CIRCLE
5
102
100
AcDbEntity
8
0
100
AcDbCircle
10
-14.999999999976657
20
-379
30
0
40
3.0000000000000115
210
0
220
0
230
1
0
CIRCLE
5
103
100
AcDbEntity
8
0
100
AcDbCircle
10
23.499999999985235
20
-470.5
30
0
40
2.7500000000000169
210
0
220
0
230
1
0
CIRCLE
5
104
100
AcDbEntity
8
0
100
AcDbCircle
10
-23.499999999976673
20
-470.5
30
0
40
2.7500000000000036
210
0
220
0
230
1
0
CIRCLE
5
105
100
AcDbEntity
8
0
100
AcDbCircle
10
-2.999999999976664
20
-405
30
0
40
6.4375
210
0
220
0
230
1
0
CIRCLE
5
106
100
AcDbEntity
8
0
100
AcDbCircle
10
4.500000002844522
20
-373
30
0
40
2.4375
210
0
220
0
230
1
0
LWPOLYLINE
5
107
100
AcDbEntity
8
0
100
AcDbPolyline
90
4
70
1
43
0.0
10
5.2738479774000755
20
-465.57312956943611
42
0.99999999999999989
10
2.5231901963806171
20
-463.57465971153664
42
-0.078701706824600232
10
-3.9588998466143721
20
-470.05674975453235
42
0.99999999999999989
10
-1.9604299887148469
20
-472.80740753555165
42
0.078701706824601397
0
LWPOLYLINE
5
108
100
AcDbEntity
8
0
100
AcDbPolyline
90
4
70
1
43
0.0
10
23.798932086455977
20
-439.22842922437508
42
0.99999999999999989
10
20.440791729457224
20
-439.76030640534975
42
-0.078701706976028907
10
20.440791725489444
20
-452.94479725854154
42
0.99999999999999989
10
23.798932086450598
20
-453.47667441449852
42
0.078701706824816225
0
CIRCLE
5
109
100
AcDbEntity
8
0
100
AcDbCircle
10
23.500000000023348
20
-381.99999999999994
30
0
40
2.7499999999999902
210
0
220
0
230
1
0
ARC
5
110
100
AcDbEntity
8
0
100
AcDbCircle
10
-23.499999999976655
20
-369.5
30
0
40
6.4999999999999858
210
0
220
-0
230
1
100
AcDbArc
50
89.999999999999972
51
180
0
LINE
5
111
100
AcDbEntity
8
0
100
AcDbLine
10
-29.999999999976655
20
-369.5
30
0
11
-29.999999999976659
21
-470.5
31
0
0
ARC
5
112
100
AcDbEntity
8
0
100
AcDbCircle
10
-23.499999999976673
20
-470.5
30
0
40
6.4999999999999858
210
0
220
0
230
1
100
AcDbArc
50
180
51
270
0
LINE
5
113
100
AcDbEntity
8
0
100
AcDbLine
10
-23.499999999976673
20
-476.99999999999994
30
0
11
23.499999999985235
21
-476.99999999999994
31
0
0
ARC
5
114
100
AcDbEntity
8
0
100
AcDbCircle
10
23.499999999985235
20
-470.5
30
0
40
6.4999999999999858
210
0
220
0
230
1
100
AcDbArc
50
270
51
360
0
LINE
5
115
100
AcDbEntity
8
0
100
AcDbLine
10
29.999999999985235
20
-470.50000000000227
30
0
11
30.000000000020975
21
-369.50000000000239
31
0
0
ARC
5
116
100
AcDbEntity
8
0
100
AcDbCircle
10
23.500000000021135
20
-369.49999999999994
30
0
40
6.4999999999998392
210
-0
220
0
230
1
100
AcDbArc
50
0
51
90.000000000000938
0
LINE
5
117
100
AcDbEntity
8
0
100
AcDbLine
10
23.500000000021029
20
-363.00000000000011
30
0
11
-23.499999999976655
21
-363.00000000000006
31
0
0
CIRCLE
5
118
100
AcDbEntity
8
0
100
AcDbCircle
10
-2.9999999999766636
20
-414
30
0
40
1.375000000000006
210
0
220
0
230
1
0
CIRCLE
5
119
100
AcDbEntity
8
0
100
AcDbCircle
10
-2.9999999999766636
20
-396
30
0
40
1.3749999999999984
210
0
220
0
230
1
0
CIRCLE
5
120
100
AcDbEntity
8
0
100
AcDbCircle
10
-14.999999999976609
20
-461.00000000000085
30
0
40
3.0000000000000071
210
0
220
0
230
1
0
CIRCLE
5
121
100
AcDbEntity
8
0
100
AcDbCircle
10
14.999999999979952
20
-460.99999999999994
30
0
40
2.9999999999999893
210
0
220
0
230
1
0
CIRCLE
5
122
100
AcDbEntity
8
0
100
AcDbCircle
10
-23.499999999976655
20
-369.5
30
0
40
2.7500000000000124
210
0
220
0
230
1
0
ENDSEC
0
SECTION
2
OBJECTS
0
DICTIONARY
5
C
100
AcDbDictionary
3
ACAD_GROUP
350
D
3
ACAD_MLINESTYLE
350
17
0
DICTIONARY
5
D
100
AcDbDictionary
0
DICTIONARY
5
1A
330
C
100
AcDbDictionary
0
DICTIONARY
5
17
100
AcDbDictionary
0
ENDSEC
0
EOF
