0
SECTION
2
HEADER
9
$INSUNITS
70
4
9
$ACADVER
1
AC1014
9
$HANDSEED
5
FFFF
0
ENDSEC
0
SECTION
2
TABLES
0
TABLE
2
VPORT
5
8
100
AcDbSymbolTable
0
ENDTAB
0
TABLE
2
LTYPE
5
5
100
AcDbSymbolTable
0
LTYPE
5
14
100
AcDbSymbolTableRecord
100
AcDbLinetypeTableRecord
2
BYBLOCK
70
0
0
LTYPE
5
15
100
AcDbSymbolTableRecord
100
AcDbLinetypeTableRecord
2
BYLAYER
70
0
0
ENDTAB
0
TABLE
2
LAYER
5
2
100
AcDbSymbolTable
70
2
0
LAYER
5
50
100
AcDbSymbolTableRecord
100
AcDbLayerTableRecord
2
0
70
0
6
CONTINUOUS
0
ENDTAB
0
TABLE
2
STYLE
5
3
100
AcDbSymbolTable
70
1
0
STYLE
5
11
100
AcDbSymbolTableRecord
100
AcDbTextStyleTableRecord
2
STANDARD
70
0
0
ENDTAB
0
TABLE
2
VIEW
5
6
100
AcDbSymbolTable
70
0
0
ENDTAB
0
TABLE
2
UCS
5
7
100
AcDbSymbolTable
70
0
0
ENDTAB
0
TABLE
2
APPID
5
9
100
AcDbSymbolTable
70
2
0
APPID
5
12
100
AcDbSymbolTableRecord
100
AcDbRegAppTableRecord
2
ACAD
70
0
0
ENDTAB
0
TABLE
2
DIMSTYLE
5
A
100
AcDbSymbolTable
70
1
0
ENDTAB
0
TABLE
2
BLOCK_RECORD
5
1
100
AcDbSymbolTable
70
1
0
BLOCK_RECORD
5
1F
100
AcDbSymbolTableRecord
100
AcDbBlockTableRecord
2
*MODEL_SPACE
0
BLOCK_RECORD
5
1B
100
AcDbSymbolTableRecord
100
AcDbBlockTableRecord
2
*PAPER_SPACE
0
ENDTAB
0
ENDSEC
0
SECTION
2
BLOCKS
0
BLOCK
5
20
100
AcDbEntity
100
AcDbBlockBegin
2
*MODEL_SPACE
0
ENDBLK
5
21
100
AcDbEntity
100
AcDbBlockEnd
0
BLOCK
5
1C
100
AcDbEntity
100
AcDbBlockBegin
2
*PAPER_SPACE
0
ENDBLK
5
1D
100
AcDbEntity
100
AcDbBlockEnd
0
ENDSEC
0
SECTION
2
ENTITIES
0
LWPOLYLINE
5
100
100
AcDbEntity
8
0
100
AcDbPolyline
90
12
70
1
43
0.0
10
-26.650000000000173
20
-33.850000000000001
42
0.41421356237314444
10
-26.150000000000169
20
-33.349999999999923
10
-26.150000000000468
20
-31.600000000000076
42
-0.41421356237314966
10
-25.650000000000471
20
-31.099999999999994
10
-19.5
20
-31.099999999999994
42
-0.41421356237309637
10
-19.000000000000004
20
-31.599999999999998
10
-18.999999999999993
20
-36.600000000000009
42
-0.41421356237309509
10
-23.399999999999999
20
-41.000000000000014
10
-28.399999999999963
20
-41.000000000000028
42
-0.41421356237308982
10
-28.89999999999997
20
-40.500000000000014
10
-28.899999999999967
20
-34.349999999999994
42
-0.41421356237309509
10
-28.399999999999967
20
-33.849999999999994
0
LWPOLYLINE
5
101
100
AcDbEntity
8
0
100
AcDbPolyline
90
12
70
1
43
0.0
10
-60.000000000000007
20
-88.000000000000043
42
0.41421356237309509
10
-58.000000000000014
20
-90.000000000000057
10
-2.0000000000000107
20
-90
42
0.41421356237309509
10
-1.1309213057657396e-14
20
-88
10
-5.5511151231257827e-16
20
-2.0000000000000102
42
0.41421356237309626
10
-2.0000000000000009
20
0
10
-118.00000000000004
20
-5.5511151231257827e-16
42
0.41421356237309509
10
-120.00000000000003
20
-2
10
-120.00000000000003
20
-28
42
0.41421356237309509
10
-118.00000000000004
20
-30
10
-62.000000000000036
20
-30
42
-0.41421356237309892
10
-60.000000000000036
20
-32.000000000000014
0
CIRCLE
5
102
100
AcDbEntity
8
0
100
AcDbCircle
10
-45
20
-75.000000000000014
30
0
40
2.6999999999999957
210
-0
220
0
230
1
0
CIRCLE
5
103
100
AcDbEntity
8
0
100
AcDbCircle
10
-45
20
-45.000000000000014
30
0
40
2.6999999999999957
210
-0
220
0
230
1
0
CIRCLE
5
104
100
AcDbEntity
8
0
100
AcDbCircle
10
-15
20
-75.000000000000014
30
0
40
2.7000000000000002
210
-0
220
0
230
1
0
CIRCLE
5
105
100
AcDbEntity
8
0
100
AcDbCircle
10
-15
20
-15.000000000000014
30
0
40
2.7000000000000002
210
-0
220
0
230
1
0
CIRCLE
5
106
100
AcDbEntity
8
0
100
AcDbCircle
10
-75
20
-15.000000000000014
30
0
40
2.6999999999999957
210
-0
220
0
230
1
0
CIRCLE
5
107
100
AcDbEntity
8
0
100
AcDbCircle
10
-15
20
-45.000000000000014
30
0
40
2.7000000000000002
210
-0
220
0
230
1
0
CIRCLE
5
108
100
AcDbEntity
8
0
100
AcDbCircle
10
-105
20
-15.000000000000014
30
0
40
2.6999999999999957
210
-0
220
0
230
1
0
CIRCLE
5
109
100
AcDbEntity
8
0
100
AcDbCircle
10
-45
20
-15.000000000000014
30
0
40
2.6999999999999957
210
-0
220
0
230
1
0
LWPOLYLINE
5
110
100
AcDbEntity
8
0
100
AcDbPolyline
90
7
70
1
43
0.0
10
-23.399999999999999
20
-19.000000000000018
10
-28.399999999999995
20
-19.000000000000018
42
0.41421356237309637
10
-28.899999999999999
20
-19.500000000000021
10
-28.899999999999988
20
-28.399999999999999
42
0.41421356237309509
10
-28.399999999999991
20
-28.899999999999999
10
-18.999999999999979
20
-28.900000000000006
10
-19.000000000000004
20
-23.400000000000016
42
0.41421356237309509
0
LWPOLYLINE
5
111
100
AcDbEntity
8
0
100
AcDbPolyline
90
8
70
1
43
0.0
10
-36.600000000000001
20
-41.000000000000014
10
-31.599999999999959
20
-41.000000000000014
42
0.41421356237309509
10
-31.099999999999959
20
-40.500000000000014
10
-31.099999999999959
20
-31.600000000000023
42
0.41421356237309509
10
-31.599999999999959
20
-31.100000000000026
10
-40.5
20
-31.10000000000003
42
0.41421356237309509
10
-41
20
-31.60000000000003
10
-41
20
-36.600000000000023
42
0.41421356237309509
0
LWPOLYLINE
5
112
100
AcDbEntity
8
0
100
AcDbPolyline
90
8
70
1
43
0.0
10
-41
20
-23.400000000000016
10
-41
20
-28.400000000000038
42
0.41421356237309509
10
-40.5
20
-28.900000000000038
10
-31.599999999999987
20
-28.900000000000027
42
0.41421356237309509
10
-31.099999999999991
20
-28.400000000000031
10
-31.099999999999994
20
-19.500000000000018
42
0.41421356237309109
10
-31.59999999999998
20
-19.000000000000018
10
-36.600000000000001
20
-19.000000000000018
42
0.41421356237309509
0
ENDSEC
0
SECTION
2
OBJECTS
0
DICTIONARY
5
C
100
AcDbDictionary
3
ACAD_GROUP
350
D
3
ACAD_MLINESTYLE
350
17
0
DICTIONARY
5
D
100
AcDbDictionary
0
DICTIONARY
5
1A
330
C
100
AcDbDictionary
0
DICTIONARY
5
17
100
AcDbDictionary
0
ENDSEC
0
EOF
